<svg xmlns="http://www.w3.org/2000/svg" xmlns:xlink="http://www.w3.org/1999/xlink" width="500" zoomAndPan="magnify" viewBox="0 0 375 374.999991" height="500" preserveAspectRatio="xMidYMid meet" version="1.0"><defs><clipPath id="c005303d26"><path d="M 75.460938 6.007812 L 229.960938 6.007812 L 229.960938 375 L 75.460938 375 Z M 75.460938 6.007812 " clip-rule="nonzero"/></clipPath><clipPath id="68719761e5"><path d="M 160.773438 179.691406 L 346.023438 179.691406 L 346.023438 364.941406 L 160.773438 364.941406 Z M 160.773438 179.691406 " clip-rule="nonzero"/></clipPath></defs><path fill="#e3e8f6" d="M 99.230469 83.535156 L 99.230469 315.300781 C 99.230469 344.84375 123.175781 368.785156 152.714844 368.785156 C 182.257812 368.785156 206.203125 344.84375 206.203125 315.300781 L 206.203125 83.535156 Z M 99.230469 83.535156 " fill-opacity="1" fill-rule="nonzero"/><path fill="#77d8ce" d="M 99.230469 315.300781 C 99.230469 344.84375 123.175781 368.785156 152.714844 368.785156 C 182.257812 368.785156 206.203125 344.84375 206.203125 315.300781 L 206.203125 119.191406 L 99.230469 119.191406 Z M 99.230469 315.300781 " fill-opacity="1" fill-rule="nonzero"/><path fill="#e3e8f6" d="M 99.230469 166.730469 L 206.203125 166.730469 L 206.203125 285.585938 L 99.230469 285.585938 Z M 99.230469 166.730469 " fill-opacity="1" fill-rule="nonzero"/><path fill="#f8f7fe" d="M 206.203125 166.730469 L 99.230469 166.730469 L 99.230469 178.617188 C 99.230469 237.695312 141.800781 285.585938 194.316406 285.585938 C 198.351562 285.585938 202.296875 285.210938 206.203125 284.667969 Z M 206.203125 166.730469 " fill-opacity="1" fill-rule="nonzero"/><path fill="#77d8ce" d="M 81.402344 35.992188 L 224.03125 35.992188 L 224.03125 83.535156 L 81.402344 83.535156 Z M 81.402344 35.992188 " fill-opacity="1" fill-rule="nonzero"/><path fill="#77d8ce" d="M 105.175781 83.535156 C 101.894531 83.535156 99.230469 80.871094 99.230469 77.589844 L 99.230469 41.933594 C 99.230469 38.652344 101.894531 35.992188 105.175781 35.992188 C 108.453125 35.992188 111.117188 38.652344 111.117188 41.933594 L 111.117188 77.589844 C 111.117188 80.871094 108.453125 83.535156 105.175781 83.535156 Z M 105.175781 83.535156 " fill-opacity="1" fill-rule="nonzero"/><path fill="#77d8ce" d="M 128.945312 83.535156 C 125.664062 83.535156 123.003906 80.871094 123.003906 77.589844 L 123.003906 41.933594 C 123.003906 38.652344 125.664062 35.992188 128.945312 35.992188 C 132.226562 35.992188 134.886719 38.652344 134.886719 41.933594 L 134.886719 77.589844 C 134.886719 80.871094 132.226562 83.535156 128.945312 83.535156 Z M 128.945312 83.535156 " fill-opacity="1" fill-rule="nonzero"/><path fill="#77d8ce" d="M 152.714844 83.535156 C 149.4375 83.535156 146.773438 80.871094 146.773438 77.589844 L 146.773438 41.933594 C 146.773438 38.652344 149.4375 35.992188 152.714844 35.992188 C 155.996094 35.992188 158.660156 38.652344 158.660156 41.933594 L 158.660156 77.589844 C 158.660156 80.871094 155.996094 83.535156 152.714844 83.535156 Z M 152.714844 83.535156 " fill-opacity="1" fill-rule="nonzero"/><path fill="#77d8ce" d="M 176.488281 83.535156 C 173.207031 83.535156 170.542969 80.871094 170.542969 77.589844 L 170.542969 41.933594 C 170.542969 38.652344 173.207031 35.992188 176.488281 35.992188 C 179.769531 35.992188 182.429688 38.652344 182.429688 41.933594 L 182.429688 77.589844 C 182.429688 80.871094 179.769531 83.535156 176.488281 83.535156 Z M 176.488281 83.535156 " fill-opacity="1" fill-rule="nonzero"/><path fill="#77d8ce" d="M 200.257812 83.535156 C 196.976562 83.535156 194.316406 80.871094 194.316406 77.589844 L 194.316406 41.933594 C 194.316406 38.652344 196.976562 35.992188 200.257812 35.992188 C 203.539062 35.992188 206.203125 38.652344 206.203125 41.933594 L 206.203125 77.589844 C 206.203125 80.871094 203.539062 83.535156 200.257812 83.535156 Z M 200.257812 83.535156 " fill-opacity="1" fill-rule="nonzero"/><path fill="#77d8ce" d="M 200.257812 12.21875 L 105.175781 12.21875 C 98.609375 12.21875 93.289062 17.539062 93.289062 24.105469 L 93.289062 35.992188 L 212.144531 35.992188 L 212.144531 24.105469 C 212.144531 17.539062 206.824219 12.21875 200.257812 12.21875 Z M 200.257812 12.21875 " fill-opacity="1" fill-rule="nonzero"/><path fill="#77d8ce" d="M 173.8125 228.996094 C 181.300781 242.652344 172.382812 259.898438 155.757812 261.65625 C 154.761719 261.761719 153.746094 261.816406 152.714844 261.816406 C 151.6875 261.816406 150.671875 261.761719 149.679688 261.65625 C 133.050781 259.898438 124.136719 242.652344 131.625 228.996094 L 152.714844 190.503906 Z M 173.8125 228.996094 " fill-opacity="1" fill-rule="nonzero"/><path fill="#77d8ce" d="M 123.003906 321.242188 L 134.886719 321.242188 L 134.886719 333.128906 L 123.003906 333.128906 Z M 123.003906 321.242188 " fill-opacity="1" fill-rule="nonzero"/><path fill="#77d8ce" d="M 170.542969 327.1875 L 182.429688 327.1875 L 182.429688 339.070312 L 170.542969 339.070312 Z M 170.542969 327.1875 " fill-opacity="1" fill-rule="nonzero"/><path fill="#77d8ce" d="M 146.773438 303.414062 L 158.660156 303.414062 L 158.660156 315.300781 L 146.773438 315.300781 Z M 146.773438 303.414062 " fill-opacity="1" fill-rule="nonzero"/><path fill="#77d8ce" d="M 123.003906 142.960938 L 134.886719 142.960938 L 134.886719 154.847656 L 123.003906 154.847656 Z M 123.003906 142.960938 " fill-opacity="1" fill-rule="nonzero"/><path fill="#77d8ce" d="M 170.542969 131.074219 L 182.429688 131.074219 L 182.429688 142.960938 L 170.542969 142.960938 Z M 170.542969 131.074219 " fill-opacity="1" fill-rule="nonzero"/><path fill="#77d8ce" d="M 152.714844 190.503906 L 134.179688 224.324219 C 141.085938 239.964844 154.238281 251.515625 170.035156 254.851562 C 176.59375 248.175781 178.667969 237.84375 173.8125 228.988281 Z M 152.714844 190.503906 " fill-opacity="1" fill-rule="nonzero"/><g clip-path="url(#c005303d26)"><path fill="#007c6f" d="M 224.03125 30.046875 L 218.085938 30.046875 L 218.085938 24.105469 C 218.085938 14.277344 210.089844 6.277344 200.257812 6.277344 L 105.175781 6.277344 C 95.34375 6.277344 87.347656 14.277344 87.347656 24.105469 L 87.347656 30.046875 L 81.402344 30.046875 C 78.117188 30.046875 75.460938 32.703125 75.460938 35.992188 L 75.460938 83.535156 C 75.460938 86.820312 78.117188 89.476562 81.402344 89.476562 L 93.289062 89.476562 L 93.289062 315.300781 C 93.289062 348.070312 119.949219 374.730469 152.714844 374.730469 C 185.484375 374.730469 212.144531 348.070312 212.144531 315.300781 L 212.144531 89.476562 L 224.03125 89.476562 C 227.316406 89.476562 229.972656 86.820312 229.972656 83.535156 L 229.972656 35.992188 C 229.972656 32.703125 227.316406 30.046875 224.03125 30.046875 Z M 99.230469 24.105469 C 99.230469 20.824219 101.894531 18.164062 105.175781 18.164062 L 200.257812 18.164062 C 203.539062 18.164062 206.203125 20.824219 206.203125 24.105469 L 206.203125 30.046875 L 99.230469 30.046875 Z M 182.429688 77.589844 L 182.429688 41.933594 L 194.316406 41.933594 L 194.316406 77.589844 Z M 123.003906 41.933594 L 123.003906 77.589844 L 111.117188 77.589844 L 111.117188 41.933594 Z M 134.886719 41.933594 L 146.773438 41.933594 L 146.773438 77.589844 L 134.886719 77.589844 Z M 158.660156 41.933594 L 170.542969 41.933594 L 170.542969 77.589844 L 158.660156 77.589844 Z M 87.347656 41.933594 L 99.230469 41.933594 L 99.230469 77.589844 L 87.347656 77.589844 Z M 105.175781 172.675781 L 200.257812 172.675781 L 200.257812 279.644531 L 105.175781 279.644531 Z M 105.175781 160.789062 L 105.175781 125.132812 L 200.257812 125.132812 L 200.257812 160.789062 Z M 152.714844 362.84375 C 126.503906 362.84375 105.175781 341.515625 105.175781 315.300781 L 105.175781 291.53125 L 200.257812 291.53125 L 200.257812 315.300781 C 200.257812 341.515625 178.929688 362.84375 152.714844 362.84375 Z M 200.257812 113.246094 L 105.175781 113.246094 L 105.175781 89.476562 L 200.257812 89.476562 Z M 218.085938 77.589844 L 206.203125 77.589844 L 206.203125 41.933594 L 218.085938 41.933594 Z M 218.085938 77.589844 " fill-opacity="1" fill-rule="nonzero"/></g><path fill="#007c6f" d="M 179.023438 226.136719 L 157.929688 187.644531 C 155.835938 183.835938 149.597656 183.835938 147.503906 187.644531 L 126.40625 226.136719 C 121.960938 234.246094 121.878906 244.015625 126.199219 252.265625 C 130.664062 260.804688 139.203125 266.515625 149.027344 267.558594 C 150.234375 267.695312 151.46875 267.757812 152.714844 267.757812 C 153.964844 267.757812 155.199219 267.695312 156.382812 267.5625 C 166.222656 266.523438 174.769531 260.804688 179.234375 252.273438 C 183.546875 244.019531 183.46875 234.246094 179.023438 226.136719 Z M 168.695312 246.761719 C 166.046875 251.839844 161.101562 255.113281 155.105469 255.75 C 153.523438 255.921875 151.925781 255.921875 150.296875 255.75 C 144.324219 255.117188 139.382812 251.84375 136.730469 246.761719 C 134.222656 241.972656 134.257812 236.535156 136.832031 231.847656 L 152.714844 202.863281 L 168.601562 231.847656 C 171.167969 236.535156 171.203125 241.972656 168.695312 246.761719 Z M 168.695312 246.761719 " fill-opacity="1" fill-rule="nonzero"/><path fill="#007c6f" d="M 123.003906 321.242188 L 134.886719 321.242188 L 134.886719 333.128906 L 123.003906 333.128906 Z M 123.003906 321.242188 " fill-opacity="1" fill-rule="nonzero"/><path fill="#007c6f" d="M 170.542969 327.1875 L 182.429688 327.1875 L 182.429688 339.070312 L 170.542969 339.070312 Z M 170.542969 327.1875 " fill-opacity="1" fill-rule="nonzero"/><path fill="#007c6f" d="M 146.773438 303.414062 L 158.660156 303.414062 L 158.660156 315.300781 L 146.773438 315.300781 Z M 146.773438 303.414062 " fill-opacity="1" fill-rule="nonzero"/><path fill="#007c6f" d="M 123.003906 142.960938 L 134.886719 142.960938 L 134.886719 154.847656 L 123.003906 154.847656 Z M 123.003906 142.960938 " fill-opacity="1" fill-rule="nonzero"/><path fill="#007c6f" d="M 170.542969 131.074219 L 182.429688 131.074219 L 182.429688 142.960938 L 170.542969 142.960938 Z M 170.542969 131.074219 " fill-opacity="1" fill-rule="nonzero"/><path fill="#eb9c3d" d="M 344.148438 272.371094 C 344.148438 322.460938 303.542969 363.066406 253.453125 363.066406 C 203.363281 363.066406 162.753906 322.460938 162.753906 272.371094 C 162.753906 222.28125 203.363281 181.675781 253.453125 181.675781 C 303.542969 181.675781 344.148438 222.28125 344.148438 272.371094 " fill-opacity="1" fill-rule="nonzero"/><g clip-path="url(#68719761e5)"><path fill="#007c6f" d="M 344.148438 272.371094 L 342.152344 272.371094 C 342.152344 296.871094 332.226562 319.035156 316.171875 335.09375 C 300.113281 351.148438 277.953125 361.070312 253.453125 361.070312 C 228.953125 361.070312 206.789062 351.148438 190.730469 335.09375 C 174.675781 319.035156 164.753906 296.871094 164.75 272.371094 C 164.753906 247.871094 174.675781 225.707031 190.730469 209.652344 C 206.789062 193.597656 228.953125 183.671875 253.453125 183.671875 C 277.953125 183.671875 300.113281 193.597656 316.171875 209.652344 C 332.226562 225.707031 342.152344 247.871094 342.152344 272.371094 L 346.144531 272.371094 C 346.148438 246.78125 335.765625 223.59375 318.996094 206.828125 C 302.226562 190.058594 279.042969 179.679688 253.453125 179.679688 C 227.863281 179.679688 204.675781 190.058594 187.90625 206.828125 C 171.136719 223.59375 160.757812 246.78125 160.757812 272.371094 C 160.757812 297.960938 171.136719 321.148438 187.90625 337.914062 C 204.675781 354.6875 227.863281 365.066406 253.453125 365.066406 C 279.042969 365.066406 302.226562 354.6875 318.996094 337.914062 C 335.765625 321.148438 346.148438 297.960938 346.144531 272.371094 L 344.148438 272.371094 " fill-opacity="1" fill-rule="nonzero"/></g><path fill="#ffffff" d="M 329.863281 272.371094 C 329.863281 314.574219 295.652344 348.78125 253.453125 348.78125 C 211.253906 348.78125 177.039062 314.574219 177.039062 272.371094 C 177.039062 230.171875 211.253906 195.957031 253.453125 195.957031 C 295.652344 195.957031 329.863281 230.171875 329.863281 272.371094 " fill-opacity="1" fill-rule="nonzero"/><path fill="#007c6f" d="M 329.863281 272.371094 L 327.867188 272.371094 C 327.867188 292.925781 319.539062 311.515625 306.070312 324.992188 C 292.597656 338.460938 274.007812 346.785156 253.453125 346.785156 C 232.898438 346.785156 214.308594 338.460938 200.835938 324.992188 C 187.363281 311.515625 179.039062 292.925781 179.039062 272.371094 C 179.039062 251.816406 187.363281 233.226562 200.835938 219.753906 C 214.308594 206.28125 232.898438 197.957031 253.453125 197.957031 C 274.007812 197.957031 292.597656 206.28125 306.070312 219.753906 C 319.539062 233.226562 327.867188 251.816406 327.867188 272.371094 L 331.859375 272.371094 C 331.859375 250.726562 323.078125 231.113281 308.894531 216.929688 C 294.710938 202.742188 275.097656 193.960938 253.453125 193.964844 C 231.808594 193.960938 212.191406 202.742188 198.007812 216.929688 C 183.824219 231.113281 175.042969 250.726562 175.046875 272.371094 C 175.042969 294.015625 183.824219 313.628906 198.007812 327.8125 C 212.191406 342 231.808594 350.78125 253.453125 350.777344 C 275.097656 350.78125 294.710938 342 308.894531 327.8125 C 323.078125 313.628906 331.859375 294.015625 331.859375 272.371094 L 329.863281 272.371094 " fill-opacity="1" fill-rule="nonzero"/><path fill="#ffffff" d="M 318.863281 232.867188 L 306.976562 240.046875 " fill-opacity="1" fill-rule="nonzero"/><path fill="#007c6f" d="M 317.828125 231.160156 L 305.941406 238.335938 C 305 238.90625 304.695312 240.136719 305.265625 241.078125 C 305.835938 242.019531 307.0625 242.324219 308.007812 241.753906 L 319.894531 234.578125 C 320.835938 234.007812 321.140625 232.78125 320.570312 231.835938 C 320 230.890625 318.773438 230.589844 317.828125 231.160156 " fill-opacity="1" fill-rule="nonzero"/><path fill="#ffffff" d="M 199.929688 304.695312 L 188.046875 311.871094 " fill-opacity="1" fill-rule="nonzero"/><path fill="#007c6f" d="M 198.898438 302.984375 L 187.011719 310.164062 C 186.070312 310.734375 185.765625 311.960938 186.335938 312.90625 C 186.90625 313.847656 188.132812 314.152344 189.078125 313.582031 L 200.960938 306.402344 C 201.90625 305.835938 202.210938 304.605469 201.640625 303.660156 C 201.070312 302.71875 199.839844 302.414062 198.898438 302.984375 " fill-opacity="1" fill-rule="nonzero"/><path fill="#ffffff" d="M 292.460938 206.667969 L 285.371094 218.605469 " fill-opacity="1" fill-rule="nonzero"/><path fill="#007c6f" d="M 290.742188 205.644531 L 283.65625 217.585938 C 283.09375 218.535156 283.40625 219.761719 284.351562 220.324219 C 285.300781 220.886719 286.527344 220.574219 287.089844 219.625 L 294.179688 207.683594 C 294.742188 206.738281 294.429688 205.511719 293.480469 204.949219 C 292.53125 204.386719 291.304688 204.699219 290.742188 205.644531 " fill-opacity="1" fill-rule="nonzero"/><path fill="#ffffff" d="M 221.53125 326.132812 L 214.441406 338.070312 " fill-opacity="1" fill-rule="nonzero"/><path fill="#007c6f" d="M 219.816406 325.113281 L 212.726562 337.054688 C 212.164062 338.003906 212.476562 339.226562 213.425781 339.789062 C 214.371094 340.351562 215.597656 340.042969 216.160156 339.09375 L 223.25 327.152344 C 223.8125 326.207031 223.5 324.980469 222.550781 324.417969 C 221.601562 323.855469 220.378906 324.167969 219.816406 325.113281 " fill-opacity="1" fill-rule="nonzero"/><path fill="#007c6f" d="M 329.863281 270.371094 L 315.980469 270.371094 C 314.878906 270.371094 313.984375 271.265625 313.984375 272.371094 C 313.984375 273.472656 314.878906 274.367188 315.980469 274.367188 L 329.863281 274.367188 C 330.96875 274.367188 331.859375 273.472656 331.859375 272.371094 C 331.859375 271.265625 330.96875 270.371094 329.863281 270.371094 " fill-opacity="1" fill-rule="nonzero"/><path fill="#007c6f" d="M 190.929688 270.371094 L 177.039062 270.371094 C 175.9375 270.371094 175.046875 271.265625 175.046875 272.371094 C 175.046875 273.472656 175.9375 274.367188 177.039062 274.367188 L 190.929688 274.367188 C 192.03125 274.367188 192.925781 273.472656 192.925781 272.371094 C 192.925781 271.265625 192.03125 270.371094 190.929688 270.371094 " fill-opacity="1" fill-rule="nonzero"/><path fill="#ffffff" d="M 186.082031 236.316406 L 198.324219 242.871094 " fill-opacity="1" fill-rule="nonzero"/><path fill="#007c6f" d="M 185.140625 238.082031 L 197.382812 244.628906 C 198.355469 245.152344 199.566406 244.785156 200.082031 243.8125 C 200.605469 242.839844 200.238281 241.628906 199.265625 241.109375 L 187.023438 234.558594 C 186.050781 234.039062 184.839844 234.40625 184.324219 235.378906 C 183.800781 236.347656 184.167969 237.558594 185.140625 238.082031 " fill-opacity="1" fill-rule="nonzero"/><path fill="#ffffff" d="M 308.582031 301.871094 L 320.824219 308.421875 " fill-opacity="1" fill-rule="nonzero"/><path fill="#007c6f" d="M 307.640625 303.632812 L 319.882812 310.183594 C 320.851562 310.703125 322.0625 310.335938 322.585938 309.363281 C 323.101562 308.390625 322.738281 307.183594 321.765625 306.664062 L 309.523438 300.113281 C 308.550781 299.59375 307.34375 299.957031 306.820312 300.929688 C 306.300781 301.902344 306.667969 303.113281 307.640625 303.632812 " fill-opacity="1" fill-rule="nonzero"/><path fill="#ffffff" d="M 212.035156 208.160156 L 219.5625 219.828125 " fill-opacity="1" fill-rule="nonzero"/><path fill="#007c6f" d="M 210.355469 209.242188 L 217.882812 220.910156 C 218.480469 221.835938 219.71875 222.101562 220.644531 221.503906 C 221.570312 220.90625 221.839844 219.671875 221.238281 218.746094 L 213.710938 207.078125 C 213.113281 206.148438 211.878906 205.882812 210.953125 206.480469 C 210.027344 207.078125 209.761719 208.3125 210.355469 209.242188 " fill-opacity="1" fill-rule="nonzero"/><path fill="#ffffff" d="M 287.34375 324.914062 L 294.871094 336.582031 " fill-opacity="1" fill-rule="nonzero"/><path fill="#007c6f" d="M 285.667969 325.996094 L 293.191406 337.664062 C 293.789062 338.589844 295.027344 338.859375 295.953125 338.257812 C 296.878906 337.660156 297.144531 336.425781 296.550781 335.5 L 289.023438 323.832031 C 288.421875 322.90625 287.1875 322.640625 286.261719 323.238281 C 285.335938 323.835938 285.070312 325.070312 285.667969 325.996094 " fill-opacity="1" fill-rule="nonzero"/><path fill="#007c6f" d="M 251.453125 195.957031 L 251.453125 209.84375 C 251.453125 210.949219 252.347656 211.84375 253.453125 211.84375 C 254.554688 211.84375 255.449219 210.949219 255.449219 209.84375 L 255.449219 195.957031 C 255.449219 194.855469 254.554688 193.964844 253.453125 193.964844 C 252.347656 193.964844 251.453125 194.855469 251.453125 195.957031 " fill-opacity="1" fill-rule="nonzero"/><path fill="#007c6f" d="M 251.453125 334.898438 L 251.453125 348.78125 C 251.453125 349.882812 252.347656 350.777344 253.453125 350.777344 C 254.554688 350.777344 255.449219 349.882812 255.449219 348.78125 L 255.449219 334.898438 C 255.449219 333.792969 254.554688 332.902344 253.453125 332.902344 C 252.347656 332.902344 251.453125 333.792969 251.453125 334.898438 " fill-opacity="1" fill-rule="nonzero"/><path fill="#007c6f" d="M 254.617188 268.875 C 254.617188 269.519531 254.097656 270.039062 253.453125 270.039062 C 252.808594 270.039062 252.285156 269.519531 252.285156 268.875 L 252.285156 234.035156 C 252.285156 233.390625 252.808594 232.867188 253.453125 232.867188 C 254.097656 232.867188 254.617188 233.390625 254.617188 234.035156 L 254.617188 268.875 " fill-opacity="1" fill-rule="nonzero"/><path fill="#007c6f" d="M 279.570312 299.078125 C 278.878906 299.75 277.769531 299.738281 277.09375 299.046875 L 253.949219 275.339844 C 253.277344 274.648438 253.289062 273.542969 253.976562 272.867188 C 254.667969 272.191406 255.777344 272.207031 256.449219 272.898438 L 279.597656 296.605469 C 280.273438 297.296875 280.261719 298.402344 279.570312 299.078125 " fill-opacity="1" fill-rule="nonzero"/><path fill="#eb9c3d" d="M 254.617188 271.496094 C 254.617188 272.160156 254.222656 272.699219 253.742188 272.699219 L 205.457031 272.699219 C 204.972656 272.699219 204.578125 272.160156 204.578125 271.496094 C 204.578125 270.832031 204.972656 270.292969 205.457031 270.292969 L 253.742188 270.292969 C 254.222656 270.292969 254.617188 270.832031 254.617188 271.496094 " fill-opacity="1" fill-rule="nonzero"/><path fill="#007c6f" d="M 260.410156 272.371094 C 260.410156 276.214844 257.296875 279.328125 253.453125 279.328125 C 249.609375 279.328125 246.492188 276.214844 246.492188 272.371094 C 246.492188 268.527344 249.609375 265.410156 253.453125 265.410156 C 257.296875 265.410156 260.410156 268.527344 260.410156 272.371094 " fill-opacity="1" fill-rule="nonzero"/></svg>