<svg xmlns="http://www.w3.org/2000/svg" xmlns:xlink="http://www.w3.org/1999/xlink" width="500" zoomAndPan="magnify" viewBox="0 0 375 374.999991" height="500" preserveAspectRatio="xMidYMid meet" version="1.0"><defs><clipPath id="d377bd498a"><path d="M 16.8125 2 L 358.0625 2 L 358.0625 371 L 16.8125 371 Z M 16.8125 2 " clip-rule="nonzero"/></clipPath></defs><g clip-path="url(#d377bd498a)"><path fill="#5cc3b2" d="M 69.328125 147.121094 C 69.328125 146.257812 69.414062 145.402344 69.582031 144.558594 C 69.75 143.714844 70 142.890625 70.328125 142.09375 C 70.660156 141.300781 71.0625 140.542969 71.542969 139.824219 C 72.019531 139.109375 72.566406 138.445312 73.175781 137.835938 C 73.785156 137.226562 74.449219 136.683594 75.164062 136.203125 C 75.882812 135.722656 76.636719 135.320312 77.433594 134.988281 C 78.230469 134.660156 79.050781 134.410156 79.898438 134.242188 C 80.742188 134.074219 81.597656 133.992188 82.457031 133.992188 L 213.753906 133.992188 C 214.617188 133.992188 215.46875 134.074219 216.316406 134.242188 C 217.160156 134.410156 217.980469 134.660156 218.777344 134.988281 C 219.574219 135.320312 220.332031 135.722656 221.046875 136.203125 C 221.765625 136.683594 222.429688 137.226562 223.039062 137.835938 C 223.648438 138.445312 224.191406 139.109375 224.671875 139.824219 C 225.148438 140.542969 225.554688 141.300781 225.882812 142.09375 C 226.214844 142.890625 226.460938 143.714844 226.628906 144.558594 C 226.800781 145.402344 226.882812 146.257812 226.882812 147.121094 C 226.882812 147.980469 226.800781 148.835938 226.628906 149.679688 C 226.460938 150.527344 226.214844 151.347656 225.882812 152.144531 C 225.554688 152.941406 225.148438 153.699219 224.671875 154.414062 C 224.191406 155.132812 223.648438 155.792969 223.039062 156.402344 C 222.429688 157.011719 221.765625 157.558594 221.046875 158.035156 C 220.332031 158.515625 219.574219 158.921875 218.777344 159.25 C 217.980469 159.578125 217.160156 159.828125 216.316406 159.996094 C 215.46875 160.164062 214.617188 160.25 213.753906 160.25 L 82.457031 160.25 C 81.597656 160.25 80.742188 160.164062 79.898438 159.996094 C 79.050781 159.828125 78.230469 159.578125 77.433594 159.25 C 76.636719 158.921875 75.882812 158.515625 75.164062 158.035156 C 74.449219 157.558594 73.785156 157.011719 73.175781 156.402344 C 72.566406 155.792969 72.019531 155.132812 71.542969 154.414062 C 71.0625 153.699219 70.660156 152.941406 70.328125 152.144531 C 70 151.347656 69.75 150.527344 69.582031 149.679688 C 69.414062 148.835938 69.328125 147.980469 69.328125 147.121094 Z M 82.457031 212.765625 L 174.363281 212.765625 C 175.226562 212.765625 176.082031 212.683594 176.925781 212.515625 C 177.773438 212.347656 178.59375 212.097656 179.390625 211.769531 C 180.1875 211.4375 180.941406 211.035156 181.660156 210.554688 C 182.375 210.074219 183.039062 209.53125 183.648438 208.921875 C 184.257812 208.3125 184.804688 207.648438 185.28125 206.933594 C 185.761719 206.214844 186.164062 205.457031 186.496094 204.664062 C 186.824219 203.867188 187.074219 203.042969 187.242188 202.199219 C 187.410156 201.355469 187.496094 200.5 187.496094 199.636719 C 187.496094 198.777344 187.410156 197.921875 187.242188 197.078125 C 187.074219 196.230469 186.824219 195.410156 186.496094 194.613281 C 186.164062 193.816406 185.761719 193.058594 185.28125 192.34375 C 184.804688 191.625 184.257812 190.964844 183.648438 190.355469 C 183.039062 189.746094 182.375 189.199219 181.660156 188.722656 C 180.941406 188.242188 180.1875 187.835938 179.390625 187.507812 C 178.59375 187.179688 177.773438 186.929688 176.925781 186.761719 C 176.082031 186.59375 175.226562 186.507812 174.363281 186.507812 L 82.457031 186.507812 C 81.597656 186.507812 80.742188 186.59375 79.898438 186.761719 C 79.050781 186.929688 78.230469 187.179688 77.433594 187.507812 C 76.636719 187.835938 75.882812 188.242188 75.164062 188.722656 C 74.449219 189.199219 73.785156 189.746094 73.175781 190.355469 C 72.566406 190.964844 72.019531 191.625 71.542969 192.34375 C 71.0625 193.058594 70.660156 193.816406 70.328125 194.613281 C 70 195.410156 69.75 196.230469 69.582031 197.078125 C 69.414062 197.921875 69.328125 198.777344 69.328125 199.636719 C 69.328125 200.5 69.414062 201.355469 69.582031 202.199219 C 69.75 203.042969 70 203.867188 70.328125 204.664062 C 70.660156 205.457031 71.0625 206.214844 71.542969 206.933594 C 72.019531 207.648438 72.566406 208.3125 73.175781 208.921875 C 73.785156 209.53125 74.449219 210.074219 75.164062 210.554688 C 75.882812 211.035156 76.636719 211.4375 77.433594 211.769531 C 78.230469 212.097656 79.050781 212.347656 79.898438 212.515625 C 80.742188 212.683594 81.597656 212.765625 82.457031 212.765625 Z M 82.457031 265.285156 L 134.976562 265.285156 C 135.839844 265.285156 136.691406 265.203125 137.539062 265.03125 C 138.382812 264.863281 139.203125 264.617188 140 264.285156 C 140.796875 263.957031 141.554688 263.550781 142.269531 263.074219 C 142.988281 262.59375 143.652344 262.050781 144.261719 261.441406 C 144.871094 260.832031 145.414062 260.167969 145.894531 259.449219 C 146.371094 258.734375 146.777344 257.976562 147.105469 257.179688 C 147.4375 256.382812 147.6875 255.5625 147.855469 254.71875 C 148.023438 253.871094 148.105469 253.019531 148.105469 252.15625 C 148.105469 251.292969 148.023438 250.441406 147.855469 249.59375 C 147.6875 248.75 147.4375 247.929688 147.105469 247.132812 C 146.777344 246.335938 146.371094 245.578125 145.894531 244.863281 C 145.414062 244.144531 144.871094 243.480469 144.261719 242.871094 C 143.652344 242.261719 142.988281 241.71875 142.269531 241.238281 C 141.554688 240.761719 140.796875 240.355469 140 240.027344 C 139.203125 239.695312 138.382812 239.445312 137.539062 239.277344 C 136.691406 239.109375 135.839844 239.027344 134.976562 239.027344 L 82.457031 239.027344 C 81.597656 239.027344 80.742188 239.109375 79.898438 239.277344 C 79.050781 239.445312 78.230469 239.695312 77.433594 240.027344 C 76.636719 240.355469 75.882812 240.761719 75.164062 241.238281 C 74.449219 241.71875 73.785156 242.261719 73.175781 242.871094 C 72.566406 243.480469 72.019531 244.144531 71.542969 244.863281 C 71.0625 245.578125 70.660156 246.335938 70.328125 247.132812 C 70 247.929688 69.75 248.75 69.582031 249.59375 C 69.414062 250.441406 69.328125 251.292969 69.328125 252.15625 C 69.328125 253.019531 69.414062 253.871094 69.582031 254.71875 C 69.75 255.5625 70 256.382812 70.328125 257.179688 C 70.660156 257.976562 71.0625 258.734375 71.542969 259.449219 C 72.019531 260.167969 72.566406 260.832031 73.175781 261.441406 C 73.785156 262.050781 74.449219 262.59375 75.164062 263.074219 C 75.882812 263.550781 76.636719 263.957031 77.433594 264.285156 C 78.230469 264.617188 79.050781 264.863281 79.898438 265.03125 C 80.742188 265.203125 81.597656 265.285156 82.457031 265.285156 Z M 358.179688 278.414062 C 358.175781 280.839844 358.078125 283.261719 357.882812 285.675781 C 357.691406 288.09375 357.402344 290.5 357.015625 292.894531 C 356.632812 295.289062 356.15625 297.664062 355.582031 300.019531 C 355.011719 302.375 354.347656 304.703125 353.589844 307.007812 C 352.832031 309.3125 351.984375 311.582031 351.050781 313.816406 C 350.113281 316.054688 349.089844 318.25 347.980469 320.40625 C 346.871094 322.5625 345.675781 324.671875 344.398438 326.730469 C 343.125 328.792969 341.765625 330.800781 340.332031 332.753906 C 338.894531 334.707031 337.382812 336.601562 335.800781 338.4375 C 334.214844 340.269531 332.558594 342.039062 330.832031 343.742188 C 329.105469 345.445312 327.316406 347.078125 325.460938 348.640625 C 323.605469 350.199219 321.691406 351.6875 319.71875 353.097656 C 317.746094 354.507812 315.722656 355.835938 313.644531 357.085938 C 311.566406 358.335938 309.445312 359.5 307.273438 360.582031 C 305.105469 361.664062 302.894531 362.660156 300.644531 363.566406 C 298.398438 364.472656 296.117188 365.289062 293.800781 366.015625 C 291.488281 366.742188 289.152344 367.375 286.789062 367.917969 C 284.425781 368.457031 282.042969 368.90625 279.644531 369.257812 C 277.246094 369.609375 274.835938 369.867188 272.417969 370.03125 C 270 370.191406 267.578125 370.257812 265.152344 370.230469 C 262.726562 370.199219 260.308594 370.074219 257.894531 369.851562 C 255.480469 369.632812 253.078125 369.316406 250.6875 368.90625 C 248.296875 368.492188 245.929688 367.988281 243.578125 367.390625 C 241.230469 366.792969 238.90625 366.101562 236.613281 365.320312 C 234.316406 364.535156 232.058594 363.664062 229.832031 362.703125 C 227.605469 361.742188 225.421875 360.695312 223.277344 359.558594 C 221.136719 358.425781 219.039062 357.207031 216.992188 355.90625 C 214.945312 354.609375 212.953125 353.230469 211.015625 351.769531 C 209.078125 350.3125 207.203125 348.78125 205.386719 347.175781 C 203.570312 345.570312 201.820312 343.894531 200.136719 342.148438 C 198.453125 340.40625 196.839844 338.597656 195.300781 336.722656 C 193.761719 334.851562 192.296875 332.921875 190.910156 330.933594 L 56.199219 330.933594 C 54.910156 330.933594 53.621094 330.871094 52.339844 330.742188 C 51.054688 330.617188 49.78125 330.429688 48.515625 330.175781 C 47.25 329.925781 46 329.613281 44.765625 329.238281 C 43.53125 328.863281 42.316406 328.429688 41.125 327.933594 C 39.933594 327.441406 38.769531 326.890625 37.632812 326.28125 C 36.496094 325.675781 35.390625 325.011719 34.316406 324.292969 C 33.242188 323.578125 32.207031 322.808594 31.210938 321.992188 C 30.214844 321.171875 29.261719 320.308594 28.347656 319.394531 C 27.433594 318.484375 26.570312 317.53125 25.75 316.53125 C 24.933594 315.535156 24.164062 314.5 23.449219 313.425781 C 22.734375 312.355469 22.070312 311.25 21.460938 310.113281 C 20.855469 308.972656 20.304688 307.808594 19.808594 306.617188 C 19.316406 305.425781 18.882812 304.210938 18.507812 302.976562 C 18.132812 301.742188 17.820312 300.492188 17.566406 299.230469 C 17.316406 297.964844 17.128906 296.6875 17 295.40625 C 16.875 294.121094 16.8125 292.835938 16.8125 291.542969 C 16.8125 290.683594 16.894531 289.828125 17.0625 288.984375 C 17.230469 288.136719 17.480469 287.316406 17.808594 286.519531 C 18.140625 285.722656 18.542969 284.96875 19.023438 284.25 C 19.503906 283.535156 20.046875 282.871094 20.65625 282.261719 C 21.265625 281.652344 21.929688 281.105469 22.644531 280.628906 C 23.363281 280.148438 24.121094 279.746094 24.917969 279.414062 C 25.710938 279.085938 26.535156 278.835938 27.378906 278.667969 C 28.226562 278.5 29.078125 278.414062 29.941406 278.414062 C 30.800781 278.414062 31.65625 278.5 32.503906 278.667969 C 33.347656 278.835938 34.167969 279.085938 34.964844 279.414062 C 35.761719 279.746094 36.519531 280.148438 37.234375 280.628906 C 37.953125 281.105469 38.613281 281.652344 39.222656 282.261719 C 39.835938 282.871094 40.378906 283.535156 40.855469 284.25 C 41.335938 284.96875 41.742188 285.722656 42.070312 286.519531 C 42.402344 287.316406 42.648438 288.136719 42.816406 288.984375 C 42.984375 289.828125 43.070312 290.683594 43.070312 291.542969 C 43.070312 292.40625 43.152344 293.261719 43.324219 294.105469 C 43.492188 294.953125 43.738281 295.773438 44.070312 296.570312 C 44.398438 297.367188 44.804688 298.121094 45.28125 298.839844 C 45.761719 299.554688 46.304688 300.21875 46.914062 300.828125 C 47.523438 301.4375 48.1875 301.980469 48.90625 302.460938 C 49.621094 302.941406 50.378906 303.34375 51.175781 303.675781 C 51.972656 304.003906 52.792969 304.253906 53.636719 304.421875 C 54.484375 304.589844 55.335938 304.675781 56.199219 304.675781 L 178.171875 304.675781 C 175.675781 296.097656 174.40625 287.347656 174.363281 278.414062 C 174.367188 275.683594 174.492188 272.953125 174.738281 270.234375 C 174.984375 267.511719 175.351562 264.804688 175.839844 262.117188 C 176.328125 259.429688 176.933594 256.765625 177.660156 254.132812 C 178.386719 251.496094 179.226562 248.902344 180.183594 246.339844 C 181.140625 243.78125 182.210938 241.269531 183.390625 238.804688 C 184.570312 236.339844 185.859375 233.933594 187.253906 231.582031 C 188.652344 229.234375 190.148438 226.953125 191.746094 224.734375 C 193.347656 222.519531 195.042969 220.378906 196.832031 218.316406 C 198.621094 216.25 200.5 214.269531 202.46875 212.371094 C 204.433594 210.476562 206.480469 208.667969 208.609375 206.953125 C 210.738281 205.242188 212.9375 203.625 215.210938 202.105469 C 217.484375 200.585938 219.816406 199.171875 222.214844 197.863281 C 224.613281 196.554688 227.066406 195.351562 229.570312 194.261719 C 232.078125 193.171875 234.625 192.191406 237.21875 191.328125 C 239.8125 190.464844 242.4375 189.71875 245.097656 189.089844 C 247.753906 188.460938 250.4375 187.949219 253.140625 187.558594 L 253.140625 81.472656 C 253.140625 80.609375 253.058594 79.757812 252.890625 78.910156 C 252.722656 78.066406 252.472656 77.246094 252.144531 76.449219 C 251.8125 75.652344 251.410156 74.894531 250.929688 74.179688 C 250.449219 73.460938 249.90625 72.796875 249.296875 72.1875 C 248.6875 71.578125 248.023438 71.035156 247.308594 70.554688 C 246.589844 70.078125 245.832031 69.671875 245.035156 69.34375 C 244.242188 69.011719 243.417969 68.761719 242.574219 68.59375 C 241.730469 68.425781 240.875 68.34375 240.011719 68.34375 L 226.882812 68.34375 L 226.882812 94.601562 C 226.882812 95.464844 226.800781 96.316406 226.628906 97.164062 C 226.460938 98.007812 226.214844 98.828125 225.882812 99.625 C 225.554688 100.421875 225.148438 101.179688 224.671875 101.894531 C 224.191406 102.613281 223.648438 103.277344 223.039062 103.886719 C 222.429688 104.496094 221.765625 105.039062 221.046875 105.519531 C 220.332031 105.996094 219.574219 106.402344 218.777344 106.730469 C 217.980469 107.0625 217.160156 107.3125 216.316406 107.480469 C 215.46875 107.648438 214.617188 107.730469 213.753906 107.730469 L 82.457031 107.730469 C 81.597656 107.730469 80.742188 107.648438 79.898438 107.480469 C 79.050781 107.3125 78.230469 107.0625 77.433594 106.730469 C 76.636719 106.402344 75.882812 105.996094 75.164062 105.519531 C 74.449219 105.039062 73.785156 104.496094 73.175781 103.886719 C 72.566406 103.277344 72.019531 102.613281 71.542969 101.894531 C 71.0625 101.179688 70.660156 100.421875 70.328125 99.625 C 70 98.828125 69.75 98.007812 69.582031 97.164062 C 69.414062 96.316406 69.328125 95.464844 69.328125 94.601562 L 69.328125 68.34375 L 56.199219 68.34375 C 55.335938 68.34375 54.484375 68.425781 53.636719 68.59375 C 52.792969 68.761719 51.972656 69.011719 51.175781 69.34375 C 50.378906 69.671875 49.621094 70.078125 48.90625 70.554688 C 48.1875 71.035156 47.523438 71.578125 46.914062 72.1875 C 46.304688 72.796875 45.761719 73.460938 45.28125 74.179688 C 44.804688 74.894531 44.398438 75.652344 44.070312 76.449219 C 43.738281 77.246094 43.492188 78.066406 43.324219 78.910156 C 43.152344 79.757812 43.070312 80.609375 43.070312 81.472656 L 43.070312 173.378906 C 43.070312 174.242188 42.984375 175.09375 42.816406 175.941406 C 42.648438 176.785156 42.402344 177.605469 42.070312 178.402344 C 41.742188 179.199219 41.335938 179.957031 40.855469 180.671875 C 40.378906 181.390625 39.835938 182.054688 39.222656 182.664062 C 38.613281 183.273438 37.953125 183.816406 37.234375 184.296875 C 36.519531 184.773438 35.761719 185.179688 34.964844 185.507812 C 34.167969 185.839844 33.347656 186.089844 32.503906 186.257812 C 31.65625 186.425781 30.800781 186.507812 29.941406 186.507812 C 29.078125 186.507812 28.226562 186.425781 27.378906 186.257812 C 26.535156 186.089844 25.710938 185.839844 24.917969 185.507812 C 24.121094 185.179688 23.363281 184.773438 22.644531 184.296875 C 21.929688 183.816406 21.265625 183.273438 20.65625 182.664062 C 20.046875 182.054688 19.503906 181.390625 19.023438 180.671875 C 18.542969 179.957031 18.140625 179.199219 17.808594 178.402344 C 17.480469 177.605469 17.230469 176.785156 17.0625 175.941406 C 16.894531 175.09375 16.8125 174.242188 16.8125 173.378906 L 16.8125 81.472656 C 16.8125 80.183594 16.875 78.894531 17 77.613281 C 17.128906 76.328125 17.316406 75.054688 17.566406 73.789062 C 17.820312 72.523438 18.132812 71.273438 18.507812 70.039062 C 18.882812 68.804688 19.316406 67.589844 19.808594 66.398438 C 20.304688 65.207031 20.855469 64.042969 21.460938 62.90625 C 22.070312 61.765625 22.734375 60.660156 23.449219 59.589844 C 24.164062 58.515625 24.933594 57.480469 25.75 56.484375 C 26.570312 55.488281 27.433594 54.53125 28.347656 53.621094 C 29.261719 52.707031 30.214844 51.84375 31.210938 51.023438 C 32.207031 50.207031 33.242188 49.4375 34.316406 48.722656 C 35.390625 48.003906 36.496094 47.34375 37.632812 46.734375 C 38.769531 46.125 39.933594 45.574219 41.125 45.082031 C 42.316406 44.589844 43.53125 44.15625 44.765625 43.78125 C 46 43.40625 47.25 43.09375 48.515625 42.839844 C 49.78125 42.589844 51.054688 42.398438 52.339844 42.273438 C 53.621094 42.148438 54.910156 42.082031 56.199219 42.082031 L 69.328125 42.082031 C 69.328125 41.222656 69.371094 40.367188 69.457031 39.511719 C 69.539062 38.652344 69.664062 37.804688 69.832031 36.960938 C 70 36.117188 70.210938 35.285156 70.460938 34.460938 C 70.710938 33.636719 71 32.828125 71.328125 32.035156 C 71.65625 31.242188 72.023438 30.464844 72.429688 29.707031 C 72.835938 28.945312 73.277344 28.210938 73.753906 27.496094 C 74.230469 26.78125 74.742188 26.089844 75.289062 25.425781 C 75.835938 24.761719 76.410156 24.125 77.019531 23.515625 C 77.628906 22.90625 78.265625 22.332031 78.929688 21.785156 C 79.59375 21.238281 80.285156 20.726562 81 20.25 C 81.714844 19.773438 82.453125 19.332031 83.210938 18.925781 C 83.96875 18.519531 84.746094 18.152344 85.539062 17.824219 C 86.332031 17.496094 87.140625 17.207031 87.964844 16.957031 C 88.789062 16.707031 89.621094 16.496094 90.464844 16.328125 C 91.308594 16.160156 92.160156 16.035156 93.015625 15.953125 C 93.871094 15.867188 94.726562 15.824219 95.589844 15.824219 L 118.695312 15.824219 C 119.617188 14.789062 120.589844 13.808594 121.613281 12.875 C 122.640625 11.945312 123.710938 11.070312 124.828125 10.25 C 125.945312 9.433594 127.101562 8.675781 128.300781 7.980469 C 129.496094 7.285156 130.726562 6.652344 131.992188 6.085938 C 133.253906 5.519531 134.542969 5.019531 135.859375 4.589844 C 137.175781 4.160156 138.511719 3.796875 139.867188 3.507812 C 141.21875 3.21875 142.585938 3 143.964844 2.855469 C 145.339844 2.710938 146.722656 2.636719 148.105469 2.636719 C 149.492188 2.636719 150.871094 2.710938 152.25 2.855469 C 153.625 3 154.992188 3.21875 156.347656 3.507812 C 157.699219 3.796875 159.035156 4.160156 160.351562 4.589844 C 161.667969 5.019531 162.957031 5.519531 164.222656 6.085938 C 165.484375 6.652344 166.714844 7.285156 167.914062 7.980469 C 169.109375 8.675781 170.265625 9.433594 171.382812 10.25 C 172.5 11.070312 173.570312 11.945312 174.597656 12.875 C 175.621094 13.808594 176.59375 14.789062 177.515625 15.824219 L 200.625 15.824219 C 201.484375 15.824219 202.34375 15.867188 203.199219 15.953125 C 204.054688 16.035156 204.902344 16.160156 205.746094 16.328125 C 206.589844 16.496094 207.421875 16.707031 208.246094 16.957031 C 209.070312 17.207031 209.878906 17.496094 210.671875 17.824219 C 211.46875 18.152344 212.242188 18.519531 213.003906 18.925781 C 213.761719 19.332031 214.496094 19.773438 215.210938 20.25 C 215.929688 20.726562 216.617188 21.238281 217.28125 21.785156 C 217.949219 22.332031 218.582031 22.90625 219.191406 23.515625 C 219.800781 24.125 220.378906 24.761719 220.921875 25.425781 C 221.46875 26.089844 221.980469 26.78125 222.457031 27.496094 C 222.933594 28.210938 223.378906 28.945312 223.78125 29.707031 C 224.1875 30.464844 224.554688 31.242188 224.882812 32.035156 C 225.214844 32.828125 225.503906 33.636719 225.753906 34.460938 C 226.003906 35.285156 226.210938 36.117188 226.378906 36.960938 C 226.546875 37.804688 226.671875 38.652344 226.757812 39.511719 C 226.839844 40.367188 226.882812 41.222656 226.882812 42.082031 L 240.011719 42.082031 C 241.300781 42.082031 242.589844 42.148438 243.875 42.273438 C 245.15625 42.398438 246.433594 42.589844 247.695312 42.839844 C 248.960938 43.09375 250.210938 43.40625 251.445312 43.78125 C 252.679688 44.15625 253.894531 44.589844 255.085938 45.082031 C 256.277344 45.574219 257.441406 46.125 258.582031 46.734375 C 259.71875 47.34375 260.824219 48.003906 261.894531 48.722656 C 262.96875 49.4375 264.003906 50.207031 265 51.023438 C 265.996094 51.84375 266.953125 52.707031 267.863281 53.621094 C 268.777344 54.53125 269.640625 55.488281 270.460938 56.484375 C 271.277344 57.480469 272.046875 58.515625 272.761719 59.589844 C 273.480469 60.660156 274.140625 61.765625 274.75 62.90625 C 275.359375 64.042969 275.910156 65.207031 276.402344 66.398438 C 276.898438 67.589844 277.332031 68.804688 277.707031 70.039062 C 278.078125 71.273438 278.394531 72.523438 278.644531 73.789062 C 278.894531 75.054688 279.085938 76.328125 279.210938 77.613281 C 279.339844 78.894531 279.402344 80.183594 279.402344 81.472656 L 279.402344 187.558594 C 282.105469 187.949219 284.789062 188.460938 287.445312 189.089844 C 290.105469 189.71875 292.730469 190.464844 295.324219 191.328125 C 297.917969 192.191406 300.464844 193.171875 302.972656 194.261719 C 305.476562 195.351562 307.929688 196.554688 310.328125 197.863281 C 312.726562 199.171875 315.0625 200.585938 317.332031 202.105469 C 319.605469 203.625 321.804688 205.242188 323.933594 206.953125 C 326.0625 208.667969 328.109375 210.476562 330.074219 212.371094 C 332.042969 214.269531 333.921875 216.25 335.710938 218.316406 C 337.5 220.378906 339.195312 222.519531 340.796875 224.734375 C 342.394531 226.953125 343.890625 229.234375 345.289062 231.582031 C 346.683594 233.933594 347.972656 236.339844 349.152344 238.804688 C 350.332031 241.269531 351.402344 243.78125 352.359375 246.339844 C 353.316406 248.902344 354.15625 251.496094 354.882812 254.132812 C 355.609375 256.765625 356.214844 259.429688 356.703125 262.117188 C 357.191406 264.804688 357.558594 267.511719 357.804688 270.234375 C 358.050781 272.953125 358.175781 275.683594 358.179688 278.414062 Z M 200.625 42.082031 L 170.820312 42.082031 C 169.675781 42.078125 168.550781 41.921875 167.445312 41.621094 C 166.339844 41.320312 165.289062 40.882812 164.300781 40.304688 C 163.308594 39.730469 162.410156 39.035156 161.601562 38.222656 C 160.792969 37.414062 160.101562 36.511719 159.527344 35.519531 C 158.957031 34.507812 158.261719 33.589844 157.445312 32.765625 C 156.628906 31.9375 155.71875 31.234375 154.714844 30.648438 C 153.714844 30.0625 152.652344 29.621094 151.53125 29.316406 C 150.410156 29.015625 149.265625 28.863281 148.105469 28.863281 C 146.945312 28.863281 145.804688 29.015625 144.683594 29.316406 C 143.5625 29.621094 142.5 30.0625 141.496094 30.648438 C 140.492188 31.234375 139.582031 31.9375 138.765625 32.765625 C 137.949219 33.589844 137.257812 34.507812 136.683594 35.519531 C 136.109375 36.511719 135.417969 37.414062 134.609375 38.222656 C 133.800781 39.035156 132.902344 39.730469 131.910156 40.304688 C 130.921875 40.882812 129.875 41.320312 128.769531 41.621094 C 127.664062 41.921875 126.539062 42.078125 125.390625 42.082031 L 95.589844 42.082031 L 95.589844 81.472656 L 200.625 81.472656 Z M 331.917969 278.414062 C 331.917969 277.339844 331.894531 276.265625 331.839844 275.195312 C 331.789062 274.121094 331.707031 273.050781 331.601562 271.980469 C 331.496094 270.910156 331.367188 269.84375 331.207031 268.78125 C 331.050781 267.71875 330.867188 266.660156 330.65625 265.609375 C 330.449219 264.554688 330.210938 263.507812 329.953125 262.464844 C 329.691406 261.421875 329.402344 260.386719 329.09375 259.359375 C 328.78125 258.332031 328.445312 257.308594 328.082031 256.300781 C 327.71875 255.289062 327.332031 254.285156 326.921875 253.292969 C 326.511719 252.300781 326.074219 251.316406 325.617188 250.347656 C 325.15625 249.375 324.675781 248.417969 324.167969 247.46875 C 323.660156 246.519531 323.132812 245.585938 322.578125 244.664062 C 322.027344 243.742188 321.453125 242.835938 320.855469 241.941406 C 320.257812 241.050781 319.640625 240.171875 319 239.308594 C 318.359375 238.445312 317.699219 237.597656 317.019531 236.769531 C 316.335938 235.9375 315.632812 235.125 314.914062 234.328125 C 314.191406 233.53125 313.449219 232.753906 312.691406 231.996094 C 311.933594 231.234375 311.152344 230.496094 310.359375 229.773438 C 309.5625 229.050781 308.75 228.351562 307.917969 227.667969 C 307.085938 226.988281 306.242188 226.328125 305.378906 225.6875 C 304.515625 225.046875 303.636719 224.429688 302.742188 223.832031 C 301.851562 223.234375 300.941406 222.660156 300.019531 222.105469 C 299.101562 221.554688 298.164062 221.027344 297.21875 220.519531 C 296.269531 220.011719 295.3125 219.53125 294.339844 219.070312 C 293.367188 218.609375 292.386719 218.175781 291.394531 217.765625 C 290.402344 217.351562 289.398438 216.96875 288.386719 216.605469 C 287.375 216.242188 286.355469 215.90625 285.328125 215.59375 C 284.300781 215.28125 283.265625 214.996094 282.222656 214.734375 C 281.179688 214.472656 280.132812 214.238281 279.078125 214.027344 C 278.023438 213.820312 276.96875 213.636719 275.902344 213.476562 C 274.839844 213.320312 273.777344 213.1875 272.707031 213.082031 C 271.636719 212.976562 270.566406 212.898438 269.492188 212.847656 C 268.417969 212.792969 267.347656 212.765625 266.273438 212.765625 C 265.199219 212.765625 264.125 212.792969 263.050781 212.847656 C 261.976562 212.898438 260.90625 212.976562 259.835938 213.082031 C 258.769531 213.1875 257.703125 213.320312 256.640625 213.476562 C 255.578125 213.636719 254.519531 213.820312 253.464844 214.027344 C 252.410156 214.238281 251.363281 214.472656 250.320312 214.734375 C 249.277344 214.996094 248.242188 215.28125 247.214844 215.59375 C 246.1875 215.90625 245.167969 216.242188 244.15625 216.605469 C 243.144531 216.96875 242.140625 217.351562 241.148438 217.765625 C 240.15625 218.175781 239.175781 218.609375 238.203125 219.070312 C 237.234375 219.53125 236.273438 220.011719 235.324219 220.519531 C 234.378906 221.027344 233.445312 221.554688 232.523438 222.105469 C 231.601562 222.660156 230.691406 223.234375 229.800781 223.832031 C 228.90625 224.429688 228.027344 225.046875 227.164062 225.6875 C 226.300781 226.328125 225.457031 226.988281 224.625 227.667969 C 223.792969 228.351562 222.980469 229.050781 222.183594 229.773438 C 221.390625 230.496094 220.613281 231.234375 219.851562 231.996094 C 219.09375 232.753906 218.351562 233.53125 217.628906 234.328125 C 216.910156 235.125 216.207031 235.9375 215.527344 236.769531 C 214.84375 237.597656 214.183594 238.445312 213.542969 239.308594 C 212.902344 240.171875 212.285156 241.050781 211.6875 241.941406 C 211.089844 242.835938 210.515625 243.742188 209.964844 244.664062 C 209.410156 245.585938 208.882812 246.519531 208.375 247.46875 C 207.871094 248.417969 207.386719 249.375 206.925781 250.347656 C 206.46875 251.316406 206.03125 252.300781 205.621094 253.292969 C 205.210938 254.285156 204.824219 255.289062 204.460938 256.300781 C 204.101562 257.308594 203.761719 258.332031 203.449219 259.359375 C 203.140625 260.386719 202.851562 261.421875 202.589844 262.464844 C 202.332031 263.507812 202.09375 264.554688 201.886719 265.609375 C 201.675781 266.660156 201.492188 267.71875 201.335938 268.78125 C 201.175781 269.84375 201.046875 270.910156 200.941406 271.980469 C 200.835938 273.050781 200.757812 274.121094 200.703125 275.195312 C 200.652344 276.265625 200.625 277.339844 200.625 278.414062 C 200.625 279.488281 200.652344 280.5625 200.703125 281.636719 C 200.757812 282.710938 200.835938 283.78125 200.941406 284.847656 C 201.046875 285.917969 201.175781 286.984375 201.335938 288.046875 C 201.492188 289.109375 201.675781 290.167969 201.886719 291.222656 C 202.09375 292.277344 202.332031 293.324219 202.589844 294.367188 C 202.851562 295.40625 203.140625 296.441406 203.449219 297.472656 C 203.761719 298.5 204.101562 299.519531 204.460938 300.53125 C 204.824219 301.542969 205.210938 302.542969 205.621094 303.535156 C 206.03125 304.53125 206.46875 305.511719 206.925781 306.484375 C 207.386719 307.453125 207.871094 308.414062 208.375 309.359375 C 208.882812 310.308594 209.410156 311.242188 209.964844 312.164062 C 210.515625 313.085938 211.089844 313.992188 211.6875 314.886719 C 212.285156 315.78125 212.902344 316.65625 213.542969 317.519531 C 214.183594 318.382812 214.84375 319.230469 215.527344 320.0625 C 216.207031 320.890625 216.910156 321.703125 217.628906 322.5 C 218.351562 323.296875 219.09375 324.074219 219.851562 324.835938 C 220.613281 325.59375 221.390625 326.335938 222.183594 327.054688 C 222.980469 327.777344 223.792969 328.480469 224.625 329.160156 C 225.457031 329.84375 226.300781 330.503906 227.164062 331.144531 C 228.027344 331.785156 228.90625 332.402344 229.800781 333 C 230.691406 333.597656 231.601562 334.171875 232.523438 334.722656 C 233.445312 335.273438 234.378906 335.804688 235.324219 336.3125 C 236.273438 336.816406 237.234375 337.300781 238.203125 337.757812 C 239.175781 338.21875 240.15625 338.652344 241.148438 339.066406 C 242.140625 339.476562 243.144531 339.863281 244.15625 340.226562 C 245.167969 340.585938 246.1875 340.921875 247.214844 341.234375 C 248.242188 341.546875 249.277344 341.835938 250.320312 342.09375 C 251.363281 342.355469 252.410156 342.589844 253.464844 342.800781 C 254.519531 343.011719 255.578125 343.195312 256.640625 343.351562 C 257.703125 343.507812 258.769531 343.640625 259.835938 343.746094 C 260.90625 343.851562 261.976562 343.929688 263.050781 343.984375 C 264.125 344.035156 265.199219 344.0625 266.273438 344.0625 C 267.347656 344.0625 268.417969 344.035156 269.492188 343.984375 C 270.566406 343.929688 271.636719 343.851562 272.707031 343.746094 C 273.777344 343.640625 274.839844 343.507812 275.902344 343.351562 C 276.96875 343.195312 278.023438 343.011719 279.078125 342.800781 C 280.132812 342.589844 281.179688 342.355469 282.222656 342.09375 C 283.265625 341.835938 284.300781 341.546875 285.328125 341.234375 C 286.355469 340.921875 287.375 340.585938 288.386719 340.226562 C 289.398438 339.863281 290.402344 339.476562 291.394531 339.066406 C 292.386719 338.652344 293.367188 338.21875 294.339844 337.757812 C 295.3125 337.300781 296.269531 336.816406 297.21875 336.3125 C 298.164062 335.804688 299.101562 335.273438 300.019531 334.722656 C 300.941406 334.171875 301.851562 333.597656 302.742188 333 C 303.636719 332.402344 304.515625 331.785156 305.378906 331.144531 C 306.242188 330.503906 307.085938 329.84375 307.917969 329.160156 C 308.75 328.480469 309.5625 327.777344 310.359375 327.054688 C 311.152344 326.335938 311.933594 325.59375 312.691406 324.835938 C 313.449219 324.074219 314.191406 323.296875 314.914062 322.5 C 315.632812 321.703125 316.335938 320.890625 317.019531 320.0625 C 317.699219 319.230469 318.359375 318.382812 319 317.519531 C 319.640625 316.65625 320.257812 315.78125 320.855469 314.886719 C 321.453125 313.992188 322.027344 313.085938 322.578125 312.164062 C 323.132812 311.242188 323.660156 310.308594 324.167969 309.359375 C 324.675781 308.414062 325.15625 307.453125 325.617188 306.484375 C 326.074219 305.511719 326.511719 304.53125 326.921875 303.539062 C 327.332031 302.542969 327.71875 301.542969 328.082031 300.53125 C 328.445312 299.519531 328.78125 298.5 329.09375 297.472656 C 329.402344 296.441406 329.691406 295.40625 329.953125 294.367188 C 330.210938 293.324219 330.449219 292.277344 330.65625 291.222656 C 330.867188 290.167969 331.050781 289.109375 331.207031 288.046875 C 331.367188 286.984375 331.496094 285.917969 331.601562 284.847656 C 331.707031 283.78125 331.789062 282.710938 331.839844 281.636719 C 331.894531 280.5625 331.917969 279.488281 331.917969 278.414062 Z M 279.402344 273.03125 L 279.402344 239.027344 C 279.402344 238.164062 279.316406 237.308594 279.148438 236.464844 C 278.980469 235.621094 278.730469 234.796875 278.402344 234 C 278.070312 233.207031 277.667969 232.449219 277.1875 231.730469 C 276.710938 231.015625 276.164062 230.351562 275.554688 229.742188 C 274.945312 229.132812 274.28125 228.589844 273.566406 228.109375 C 272.847656 227.628906 272.09375 227.226562 271.296875 226.894531 C 270.5 226.566406 269.679688 226.316406 268.832031 226.148438 C 267.988281 225.980469 267.132812 225.898438 266.273438 225.898438 C 265.410156 225.898438 264.554688 225.980469 263.710938 226.148438 C 262.863281 226.316406 262.042969 226.566406 261.246094 226.894531 C 260.449219 227.226562 259.695312 227.628906 258.976562 228.109375 C 258.261719 228.589844 257.597656 229.132812 256.988281 229.742188 C 256.378906 230.351562 255.832031 231.015625 255.355469 231.730469 C 254.875 232.449219 254.472656 233.207031 254.140625 234 C 253.8125 234.796875 253.5625 235.621094 253.394531 236.464844 C 253.226562 237.308594 253.140625 238.164062 253.140625 239.027344 L 253.140625 278.414062 C 253.132812 280.160156 253.457031 281.839844 254.117188 283.457031 C 254.777344 285.070312 255.722656 286.496094 256.949219 287.738281 L 270.078125 300.867188 C 270.691406 301.480469 271.355469 302.03125 272.074219 302.515625 C 272.792969 303 273.550781 303.40625 274.351562 303.742188 C 275.152344 304.074219 275.976562 304.324219 276.828125 304.496094 C 277.675781 304.664062 278.535156 304.75 279.402344 304.75 C 280.269531 304.75 281.125 304.664062 281.976562 304.496094 C 282.824219 304.324219 283.652344 304.074219 284.449219 303.742188 C 285.25 303.40625 286.011719 303 286.730469 302.515625 C 287.449219 302.03125 288.113281 301.480469 288.722656 300.867188 C 289.339844 300.257812 289.886719 299.589844 290.371094 298.871094 C 290.855469 298.152344 291.265625 297.394531 291.597656 296.59375 C 291.929688 295.792969 292.183594 294.96875 292.351562 294.117188 C 292.523438 293.269531 292.605469 292.410156 292.605469 291.542969 C 292.605469 290.679688 292.523438 289.820312 292.351562 288.96875 C 292.183594 288.121094 291.929688 287.296875 291.597656 286.496094 C 291.265625 285.695312 290.855469 284.9375 290.371094 284.214844 C 289.886719 283.496094 289.339844 282.832031 288.722656 282.222656 Z M 148.105469 42.082031 C 147.242188 42.082031 146.390625 42.167969 145.542969 42.335938 C 144.699219 42.503906 143.878906 42.753906 143.082031 43.082031 C 142.285156 43.414062 141.527344 43.816406 140.8125 44.296875 C 140.09375 44.777344 139.433594 45.320312 138.820312 45.929688 C 138.210938 46.539062 137.667969 47.203125 137.1875 47.917969 C 136.710938 48.636719 136.304688 49.390625 135.976562 50.1875 C 135.644531 50.984375 135.398438 51.804688 135.230469 52.652344 C 135.0625 53.496094 134.976562 54.351562 134.976562 55.214844 C 134.976562 56.074219 135.0625 56.929688 135.230469 57.773438 C 135.398438 58.621094 135.644531 59.441406 135.976562 60.238281 C 136.304688 61.035156 136.710938 61.789062 137.1875 62.507812 C 137.667969 63.222656 138.210938 63.886719 138.820312 64.496094 C 139.433594 65.105469 140.09375 65.652344 140.8125 66.128906 C 141.527344 66.609375 142.285156 67.011719 143.082031 67.34375 C 143.878906 67.671875 144.699219 67.921875 145.542969 68.089844 C 146.390625 68.257812 147.242188 68.34375 148.105469 68.34375 C 148.96875 68.34375 149.820312 68.257812 150.667969 68.089844 C 151.511719 67.921875 152.335938 67.671875 153.128906 67.34375 C 153.925781 67.011719 154.683594 66.609375 155.402344 66.128906 C 156.117188 65.652344 156.78125 65.105469 157.390625 64.496094 C 158 63.886719 158.542969 63.222656 159.023438 62.507812 C 159.5 61.789062 159.90625 61.035156 160.234375 60.238281 C 160.566406 59.441406 160.816406 58.621094 160.984375 57.773438 C 161.152344 56.929688 161.234375 56.074219 161.234375 55.214844 C 161.234375 54.351562 161.152344 53.496094 160.984375 52.652344 C 160.816406 51.804688 160.566406 50.984375 160.234375 50.1875 C 159.90625 49.390625 159.5 48.636719 159.023438 47.917969 C 158.542969 47.203125 158 46.539062 157.390625 45.929688 C 156.78125 45.320312 156.117188 44.777344 155.402344 44.296875 C 154.683594 43.816406 153.925781 43.414062 153.128906 43.082031 C 152.335938 42.753906 151.511719 42.503906 150.667969 42.335938 C 149.820312 42.167969 148.96875 42.082031 148.105469 42.082031 Z M 29.941406 265.285156 C 30.800781 265.285156 31.65625 265.203125 32.503906 265.03125 C 33.347656 264.863281 34.167969 264.617188 34.964844 264.285156 C 35.761719 263.957031 36.519531 263.550781 37.234375 263.074219 C 37.953125 262.59375 38.613281 262.050781 39.222656 261.441406 C 39.835938 260.832031 40.378906 260.167969 40.855469 259.449219 C 41.335938 258.734375 41.742188 257.976562 42.070312 257.179688 C 42.402344 256.382812 42.648438 255.5625 42.816406 254.71875 C 42.984375 253.871094 43.070312 253.019531 43.070312 252.15625 C 43.070312 251.292969 42.984375 250.441406 42.816406 249.59375 C 42.648438 248.75 42.402344 247.929688 42.070312 247.132812 C 41.742188 246.335938 41.335938 245.578125 40.855469 244.863281 C 40.378906 244.144531 39.835938 243.480469 39.222656 242.871094 C 38.613281 242.261719 37.953125 241.71875 37.234375 241.238281 C 36.519531 240.761719 35.761719 240.355469 34.964844 240.027344 C 34.167969 239.695312 33.347656 239.445312 32.503906 239.277344 C 31.65625 239.109375 30.800781 239.027344 29.941406 239.027344 C 29.078125 239.027344 28.226562 239.109375 27.378906 239.277344 C 26.535156 239.445312 25.710938 239.695312 24.917969 240.027344 C 24.121094 240.355469 23.363281 240.761719 22.644531 241.238281 C 21.929688 241.71875 21.265625 242.261719 20.65625 242.871094 C 20.046875 243.480469 19.503906 244.144531 19.023438 244.863281 C 18.542969 245.578125 18.140625 246.335938 17.808594 247.132812 C 17.480469 247.929688 17.230469 248.75 17.0625 249.59375 C 16.894531 250.441406 16.8125 251.292969 16.8125 252.15625 C 16.8125 253.019531 16.894531 253.871094 17.0625 254.71875 C 17.230469 255.5625 17.480469 256.382812 17.808594 257.179688 C 18.140625 257.976562 18.542969 258.734375 19.023438 259.449219 C 19.503906 260.167969 20.046875 260.832031 20.65625 261.441406 C 21.265625 262.050781 21.929688 262.59375 22.644531 263.074219 C 23.363281 263.550781 24.121094 263.957031 24.917969 264.285156 C 25.710938 264.617188 26.535156 264.863281 27.378906 265.03125 C 28.226562 265.203125 29.078125 265.285156 29.941406 265.285156 Z M 29.941406 225.898438 C 30.800781 225.898438 31.65625 225.8125 32.503906 225.644531 C 33.347656 225.476562 34.167969 225.226562 34.964844 224.898438 C 35.761719 224.566406 36.519531 224.164062 37.234375 223.683594 C 37.953125 223.207031 38.613281 222.660156 39.222656 222.050781 C 39.835938 221.441406 40.378906 220.777344 40.855469 220.0625 C 41.335938 219.34375 41.742188 218.589844 42.070312 217.792969 C 42.402344 216.996094 42.648438 216.175781 42.816406 215.328125 C 42.984375 214.484375 43.070312 213.628906 43.070312 212.765625 C 43.070312 211.90625 42.984375 211.050781 42.816406 210.207031 C 42.648438 209.359375 42.402344 208.539062 42.070312 207.742188 C 41.742188 206.945312 41.335938 206.191406 40.855469 205.472656 C 40.378906 204.757812 39.835938 204.09375 39.222656 203.484375 C 38.613281 202.875 37.953125 202.328125 37.234375 201.851562 C 36.519531 201.371094 35.761719 200.96875 34.964844 200.636719 C 34.167969 200.308594 33.347656 200.058594 32.503906 199.890625 C 31.65625 199.722656 30.800781 199.636719 29.941406 199.636719 C 29.078125 199.636719 28.226562 199.722656 27.378906 199.890625 C 26.535156 200.058594 25.710938 200.308594 24.917969 200.636719 C 24.121094 200.96875 23.363281 201.371094 22.644531 201.851562 C 21.929688 202.328125 21.265625 202.875 20.65625 203.484375 C 20.046875 204.09375 19.503906 204.757812 19.023438 205.472656 C 18.542969 206.191406 18.140625 206.945312 17.808594 207.742188 C 17.480469 208.539062 17.230469 209.359375 17.0625 210.207031 C 16.894531 211.050781 16.8125 211.90625 16.8125 212.765625 C 16.8125 213.628906 16.894531 214.484375 17.0625 215.328125 C 17.230469 216.175781 17.480469 216.996094 17.808594 217.792969 C 18.140625 218.589844 18.542969 219.34375 19.023438 220.0625 C 19.503906 220.777344 20.046875 221.441406 20.65625 222.050781 C 21.265625 222.660156 21.929688 223.207031 22.644531 223.683594 C 23.363281 224.164062 24.121094 224.566406 24.917969 224.898438 C 25.710938 225.226562 26.535156 225.476562 27.378906 225.644531 C 28.226562 225.8125 29.078125 225.898438 29.941406 225.898438 Z M 29.941406 225.898438 " fill-opacity="1" fill-rule="nonzero"/></g></svg>