<svg xmlns="http://www.w3.org/2000/svg" xmlns:xlink="http://www.w3.org/1999/xlink" width="500" zoomAndPan="magnify" viewBox="0 0 375 374.999991" height="500" preserveAspectRatio="xMidYMid meet" version="1.0"><defs><clipPath id="831d7b178f"><path d="M 17 224 L 180 224 L 180 366.609375 L 17 366.609375 Z M 17 224 " clip-rule="nonzero"/></clipPath><clipPath id="20a2b5b131"><path d="M 95 217 L 196.316406 217 L 196.316406 284 L 95 284 Z M 95 217 " clip-rule="nonzero"/></clipPath><clipPath id="f1c6b40e9f"><path d="M 111 125.109375 L 157 125.109375 L 157 243 L 111 243 Z M 111 125.109375 " clip-rule="nonzero"/></clipPath><clipPath id="d015fde821"><path d="M 288 231 L 372 231 L 372 304.210938 L 288 304.210938 Z M 288 231 " clip-rule="nonzero"/></clipPath></defs><path fill="#52c6a0" d="M 236.8125 215.289062 L 237.308594 208.871094 L 111.71875 208.871094 L 114.058594 239.28125 L 216.128906 239.28125 C 221.480469 230.050781 228.519531 221.914062 236.8125 215.289062 Z M 236.8125 215.289062 " fill-opacity="1" fill-rule="nonzero"/><path fill="#52c6a0" d="M 262.921875 123.730469 L 180.597656 123.730469 L 180.597656 76.816406 L 214.078125 55.910156 C 216.925781 54.128906 217.792969 50.378906 216.015625 47.527344 C 214.234375 44.679688 210.484375 43.8125 207.636719 45.59375 L 171.292969 68.285156 C 169.515625 69.398438 168.433594 71.347656 168.433594 73.445312 L 168.433594 123.730469 L 86.109375 123.730469 L 86.109375 154.136719 L 262.921875 154.136719 Z M 262.921875 123.730469 " fill-opacity="1" fill-rule="nonzero"/><path fill="#52c6a0" d="M 240.582031 166.300781 L 108.445312 166.300781 L 110.785156 196.707031 L 238.242188 196.707031 Z M 240.582031 166.300781 " fill-opacity="1" fill-rule="nonzero"/><path fill="#52c6a0" d="M 217.121094 275.769531 L 362.566406 275.769531 C 359.464844 238.363281 328.035156 208.871094 289.84375 208.871094 C 251.652344 208.871094 220.222656 238.363281 217.121094 275.769531 Z M 329.371094 251.429688 C 332.730469 251.429688 335.453125 254.152344 335.453125 257.511719 C 335.453125 260.871094 332.730469 263.597656 329.371094 263.597656 C 326.007812 263.597656 323.285156 260.875 323.285156 257.511719 C 323.285156 254.152344 326.007812 251.429688 329.371094 251.429688 Z M 307.8125 220.996094 C 311.171875 220.996094 313.894531 223.722656 313.894531 227.082031 C 313.894531 230.441406 311.171875 233.164062 307.8125 233.164062 C 304.453125 233.164062 301.730469 230.441406 301.730469 227.082031 C 301.730469 223.722656 304.453125 220.996094 307.8125 220.996094 Z M 293.421875 251.429688 C 296.78125 251.429688 299.503906 254.152344 299.503906 257.511719 C 299.503906 260.871094 296.78125 263.597656 293.421875 263.597656 C 290.0625 263.597656 287.335938 260.875 287.335938 257.511719 C 287.339844 254.152344 290.0625 251.429688 293.421875 251.429688 Z M 271.875 220.996094 C 275.234375 220.996094 277.957031 223.722656 277.957031 227.082031 C 277.957031 230.441406 275.234375 233.164062 271.875 233.164062 C 268.515625 233.164062 265.789062 230.441406 265.789062 227.082031 C 265.789062 223.722656 268.515625 220.996094 271.875 220.996094 Z M 250.3125 251.449219 C 253.671875 251.449219 256.398438 254.171875 256.398438 257.53125 C 256.398438 260.890625 253.675781 263.617188 250.3125 263.617188 C 246.953125 263.617188 244.230469 260.890625 244.230469 257.53125 C 244.230469 254.171875 246.953125 251.449219 250.3125 251.449219 Z M 250.3125 251.449219 " fill-opacity="1" fill-rule="nonzero"/><path fill="#52c6a0" d="M 365.863281 287.933594 L 213.824219 287.933594 C 210.46875 287.933594 207.742188 290.660156 207.742188 294.011719 C 207.742188 297.367188 210.46875 300.09375 213.824219 300.09375 L 365.863281 300.09375 C 369.214844 300.09375 371.945312 297.367188 371.945312 294.011719 C 371.945312 290.660156 369.214844 287.933594 365.863281 287.933594 Z M 365.863281 287.933594 " fill-opacity="1" fill-rule="nonzero"/><path fill="#52c6a0" d="M 219.90625 324.421875 C 219.90625 334.480469 228.089844 342.667969 238.148438 342.667969 L 341.535156 342.667969 C 351.597656 342.667969 359.78125 334.480469 359.78125 324.421875 L 359.78125 312.257812 L 219.90625 312.257812 Z M 219.90625 324.421875 " fill-opacity="1" fill-rule="nonzero"/><path fill="#52c6a0" d="M 207.742188 311.210938 C 200.664062 308.703125 195.578125 301.941406 195.578125 294.011719 C 195.578125 287.242188 199.292969 281.320312 204.785156 278.175781 C 205.1875 268.792969 207.113281 259.804688 210.320312 251.441406 L 114.992188 251.441406 L 120.300781 320.511719 C 121.257812 332.933594 131.765625 342.667969 144.222656 342.667969 L 213.839844 342.667969 C 210.011719 337.582031 207.742188 331.261719 207.742188 324.421875 Z M 207.742188 311.210938 " fill-opacity="1" fill-rule="nonzero"/><path fill="#ffffff" d="M 166.785156 324.191406 C 168.792969 301.519531 166.304688 283.386719 164.703125 260.679688 C 170.429688 258.636719 185.644531 253.757812 183.792969 247.929688 C 178.539062 231.410156 145.472656 206.261719 120.363281 187.925781 C 116.152344 184.84375 109.429688 178.476562 104.445312 177.109375 C 100.035156 175.898438 96.933594 171.980469 92.441406 172.792969 C 44.078125 181.578125 15.136719 194.355469 5.144531 204.988281 C -0.851562 211.367188 4.109375 215.449219 14.566406 225.90625 C 16.308594 227.652344 14.375 265.929688 14.054688 295.226562 C 13.949219 304.679688 13.976562 314.675781 18.632812 322.808594 C 23.785156 331.808594 33.519531 336.683594 42.695312 341.054688 C 55.332031 347.078125 67.96875 353.097656 80.605469 359.117188 C 84.472656 360.960938 88.492188 362.839844 92.746094 362.90625 C 96.089844 362.960938 99.347656 361.882812 102.511719 360.742188 C 124.640625 352.75 145.46875 340.917969 163.859375 325.878906 " fill-opacity="1" fill-rule="nonzero"/><path fill="#19c09e" d="M 51.488281 205.707031 C 53.859375 203.414062 57.640625 203.476562 60.542969 204.945312 C 63.441406 206.417969 65.652344 209.023438 67.785156 211.5625 C 69.625 206.3125 73.578125 201.921875 78.453125 199.710938 C 83.328125 197.5 89.066406 197.5 93.941406 199.710938 C 92.914062 194.277344 97.882812 188.847656 103.140625 188.902344 C 108.394531 188.960938 113 193.597656 114.226562 198.992188 C 116.421875 193.898438 120.4375 189.707031 125.941406 187.925781 C 125.320312 190.863281 124.691406 193.804688 124.046875 196.746094 C 120.933594 210.882812 117.3125 224.898438 113.175781 238.742188 C 112.863281 239.769531 112.527344 240.847656 111.792969 241.601562 C 111.175781 242.234375 110.34375 242.570312 109.523438 242.867188 C 106.039062 244.121094 102.417969 244.9375 98.75 245.289062 C 98.023438 245.363281 97.28125 245.410156 96.5625 245.277344 C 95.742188 245.128906 94.976562 244.75 94.242188 244.347656 C 90.960938 242.535156 88.03125 240.089844 85.125 237.664062 C 80.605469 233.882812 76.085938 230.109375 71.574219 226.332031 C 69.121094 224.28125 66.664062 222.226562 64.449219 219.898438 C 60.488281 215.730469 57.234375 210.609375 51.488281 205.71875 Z M 51.488281 205.707031 " fill-opacity="1" fill-rule="nonzero"/><path fill="#19c09e" d="M 128.207031 231.566406 C 143.152344 201.558594 161.175781 172.464844 178.839844 139.625 C 180.816406 135.953125 173.144531 128.246094 170.972656 130.527344 C 169.203125 132.398438 144.347656 177.1875 137.503906 192.152344 C 131.335938 209.132812 133.90625 194.378906 128.203125 231.566406 Z M 128.207031 231.566406 " fill-opacity="1" fill-rule="nonzero"/><path fill="#19c09e" d="M 121.324219 236.867188 C 131.03125 201.617188 140.734375 166.375 150.4375 131.125 C 147.078125 129.789062 144.121094 125.101562 140.679688 126.179688 C 139.042969 126.6875 117.15625 202.242188 111.464844 240.652344 C 114.40625 240.34375 117.3125 239.652344 121.324219 236.867188 Z M 121.324219 236.867188 " fill-opacity="1" fill-rule="nonzero"/><path fill="#19c09e" d="M 140.492188 214.742188 C 145.789062 215.527344 150.289062 220.398438 150.898438 226.003906 C 143.882812 227.976562 137.707031 233.125 130.464844 233.625 C 133.375 227.046875 136.84375 220.742188 140.492188 214.742188 Z M 140.492188 214.742188 " fill-opacity="1" fill-rule="nonzero"/><g clip-path="url(#831d7b178f)"><path fill="#000000" d="M 98.34375 366.328125 C 93.464844 366.328125 87.527344 364.726562 80.589844 361.53125 C 61.664062 352.8125 48.121094 345.917969 30.773438 334.480469 C 23.992188 330.007812 19.921875 324.257812 19.015625 317.84375 C 14.839844 288.277344 19.425781 228.960938 20.582031 225.945312 C 21.050781 224.714844 22.425781 224.101562 23.652344 224.570312 C 24.832031 225.023438 25.445312 226.316406 25.070312 227.507812 C 24.351562 230.789062 19.46875 287.011719 23.726562 317.179688 C 24.625 323.527344 29.476562 327.933594 33.386719 330.511719 C 50.484375 341.78125 63.863281 348.589844 82.578125 357.207031 C 91.628906 361.375 98.707031 362.59375 103.054688 360.71875 C 131.167969 348.609375 142.761719 341.222656 164.285156 326.980469 C 169.582031 323.476562 172.828125 317.460938 173.429688 310.03125 C 175.554688 283.773438 175.269531 269.988281 175.164062 264.796875 C 175.121094 262.699219 175.105469 261.988281 175.230469 261.421875 C 175.507812 260.136719 176.773438 259.320312 178.054688 259.597656 C 179.308594 259.867188 180.117188 261.078125 179.898438 262.328125 C 179.878906 262.625 179.898438 263.636719 179.917969 264.703125 C 180.027344 269.957031 180.3125 283.917969 178.171875 310.417969 C 177.449219 319.335938 173.449219 326.625 166.910156 330.949219 C 145.730469 344.964844 133.359375 352.847656 104.933594 365.09375 C 103.011719 365.921875 100.8125 366.328125 98.335938 366.328125 Z M 179.898438 262.359375 C 179.898438 262.359375 179.890625 262.402344 179.882812 262.425781 C 179.882812 262.402344 179.894531 262.382812 179.898438 262.359375 Z M 25.0625 227.539062 C 25.054688 227.574219 25.039062 227.605469 25.027344 227.640625 C 25.039062 227.617188 25.054688 227.578125 25.0625 227.539062 Z M 25.0625 227.539062 " fill-opacity="1" fill-rule="nonzero"/></g><path fill="#000000" d="M 99.105469 357.933594 C 99.105469 357.933594 99.0625 357.933594 99.046875 357.933594 C 97.730469 357.902344 96.691406 356.808594 96.726562 355.496094 C 96.941406 346.777344 97.085938 338.265625 97.222656 330.035156 C 97.582031 309.097656 97.917969 289.324219 99.253906 267.582031 C 99.335938 266.269531 100.476562 265.273438 101.773438 265.351562 C 103.085938 265.433594 104.082031 266.554688 104.007812 267.871094 C 102.679688 289.511719 102.339844 309.234375 101.980469 330.117188 C 101.84375 338.359375 101.699219 346.878906 101.484375 355.613281 C 101.453125 356.90625 100.394531 357.933594 99.109375 357.933594 Z M 99.105469 357.933594 " fill-opacity="1" fill-rule="nonzero"/><g clip-path="url(#20a2b5b131)"><path fill="#000000" d="M 119.972656 283.042969 C 116.554688 283.042969 113.335938 281.222656 111.371094 278.03125 C 108.632812 273.589844 104.496094 266.585938 101.089844 260.246094 C 94.703125 248.339844 95.191406 246.796875 95.546875 245.671875 C 95.785156 244.917969 96.386719 244.332031 97.140625 244.109375 C 118.894531 237.691406 149.355469 225.664062 168.824219 217.308594 C 169.554688 216.996094 170.390625 217.066406 171.058594 217.5 C 184.753906 226.382812 194.949219 242.804688 195.941406 250.207031 C 196.199219 252.121094 195.875 253.609375 194.96875 254.625 C 189.253906 261.039062 151.203125 275.761719 122.265625 282.757812 C 121.5 282.945312 120.726562 283.035156 119.964844 283.035156 Z M 100.507812 248.074219 C 102.050781 252.386719 108.402344 264.144531 115.421875 275.539062 C 116.726562 277.648438 118.972656 278.667969 121.148438 278.148438 C 151.378906 270.835938 186.511719 256.429688 191.273438 251.625 C 191.449219 250.371094 190.078125 245.691406 185.726562 239.117188 C 183.066406 235.097656 177.507812 227.691406 169.515625 222.199219 C 150.496094 230.316406 121.839844 241.613281 100.507812 248.078125 Z M 100.507812 248.074219 " fill-opacity="1" fill-rule="nonzero"/></g><path fill="#000000" d="M 70.132812 268.105469 C 67.652344 268.105469 65.175781 267.253906 63.050781 265.574219 C 50.410156 255.535156 38.582031 244.394531 27.144531 233.621094 C 21.71875 228.511719 16.109375 223.226562 10.589844 218.234375 C 9.175781 216.957031 7.820312 214.703125 8.261719 212.226562 C 8.613281 210.230469 10.078125 208.964844 10.863281 208.28125 C 18.671875 201.515625 27.125 195.601562 35.996094 190.703125 C 36.898438 190.207031 38.015625 190.347656 38.765625 191.046875 C 43.921875 195.855469 48.949219 200.65625 53.8125 205.296875 C 67.167969 218.058594 80.980469 231.253906 99.890625 246.878906 C 100.453125 247.34375 100.769531 248.039062 100.753906 248.769531 C 100.738281 249.5 100.386719 250.175781 99.800781 250.617188 C 94.738281 254.410156 89.996094 257.402344 85.410156 260.300781 C 82.496094 262.144531 79.484375 264.046875 76.4375 266.125 C 74.5 267.453125 72.320312 268.109375 70.132812 268.109375 Z M 36.789062 195.707031 C 28.753906 200.269531 21.089844 205.703125 13.980469 211.867188 C 13.691406 212.121094 13.007812 212.710938 12.949219 213.042969 C 12.871094 213.488281 13.230469 214.195312 13.785156 214.699219 C 19.339844 219.722656 24.964844 225.027344 30.410156 230.152344 C 41.78125 240.859375 53.53125 251.929688 66.019531 261.84375 C 68.40625 263.738281 71.296875 263.875 73.757812 262.191406 C 76.875 260.0625 79.921875 258.136719 82.867188 256.273438 C 86.621094 253.902344 90.484375 251.464844 94.507812 248.585938 C 76.660156 233.699219 63.382812 221.015625 50.523438 208.730469 C 46.070312 204.480469 41.484375 200.09375 36.789062 195.699219 Z M 36.789062 195.707031 " fill-opacity="1" fill-rule="nonzero"/><g clip-path="url(#f1c6b40e9f)"><path fill="#000000" d="M 114.351562 242.921875 C 113.976562 242.921875 113.597656 242.835938 113.253906 242.65625 C 112.285156 242.152344 111.78125 241.050781 112.035156 239.988281 C 121.070312 202.382812 131.117188 164.597656 141.894531 127.691406 C 142.082031 127.050781 142.539062 126.511719 143.136719 126.222656 C 143.742188 125.925781 144.441406 125.898438 145.0625 126.152344 L 155.242188 130.226562 C 156.378906 130.683594 156.984375 131.925781 156.640625 133.105469 C 151.808594 149.652344 146.726562 167.921875 141.808594 185.589844 C 136.878906 203.292969 132.230469 220.015625 127.792969 235.199219 C 127.171875 237.320312 124.65625 238.441406 120.257812 240.238281 C 118.808594 240.828125 116.617188 241.722656 116.105469 242.164062 C 115.644531 242.664062 115 242.933594 114.351562 242.933594 Z M 116.136719 242.121094 C 116.136719 242.121094 116.128906 242.132812 116.125 242.132812 C 116.125 242.132812 116.128906 242.121094 116.136719 242.121094 Z M 145.726562 131.542969 C 135.730469 165.921875 126.371094 201.046875 117.875 236.054688 C 118.0625 235.976562 118.257812 235.898438 118.453125 235.816406 C 120.007812 235.183594 122.550781 234.148438 123.316406 233.527344 C 127.710938 218.457031 132.328125 201.859375 137.214844 184.300781 C 141.933594 167.351562 146.804688 149.855469 151.457031 133.835938 L 145.714844 131.539062 Z M 123.445312 233.417969 Z M 123.445312 233.417969 " fill-opacity="1" fill-rule="nonzero"/></g><path fill="#000000" d="M 127.246094 237.488281 C 126.472656 237.488281 125.738281 237.152344 125.242188 236.5625 C 124.394531 235.558594 123.109375 234.039062 129.457031 212.09375 C 129.496094 211.945312 129.558594 211.800781 129.625 211.660156 C 129.863281 211.199219 153.8125 164.992188 172.429688 132.542969 C 172.769531 131.945312 173.351562 131.527344 174.023438 131.394531 C 174.695312 131.257812 175.390625 131.417969 175.9375 131.832031 L 184.867188 138.652344 C 185.816406 139.375 186.085938 140.691406 185.488281 141.726562 C 181.898438 147.984375 177.253906 156.238281 172.335938 164.964844 C 163.546875 180.574219 153.585938 198.257812 145.386719 212.1875 C 130.683594 237.167969 129.203125 237.304688 127.492188 237.472656 C 127.410156 237.484375 127.328125 237.484375 127.238281 237.484375 Z M 129.253906 234.242188 Z M 133.960938 213.644531 C 132.59375 218.386719 131.214844 223.65625 130.304688 227.707031 C 138.648438 215.078125 156.601562 183.203125 168.1875 162.628906 C 172.652344 154.703125 176.890625 147.183594 180.324219 141.167969 L 175.207031 137.261719 C 157.503906 168.320312 135.683594 210.308594 133.960938 213.636719 Z M 133.960938 213.644531 " fill-opacity="1" fill-rule="nonzero"/><path fill="#52c6a0" d="M 43.664062 322.003906 C 36.335938 315.171875 31.394531 305.554688 29.964844 295.34375 C 29.3125 290.695312 29.398438 285.8125 31.121094 281.480469 C 32.839844 277.148438 36.410156 273.457031 40.792969 272.613281 C 45.808594 271.644531 50.777344 274.425781 54.882812 277.613281 C 64.246094 284.886719 72.003906 295.710938 72.46875 307.976562 C 72.578125 310.816406 72.277344 313.722656 71.199219 316.328125 C 68.972656 321.683594 63.539062 325.113281 58.015625 325.585938 C 52.484375 326.0625 46.480469 324.628906 43.667969 322.003906 Z M 43.664062 322.003906 " fill-opacity="1" fill-rule="nonzero"/><path fill="#000000" d="M 36.792969 194.535156 C 35.691406 194.535156 34.703125 193.765625 34.46875 192.640625 C 34.203125 191.351562 35.03125 190.09375 36.3125 189.828125 C 46.53125 187.707031 57.015625 185.222656 67.152344 182.820312 C 77.320312 180.414062 87.839844 177.917969 98.125 175.78125 C 99.574219 175.480469 106.984375 174 110.277344 174.460938 C 111.972656 174.699219 113.640625 175.359375 114.863281 175.847656 L 114.957031 175.882812 C 117.003906 176.695312 119.699219 177.921875 122.296875 179.109375 C 124.84375 180.269531 127.476562 181.46875 129.417969 182.242188 C 130.640625 182.726562 131.238281 184.109375 130.753906 185.332031 C 130.269531 186.550781 128.886719 187.148438 127.664062 186.667969 C 125.613281 185.855469 122.921875 184.625 120.324219 183.441406 C 117.777344 182.28125 115.140625 181.082031 113.199219 180.308594 L 113.105469 180.273438 C 112.054688 179.855469 110.746094 179.335938 109.613281 179.175781 C 107.898438 178.933594 102.914062 179.648438 99.097656 180.445312 C 88.875 182.566406 78.390625 185.050781 68.253906 187.453125 C 58.085938 189.859375 47.574219 192.351562 37.285156 194.488281 C 37.121094 194.523438 36.960938 194.539062 36.800781 194.539062 Z M 36.792969 194.535156 " fill-opacity="1" fill-rule="nonzero"/><path fill="#000000" d="M 169.761719 221.878906 C 169.230469 221.878906 168.695312 221.703125 168.257812 221.339844 L 149.988281 206.363281 C 148.972656 205.53125 148.824219 204.035156 149.65625 203.015625 C 150.488281 202 151.992188 201.851562 153.003906 202.683594 L 171.273438 217.660156 C 172.289062 218.492188 172.4375 219.988281 171.605469 221.011719 C 171.132812 221.585938 170.453125 221.878906 169.761719 221.878906 Z M 169.761719 221.878906 " fill-opacity="1" fill-rule="nonzero"/><path fill="#000000" d="M 117.609375 226.0625 C 116.636719 226.0625 115.722656 225.457031 115.375 224.488281 C 111.042969 212.441406 101.355469 203.242188 90.089844 200.476562 C 86.742188 199.65625 83.988281 199.601562 81.667969 200.316406 C 75.492188 202.21875 71.582031 209.464844 68.109375 216.730469 C 67.539062 217.914062 66.121094 218.417969 64.9375 217.847656 C 63.75 217.277344 63.25 215.859375 63.816406 214.671875 C 67.746094 206.457031 72.257812 198.238281 80.269531 195.765625 C 83.433594 194.792969 87.019531 194.820312 91.222656 195.855469 C 104.015625 198.992188 114.988281 209.347656 119.851562 222.875 C 120.296875 224.109375 119.65625 225.472656 118.417969 225.917969 C 118.15625 226.011719 117.878906 226.058594 117.609375 226.058594 Z M 117.609375 226.0625 " fill-opacity="1" fill-rule="nonzero"/><path fill="#000000" d="M 114.847656 237.492188 C 114.011719 237.492188 113.199219 237.054688 112.765625 236.269531 C 110.300781 231.84375 105.574219 225.042969 102.433594 221.425781 C 98.8125 217.246094 95.589844 214.636719 92.285156 213.203125 C 88.402344 211.519531 84.296875 211.648438 81.316406 213.554688 C 78.28125 215.484375 76.164062 219.234375 74.253906 222.910156 C 73.648438 224.074219 72.210938 224.53125 71.046875 223.925781 C 69.878906 223.320312 69.425781 221.878906 70.03125 220.714844 C 72.242188 216.46875 74.730469 212.109375 78.757812 209.542969 C 83.074219 206.789062 88.84375 206.523438 94.175781 208.839844 C 98.15625 210.5625 101.921875 213.570312 106.023438 218.308594 C 109.394531 222.195312 114.28125 229.21875 116.921875 233.960938 C 117.558594 235.113281 117.148438 236.5625 116 237.199219 C 115.632812 237.398438 115.238281 237.5 114.847656 237.5 Z M 114.847656 237.492188 " fill-opacity="1" fill-rule="nonzero"/><path fill="#000000" d="M 105.605469 245.015625 C 104.710938 245.015625 103.851562 244.503906 103.445312 243.636719 C 97.550781 230.914062 91.148438 225.425781 87.695312 225.707031 C 84.691406 225.949219 82.941406 230.667969 82.164062 233.464844 C 81.8125 234.734375 80.503906 235.472656 79.234375 235.121094 C 77.964844 234.769531 77.226562 233.460938 77.578125 232.191406 C 80.027344 223.371094 84.21875 221.21875 87.304688 220.964844 C 93.863281 220.417969 101.515625 228.152344 107.765625 241.632812 C 108.320312 242.824219 107.800781 244.238281 106.605469 244.792969 C 106.277344 244.941406 105.941406 245.015625 105.605469 245.015625 Z M 105.605469 245.015625 " fill-opacity="1" fill-rule="nonzero"/><path fill="#000000" d="M 87.75 240.085938 C 86.980469 240.085938 86.21875 239.707031 85.761719 239.015625 C 85.039062 237.917969 85.34375 236.441406 86.441406 235.71875 C 89.417969 233.753906 91.027344 229.535156 90.183594 225.90625 C 89.882812 224.628906 90.679688 223.351562 91.960938 223.050781 C 93.238281 222.753906 94.515625 223.546875 94.816406 224.824219 C 96.113281 230.386719 93.6875 236.640625 89.0625 239.6875 C 88.65625 239.953125 88.203125 240.082031 87.757812 240.082031 Z M 87.75 240.085938 " fill-opacity="1" fill-rule="nonzero"/><path fill="#000000" d="M 92.261719 244.894531 C 90.976562 244.894531 89.914062 243.871094 89.882812 242.578125 C 89.851562 241.261719 90.886719 240.167969 92.203125 240.136719 C 93.746094 240.101562 95.296875 239.261719 96.257812 237.953125 C 97.246094 236.597656 97.628906 234.714844 97.25 233.039062 C 96.960938 231.757812 97.769531 230.488281 99.050781 230.199219 C 100.335938 229.910156 101.609375 230.714844 101.894531 232 C 102.570312 235.023438 101.90625 238.300781 100.097656 240.765625 C 98.261719 243.28125 95.351562 244.824219 92.320312 244.902344 C 92.300781 244.902344 92.28125 244.902344 92.261719 244.902344 Z M 92.261719 244.894531 " fill-opacity="1" fill-rule="nonzero"/><path fill="#000000" d="M 148.382812 228.285156 C 147.664062 228.285156 146.957031 227.960938 146.488281 227.347656 C 144.824219 225.167969 142.445312 223.640625 139.960938 223.160156 C 138.671875 222.910156 137.828125 221.664062 138.074219 220.375 C 138.324219 219.085938 139.570312 218.238281 140.859375 218.488281 C 144.535156 219.199219 147.875 221.320312 150.273438 224.46875 C 151.070312 225.515625 150.867188 227.003906 149.820312 227.800781 C 149.390625 228.128906 148.882812 228.289062 148.382812 228.289062 Z M 148.382812 228.285156 " fill-opacity="1" fill-rule="nonzero"/><path fill="#000000" d="M 119.355469 218.339844 C 118.792969 218.339844 118.222656 218.136719 117.765625 217.734375 C 112.433594 212.953125 110.042969 204.945312 111.949219 198.261719 C 113.207031 193.851562 116.632812 188.03125 121.1875 185.683594 C 123.414062 184.535156 125.71875 184.320312 127.847656 185.070312 C 129.082031 185.511719 129.734375 186.867188 129.296875 188.105469 C 128.855469 189.34375 127.5 189.996094 126.261719 189.554688 C 125.382812 189.246094 124.433594 189.359375 123.371094 189.90625 C 120.632812 191.320312 117.695312 195.472656 116.523438 199.566406 C 115.121094 204.484375 116.980469 210.636719 120.941406 214.191406 C 121.917969 215.066406 122 216.574219 121.121094 217.550781 C 120.648438 218.074219 120.003906 218.34375 119.351562 218.34375 Z M 119.355469 218.339844 " fill-opacity="1" fill-rule="nonzero"/><path fill="#000000" d="M 70.144531 207.363281 C 69.648438 207.363281 69.148438 207.207031 68.71875 206.890625 C 64.277344 203.578125 58.324219 203.15625 53.558594 205.808594 C 52.410156 206.453125 50.957031 206.039062 50.320312 204.894531 C 49.679688 203.746094 50.09375 202.296875 51.238281 201.660156 C 57.640625 198.085938 65.621094 198.644531 71.5625 203.082031 C 72.613281 203.871094 72.832031 205.359375 72.042969 206.410156 C 71.578125 207.039062 70.859375 207.367188 70.132812 207.367188 Z M 70.144531 207.363281 " fill-opacity="1" fill-rule="nonzero"/><path fill="#000000" d="M 93.496094 201.320312 C 93.378906 201.320312 93.253906 201.3125 93.128906 201.292969 C 91.832031 201.089844 90.941406 199.871094 91.140625 198.574219 C 92.535156 189.589844 97.5625 186.324219 101.53125 185.164062 C 107.804688 183.332031 114.871094 185.859375 117.179688 188.476562 C 118.050781 189.460938 117.953125 190.96875 116.96875 191.839844 C 115.980469 192.707031 114.480469 192.609375 113.609375 191.625 C 112.53125 190.402344 107.355469 188.421875 102.863281 189.738281 C 99.011719 190.859375 96.648438 194.078125 95.835938 199.308594 C 95.65625 200.484375 94.640625 201.320312 93.488281 201.320312 Z M 93.496094 201.320312 " fill-opacity="1" fill-rule="nonzero"/><path fill="#000000" d="M 156.792969 227.316406 C 155.480469 227.316406 154.414062 226.25 154.414062 224.933594 C 154.414062 223.496094 153.886719 216.136719 143.476562 212.832031 C 142.222656 212.433594 141.527344 211.097656 141.925781 209.84375 C 142.324219 208.589844 143.660156 207.898438 144.914062 208.296875 C 158.484375 212.609375 159.171875 222.914062 159.171875 224.933594 C 159.171875 226.25 158.105469 227.316406 156.789062 227.316406 Z M 156.792969 227.316406 " fill-opacity="1" fill-rule="nonzero"/><path fill="#000000" d="M 62.734375 325.695312 C 49.945312 325.695312 35.246094 312.496094 31.503906 297.394531 C 29.089844 287.660156 31.851562 273.535156 39.808594 268.027344 C 42.5625 266.117188 48.359375 263.71875 56.1875 269.109375 L 57.046875 269.699219 C 68.601562 277.632812 82.984375 287.511719 80.363281 306.121094 C 78.058594 322.496094 68.921875 325.394531 63.679688 325.671875 C 63.367188 325.6875 63.050781 325.695312 62.734375 325.695312 Z M 46.8125 270.5625 C 45.28125 270.5625 43.839844 271.023438 42.515625 271.941406 C 36.964844 275.78125 33.917969 287.367188 36.121094 296.25 C 39.332031 309.191406 52.085938 320.9375 62.707031 320.9375 C 62.949219 320.9375 63.191406 320.933594 63.429688 320.917969 C 71.796875 320.484375 74.695312 312.273438 75.652344 305.460938 C 77.859375 289.769531 65.371094 281.1875 54.351562 273.617188 L 53.492188 273.027344 C 51.097656 271.378906 48.867188 270.558594 46.8125 270.558594 Z M 46.8125 270.5625 " fill-opacity="1" fill-rule="nonzero"/><path fill="#000000" d="M 104.445312 205.726562 C 104.367188 205.726562 104.289062 205.726562 104.214844 205.71875 C 102.902344 205.59375 101.945312 204.429688 102.074219 203.125 C 102.542969 198.261719 104.597656 196.394531 106.230469 195.679688 C 108.671875 194.617188 111.664062 195.425781 115.117188 198.078125 C 116.15625 198.875 116.359375 200.371094 115.554688 201.410156 C 114.757812 202.457031 113.261719 202.648438 112.222656 201.851562 C 110.015625 200.164062 108.640625 199.820312 108.132812 200.042969 C 107.640625 200.253906 107.015625 201.457031 106.8125 203.578125 C 106.691406 204.8125 105.65625 205.734375 104.445312 205.734375 Z M 104.445312 205.726562 " fill-opacity="1" fill-rule="nonzero"/><g clip-path="url(#d015fde821)"><path fill="#000000" d="M 325.910156 233.695312 L 289.109375 297.433594 C 287.382812 300.421875 289.539062 304.15625 292.988281 304.15625 L 366.589844 304.15625 C 370.039062 304.15625 372.195312 300.421875 370.46875 297.433594 L 333.667969 233.695312 C 331.945312 230.707031 327.632812 230.707031 325.910156 233.695312 Z M 325.910156 233.695312 " fill-opacity="1" fill-rule="nonzero"/></g><path fill="#ffffff" d="M 325.722656 278.941406 C 325.722656 276.78125 327.417969 275.171875 329.789062 275.171875 C 332.160156 275.171875 333.851562 276.78125 333.851562 278.941406 C 333.851562 281.058594 332.160156 282.792969 329.789062 282.792969 C 327.417969 282.792969 325.722656 281.058594 325.722656 278.941406 Z M 327.21875 252.816406 L 332.359375 252.816406 C 333.097656 252.816406 333.683594 253.441406 333.632812 254.179688 L 332.5 270.894531 C 332.453125 271.609375 331.855469 272.167969 331.140625 272.167969 L 328.4375 272.167969 C 327.722656 272.167969 327.125 271.609375 327.078125 270.894531 L 325.945312 254.179688 C 325.894531 253.441406 326.476562 252.816406 327.21875 252.816406 Z M 327.21875 252.816406 " fill-opacity="1" fill-rule="nonzero"/></svg>