<svg xmlns="http://www.w3.org/2000/svg" xmlns:xlink="http://www.w3.org/1999/xlink" width="500" zoomAndPan="magnify" viewBox="0 0 375 374.999991" height="500" preserveAspectRatio="xMidYMid meet" version="1.0"><defs><clipPath id="961267c1d9"><path d="M 9 66.132812 L 351 66.132812 L 351 368.382812 L 9 368.382812 Z M 9 66.132812 " clip-rule="nonzero"/></clipPath><clipPath id="dbb5be656b"><path d="M 1.179688 102 L 358.929688 102 L 358.929688 329 L 1.179688 329 Z M 1.179688 102 " clip-rule="nonzero"/></clipPath><clipPath id="2116ce15e4"><path d="M 250.363281 171.730469 L 371 171.730469 L 371 299 L 250.363281 299 Z M 250.363281 171.730469 " clip-rule="nonzero"/></clipPath><clipPath id="1cfabdf8c5"><path d="M 295 171.730469 L 353 171.730469 L 353 296 L 295 296 Z M 295 171.730469 " clip-rule="nonzero"/></clipPath><clipPath id="3f938fc296"><path d="M 310 171.730469 L 353 171.730469 L 353 296 L 310 296 Z M 310 171.730469 " clip-rule="nonzero"/></clipPath></defs><g clip-path="url(#961267c1d9)"><path fill="#19c09e" d="M 256.910156 66.148438 C 225.054688 66.148438 196.933594 82.0625 180.003906 106.363281 C 163.078125 82.0625 134.957031 66.148438 103.09375 66.148438 C 51.359375 66.148438 9.417969 108.089844 9.417969 159.828125 C 9.417969 277.714844 179.996094 368.320312 180.003906 368.324219 C 180.003906 368.320312 350.59375 277.714844 350.59375 159.828125 C 350.59375 108.089844 308.648438 66.148438 256.910156 66.148438 " fill-opacity="1" fill-rule="nonzero"/></g><g clip-path="url(#dbb5be656b)"><path fill="#ffffff" d="M 171.792969 328.476562 C 168.539062 328.476562 165.757812 326.125 165.21875 322.910156 L 145.722656 206.371094 L 135.949219 232.917969 C 134.988281 235.542969 132.492188 237.285156 129.695312 237.285156 L 7.839844 237.285156 C 4.160156 237.285156 1.171875 234.296875 1.171875 230.617188 C 1.171875 226.9375 4.160156 223.949219 7.839844 223.949219 L 125.046875 223.949219 L 141.894531 178.171875 C 142.9375 175.332031 145.804688 173.515625 148.769531 173.839844 C 151.78125 174.121094 154.226562 176.390625 154.722656 179.375 L 171.441406 279.308594 L 197.125 108.445312 C 197.617188 105.179688 200.421875 102.769531 203.71875 102.769531 C 203.753906 102.769531 203.789062 102.769531 203.824219 102.769531 C 207.164062 102.824219 209.945312 105.339844 210.335938 108.65625 L 225.457031 236.59375 L 228.289062 228.433594 C 229.214844 225.75 231.746094 223.949219 234.582031 223.949219 L 352.167969 223.949219 C 355.847656 223.949219 358.835938 226.9375 358.835938 230.617188 C 358.835938 234.296875 355.847656 237.285156 352.167969 237.285156 L 239.328125 237.285156 L 228.539062 268.378906 C 227.523438 271.316406 224.628906 273.15625 221.523438 272.824219 C 218.433594 272.488281 215.984375 270.0625 215.621094 266.976562 L 202.925781 159.546875 L 178.386719 322.800781 C 177.898438 326.042969 175.128906 328.453125 171.851562 328.476562 C 171.828125 328.476562 171.8125 328.476562 171.792969 328.476562 " fill-opacity="1" fill-rule="nonzero"/></g><g clip-path="url(#2116ce15e4)"><path fill="#231f20" d="M 315.234375 178.671875 C 315.746094 180.640625 316.4375 182.589844 317.21875 184.546875 C 344.207031 187.816406 365.117188 210.800781 365.117188 238.671875 C 365.117188 265.21875 346.144531 287.335938 321.019531 292.203125 C 332.609375 287.132812 349.992188 275.175781 352.1875 248.640625 C 352.1875 248.640625 346.71875 258.816406 342.15625 257.027344 C 340.164062 256.246094 339.171875 252.84375 341.242188 243.824219 C 346.007812 223.011719 331.449219 215.078125 331.171875 214.929688 C 331.285156 215.125 336.167969 223.609375 332.707031 229.667969 C 329.203125 235.796875 323.167969 229.667969 322 210.84375 C 321.101562 196.269531 310.582031 185.542969 310.582031 171.726562 C 310.582031 171.726562 303.710938 184.570312 303.125 205.976562 C 302.753906 219.535156 291.539062 220.027344 295.777344 208.3125 C 298.84375 199.847656 295.339844 192.257812 295.339844 192.257812 C 295.339844 192.257812 295.757812 199.78125 290.71875 205.148438 C 282.199219 214.226562 292.636719 230.320312 288.121094 232.023438 C 284.609375 233.347656 285.191406 228.0625 284.050781 223.589844 C 283.109375 219.90625 280.160156 216.972656 280.160156 216.972656 C 281.132812 223.007812 277.203125 231.109375 276.949219 235.851562 C 276.195312 249.894531 286.351562 252.460938 283.441406 256.085938 C 279.136719 261.445312 268.992188 246.449219 268.992188 246.449219 C 270.046875 274.4375 289.335938 287.179688 301.273438 292.40625 C 275.597656 287.984375 256.0625 265.609375 256.0625 238.671875 C 256.0625 211.425781 276.050781 188.84375 302.167969 184.792969 C 302.695312 182.589844 303.257812 180.613281 303.808594 178.875 C 273.765625 182.246094 250.414062 207.730469 250.414062 238.671875 C 250.414062 271.90625 277.355469 298.847656 310.589844 298.847656 C 343.824219 298.847656 370.765625 271.90625 370.765625 238.671875 C 370.765625 207 346.296875 181.042969 315.234375 178.671875 " fill-opacity="1" fill-rule="nonzero"/></g><g clip-path="url(#1cfabdf8c5)"><path fill="#38cfa2" d="M 352.1875 248.640625 C 348.890625 288.53125 311.261719 295.480469 310.601562 295.597656 C 310.597656 295.597656 310.59375 295.601562 310.589844 295.601562 C 310.589844 295.601562 313.449219 288.039062 307.675781 277.109375 C 300.472656 263.488281 302.355469 247.414062 312.539062 234.683594 C 312.539062 234.683594 299.75 242.972656 295.996094 254.921875 C 296.921875 235.898438 314.921875 226.703125 310.578125 207.144531 C 306.886719 190.523438 310.585938 171.726562 310.585938 171.726562 C 310.585938 185.542969 321.101562 196.269531 322.003906 210.84375 C 323.171875 229.667969 329.203125 235.796875 332.707031 229.667969 C 336.167969 223.609375 331.285156 215.125 331.171875 214.929688 C 331.453125 215.078125 346.011719 223.011719 341.242188 243.824219 C 339.171875 252.84375 340.164062 256.246094 342.15625 257.027344 C 346.71875 258.816406 352.1875 248.640625 352.1875 248.640625 " fill-opacity="1" fill-rule="nonzero"/></g><g clip-path="url(#3f938fc296)"><path fill="#19c09e" d="M 342.15625 257.027344 C 340.164062 256.246094 339.171875 252.84375 341.242188 243.824219 C 346.011719 223.011719 331.453125 215.078125 331.171875 214.929688 C 331.285156 215.125 336.167969 223.609375 332.707031 229.667969 C 329.203125 235.796875 323.171875 229.667969 322.003906 210.84375 C 321.101562 196.269531 310.585938 185.542969 310.585938 171.726562 C 310.585938 171.726562 310.246094 185.25 314.917969 198.386719 C 319.589844 211.523438 314.050781 221.261719 323.675781 236.921875 C 332.730469 251.664062 328.542969 268.515625 320.910156 275.164062 C 320.910156 275.164062 328.207031 273.121094 330.882812 262.78125 C 331.0625 276.382812 325.761719 290.152344 310.601562 295.597656 C 311.261719 295.480469 348.890625 288.53125 352.1875 248.640625 C 352.1875 248.640625 346.71875 258.816406 342.15625 257.027344 " fill-opacity="1" fill-rule="nonzero"/></g></svg>