<svg xmlns="http://www.w3.org/2000/svg" xmlns:xlink="http://www.w3.org/1999/xlink" width="500" zoomAndPan="magnify" viewBox="0 0 375 374.999991" height="500" preserveAspectRatio="xMidYMid meet" version="1.0"><defs><clipPath id="f54516f595"><path d="M 91.429688 74.410156 L 185.246094 74.410156 L 185.246094 370.875 L 91.429688 370.875 Z M 91.429688 74.410156 " clip-rule="nonzero"/></clipPath><clipPath id="9a3c583b4f"><path d="M 100.0625 74.410156 L 147.144531 74.410156 L 147.144531 370.875 L 100.0625 370.875 Z M 100.0625 74.410156 " clip-rule="nonzero"/></clipPath><clipPath id="09ae0e8ac2"><path d="M 249 213.652344 L 279 213.652344 L 279 269 L 249 269 Z M 249 213.652344 " clip-rule="nonzero"/></clipPath><clipPath id="9e536b966c"><path d="M 254 228 L 299.449219 228 L 299.449219 274 L 254 274 Z M 254 228 " clip-rule="nonzero"/></clipPath><clipPath id="19f3f8153c"><path d="M 206.449219 259 L 297 259 L 297 364 L 206.449219 364 Z M 206.449219 259 " clip-rule="nonzero"/></clipPath><clipPath id="b04ef3cad2"><path d="M 206.449219 250 L 297 250 L 297 272 L 206.449219 272 Z M 206.449219 250 " clip-rule="nonzero"/></clipPath></defs><path fill="#19c09e" d="M 157.910156 27.125 C 159.277344 26.144531 158.890625 12.023438 157.515625 12.21875 C 156.886719 12.308594 156.710938 11.746094 156.703125 11.179688 C 156.695312 10.503906 156.929688 9.832031 156.929688 10.257812 C 156.929688 11.042969 164.378906 5.554688 141.632812 3.003906 L 135.042969 3.003906 C 112.292969 5.554688 119.746094 11.042969 119.746094 10.257812 C 119.746094 9.832031 119.980469 10.503906 119.96875 11.179688 C 119.964844 11.746094 119.785156 12.308594 119.15625 12.21875 C 117.785156 12.023438 117.394531 26.144531 118.765625 27.125 C 119.929688 27.953125 118.980469 64.019531 118.664062 74.976562 C 132.664062 73.875 149.226562 74.871094 158.027344 75.582031 C 157.730469 65.414062 156.722656 27.96875 157.910156 27.125 " fill-opacity="1" fill-rule="nonzero"/><g clip-path="url(#f54516f595)"><path fill="#e6e7e8" d="M 179.871094 333.617188 C 177.320312 331.066406 180.066406 295.183594 180.265625 280.476562 C 180.460938 265.769531 185.949219 120.460938 185.164062 113.992188 C 184.378906 107.519531 179.085938 106.148438 172.617188 100.460938 C 166.144531 94.773438 164.773438 92.226562 163.398438 88.304688 C 162.023438 84.382812 160.0625 84.578125 157.515625 83.402344 C 154.964844 82.226562 158.105469 78.105469 158.105469 78.105469 C 158.105469 78.105469 158.074219 77.175781 158.027344 75.582031 C 149.226562 74.871094 132.664062 73.875 118.664062 74.976562 C 118.605469 76.945312 118.570312 78.105469 118.570312 78.105469 C 118.570312 78.105469 121.707031 82.226562 119.15625 83.402344 C 116.609375 84.578125 114.648438 84.382812 113.273438 88.304688 C 111.902344 92.226562 110.53125 94.773438 104.058594 100.460938 C 97.585938 106.148438 92.292969 107.519531 91.507812 113.992188 C 90.722656 120.460938 96.214844 265.769531 96.410156 280.476562 C 96.605469 295.183594 99.351562 331.066406 96.800781 333.617188 C 94.253906 336.167969 92.488281 335.578125 92.097656 339.105469 C 91.703125 342.636719 91.703125 362.835938 98.566406 366.367188 C 105.429688 369.894531 127 370.875 127 370.875 L 149.671875 370.875 C 149.671875 370.875 171.242188 369.894531 178.105469 366.367188 C 184.96875 362.835938 184.96875 342.636719 184.578125 339.105469 C 184.183594 335.578125 182.417969 336.167969 179.871094 333.617188 " fill-opacity="1" fill-rule="nonzero"/></g><path fill="#19c09e" d="M 173.867188 151.445312 C 173.867188 151.445312 146.609375 141.445312 100.53125 151.25 L 100.53125 130.464844 C 146.609375 120.660156 173.867188 130.660156 173.867188 130.660156 L 173.867188 151.445312 " fill-opacity="1" fill-rule="nonzero"/><path fill="#19c09e" d="M 168.179688 215.570312 C 168.179688 218.167969 166.074219 220.273438 163.476562 220.273438 L 111.117188 220.273438 C 108.515625 220.273438 106.410156 218.167969 106.410156 215.570312 L 106.410156 163.800781 C 106.410156 161.199219 108.515625 159.09375 111.117188 159.09375 L 163.476562 159.09375 C 166.074219 159.09375 168.179688 161.199219 168.179688 163.800781 L 168.179688 215.570312 " fill-opacity="1" fill-rule="nonzero"/><path fill="#ffffff" d="M 143.183594 74.699219 C 141.328125 74.625 139.414062 74.570312 137.460938 74.53125 C 139.414062 74.570312 141.328125 74.625 143.183594 74.699219 " fill-opacity="1" fill-rule="nonzero"/><path fill="#38cfa2" d="M 143.183594 74.699219 C 141.328125 74.625 139.414062 74.570312 137.460938 74.53125 C 138.984375 74.5 140.511719 74.488281 142.03125 74.488281 C 143.871094 74.488281 145.699219 74.511719 147.492188 74.546875 C 146.050781 74.582031 144.609375 74.628906 143.183594 74.699219 " fill-opacity="1" fill-rule="nonzero"/><g clip-path="url(#9a3c583b4f)"><path fill="#f3f3f4" d="M 147.003906 370.875 L 136.414062 370.875 C 136.414062 370.875 114.84375 369.894531 107.980469 366.367188 C 101.117188 362.835938 101.117188 342.636719 101.511719 339.105469 C 101.902344 335.578125 103.664062 336.167969 106.214844 333.617188 C 108.765625 331.066406 106.019531 295.183594 105.824219 280.476562 C 105.6875 270.257812 102.992188 196.957031 101.625 151.019531 C 105.257812 150.269531 108.773438 149.636719 112.160156 149.117188 C 112.253906 152.308594 112.355469 155.648438 112.460938 159.09375 L 111.117188 159.09375 C 108.515625 159.09375 106.410156 161.199219 106.410156 163.800781 L 106.410156 215.570312 C 106.410156 218.167969 108.515625 220.273438 111.117188 220.273438 L 114.472656 220.273438 C 115.464844 249.496094 116.335938 274.78125 116.414062 280.476562 C 116.609375 295.183594 119.351562 331.066406 116.804688 333.617188 C 114.253906 336.167969 112.488281 335.578125 112.097656 339.105469 C 111.707031 342.636719 111.707031 362.835938 118.570312 366.367188 C 125.433594 369.894531 147.003906 370.875 147.003906 370.875 M 101.0625 130.351562 C 100.84375 121.230469 100.773438 115.199219 100.921875 113.992188 C 101.707031 107.519531 107 106.148438 113.472656 100.460938 C 119.941406 94.773438 121.316406 92.226562 122.6875 88.304688 C 124.0625 84.382812 126.019531 84.578125 128.570312 83.402344 C 131.117188 82.226562 127.980469 78.105469 127.980469 78.105469 C 127.980469 78.105469 128.019531 76.945312 128.078125 74.976562 C 131.117188 74.738281 134.28125 74.597656 137.460938 74.53125 C 139.414062 74.570312 141.328125 74.625 143.183594 74.699219 C 141.65625 74.769531 140.148438 74.859375 138.664062 74.976562 C 138.605469 76.945312 138.570312 78.105469 138.570312 78.105469 C 138.570312 78.105469 141.707031 82.226562 139.160156 83.402344 C 136.609375 84.578125 134.648438 84.382812 133.277344 88.304688 C 131.90625 92.226562 130.53125 94.773438 124.0625 100.460938 C 117.589844 106.148438 112.292969 107.519531 111.507812 113.992188 C 111.375 115.109375 111.425781 120.382812 111.605469 128.417969 C 108.214844 128.945312 104.695312 129.585938 101.0625 130.351562 " fill-opacity="1" fill-rule="nonzero"/></g><path fill="#38cfa2" d="M 101.625 151.019531 C 101.394531 143.183594 101.199219 136.148438 101.0625 130.351562 C 104.695312 129.585938 108.214844 128.945312 111.605469 128.417969 C 111.734375 134.101562 111.925781 141.164062 112.160156 149.117188 C 108.773438 149.636719 105.257812 150.269531 101.625 151.019531 " fill-opacity="1" fill-rule="nonzero"/><path fill="#38cfa2" d="M 114.472656 220.273438 L 111.117188 220.273438 C 108.515625 220.273438 106.410156 218.167969 106.410156 215.570312 L 106.410156 163.800781 C 106.410156 161.199219 108.515625 159.09375 111.117188 159.09375 L 112.460938 159.09375 C 113.042969 177.910156 113.785156 200.035156 114.472656 220.273438 " fill-opacity="1" fill-rule="nonzero"/><path fill="#ffffff" d="M 251.925781 244.167969 C 254.375 232.933594 267.445312 214.566406 271.023438 215.347656 C 274.503906 216.109375 278.820312 238.273438 276.363281 249.503906 C 273.910156 260.738281 266.453125 268.652344 259.703125 267.179688 C 252.953125 265.703125 249.472656 255.402344 251.925781 244.167969 " fill-opacity="1" fill-rule="nonzero"/><g clip-path="url(#09ae0e8ac2)"><path stroke-linecap="round" transform="matrix(0.0595478, 0, 0, -0.0595478, 126.358062, 418.890932)" fill="none" stroke-linejoin="round" d="M 2108.688648 2934.164384 C 2149.818962 3122.825922 2369.311836 3431.27048 2429.400142 3418.150762 C 2487.848484 3405.359038 2560.334923 3033.152652 2519.073411 2844.556713 C 2477.877498 2655.895176 2352.649795 2522.992437 2239.295436 2547.723105 C 2125.941076 2572.519371 2067.492735 2745.502846 2108.688648 2934.164384 Z M 2108.688648 2934.164384 " stroke="#0f1d2d" stroke-width="50" stroke-opacity="1" stroke-miterlimit="10"/></g><path fill="#19c09e" d="M 255.878906 243.472656 C 255.878906 243.472656 251.660156 258.867188 260.167969 262.707031 L 262.339844 252.757812 L 255.878906 243.472656 " fill-opacity="1" fill-rule="nonzero"/><path fill="#19c09e" d="M 256.140625 242.25 L 262.585938 251.625 L 265 240.585938 L 260.621094 232.414062 C 260.621094 232.414062 257.746094 236.917969 256.140625 242.25 " fill-opacity="1" fill-rule="nonzero"/><path fill="#19c09e" d="M 261.296875 231.375 C 261.296875 231.375 265.664062 223.53125 269.328125 220.769531 L 265.3125 239.15625 L 261.296875 231.375 " fill-opacity="1" fill-rule="nonzero"/><path fill="#19c09e" d="M 273.058594 247.226562 C 273.058594 247.226562 270.476562 262.976562 261.140625 262.917969 L 263.316406 252.96875 L 273.058594 247.226562 " fill-opacity="1" fill-rule="nonzero"/><path fill="#19c09e" d="M 273.335938 246.003906 L 263.5625 251.835938 L 265.972656 240.796875 L 273.359375 235.195312 C 273.359375 235.195312 274.09375 240.488281 273.335938 246.003906 " fill-opacity="1" fill-rule="nonzero"/><path fill="#19c09e" d="M 273.179688 233.972656 C 273.179688 233.972656 272.480469 225.023438 270.300781 220.984375 L 266.285156 239.371094 L 273.179688 233.972656 " fill-opacity="1" fill-rule="nonzero"/><path fill="#ffffff" d="M 263.117188 242.820312 C 256.105469 233.710938 236.449219 222.679688 233.546875 224.914062 C 230.722656 227.089844 236.28125 248.972656 243.296875 258.082031 C 250.3125 267.195312 260.4375 271.164062 265.910156 266.949219 C 271.386719 262.734375 270.136719 251.933594 263.117188 242.820312 " fill-opacity="1" fill-rule="nonzero"/><path stroke-linecap="round" transform="matrix(0.0595478, 0, 0, -0.0595478, 126.358062, 418.890932)" fill="none" stroke-linejoin="round" d="M 2296.628601 2956.795897 C 2178.879137 3109.771803 1848.787044 3295.022214 1800.047294 3257.499822 C 1752.619515 3220.961408 1845.966305 2853.478121 1963.781368 2700.502215 C 2081.596431 2547.460711 2251.62797 2480.812546 2343.531591 2551.593422 C 2435.500811 2622.374298 2414.509263 2803.754392 2296.628601 2956.795897 Z M 2296.628601 2956.795897 " stroke="#0f1d2d" stroke-width="50" stroke-opacity="1" stroke-miterlimit="10"/><path fill="#19c09e" d="M 259.246094 243.882812 C 259.246094 243.882812 269.636719 256 263.582031 263.105469 L 257.367188 255.035156 L 259.246094 243.882812 " fill-opacity="1" fill-rule="nonzero"/><path fill="#19c09e" d="M 258.488281 242.886719 L 256.660156 254.117188 L 249.765625 245.164062 L 250.238281 235.90625 C 250.238281 235.90625 254.761719 238.753906 258.488281 242.886719 " fill-opacity="1" fill-rule="nonzero"/><path fill="#19c09e" d="M 249.183594 235.253906 C 249.183594 235.253906 241.886719 230.027344 237.394531 229.09375 L 248.875 244.007812 L 249.183594 235.253906 " fill-opacity="1" fill-rule="nonzero"/><path fill="#19c09e" d="M 245.3125 254.609375 C 245.3125 254.609375 254.375 267.753906 262.789062 263.710938 L 256.578125 255.644531 L 245.3125 254.609375 " fill-opacity="1" fill-rule="nonzero"/><path fill="#19c09e" d="M 244.542969 253.621094 L 255.871094 254.726562 L 248.976562 245.773438 L 239.90625 243.863281 C 239.90625 243.863281 241.5 248.960938 244.542969 253.621094 " fill-opacity="1" fill-rule="nonzero"/><path fill="#19c09e" d="M 239.546875 242.675781 C 239.546875 242.675781 236.355469 234.285156 236.605469 229.703125 L 248.085938 244.613281 L 239.546875 242.675781 " fill-opacity="1" fill-rule="nonzero"/><path fill="#19c09e" d="M 264.414062 261.910156 C 264.179688 262.320312 263.90625 262.722656 263.582031 263.105469 L 262.488281 261.6875 C 263.121094 261.796875 263.761719 261.871094 264.414062 261.910156 " fill-opacity="1" fill-rule="nonzero"/><path fill="#19c09e" d="M 247.566406 242.304688 L 237.394531 229.09375 C 241.886719 230.027344 249.183594 235.253906 249.183594 235.253906 L 249.136719 236.578125 C 248.308594 238.355469 247.761719 240.285156 247.566406 242.304688 " fill-opacity="1" fill-rule="nonzero"/><path fill="#19c09e" d="M 251.472656 255.175781 C 253.878906 258.15625 257.203125 260.378906 260.988281 261.371094 L 262.789062 263.710938 C 254.375 267.753906 245.3125 254.609375 245.3125 254.609375 L 251.472656 255.175781 " fill-opacity="1" fill-rule="nonzero"/><path fill="#19c09e" d="M 247.546875 245.472656 C 247.816406 248.691406 248.96875 251.695312 250.757812 254.226562 L 244.542969 253.621094 C 241.5 248.960938 239.90625 243.863281 239.90625 243.863281 L 247.546875 245.472656 " fill-opacity="1" fill-rule="nonzero"/><path fill="#19c09e" d="M 236.605469 229.703125 L 247.484375 243.832031 C 247.484375 243.890625 247.480469 243.949219 247.480469 244.003906 C 247.480469 244.164062 247.488281 244.324219 247.492188 244.480469 L 239.546875 242.675781 C 239.546875 242.675781 236.355469 234.285156 236.605469 229.703125 " fill-opacity="1" fill-rule="nonzero"/><path stroke-linecap="round" transform="matrix(0.0595478, 0, 0, -0.0595478, 126.358062, 418.890932)" fill="none" stroke-linejoin="round" d="M 1429.15288 3170.122503 L 1614.206495 3170.122503 L 1814.413384 2078.102817 " stroke="#0f1d2d" stroke-width="50" stroke-opacity="1" stroke-miterlimit="10"/><path fill="#ffffff" d="M 297.875 251.058594 C 297.875 262.734375 288.410156 272.199219 276.734375 272.199219 C 265.058594 272.199219 255.59375 262.734375 255.59375 251.058594 C 255.59375 239.382812 265.058594 229.917969 276.734375 229.917969 C 288.410156 229.917969 297.875 239.382812 297.875 251.058594 " fill-opacity="1" fill-rule="nonzero"/><g clip-path="url(#9e536b966c)"><path stroke-linecap="round" transform="matrix(0.0595478, 0, 0, -0.0595478, 126.358062, 418.890932)" fill="none" stroke-linejoin="round" d="M 2880.324833 2818.448476 C 2880.324833 2622.374298 2721.379455 2463.42892 2525.305277 2463.42892 C 2329.231099 2463.42892 2170.285722 2622.374298 2170.285722 2818.448476 C 2170.285722 3014.522654 2329.231099 3173.468031 2525.305277 3173.468031 C 2721.379455 3173.468031 2880.324833 3014.522654 2880.324833 2818.448476 Z M 2880.324833 2818.448476 " stroke="#0f1d2d" stroke-width="50" stroke-opacity="1" stroke-miterlimit="10"/></g><path fill="#19c09e" d="M 288.714844 261.980469 C 288.730469 262 288.734375 262.015625 288.75 262.035156 C 293.253906 259.324219 293.046875 253.484375 292.851562 251.621094 L 278.300781 251.6875 L 288.714844 261.980469 " fill-opacity="1" fill-rule="nonzero"/><path fill="#19c09e" d="M 275.417969 250.511719 L 265.003906 240.21875 C 264.914062 240.128906 264.871094 240.023438 264.851562 239.910156 C 263.566406 240.671875 260.128906 243.417969 260.582031 250.621094 C 260.644531 250.597656 260.707031 250.582031 260.777344 250.578125 L 275.417969 250.511719 " fill-opacity="1" fill-rule="nonzero"/><path fill="#19c09e" d="M 278.285156 250.5 L 292.894531 250.429688 C 293.28125 243.378906 289.902344 240.675781 288.625 239.914062 C 288.601562 239.953125 288.578125 240 288.542969 240.035156 L 278.285156 250.5 " fill-opacity="1" fill-rule="nonzero"/><path fill="#19c09e" d="M 275.433594 251.703125 L 260.78125 251.769531 C 260.71875 251.769531 260.660156 251.753906 260.609375 251.738281 C 260.414062 253.769531 260.296875 259.710938 265.117188 262.253906 C 265.136719 262.222656 265.148438 262.191406 265.175781 262.164062 L 275.433594 251.703125 " fill-opacity="1" fill-rule="nonzero"/><path fill="#19c09e" d="M 277.457031 252.527344 L 277.457031 267.179688 C 277.457031 267.195312 277.449219 267.203125 277.449219 267.214844 C 284.523438 267.570312 287.210938 264.160156 287.960938 262.882812 C 287.933594 262.867188 287.902344 262.855469 287.875 262.828125 L 277.457031 252.527344 " fill-opacity="1" fill-rule="nonzero"/><path fill="#19c09e" d="M 276.265625 249.675781 L 276.265625 235.019531 C 276.265625 235 276.273438 234.984375 276.277344 234.960938 C 274.605469 234.773438 268.363281 234.421875 265.632812 239.238281 C 265.710938 239.269531 265.78125 239.308594 265.839844 239.371094 L 276.265625 249.675781 " fill-opacity="1" fill-rule="nonzero"/><path fill="#19c09e" d="M 276.265625 252.558594 L 266.027344 263 C 265.949219 263.078125 265.855469 263.121094 265.757812 263.148438 C 266.703125 264.582031 269.519531 267.59375 276.265625 267.207031 C 276.265625 267.195312 276.265625 267.191406 276.265625 267.179688 L 276.265625 252.558594 " fill-opacity="1" fill-rule="nonzero"/><path fill="#19c09e" d="M 277.457031 249.640625 L 287.691406 239.203125 C 287.738281 239.160156 287.789062 239.128906 287.839844 239.101562 C 285.152344 234.574219 279.300781 234.761719 277.441406 234.945312 C 277.445312 234.972656 277.457031 234.992188 277.457031 235.019531 L 277.457031 249.640625 " fill-opacity="1" fill-rule="nonzero"/><path fill="#19c09e" d="M 292.851562 251.621094 L 284.984375 251.65625 C 284.914062 253.546875 284.515625 255.402344 283.816406 257.140625 L 288.714844 261.980469 C 288.730469 262 288.734375 262.015625 288.75 262.035156 C 293.253906 259.324219 293.046875 253.484375 292.851562 251.621094 " fill-opacity="1" fill-rule="nonzero"/><path fill="#19c09e" d="M 288.625 239.914062 C 288.601562 239.953125 288.578125 240 288.542969 240.035156 L 283.765625 244.910156 C 284.488281 246.664062 284.910156 248.550781 284.984375 250.464844 L 292.894531 250.429688 C 293.28125 243.378906 289.902344 240.675781 288.625 239.914062 " fill-opacity="1" fill-rule="nonzero"/><path fill="#19c09e" d="M 287.875 262.828125 L 283.289062 258.296875 C 282.519531 259.847656 281.503906 261.277344 280.265625 262.511719 C 279.40625 263.367188 278.480469 264.210938 277.457031 264.863281 L 277.457031 267.179688 C 277.457031 267.195312 277.449219 267.203125 277.449219 267.214844 C 284.523438 267.570312 287.210938 264.160156 287.960938 262.882812 C 287.933594 262.867188 287.902344 262.855469 287.875 262.828125 " fill-opacity="1" fill-rule="nonzero"/><path fill="#19c09e" d="M 276.265625 236.75 L 276.265625 235.019531 C 276.265625 235 276.273438 234.984375 276.277344 234.960938 C 275.472656 234.871094 273.609375 234.75 271.59375 235.175781 C 273.222656 235.460938 274.800781 235.992188 276.265625 236.75 " fill-opacity="1" fill-rule="nonzero"/><path fill="#19c09e" d="M 276.265625 265.511719 C 274.878906 266.191406 273.695312 266.695312 272.460938 267.03125 C 273.5625 267.207031 274.820312 267.289062 276.265625 267.207031 C 276.265625 267.195312 276.265625 267.191406 276.265625 267.179688 L 276.265625 265.511719 " fill-opacity="1" fill-rule="nonzero"/><path fill="#19c09e" d="M 277.441406 234.945312 C 277.445312 234.972656 277.457031 234.992188 277.457031 235.019531 L 277.457031 237.429688 C 278.464844 238.066406 279.414062 238.8125 280.265625 239.664062 C 281.472656 240.871094 282.464844 242.257812 283.226562 243.753906 L 287.691406 239.203125 C 287.738281 239.160156 287.789062 239.128906 287.839844 239.101562 C 285.152344 234.574219 279.300781 234.761719 277.441406 234.945312 " fill-opacity="1" fill-rule="nonzero"/><path fill="#ffffff" d="M 295.097656 260.921875 L 208.039062 260.921875 L 229.804688 295.195312 L 247.828125 323.566406 L 247.828125 362.503906 L 255.308594 362.503906 L 255.308594 323.570312 L 273.335938 295.195312 L 295.097656 260.921875 " fill-opacity="1" fill-rule="nonzero"/><g clip-path="url(#19f3f8153c)"><path stroke-linecap="round" transform="matrix(0.0595478, 0, 0, -0.0595478, 126.358062, 418.890932)" fill="none" stroke-linejoin="round" d="M 2833.684237 2652.812042 L 1371.688517 2652.812042 L 1737.203847 2077.250035 L 2039.87573 1600.807494 L 2039.87573 946.920774 L 2165.497025 946.920774 L 2165.497025 1600.741896 L 2468.234506 2077.250035 Z M 2833.684237 2652.812042 " stroke="#0f1d2d" stroke-width="50" stroke-opacity="1" stroke-miterlimit="10"/></g><path fill="#19c09e" d="M 251.660156 317.050781 L 277.867188 274.800781 C 277.867188 274.800781 265.425781 276.160156 249.820312 276.15625 L 249.820312 276.132812 C 235.894531 275.960938 225.269531 274.800781 225.269531 274.800781 L 251.660156 317.050781 " fill-opacity="1" fill-rule="nonzero"/><path fill="#19c09e" d="M 259.882812 275.976562 C 259.125 282.664062 257.152344 288.4375 254.847656 294.773438 C 253 299.859375 250.648438 305.621094 247.054688 309.679688 L 251.660156 317.050781 L 277.867188 274.800781 C 277.867188 274.800781 270.449219 275.609375 259.882812 275.976562 " fill-opacity="1" fill-rule="nonzero"/><path fill="#ffffff" d="M 295.097656 260.921875 C 295.097656 265.804688 275.609375 269.761719 251.570312 269.761719 C 227.527344 269.761719 208.039062 265.804688 208.039062 260.921875 C 208.039062 256.042969 227.527344 252.085938 251.570312 252.085938 C 275.609375 252.085938 295.097656 256.042969 295.097656 260.921875 " fill-opacity="1" fill-rule="nonzero"/><g clip-path="url(#b04ef3cad2)"><path stroke-linecap="round" transform="matrix(0.0595478, 0, 0, -0.0595478, 126.358062, 418.890932)" fill="none" stroke-linejoin="round" d="M 2833.684237 2652.812042 C 2833.684237 2570.813808 2506.412884 2504.362439 2102.719176 2504.362439 C 1698.95987 2504.362439 1371.688517 2570.813808 1371.688517 2652.812042 C 1371.688517 2734.744678 1698.95987 2801.196047 2102.719176 2801.196047 C 2506.412884 2801.196047 2833.684237 2734.744678 2833.684237 2652.812042 Z M 2833.684237 2652.812042 " stroke="#0f1d2d" stroke-width="50" stroke-opacity="1" stroke-miterlimit="10"/></g><path fill="#ffffff" d="M 267.371094 369.257812 L 235.761719 369.257812 L 238.296875 362.453125 C 238.304688 362.441406 238.304688 362.429688 238.308594 362.417969 L 238.449219 362.046875 C 238.710938 361.496094 239.199219 361.125 239.757812 361.125 L 263.644531 361.125 C 264.273438 361.125 264.8125 361.597656 265.042969 362.269531 C 265.046875 362.28125 265.054688 362.300781 265.058594 362.316406 L 267.371094 369.257812 " fill-opacity="1" fill-rule="nonzero"/><path stroke-linecap="round" transform="matrix(0.0595478, 0, 0, -0.0595478, 126.358062, 418.890932)" fill="none" stroke-linejoin="round" d="M 2368.065463 833.500817 L 1837.241693 833.500817 L 1879.815176 947.773556 C 1879.946373 947.970352 1879.946373 948.167147 1880.011972 948.363943 L 1882.373521 954.595809 C 1886.768626 963.84521 1894.96845 970.077076 1904.349048 970.077076 L 2305.48441 970.077076 C 2316.045783 970.077076 2325.098388 962.139647 2328.968705 950.85669 C 2329.034303 950.659894 2329.1655 950.331901 2329.231099 950.069507 Z M 2368.065463 833.500817 " stroke="#0f1d2d" stroke-width="50" stroke-opacity="1" stroke-miterlimit="10"/><path stroke-linecap="round" transform="matrix(0.0595478, 0, 0, -0.0595478, 126.358062, 418.890932)" fill="none" stroke-linejoin="round" d="M 1822.744405 2295.955726 L 1981.164994 2025.95194 " stroke="#ffffff" stroke-width="50" stroke-opacity="1" stroke-miterlimit="10"/><path fill="#ffffff" d="M 257.179688 295.996094 C 257.179688 297.5 255.957031 298.722656 254.453125 298.722656 C 252.945312 298.722656 251.726562 297.5 251.726562 295.996094 C 251.726562 294.488281 252.945312 293.269531 254.453125 293.269531 C 255.957031 293.269531 257.179688 294.488281 257.179688 295.996094 " fill-opacity="1" fill-rule="nonzero"/><path stroke-linecap="round" transform="matrix(0.0595478, 0, 0, -0.0595478, 126.358062, 418.890932)" fill="none" stroke-linejoin="round" d="M 2196.918748 2063.802325 C 2196.918748 2038.546869 2176.38639 2018.014511 2151.130934 2018.014511 C 2125.809879 2018.014511 2105.34312 2038.546869 2105.34312 2063.802325 C 2105.34312 2089.12338 2125.809879 2109.590139 2151.130934 2109.590139 C 2176.38639 2109.590139 2196.918748 2089.12338 2196.918748 2063.802325 Z M 2196.918748 2063.802325 " stroke="#0f1d2d" stroke-width="40" stroke-opacity="1" stroke-miterlimit="10"/><path fill="#ffffff" d="M 251.082031 302.992188 C 251.082031 303.984375 250.277344 304.785156 249.285156 304.785156 C 248.296875 304.785156 247.492188 303.984375 247.492188 302.992188 C 247.492188 302.003906 248.296875 301.199219 249.285156 301.199219 C 250.277344 301.199219 251.082031 302.003906 251.082031 302.992188 " fill-opacity="1" fill-rule="nonzero"/><path stroke-linecap="round" transform="matrix(0.0595478, 0, 0, -0.0595478, 126.358062, 418.890932)" fill="none" stroke-linejoin="round" d="M 2094.519353 1946.315255 C 2094.519353 1929.653214 2081.006044 1916.205503 2064.344003 1916.205503 C 2047.74756 1916.205503 2034.234251 1929.653214 2034.234251 1946.315255 C 2034.234251 1962.911697 2047.74756 1976.425006 2064.344003 1976.425006 C 2081.006044 1976.425006 2094.519353 1962.911697 2094.519353 1946.315255 Z M 2094.519353 1946.315255 " stroke="#0f1d2d" stroke-width="40" stroke-opacity="1" stroke-miterlimit="10"/><path fill="#ffffff" d="M 257.25 303.640625 C 257.25 304.351562 256.671875 304.929688 255.960938 304.929688 C 255.246094 304.929688 254.667969 304.351562 254.667969 303.640625 C 254.667969 302.925781 255.246094 302.347656 255.960938 302.347656 C 256.671875 302.347656 257.25 302.925781 257.25 303.640625 " fill-opacity="1" fill-rule="nonzero"/><path stroke-linecap="round" transform="matrix(0.0595478, 0, 0, -0.0595478, 126.358062, 418.890932)" fill="none" stroke-linejoin="round" d="M 2198.099523 1935.425889 C 2198.099523 1923.486946 2188.390932 1913.778355 2176.451989 1913.778355 C 2164.447447 1913.778355 2154.738856 1923.486946 2154.738856 1935.425889 C 2154.738856 1947.430431 2164.447447 1957.139022 2176.451989 1957.139022 C 2188.390932 1957.139022 2198.099523 1947.430431 2198.099523 1935.425889 Z M 2198.099523 1935.425889 " stroke="#0f1d2d" stroke-width="30" stroke-opacity="1" stroke-miterlimit="10"/></svg>