<svg xmlns="http://www.w3.org/2000/svg" xmlns:xlink="http://www.w3.org/1999/xlink" width="500" zoomAndPan="magnify" viewBox="0 0 375 374.999991" height="500" preserveAspectRatio="xMidYMid meet" version="1.0"><defs><clipPath id="eaea42fe1b"><path d="M 81.128906 141.488281 L 309 141.488281 L 309 369 L 81.128906 369 Z M 81.128906 141.488281 " clip-rule="nonzero"/></clipPath><clipPath id="4901dd9902"><path d="M 115 168 L 309.128906 168 L 309.128906 369.488281 L 115 369.488281 Z M 115 168 " clip-rule="nonzero"/></clipPath></defs><g clip-path="url(#eaea42fe1b)"><path fill="#19c09e" d="M 308.140625 255.066406 C 308.140625 256.921875 308.09375 258.78125 308.003906 260.636719 C 307.910156 262.492188 307.773438 264.34375 307.59375 266.191406 C 307.410156 268.039062 307.183594 269.882812 306.910156 271.722656 C 306.636719 273.558594 306.320312 275.386719 305.957031 277.210938 C 305.59375 279.03125 305.1875 280.84375 304.738281 282.644531 C 304.285156 284.449219 303.789062 286.238281 303.25 288.015625 C 302.710938 289.792969 302.128906 291.554688 301.503906 293.304688 C 300.878906 295.054688 300.210938 296.785156 299.5 298.503906 C 298.789062 300.21875 298.035156 301.917969 297.242188 303.597656 C 296.445312 305.273438 295.613281 306.933594 294.734375 308.574219 C 293.859375 310.210938 292.945312 311.828125 291.988281 313.417969 C 291.035156 315.011719 290.042969 316.582031 289.007812 318.125 C 287.976562 319.671875 286.90625 321.1875 285.800781 322.679688 C 284.695312 324.171875 283.550781 325.636719 282.375 327.074219 C 281.195312 328.507812 279.984375 329.914062 278.734375 331.292969 C 277.488281 332.667969 276.207031 334.011719 274.894531 335.328125 C 273.582031 336.640625 272.234375 337.921875 270.859375 339.167969 C 269.480469 340.414062 268.078125 341.628906 266.640625 342.808594 C 265.203125 343.984375 263.742188 345.128906 262.25 346.234375 C 260.757812 347.339844 259.238281 348.410156 257.695312 349.441406 C 256.148438 350.476562 254.578125 351.46875 252.988281 352.421875 C 251.394531 353.378906 249.777344 354.292969 248.140625 355.167969 C 246.5 356.042969 244.84375 356.878906 243.164062 357.675781 C 241.484375 358.46875 239.785156 359.222656 238.070312 359.933594 C 236.355469 360.640625 234.621094 361.3125 232.871094 361.9375 C 231.121094 362.5625 229.359375 363.144531 227.582031 363.683594 C 225.804688 364.222656 224.015625 364.71875 222.210938 365.171875 C 220.410156 365.621094 218.597656 366.027344 216.777344 366.390625 C 214.953125 366.753906 213.125 367.070312 211.289062 367.34375 C 209.449219 367.617188 207.605469 367.84375 205.757812 368.023438 C 203.910156 368.207031 202.058594 368.34375 200.203125 368.433594 C 198.347656 368.527344 196.492188 368.570312 194.632812 368.570312 C 192.777344 368.570312 190.917969 368.527344 189.0625 368.433594 C 187.207031 368.34375 185.355469 368.207031 183.507812 368.023438 C 181.660156 367.84375 179.816406 367.617188 177.976562 367.34375 C 176.140625 367.070312 174.3125 366.753906 172.488281 366.390625 C 170.667969 366.027344 168.855469 365.621094 167.054688 365.171875 C 165.25 364.71875 163.460938 364.222656 161.683594 363.683594 C 159.90625 363.144531 158.144531 362.5625 156.394531 361.9375 C 154.644531 361.3125 152.914062 360.640625 151.195312 359.933594 C 149.480469 359.222656 147.78125 358.46875 146.101562 357.675781 C 144.425781 356.878906 142.765625 356.042969 141.125 355.167969 C 139.488281 354.292969 137.871094 353.378906 136.28125 352.421875 C 134.6875 351.46875 133.117188 350.476562 131.574219 349.441406 C 130.027344 348.410156 128.511719 347.339844 127.019531 346.234375 C 125.527344 345.128906 124.0625 343.984375 122.625 342.808594 C 121.191406 341.628906 119.785156 340.414062 118.40625 339.167969 C 117.03125 337.921875 115.6875 336.640625 114.371094 335.328125 C 113.058594 334.011719 111.777344 332.667969 110.53125 331.292969 C 109.285156 329.914062 108.070312 328.507812 106.890625 327.074219 C 105.714844 325.636719 104.570312 324.171875 103.464844 322.679688 C 102.359375 321.1875 101.289062 319.671875 100.257812 318.125 C 99.222656 316.582031 98.230469 315.011719 97.277344 313.417969 C 96.320312 311.828125 95.40625 310.210938 94.53125 308.574219 C 93.65625 306.933594 92.820312 305.273438 92.023438 303.597656 C 91.230469 301.917969 90.476562 300.21875 89.765625 298.503906 C 89.058594 296.785156 88.386719 295.054688 87.761719 293.304688 C 87.136719 291.554688 86.554688 289.792969 86.015625 288.015625 C 85.476562 286.238281 84.980469 284.449219 84.527344 282.644531 C 84.078125 280.84375 83.671875 279.03125 83.308594 277.210938 C 82.945312 275.386719 82.628906 273.558594 82.355469 271.722656 C 82.082031 269.882812 81.855469 268.039062 81.675781 266.191406 C 81.492188 264.34375 81.355469 262.492188 81.265625 260.636719 C 81.171875 258.78125 81.128906 256.921875 81.128906 255.066406 C 81.128906 253.207031 81.171875 251.351562 81.265625 249.496094 C 81.355469 247.640625 81.492188 245.789062 81.675781 243.941406 C 81.855469 242.09375 82.082031 240.25 82.355469 238.410156 C 82.628906 236.574219 82.945312 234.746094 83.308594 232.921875 C 83.671875 231.101562 84.078125 229.289062 84.527344 227.488281 C 84.980469 225.683594 85.476562 223.894531 86.015625 222.117188 C 86.554688 220.339844 87.136719 218.578125 87.761719 216.828125 C 88.386719 215.078125 89.058594 213.34375 89.765625 211.628906 C 90.476562 209.914062 91.230469 208.214844 92.023438 206.535156 C 92.820312 204.855469 93.65625 203.199219 94.53125 201.558594 C 95.40625 199.921875 96.320312 198.304688 97.277344 196.710938 C 98.230469 195.121094 99.222656 193.550781 100.257812 192.003906 C 101.289062 190.460938 102.359375 188.941406 103.464844 187.449219 C 104.570312 185.957031 105.714844 184.496094 106.890625 183.058594 C 108.070312 181.621094 109.285156 180.21875 110.53125 178.839844 C 111.777344 177.464844 113.058594 176.117188 114.371094 174.804688 C 115.6875 173.492188 117.03125 172.210938 118.40625 170.964844 C 119.785156 169.714844 121.191406 168.503906 122.625 167.324219 C 124.0625 166.148438 125.527344 165.003906 127.019531 163.898438 C 128.511719 162.789062 130.027344 161.722656 131.574219 160.691406 C 133.117188 159.65625 134.6875 158.664062 136.28125 157.710938 C 137.871094 156.753906 139.488281 155.839844 141.125 154.964844 C 142.765625 154.085938 144.425781 153.253906 146.101562 152.457031 C 147.78125 151.664062 149.480469 150.910156 151.195312 150.199219 C 152.914062 149.488281 154.644531 148.820312 156.394531 148.195312 C 158.144531 147.570312 159.90625 146.988281 161.683594 146.449219 C 163.460938 145.910156 165.25 145.414062 167.054688 144.960938 C 168.855469 144.511719 170.667969 144.105469 172.488281 143.742188 C 174.3125 143.378906 176.140625 143.0625 177.976562 142.789062 C 179.816406 142.515625 181.660156 142.289062 183.507812 142.105469 C 185.355469 141.925781 187.207031 141.789062 189.0625 141.695312 C 190.917969 141.605469 192.777344 141.558594 194.632812 141.558594 C 196.492188 141.558594 198.347656 141.605469 200.203125 141.695312 C 202.058594 141.789062 203.910156 141.925781 205.757812 142.105469 C 207.605469 142.289062 209.449219 142.515625 211.289062 142.789062 C 213.125 143.0625 214.953125 143.378906 216.777344 143.742188 C 218.597656 144.105469 220.410156 144.511719 222.210938 144.960938 C 224.015625 145.414062 225.804688 145.910156 227.582031 146.449219 C 229.359375 146.988281 231.121094 147.570312 232.871094 148.195312 C 234.621094 148.820312 236.355469 149.488281 238.070312 150.199219 C 239.785156 150.910156 241.484375 151.664062 243.164062 152.457031 C 244.84375 153.253906 246.5 154.085938 248.140625 154.964844 C 249.777344 155.839844 251.394531 156.753906 252.988281 157.710938 C 254.578125 158.664062 256.148438 159.65625 257.695312 160.691406 C 259.238281 161.722656 260.757812 162.789062 262.25 163.898438 C 263.742188 165.003906 265.203125 166.148438 266.640625 167.324219 C 268.078125 168.503906 269.480469 169.714844 270.859375 170.964844 C 272.234375 172.210938 273.582031 173.492188 274.894531 174.804688 C 276.207031 176.117188 277.488281 177.464844 278.734375 178.839844 C 279.984375 180.21875 281.195312 181.621094 282.375 183.058594 C 283.550781 184.496094 284.695312 185.957031 285.800781 187.449219 C 286.90625 188.941406 287.976562 190.460938 289.007812 192.003906 C 290.042969 193.550781 291.035156 195.121094 291.988281 196.710938 C 292.945312 198.304688 293.859375 199.921875 294.734375 201.558594 C 295.613281 203.199219 296.445312 204.855469 297.242188 206.535156 C 298.035156 208.214844 298.789062 209.914062 299.5 211.628906 C 300.210938 213.34375 300.878906 215.078125 301.503906 216.828125 C 302.128906 218.578125 302.710938 220.339844 303.25 222.117188 C 303.789062 223.894531 304.285156 225.683594 304.738281 227.488281 C 305.1875 229.289062 305.59375 231.101562 305.957031 232.921875 C 306.320312 234.746094 306.636719 236.574219 306.910156 238.410156 C 307.183594 240.25 307.410156 242.09375 307.59375 243.941406 C 307.773438 245.789062 307.910156 247.640625 308.003906 249.496094 C 308.09375 251.351562 308.140625 253.207031 308.140625 255.066406 Z M 308.140625 255.066406 " fill-opacity="1" fill-rule="nonzero"/></g><path fill="#f3f3f4" d="M 165.726562 230.742188 C 165.726562 231.734375 165.628906 232.71875 165.433594 233.691406 C 165.242188 234.664062 164.953125 235.605469 164.574219 236.523438 C 164.195312 237.4375 163.730469 238.308594 163.179688 239.132812 C 162.628906 239.957031 162.003906 240.71875 161.300781 241.421875 C 160.601562 242.121094 159.839844 242.746094 159.015625 243.296875 C 158.191406 243.847656 157.320312 244.316406 156.402344 244.695312 C 155.488281 245.074219 154.542969 245.359375 153.570312 245.554688 C 152.597656 245.746094 151.617188 245.84375 150.625 245.84375 C 149.632812 245.84375 148.652344 245.746094 147.679688 245.554688 C 146.707031 245.359375 145.761719 245.074219 144.847656 244.695312 C 143.929688 244.316406 143.0625 243.847656 142.238281 243.296875 C 141.414062 242.746094 140.648438 242.121094 139.949219 241.421875 C 139.246094 240.71875 138.621094 239.957031 138.070312 239.132812 C 137.519531 238.308594 137.054688 237.4375 136.675781 236.523438 C 136.296875 235.605469 136.007812 234.664062 135.816406 233.691406 C 135.621094 232.71875 135.527344 231.734375 135.527344 230.742188 C 135.527344 229.753906 135.621094 228.769531 135.816406 227.796875 C 136.007812 226.824219 136.296875 225.882812 136.675781 224.964844 C 137.054688 224.050781 137.519531 223.179688 138.070312 222.355469 C 138.621094 221.53125 139.246094 220.769531 139.949219 220.066406 C 140.648438 219.367188 141.414062 218.738281 142.238281 218.1875 C 143.0625 217.636719 143.929688 217.171875 144.847656 216.792969 C 145.761719 216.414062 146.707031 216.128906 147.679688 215.933594 C 148.652344 215.742188 149.632812 215.644531 150.625 215.644531 C 151.617188 215.644531 152.597656 215.742188 153.570312 215.933594 C 154.542969 216.128906 155.488281 216.414062 156.402344 216.792969 C 157.320312 217.171875 158.191406 217.636719 159.015625 218.1875 C 159.839844 218.738281 160.601562 219.367188 161.300781 220.066406 C 162.003906 220.769531 162.628906 221.53125 163.179688 222.355469 C 163.730469 223.179688 164.195312 224.050781 164.574219 224.964844 C 164.953125 225.882812 165.242188 226.824219 165.433594 227.796875 C 165.628906 228.769531 165.726562 229.753906 165.726562 230.742188 Z M 165.726562 230.742188 " fill-opacity="1" fill-rule="nonzero"/><path fill="#f3f3f4" d="M 252.722656 231.703125 C 252.722656 232.695312 252.625 233.675781 252.433594 234.648438 C 252.238281 235.621094 251.953125 236.566406 251.574219 237.480469 C 251.195312 238.398438 250.730469 239.265625 250.179688 240.09375 C 249.628906 240.917969 249.003906 241.679688 248.300781 242.378906 C 247.601562 243.082031 246.835938 243.707031 246.011719 244.257812 C 245.1875 244.808594 244.316406 245.273438 243.402344 245.652344 C 242.484375 246.03125 241.542969 246.320312 240.570312 246.511719 C 239.597656 246.707031 238.617188 246.800781 237.625 246.800781 C 236.632812 246.800781 235.652344 246.707031 234.679688 246.511719 C 233.707031 246.320312 232.761719 246.03125 231.84375 245.652344 C 230.929688 245.273438 230.058594 244.808594 229.234375 244.257812 C 228.410156 243.707031 227.648438 243.082031 226.945312 242.378906 C 226.246094 241.679688 225.621094 240.917969 225.070312 240.09375 C 224.519531 239.265625 224.054688 238.398438 223.675781 237.480469 C 223.292969 236.566406 223.007812 235.621094 222.816406 234.648438 C 222.621094 233.675781 222.523438 232.695312 222.523438 231.703125 C 222.523438 230.710938 222.621094 229.730469 222.816406 228.757812 C 223.007812 227.785156 223.292969 226.839844 223.675781 225.925781 C 224.054688 225.007812 224.519531 224.136719 225.070312 223.3125 C 225.621094 222.488281 226.246094 221.726562 226.945312 221.027344 C 227.648438 220.324219 228.410156 219.699219 229.234375 219.148438 C 230.058594 218.597656 230.929688 218.132812 231.84375 217.753906 C 232.761719 217.375 233.707031 217.085938 234.679688 216.894531 C 235.652344 216.699219 236.632812 216.605469 237.625 216.605469 C 238.617188 216.605469 239.597656 216.699219 240.570312 216.894531 C 241.542969 217.085938 242.484375 217.375 243.402344 217.753906 C 244.316406 218.132812 245.1875 218.597656 246.011719 219.148438 C 246.835938 219.699219 247.601562 220.324219 248.300781 221.027344 C 249.003906 221.726562 249.628906 222.488281 250.179688 223.3125 C 250.730469 224.136719 251.195312 225.007812 251.574219 225.925781 C 251.953125 226.839844 252.238281 227.785156 252.433594 228.757812 C 252.625 229.730469 252.722656 230.710938 252.722656 231.703125 Z M 252.722656 231.703125 " fill-opacity="1" fill-rule="nonzero"/><path fill="#f3f3f4" d="M 168.210938 231.695312 C 165.917969 231.695312 163.757812 230.714844 162.234375 228.976562 C 158.757812 224.988281 149.875 215.761719 137.429688 209.558594 C 134.933594 208.316406 133.808594 205.367188 134.855469 202.789062 C 136.023438 199.902344 139.425781 198.613281 142.210938 200.003906 C 151.332031 204.5625 158.738281 210.496094 163.894531 215.347656 C 166.195312 217.511719 169.828125 217.265625 171.773438 214.785156 L 174.875 210.84375 C 176.699219 208.527344 180.054688 208.125 182.367188 209.941406 C 184.6875 211.765625 185.085938 215.125 183.269531 217.441406 L 174.472656 228.636719 C 173 230.511719 170.792969 231.625 168.414062 231.679688 C 168.34375 231.679688 168.277344 231.679688 168.207031 231.679688 Z M 168.210938 231.695312 " fill-opacity="1" fill-rule="nonzero"/><path fill="#f3f3f4" d="M 219.710938 231.738281 C 219.640625 231.738281 219.574219 231.738281 219.503906 231.738281 C 217.125 231.679688 214.917969 230.5625 213.445312 228.695312 L 204.648438 217.496094 C 202.824219 215.175781 203.226562 211.824219 205.550781 210 C 207.871094 208.175781 211.226562 208.578125 213.042969 210.894531 L 216.144531 214.835938 C 218.089844 217.316406 221.730469 217.554688 224.023438 215.398438 C 229.179688 210.554688 236.585938 204.613281 245.707031 200.0625 C 248.492188 198.671875 251.886719 199.960938 253.0625 202.84375 C 254.109375 205.425781 252.984375 208.367188 250.488281 209.617188 C 238.050781 215.816406 229.160156 225.046875 225.683594 229.027344 C 224.167969 230.765625 222 231.746094 219.707031 231.746094 Z M 219.710938 231.738281 " fill-opacity="1" fill-rule="nonzero"/><path fill="#f3f3f4" d="M 241.222656 306.867188 C 238.375 309.0625 234.402344 308.671875 231.878906 306.113281 C 222.386719 296.5 209.558594 291.089844 195.835938 291.089844 C 183.363281 291.089844 171.386719 295.691406 162.15625 303.890625 C 159.523438 306.226562 155.617188 306.378906 152.96875 304.050781 L 152.644531 303.769531 C 149.566406 301.050781 149.40625 296.191406 152.464844 293.449219 C 164.320312 282.828125 179.75 276.855469 195.828125 276.855469 C 213.445312 276.855469 229.902344 283.808594 242.050781 296.160156 C 245.03125 299.1875 244.804688 304.105469 241.4375 306.703125 L 241.207031 306.882812 Z M 241.222656 306.867188 " fill-opacity="1" fill-rule="nonzero"/><g clip-path="url(#4901dd9902)"><path fill="#38cfa2" d="M 267.457031 168.054688 C 288.050781 188.605469 300.796875 217.015625 300.796875 248.402344 C 300.796875 311.09375 249.976562 361.910156 187.292969 361.910156 C 160.128906 361.910156 135.207031 352.355469 115.675781 336.449219 C 136.210938 356.933594 164.542969 369.601562 195.835938 369.601562 C 258.527344 369.601562 309.34375 318.78125 309.34375 256.097656 C 309.34375 220.570312 293.011719 188.863281 267.457031 168.054688 Z M 267.457031 168.054688 " fill-opacity="1" fill-rule="nonzero"/></g><path fill="#000000" d="M 174.683594 69.828125 C 178.613281 88.582031 182.546875 107.453125 186.476562 126.210938 C 186.925781 128.34375 190.183594 127.445312 189.734375 125.3125 C 185.800781 106.554688 181.871094 87.683594 177.941406 68.929688 C 177.492188 66.792969 174.347656 67.691406 174.683594 69.828125 Z M 174.683594 69.828125 " fill-opacity="1" fill-rule="nonzero"/><path fill="#000000" d="M 199.054688 66.792969 C 199.617188 85.101562 200.066406 103.410156 200.628906 121.714844 C 200.742188 123.851562 204.109375 123.851562 203.996094 121.714844 C 203.4375 103.410156 202.988281 85.101562 202.425781 66.792969 C 202.425781 64.546875 199.054688 64.546875 199.054688 66.792969 Z M 199.054688 66.792969 " fill-opacity="1" fill-rule="nonzero"/><path fill="#000000" d="M 221.742188 68.03125 C 218.597656 83.753906 215.566406 99.476562 212.421875 115.203125 C 211.972656 117.335938 215.230469 118.234375 215.679688 116.101562 C 218.824219 100.375 221.855469 84.652344 225 68.929688 C 225.339844 66.792969 222.082031 65.894531 221.742188 68.03125 Z M 221.742188 68.03125 " fill-opacity="1" fill-rule="nonzero"/><path fill="#000000" d="M 156.824219 79.597656 C 147.839844 85.773438 135.035156 83.753906 127.171875 76.453125 C 123.128906 72.746094 120.660156 67.578125 120.660156 62.078125 C 120.660156 56.234375 123.019531 50.507812 126.835938 46.128906 C 131.21875 41.074219 137.507812 37.703125 144.359375 37.816406 C 145.257812 37.816406 146.042969 37.03125 146.042969 36.132812 C 146.605469 26.246094 152.332031 17.039062 160.644531 11.757812 C 169.066406 6.480469 179.851562 6.03125 188.835938 10.1875 C 193.890625 12.546875 198.382812 16.027344 201.640625 20.746094 C 202.3125 21.753906 203.886719 21.867188 204.558594 20.746094 C 208.601562 14.34375 216.128906 10.75 223.765625 11.648438 C 231.851562 12.546875 238.03125 18.722656 240.949219 26.023438 C 242.632812 30.179688 243.421875 34.671875 243.421875 39.164062 C 243.421875 41.410156 246.566406 41.296875 246.789062 39.164062 C 246.789062 38.714844 246.566406 40.289062 246.339844 40.0625 C 246.230469 39.839844 246.679688 40.175781 246.339844 40.0625 C 246.453125 40.175781 247.128906 39.839844 247.238281 39.839844 C 248.136719 39.726562 249.035156 39.726562 249.933594 39.726562 C 251.730469 39.726562 253.640625 39.839844 255.4375 39.949219 C 255.550781 39.949219 256.335938 40.0625 255.886719 39.949219 C 256.226562 40.0625 256.5625 40.0625 256.898438 40.175781 C 258.359375 40.511719 259.707031 41.074219 260.941406 41.746094 C 263.414062 42.984375 265.546875 44.890625 267.121094 47.136719 C 270.9375 52.53125 270.714844 59.15625 267.90625 64.996094 C 265.433594 70.164062 261.726562 74.878906 256.113281 76.789062 C 250.609375 78.585938 244.542969 77.800781 239.828125 74.320312 C 238.140625 72.972656 236.457031 75.890625 238.140625 77.238281 C 243.195312 81.058594 249.933594 81.957031 255.886719 80.382812 C 262.738281 78.585938 267.34375 73.421875 270.488281 67.242188 C 273.859375 60.503906 274.53125 52.753906 270.375 46.238281 C 267.121094 41.1875 261.617188 37.480469 255.550781 36.804688 C 253.191406 36.582031 250.722656 36.355469 248.25 36.582031 C 246.230469 36.691406 243.308594 36.917969 243.082031 39.5 C 244.207031 39.5 245.332031 39.5 246.453125 39.5 C 246.453125 30.515625 243.53125 20.96875 236.90625 14.792969 C 230.617188 8.390625 221.070312 6.480469 212.757812 9.847656 C 208.152344 11.648438 204.335938 14.902344 201.640625 19.058594 C 202.648438 19.058594 203.546875 19.058594 204.558594 19.058594 C 198.269531 9.847656 187.601562 4.234375 176.480469 4.007812 C 165.25 3.785156 154.914062 9.738281 148.515625 18.835938 C 145.03125 23.890625 142.898438 29.953125 142.5625 36.132812 C 143.121094 35.570312 143.683594 35.007812 144.246094 34.445312 C 130.65625 34.109375 118.863281 46.128906 117.402344 59.382812 C 115.941406 72.523438 126.273438 83.417969 138.628906 86 C 145.480469 87.460938 152.78125 86.5625 158.511719 82.519531 C 160.308594 81.28125 158.621094 78.363281 156.824219 79.597656 Z M 156.824219 79.597656 " fill-opacity="1" fill-rule="nonzero"/></svg>