<svg xmlns="http://www.w3.org/2000/svg" xmlns:xlink="http://www.w3.org/1999/xlink" width="500" zoomAndPan="magnify" viewBox="0 0 375 374.999991" height="500" preserveAspectRatio="xMidYMid meet" version="1.0"><defs><clipPath id="1bb88158f7"><path d="M 38 40.421875 L 305 40.421875 L 305 367.421875 L 38 367.421875 Z M 38 40.421875 " clip-rule="nonzero"/></clipPath><clipPath id="d65d8ba437"><path d="M 201.339844 40.421875 L 358.089844 40.421875 L 358.089844 175.421875 L 201.339844 175.421875 Z M 201.339844 40.421875 " clip-rule="nonzero"/></clipPath></defs><g clip-path="url(#1bb88158f7)"><path fill="#19c09e" d="M 296.550781 200.972656 L 297.042969 200.824219 C 297.042969 200.824219 296.058594 197.753906 294.242188 193.183594 C 293.996094 192.621094 293.800781 192.003906 293.554688 191.464844 C 285.003906 170.921875 256.550781 116.523438 171.835938 41.488281 L 171.835938 40.359375 C 171.664062 40.558594 171.492188 40.730469 171.273438 40.925781 C 171.050781 40.726562 170.878906 40.554688 170.707031 40.359375 L 170.707031 41.488281 C 86.972656 115.667969 58.152344 169.792969 49.234375 190.851562 C 48.789062 191.882812 48.398438 192.914062 47.980469 193.972656 C 46.40625 198.023438 45.5 200.824219 45.5 200.824219 L 45.890625 200.972656 C 41.148438 215.074219 38.050781 229.988281 38.050781 245.761719 C 38.050781 321.804688 97.707031 367.113281 171.195312 367.113281 C 244.757812 367.113281 304.410156 321.804688 304.410156 245.761719 C 304.414062 229.992188 301.320312 215.101562 296.550781 200.972656 Z M 296.550781 200.972656 " fill-opacity="1" fill-rule="nonzero"/></g><path fill="#ffffff" d="M 63.113281 222.644531 C 62.894531 222.644531 62.671875 222.644531 62.425781 222.617188 C 58.273438 222.25 55.226562 218.5625 55.597656 214.414062 C 57.488281 193.527344 70.4375 167.949219 94.074219 138.390625 C 96.703125 135.148438 101.441406 134.632812 104.683594 137.214844 C 107.929688 139.820312 108.46875 144.558594 105.867188 147.828125 C 84.417969 174.632812 72.230469 198.148438 70.632812 215.785156 C 70.265625 219.695312 66.996094 222.644531 63.113281 222.644531 Z M 63.113281 222.644531 " fill-opacity="1" fill-rule="nonzero"/><path fill="#ffffff" d="M 165.203125 105.695312 C 168.519531 118.714844 159.796875 132.175781 145.742188 135.742188 C 131.714844 139.328125 117.613281 131.660156 114.320312 118.640625 C 111.003906 105.617188 119.699219 92.175781 133.730469 88.589844 C 147.785156 85.003906 161.882812 92.671875 165.203125 105.695312 Z M 165.203125 105.695312 " fill-opacity="1" fill-rule="nonzero"/><path fill="#ffffff" d="M 139.75 104.265625 C 139.75 109.917969 135.25 114.488281 129.699219 114.488281 C 124.148438 114.488281 119.648438 109.917969 119.648438 104.265625 C 119.648438 98.640625 124.148438 94.046875 129.699219 94.046875 C 135.25 94.046875 139.75 98.640625 139.75 104.265625 Z M 139.75 104.265625 " fill-opacity="1" fill-rule="nonzero"/><path fill="#f3f3f4" d="M 171.273438 353.058594 C 167.09375 353.058594 163.726562 349.71875 163.726562 345.542969 C 163.726562 341.363281 167.09375 338.023438 171.273438 338.023438 C 171.785156 338.023438 223.238281 337.53125 252.472656 307.066406 C 266.773438 292.128906 273.554688 272.179688 272.570312 247.632812 C 272.375 243.480469 275.617188 239.96875 279.84375 239.792969 C 279.945312 239.792969 280.042969 239.792969 280.140625 239.792969 C 284.171875 239.792969 287.507812 242.964844 287.660156 247.042969 C 288.789062 275.8125 280.632812 299.597656 263.335938 317.582031 C 229.574219 352.667969 173.628906 353.058594 171.273438 353.058594 Z M 171.273438 353.058594 " fill-opacity="1" fill-rule="nonzero"/><path fill="#ffffff" d="M 101.960938 282.398438 C 97.292969 282.398438 93.507812 278.617188 93.507812 273.945312 L 93.507812 169.5 C 93.507812 164.832031 97.292969 161.046875 101.960938 161.046875 L 176.429688 161.046875 C 181.101562 161.046875 184.882812 164.832031 184.882812 169.5 C 184.882812 174.167969 181.101562 177.949219 176.429688 177.949219 L 110.414062 177.949219 L 110.414062 273.945312 C 110.414062 278.613281 106.625 282.398438 101.960938 282.398438 Z M 101.960938 282.398438 " fill-opacity="1" fill-rule="nonzero"/><path fill="#ffffff" d="M 168.496094 229.179688 L 101.960938 229.179688 C 97.292969 229.179688 93.507812 225.394531 93.507812 220.730469 C 93.507812 216.058594 97.292969 212.273438 101.960938 212.273438 L 168.496094 212.273438 C 173.164062 212.273438 176.945312 216.058594 176.945312 220.730469 C 176.945312 225.394531 173.164062 229.179688 168.496094 229.179688 Z M 168.496094 229.179688 " fill-opacity="1" fill-rule="nonzero"/><path fill="#ffffff" d="M 218.347656 285.542969 C 199.476562 285.542969 184.121094 272.671875 184.121094 256.84375 L 184.121094 227.976562 C 184.121094 212.152344 200.386719 199.28125 220.386719 199.28125 C 239.5 199.28125 253.40625 211.339844 253.40625 227.976562 L 253.40625 238.199219 C 253.40625 241.738281 250.554688 244.585938 247.019531 244.585938 L 196.898438 244.6875 L 196.898438 256.84375 C 196.898438 265.644531 206.53125 272.765625 218.347656 272.765625 C 223.925781 272.765625 229.03125 271.6875 233.164062 269.574219 C 236.898438 267.652344 238.273438 265.152344 241.125 259.597656 L 252.71875 264.953125 C 249.625 271.097656 246.625 277.089844 238.957031 281.023438 C 232.964844 283.96875 225.890625 285.542969 218.347656 285.542969 Z M 196.898438 231.808594 L 240.632812 231.808594 L 240.632812 227.972656 C 240.632812 218.464844 232.472656 212.054688 220.386719 212.054688 C 207.660156 212.054688 196.898438 219.347656 196.898438 227.972656 Z M 196.898438 231.808594 " fill-opacity="1" fill-rule="nonzero"/><g clip-path="url(#d65d8ba437)"><path fill="#000000" d="M 279.871094 40.679688 C 276.636719 40.679688 273.40625 42.246094 271.621094 45.386719 L 206.050781 160.867188 C 202.488281 167.144531 207.101562 175.285156 214.308594 175.285156 L 345.433594 175.285156 C 352.640625 175.285156 357.253906 167.140625 353.691406 160.863281 L 288.121094 45.386719 C 286.335938 42.246094 283.105469 40.679688 279.871094 40.679688 Z M 279.871094 46.703125 C 280.9375 46.703125 282.007812 47.296875 282.683594 48.488281 L 348.25 163.957031 L 348.246094 163.957031 C 349.59375 166.335938 348.054688 169.019531 345.433594 169.019531 L 214.308594 169.019531 C 211.6875 169.019531 210.144531 166.339844 211.492188 163.964844 L 277.058594 48.488281 C 277.738281 47.296875 278.804688 46.703125 279.871094 46.703125 Z M 229.816406 46.789062 C 229.207031 46.78125 228.644531 46.9375 228.128906 47.261719 C 227.609375 47.582031 227.21875 48.019531 226.957031 48.570312 C 226.695312 49.117188 226.601562 49.695312 226.675781 50.300781 C 226.75 50.90625 226.980469 51.445312 227.367188 51.917969 L 239.882812 67.582031 C 240.140625 67.90625 240.453125 68.171875 240.816406 68.371094 C 241.179688 68.570312 241.566406 68.695312 241.980469 68.742188 C 242.394531 68.789062 242.800781 68.753906 243.199219 68.636719 C 243.597656 68.519531 243.960938 68.332031 244.285156 68.074219 C 244.609375 67.8125 244.871094 67.5 245.070312 67.136719 C 245.269531 66.773438 245.394531 66.382812 245.4375 65.972656 C 245.484375 65.558594 245.449219 65.152344 245.335938 64.75 C 245.21875 64.351562 245.03125 63.992188 244.769531 63.664062 L 232.253906 48 C 231.960938 47.621094 231.601562 47.328125 231.175781 47.113281 C 230.746094 46.902344 230.292969 46.792969 229.816406 46.789062 Z M 329.832031 46.792969 C 328.863281 46.832031 328.082031 47.234375 327.488281 48 L 314.972656 63.664062 C 314.710938 63.992188 314.523438 64.351562 314.410156 64.75 C 314.292969 65.152344 314.257812 65.558594 314.304688 65.96875 C 314.351562 66.382812 314.472656 66.773438 314.675781 67.136719 C 314.875 67.5 315.136719 67.8125 315.460938 68.070312 C 315.785156 68.332031 316.144531 68.519531 316.542969 68.636719 C 316.945312 68.75 317.347656 68.785156 317.761719 68.738281 C 318.175781 68.695312 318.5625 68.570312 318.925781 68.371094 C 319.289062 68.167969 319.601562 67.90625 319.859375 67.582031 L 332.375 51.917969 C 332.765625 51.4375 333 50.894531 333.066406 50.28125 C 333.136719 49.667969 333.035156 49.082031 332.761719 48.53125 C 332.488281 47.976562 332.085938 47.542969 331.554688 47.230469 C 331.023438 46.914062 330.449219 46.769531 329.832031 46.792969 Z M 210.929688 68.738281 C 210.578125 68.746094 210.238281 68.8125 209.910156 68.933594 C 209.578125 69.058594 209.28125 69.230469 209.007812 69.453125 C 208.738281 69.679688 208.511719 69.941406 208.328125 70.242188 C 208.144531 70.542969 208.015625 70.863281 207.941406 71.207031 C 207.867188 71.550781 207.851562 71.898438 207.894531 72.246094 C 207.9375 72.597656 208.035156 72.929688 208.1875 73.246094 C 208.339844 73.5625 208.542969 73.84375 208.792969 74.089844 C 209.039062 74.339844 209.324219 74.539062 209.640625 74.691406 L 228.410156 84.09375 C 228.78125 84.277344 229.175781 84.386719 229.589844 84.417969 C 230.003906 84.445312 230.410156 84.394531 230.800781 84.265625 C 231.195312 84.132812 231.550781 83.929688 231.863281 83.660156 C 232.175781 83.386719 232.425781 83.066406 232.613281 82.691406 C 232.796875 82.320312 232.90625 81.925781 232.933594 81.511719 C 232.964844 81.097656 232.914062 80.691406 232.78125 80.300781 C 232.652344 79.90625 232.449219 79.550781 232.175781 79.238281 C 231.902344 78.921875 231.582031 78.671875 231.210938 78.488281 L 212.4375 69.085938 C 211.964844 68.84375 211.460938 68.726562 210.929688 68.738281 Z M 348.714844 68.738281 C 348.21875 68.742188 347.746094 68.859375 347.304688 69.085938 L 328.53125 78.488281 C 328.160156 78.671875 327.839844 78.921875 327.566406 79.238281 C 327.292969 79.550781 327.09375 79.90625 326.960938 80.300781 C 326.832031 80.691406 326.777344 81.097656 326.808594 81.511719 C 326.835938 81.925781 326.945312 82.320312 327.132812 82.691406 C 327.316406 83.0625 327.566406 83.386719 327.878906 83.65625 C 328.195312 83.929688 328.546875 84.132812 328.941406 84.261719 C 329.335938 84.394531 329.738281 84.445312 330.152344 84.417969 C 330.566406 84.386719 330.960938 84.277344 331.332031 84.09375 L 350.101562 74.691406 C 350.421875 74.539062 350.707031 74.335938 350.957031 74.082031 C 351.210938 73.832031 351.410156 73.542969 351.5625 73.222656 C 351.71875 72.902344 351.8125 72.5625 351.851562 72.210938 C 351.890625 71.855469 351.867188 71.507812 351.789062 71.160156 C 351.707031 70.8125 351.570312 70.492188 351.378906 70.191406 C 351.191406 69.890625 350.953125 69.628906 350.675781 69.410156 C 350.398438 69.191406 350.089844 69.023438 349.753906 68.90625 C 349.417969 68.792969 349.070312 68.734375 348.714844 68.738281 Z M 276.738281 84.421875 C 275.007812 84.421875 273.613281 85.828125 273.613281 87.554688 L 273.613281 131.421875 C 273.613281 133.148438 275 134.554688 276.730469 134.554688 L 283 134.554688 C 284.726562 134.554688 286.121094 133.148438 286.121094 131.421875 L 286.128906 87.554688 C 286.128906 85.828125 284.734375 84.421875 283.007812 84.421875 Z M 204.78125 96.957031 C 204.363281 96.949219 203.960938 97.023438 203.570312 97.179688 C 203.183594 97.335938 202.839844 97.5625 202.539062 97.859375 C 202.242188 98.152344 202.011719 98.492188 201.851562 98.878906 C 201.6875 99.265625 201.609375 99.667969 201.609375 100.089844 C 201.609375 100.507812 201.6875 100.910156 201.851562 101.296875 C 202.011719 101.683594 202.242188 102.027344 202.539062 102.320312 C 202.839844 102.613281 203.183594 102.839844 203.570312 102.996094 C 203.960938 103.152344 204.363281 103.226562 204.78125 103.222656 L 223.554688 103.222656 C 223.972656 103.226562 224.375 103.152344 224.765625 102.996094 C 225.152344 102.839844 225.496094 102.613281 225.796875 102.320312 C 226.09375 102.027344 226.324219 101.683594 226.484375 101.296875 C 226.644531 100.910156 226.726562 100.507812 226.726562 100.089844 C 226.726562 99.667969 226.644531 99.265625 226.484375 98.878906 C 226.324219 98.492188 226.09375 98.152344 225.796875 97.859375 C 225.496094 97.5625 225.152344 97.335938 224.765625 97.179688 C 224.375 97.023438 223.972656 96.949219 223.554688 96.957031 Z M 336.1875 96.957031 C 335.769531 96.949219 335.367188 97.023438 334.976562 97.179688 C 334.589844 97.335938 334.246094 97.5625 333.949219 97.859375 C 333.648438 98.152344 333.417969 98.492188 333.257812 98.878906 C 333.097656 99.265625 333.015625 99.667969 333.015625 100.089844 C 333.015625 100.507812 333.097656 100.910156 333.257812 101.296875 C 333.417969 101.683594 333.648438 102.027344 333.949219 102.320312 C 334.246094 102.613281 334.589844 102.839844 334.976562 102.996094 C 335.367188 103.152344 335.769531 103.226562 336.1875 103.222656 L 354.960938 103.222656 C 355.378906 103.226562 355.785156 103.152344 356.171875 102.996094 C 356.5625 102.839844 356.902344 102.613281 357.203125 102.320312 C 357.5 102.027344 357.730469 101.683594 357.890625 101.296875 C 358.054688 100.910156 358.132812 100.507812 358.132812 100.089844 C 358.132812 99.667969 358.054688 99.265625 357.890625 98.878906 C 357.730469 98.492188 357.5 98.152344 357.203125 97.859375 C 356.902344 97.5625 356.5625 97.335938 356.171875 97.179688 C 355.785156 97.023438 355.378906 96.949219 354.960938 96.957031 Z M 276.738281 143.953125 C 275.007812 143.953125 273.613281 145.355469 273.613281 147.085938 L 273.613281 153.351562 C 273.613281 155.082031 275.007812 156.488281 276.738281 156.488281 L 283.007812 156.488281 C 284.734375 156.488281 286.128906 155.082031 286.128906 153.351562 L 286.128906 147.085938 C 286.128906 145.355469 284.734375 143.953125 283.007812 143.953125 Z M 276.738281 143.953125 " fill-opacity="1" fill-rule="nonzero"/></g></svg>