<svg xmlns="http://www.w3.org/2000/svg" xmlns:xlink="http://www.w3.org/1999/xlink" width="500" zoomAndPan="magnify" viewBox="0 0 375 374.999991" height="500" preserveAspectRatio="xMidYMid meet" version="1.0"><defs><clipPath id="6e5454ab85"><path d="M 93 267 L 373.808594 267 L 373.808594 357.421875 L 93 357.421875 Z M 93 267 " clip-rule="nonzero"/></clipPath><clipPath id="e96e337d5b"><path d="M 4.808594 138 L 60 138 L 60 280 L 4.808594 280 Z M 4.808594 138 " clip-rule="nonzero"/></clipPath></defs><path fill="#eb9c3d" d="M 329.847656 307.847656 L 318.421875 306.1875 C 316.078125 305.847656 314.058594 304.378906 313.007812 302.257812 L 307.898438 291.902344 L 302.789062 302.253906 C 301.738281 304.378906 299.71875 305.847656 297.378906 306.1875 L 285.949219 307.847656 L 294.214844 315.910156 C 295.910156 317.554688 296.683594 319.9375 296.28125 322.273438 L 294.332031 333.652344 L 304.550781 328.277344 C 306.644531 327.175781 309.148438 327.175781 311.242188 328.277344 L 321.460938 333.652344 L 319.511719 322.269531 C 319.109375 319.9375 319.882812 317.558594 321.582031 315.90625 Z M 329.847656 307.847656 " fill-opacity="1" fill-rule="evenodd"/><path fill="#eb9c3d" d="M 255.390625 307.847656 L 243.964844 306.1875 C 241.617188 305.84375 239.59375 304.371094 238.550781 302.25 L 233.441406 291.898438 L 228.332031 302.253906 C 227.28125 304.375 225.257812 305.84375 222.921875 306.1875 L 211.492188 307.847656 L 219.757812 315.90625 C 221.449219 317.550781 222.222656 319.925781 221.828125 322.261719 L 219.875 333.648438 L 230.09375 328.277344 C 231.140625 327.726562 232.289062 327.449219 233.4375 327.449219 C 234.589844 327.449219 235.738281 327.726562 236.785156 328.277344 L 247.007812 333.652344 L 245.054688 322.269531 C 244.652344 319.9375 245.425781 317.558594 247.121094 315.90625 Z M 255.390625 307.847656 " fill-opacity="1" fill-rule="evenodd"/><path fill="#eb9c3d" d="M 180.933594 307.847656 L 169.507812 306.1875 C 167.160156 305.84375 165.136719 304.375 164.09375 302.25 L 158.984375 291.898438 L 153.875 302.253906 C 152.832031 304.371094 150.808594 305.84375 148.46875 306.1875 L 137.035156 307.847656 L 145.304688 315.910156 C 147 317.5625 147.769531 319.941406 147.371094 322.273438 L 145.417969 333.652344 L 155.640625 328.277344 C 156.683594 327.726562 157.832031 327.453125 158.980469 327.453125 C 160.132812 327.453125 161.28125 327.726562 162.332031 328.28125 L 172.550781 333.652344 L 170.597656 322.273438 C 170.199219 319.9375 170.972656 317.558594 172.667969 315.90625 Z M 180.933594 307.847656 " fill-opacity="1" fill-rule="evenodd"/><g clip-path="url(#6e5454ab85)"><path fill="#eb9c3d" d="M 328.71875 267.738281 L 285.425781 267.738281 C 285.417969 267.738281 285.410156 267.738281 285.402344 267.738281 C 285.390625 267.738281 285.382812 267.738281 285.371094 267.738281 L 138.164062 267.738281 C 126.785156 267.738281 115.929688 272.007812 107.605469 279.761719 C 98.464844 288.257812 93.304688 300.082031 93.320312 312.582031 C 93.320312 337.308594 113.4375 357.425781 138.167969 357.425781 L 328.71875 357.425781 C 340.695312 357.425781 351.957031 352.761719 360.425781 344.292969 C 368.898438 335.820312 373.5625 324.558594 373.5625 312.582031 C 373.5625 287.855469 353.445312 267.738281 328.71875 267.738281 Z M 187.917969 312.355469 L 178.664062 321.375 L 180.851562 334.109375 C 182.027344 339.773438 175.433594 344.550781 170.421875 341.6875 L 158.984375 335.675781 L 147.546875 341.6875 C 145.105469 342.96875 142.203125 342.757812 139.972656 341.136719 C 137.746094 339.515625 136.652344 336.824219 137.121094 334.105469 L 139.304688 321.375 L 130.050781 312.355469 C 128.078125 310.433594 127.378906 307.609375 128.230469 304.988281 C 129.082031 302.363281 131.308594 300.492188 134.039062 300.09375 L 146.820312 298.238281 L 152.539062 286.648438 C 153.761719 284.179688 156.230469 282.644531 158.984375 282.644531 C 158.984375 282.644531 158.988281 282.644531 158.988281 282.644531 C 161.742188 282.644531 164.210938 284.179688 165.429688 286.648438 L 171.148438 298.238281 L 183.9375 300.09375 C 186.660156 300.488281 188.886719 302.363281 189.738281 304.984375 C 190.589844 307.609375 189.894531 310.433594 187.917969 312.355469 Z M 262.375 312.355469 L 253.125 321.375 L 255.308594 334.109375 C 256.484375 339.773438 249.890625 344.550781 244.882812 341.6875 L 233.441406 335.675781 L 222.003906 341.6875 C 219.5625 342.96875 216.664062 342.757812 214.433594 341.140625 C 212.203125 339.519531 211.109375 336.824219 211.578125 334.109375 L 213.761719 321.378906 L 204.507812 312.355469 C 202.53125 310.433594 201.835938 307.609375 202.6875 304.988281 C 203.539062 302.367188 205.761719 300.492188 208.492188 300.097656 L 221.277344 298.238281 L 226.996094 286.652344 C 228.214844 284.179688 230.6875 282.644531 233.441406 282.644531 C 236.199219 282.644531 238.667969 284.179688 239.886719 286.652344 L 245.609375 298.238281 L 258.394531 300.097656 C 261.121094 300.492188 263.34375 302.363281 264.195312 304.984375 C 265.046875 307.609375 264.351562 310.433594 262.375 312.355469 Z M 336.832031 312.355469 L 327.582031 321.375 L 329.761719 334.109375 C 330.230469 336.824219 329.136719 339.519531 326.90625 341.136719 C 325.644531 342.054688 324.171875 342.519531 322.6875 342.519531 C 321.542969 342.519531 320.398438 342.246094 319.335938 341.6875 L 307.898438 335.675781 L 296.460938 341.6875 C 294.019531 342.96875 291.117188 342.757812 288.890625 341.136719 C 286.660156 339.519531 285.566406 336.824219 286.03125 334.105469 L 288.214844 321.375 L 278.960938 312.355469 C 276.988281 310.433594 276.292969 307.609375 277.144531 304.984375 C 277.996094 302.363281 280.21875 300.492188 282.949219 300.09375 L 295.734375 298.238281 L 301.453125 286.648438 C 302.671875 284.179688 305.140625 282.644531 307.898438 282.644531 C 310.65625 282.644531 313.125 284.179688 314.34375 286.648438 L 320.0625 298.238281 L 332.847656 300.097656 C 335.574219 300.492188 337.796875 302.363281 338.652344 304.988281 C 339.503906 307.609375 338.804688 310.433594 336.832031 312.355469 Z M 336.832031 312.355469 " fill-opacity="1" fill-rule="evenodd"/></g><g clip-path="url(#e96e337d5b)"><path fill="#007c6f" d="M 59.941406 151.578125 C 59.941406 144.25 53.980469 138.285156 46.648438 138.285156 L 18.152344 138.285156 C 10.824219 138.285156 4.859375 144.25 4.859375 151.578125 L 4.859375 266.179688 C 4.859375 273.507812 10.824219 279.472656 18.152344 279.472656 L 46.648438 279.472656 C 53.976562 279.472656 59.941406 273.507812 59.941406 266.179688 Z M 36.453125 258.332031 C 36.453125 260.570312 34.640625 262.382812 32.402344 262.382812 C 30.164062 262.382812 28.351562 260.570312 28.351562 258.332031 L 28.351562 238.625 C 28.351562 236.390625 30.164062 234.574219 32.402344 234.574219 C 34.640625 234.574219 36.453125 236.390625 36.453125 238.625 Z M 36.453125 258.332031 " fill-opacity="1" fill-rule="evenodd"/></g><path fill="#007c6f" d="M 277.246094 247.386719 C 274.210938 244.351562 270.175781 242.679688 265.878906 242.679688 C 265.863281 242.679688 265.847656 242.679688 265.828125 242.679688 L 245.320312 242.679688 C 243.082031 242.679688 241.269531 240.863281 241.269531 238.628906 C 241.269531 236.390625 243.082031 234.574219 245.320312 234.574219 L 268.617188 234.578125 C 272.910156 234.578125 276.945312 232.90625 279.980469 229.867188 C 283.019531 226.832031 284.691406 222.792969 284.691406 218.5 C 284.691406 209.636719 277.480469 202.421875 268.613281 202.421875 L 248.058594 202.421875 C 245.820312 202.421875 244.003906 200.609375 244.003906 198.371094 C 244.003906 196.132812 245.820312 194.320312 248.058594 194.320312 L 271.351562 194.320312 C 275.648438 194.320312 279.683594 192.648438 282.71875 189.609375 C 285.757812 186.574219 287.429688 182.539062 287.429688 178.242188 C 287.429688 169.375 280.214844 162.164062 271.351562 162.164062 L 253.53125 162.164062 C 251.292969 162.164062 249.480469 160.347656 249.480469 158.113281 C 249.480469 155.875 251.292969 154.058594 253.53125 154.058594 L 274.089844 154.058594 C 278.382812 154.058594 282.421875 152.386719 285.457031 149.347656 C 288.507812 146.304688 290.175781 142.25 290.164062 137.929688 C 290.140625 129.097656 282.792969 121.90625 273.789062 121.90625 C 273.777344 121.90625 273.765625 121.90625 273.75 121.90625 L 176.5 120.988281 C 173.699219 120.960938 171.003906 119.769531 169.105469 117.722656 C 167.207031 115.679688 166.222656 112.914062 166.398438 110.128906 C 166.65625 106.085938 166.835938 101.933594 166.929688 97.792969 C 167.183594 87.25 167.019531 71.710938 164.785156 57.558594 C 162.390625 42.394531 158.035156 31.667969 152.183594 26.550781 C 143.070312 18.578125 133.917969 17.71875 124.972656 24.003906 C 122.003906 26.089844 120.867188 29.929688 122.203125 33.339844 C 122.222656 33.390625 122.242188 33.445312 122.261719 33.496094 C 125.964844 44.214844 128.40625 59.589844 128.632812 73.617188 C 128.835938 86.144531 127.425781 103.773438 119.558594 116.621094 C 119.53125 116.660156 119.507812 116.695312 119.484375 116.734375 C 112.074219 127.957031 103.871094 137.421875 95.089844 144.859375 C 86.378906 152.242188 77.296875 157.457031 68.046875 160.382812 L 68.046875 259.105469 C 71.964844 260.382812 75.359375 262.089844 78.171875 264.203125 C 84.171875 267.59375 92.730469 270.363281 103.632812 272.449219 C 113.238281 264.175781 125.421875 259.636719 138.164062 259.636719 L 281.929688 259.636719 C 281.945312 259.34375 281.957031 259.050781 281.957031 258.753906 C 281.957031 254.457031 280.285156 250.421875 277.246094 247.386719 Z M 277.246094 247.386719 " fill-opacity="1" fill-rule="evenodd"/></svg>