<svg xmlns="http://www.w3.org/2000/svg" xmlns:xlink="http://www.w3.org/1999/xlink" width="500" zoomAndPan="magnify" viewBox="0 0 375 374.999991" height="500" preserveAspectRatio="xMidYMid meet" version="1.0"><defs><clipPath id="ea311d22d4"><path d="M 30 4.816406 L 327 4.816406 L 327 366.316406 L 30 366.316406 Z M 30 4.816406 " clip-rule="nonzero"/></clipPath></defs><g clip-path="url(#ea311d22d4)"><path fill="#5cc3b2" d="M 136.074219 4.816406 C 129.84375 4.816406 124.796875 12.074219 124.796875 18.304688 L 124.796875 23.644531 C 124.796875 28.054688 127.339844 31.847656 131.015625 33.691406 C 130.960938 34.421875 130.910156 35.160156 130.910156 35.90625 L 130.910156 142.03125 C 129.242188 145.175781 127.617188 148.449219 125.851562 151.691406 L 34.652344 316.664062 C 19.964844 343.660156 47.914062 366.617188 64.371094 366.617188 L 292.578125 366.617188 C 309.035156 366.617188 337.285156 344.210938 322.296875 316.664062 L 231.101562 151.691406 C 229.339844 148.445312 227.710938 145.171875 226.042969 142.03125 L 226.042969 35.90625 C 226.042969 35.160156 225.992188 34.421875 225.9375 33.691406 C 229.613281 31.84375 232.15625 28.054688 232.15625 23.644531 L 232.15625 18.304688 C 232.15625 12.074219 227.148438 4.816406 220.914062 4.816406 Z M 136.074219 4.816406 " fill-opacity="1" fill-rule="nonzero"/></g><path fill="#ffffff" d="M 160.949219 138.152344 L 196.140625 138.152344 C 210.144531 138.152344 214.722656 151.199219 221.414062 163.566406 L 300.890625 310.503906 C 316.945312 340.179688 289.617188 353.234375 275.617188 353.234375 L 81.46875 353.234375 C 67.46875 353.234375 41.890625 336.945312 56.195312 310.503906 L 135.671875 163.566406 C 142.363281 151.199219 146.945312 138.152344 160.945312 138.152344 Z M 160.949219 138.152344 " fill-opacity="1" fill-rule="nonzero"/><path fill="#ffffff" d="M 142.398438 27.636719 L 214.601562 27.636719 L 214.601562 159.949219 L 142.398438 159.949219 Z M 142.398438 27.636719 " fill-opacity="1" fill-rule="nonzero"/><path fill="#ffffff" d="M 135.992188 24.457031 L 135.992188 19.214844 C 135.992188 18.898438 136.023438 18.582031 136.085938 18.273438 C 136.148438 17.960938 136.238281 17.660156 136.359375 17.363281 C 136.480469 17.070312 136.632812 16.792969 136.808594 16.53125 C 136.984375 16.265625 137.183594 16.019531 137.410156 15.796875 C 137.632812 15.574219 137.878906 15.371094 138.140625 15.195312 C 138.40625 15.019531 138.683594 14.871094 138.976562 14.75 C 139.269531 14.628906 139.570312 14.535156 139.882812 14.472656 C 140.195312 14.414062 140.507812 14.382812 140.828125 14.382812 L 216.0625 14.382812 C 216.378906 14.382812 216.695312 14.414062 217.007812 14.472656 C 217.316406 14.535156 217.621094 14.628906 217.914062 14.75 C 218.207031 14.871094 218.484375 15.019531 218.75 15.195312 C 219.011719 15.371094 219.257812 15.574219 219.480469 15.796875 C 219.707031 16.019531 219.90625 16.265625 220.082031 16.53125 C 220.257812 16.792969 220.40625 17.070312 220.527344 17.363281 C 220.648438 17.660156 220.742188 17.960938 220.804688 18.273438 C 220.867188 18.582031 220.898438 18.898438 220.898438 19.214844 L 220.898438 24.457031 C 220.898438 24.773438 220.867188 25.089844 220.804688 25.398438 C 220.742188 25.710938 220.648438 26.011719 220.527344 26.304688 C 220.40625 26.601562 220.257812 26.878906 220.082031 27.140625 C 219.90625 27.40625 219.707031 27.648438 219.480469 27.875 C 219.257812 28.097656 219.011719 28.300781 218.75 28.476562 C 218.484375 28.652344 218.207031 28.800781 217.914062 28.921875 C 217.621094 29.042969 217.316406 29.136719 217.007812 29.199219 C 216.695312 29.257812 216.378906 29.289062 216.0625 29.289062 L 140.828125 29.289062 C 140.507812 29.289062 140.195312 29.257812 139.882812 29.199219 C 139.570312 29.136719 139.269531 29.042969 138.976562 28.921875 C 138.683594 28.800781 138.40625 28.652344 138.140625 28.476562 C 137.878906 28.300781 137.632812 28.097656 137.410156 27.875 C 137.183594 27.648438 136.984375 27.40625 136.808594 27.140625 C 136.632812 26.878906 136.480469 26.601562 136.359375 26.304688 C 136.238281 26.011719 136.148438 25.710938 136.085938 25.398438 C 136.023438 25.089844 135.992188 24.773438 135.992188 24.457031 Z M 135.992188 24.457031 " fill-opacity="1" fill-rule="nonzero"/><path fill="#5cc3b2" d="M 224.894531 185.207031 L 288.328125 305.792969 C 302.214844 332.1875 278.363281 343.566406 265.984375 343.566406 L 94.347656 343.566406 C 81.96875 343.566406 59.304688 329.140625 72.003906 305.792969 L 134.191406 191.417969 C 189.175781 212.988281 209.171875 153.039062 224.898438 185.210938 Z M 224.894531 185.207031 " fill-opacity="1" fill-rule="nonzero"/><path fill="#ffffff" d="M 186.289062 272.871094 C 186.289062 284.1875 177.117188 293.359375 165.796875 293.359375 C 154.480469 293.359375 145.308594 284.1875 145.308594 272.871094 C 145.308594 261.550781 154.480469 252.378906 165.796875 252.378906 C 177.117188 252.378906 186.289062 261.550781 186.289062 272.871094 Z M 186.289062 272.871094 " fill-opacity="1" fill-rule="nonzero"/><path fill="#ffffff" d="M 157.164062 248.355469 C 157.164062 255.042969 151.742188 260.464844 145.054688 260.464844 C 138.367188 260.464844 132.945312 255.042969 132.945312 248.355469 C 132.945312 241.667969 138.367188 236.25 145.054688 236.25 C 151.742188 236.25 157.164062 241.667969 157.164062 248.355469 Z M 157.164062 248.355469 " fill-opacity="1" fill-rule="nonzero"/><path fill="#ffffff" d="M 204.960938 224.777344 C 204.960938 228.722656 201.765625 231.917969 197.820312 231.917969 C 193.878906 231.917969 190.679688 228.722656 190.679688 224.777344 C 190.679688 220.832031 193.878906 217.636719 197.820312 217.636719 C 201.765625 217.636719 204.960938 220.832031 204.960938 224.777344 Z M 204.960938 224.777344 " fill-opacity="1" fill-rule="nonzero"/><path fill="#5cc3b2" d="M 196.902344 30.386719 C 197.242188 30.386719 197.582031 30.421875 197.914062 30.488281 C 198.25 30.554688 198.578125 30.652344 198.890625 30.785156 C 199.207031 30.914062 199.507812 31.074219 199.792969 31.265625 C 200.074219 31.453125 200.339844 31.667969 200.578125 31.910156 C 200.820312 32.152344 201.035156 32.414062 201.226562 32.699219 C 201.417969 32.984375 201.578125 33.285156 201.707031 33.597656 C 201.839844 33.914062 201.9375 34.242188 202.003906 34.574219 C 202.070312 34.910156 202.105469 35.25 202.105469 35.589844 L 202.105469 138.417969 C 202.105469 138.761719 202.070312 139.097656 202.003906 139.433594 C 201.9375 139.769531 201.839844 140.09375 201.707031 140.410156 C 201.578125 140.726562 201.417969 141.023438 201.226562 141.308594 C 201.035156 141.59375 200.820312 141.855469 200.578125 142.097656 C 200.339844 142.339844 200.074219 142.554688 199.792969 142.746094 C 199.507812 142.933594 199.207031 143.09375 198.890625 143.226562 C 198.578125 143.355469 198.25 143.453125 197.914062 143.519531 C 197.582031 143.585938 197.242188 143.621094 196.902344 143.621094 C 196.558594 143.621094 196.222656 143.585938 195.886719 143.519531 C 195.550781 143.453125 195.226562 143.355469 194.910156 143.226562 C 194.59375 143.09375 194.292969 142.933594 194.011719 142.746094 C 193.726562 142.554688 193.464844 142.339844 193.222656 142.097656 C 192.980469 141.855469 192.765625 141.59375 192.574219 141.308594 C 192.386719 141.023438 192.226562 140.726562 192.09375 140.410156 C 191.964844 140.09375 191.863281 139.769531 191.796875 139.433594 C 191.730469 139.097656 191.699219 138.761719 191.699219 138.417969 L 191.699219 35.589844 C 191.699219 35.25 191.730469 34.910156 191.796875 34.574219 C 191.863281 34.242188 191.964844 33.914062 192.09375 33.597656 C 192.226562 33.285156 192.386719 32.984375 192.574219 32.699219 C 192.765625 32.414062 192.980469 32.152344 193.222656 31.910156 C 193.464844 31.667969 193.726562 31.453125 194.011719 31.265625 C 194.292969 31.074219 194.59375 30.914062 194.910156 30.785156 C 195.226562 30.652344 195.550781 30.554688 195.886719 30.488281 C 196.222656 30.421875 196.558594 30.386719 196.902344 30.386719 Z M 196.902344 30.386719 " fill-opacity="1" fill-rule="nonzero"/></svg>