<svg xmlns="http://www.w3.org/2000/svg" xmlns:xlink="http://www.w3.org/1999/xlink" width="500" zoomAndPan="magnify" viewBox="0 0 375 374.999991" height="500" preserveAspectRatio="xMidYMid meet" version="1.0"><defs><clipPath id="f5131779f6"><path d="M 6.941406 9.070312 L 345 9.070312 L 345 369 L 6.941406 369 Z M 6.941406 9.070312 " clip-rule="nonzero"/></clipPath></defs><g clip-path="url(#f5131779f6)"><path fill="#5dc2b0" d="M 226.539062 9.070312 C 254.898438 9.070312 277.859375 32.03125 277.859375 60.390625 C 277.859375 88.703125 254.898438 111.664062 226.539062 111.664062 C 198.226562 111.664062 175.265625 88.703125 175.265625 60.390625 C 175.265625 32.03125 198.226562 9.070312 226.539062 9.070312 Z M 49.710938 183.066406 L 59.316406 183.066406 C 60.046875 183.066406 60.597656 183.660156 60.597656 184.347656 L 60.597656 201.042969 L 77.292969 201.042969 C 77.976562 201.042969 78.574219 201.636719 78.574219 202.320312 L 78.574219 211.925781 C 78.574219 212.660156 77.976562 213.207031 77.292969 213.207031 L 60.597656 213.207031 L 60.597656 229.902344 C 60.597656 230.589844 60.046875 231.183594 59.316406 231.183594 L 49.710938 231.183594 C 49.023438 231.183594 48.429688 230.589844 48.429688 229.902344 L 48.429688 213.207031 L 31.734375 213.207031 C 31.050781 213.207031 30.453125 212.660156 30.453125 211.925781 L 30.453125 202.320312 C 30.453125 201.636719 31.050781 201.042969 31.734375 201.042969 L 48.429688 201.042969 L 48.429688 184.347656 C 48.429688 183.660156 49.023438 183.066406 49.710938 183.066406 Z M 38.871094 157.496094 C 42.667969 157.496094 45.777344 160.5625 45.777344 164.402344 C 45.777344 168.199219 42.667969 171.308594 38.871094 171.308594 C 35.074219 171.308594 31.964844 168.199219 31.964844 164.402344 C 31.964844 160.5625 35.074219 157.496094 38.871094 157.496094 Z M 81.546875 159.097656 C 93.027344 159.28125 102.359375 168.75 102.359375 180.230469 L 102.359375 228.578125 C 102.359375 233.011719 101.03125 237.128906 98.652344 240.558594 C 96.273438 243.992188 92.890625 246.6875 88.726562 248.289062 L 59.867188 259.449219 L 59.5 322.664062 C 59.453125 323.441406 59.589844 324.125 59.820312 324.722656 C 60.644531 326.734375 62.65625 327.96875 64.757812 327.96875 L 126.644531 327.96875 C 128.109375 327.96875 129.433594 327.421875 130.394531 326.460938 C 131.355469 325.5 131.949219 324.171875 131.949219 322.753906 L 132.179688 281.453125 C 132.179688 281.132812 132.363281 280.8125 132.589844 280.582031 C 132.867188 280.398438 133.1875 280.308594 133.550781 280.355469 C 134.878906 280.628906 136.203125 280.765625 137.621094 280.765625 C 138.902344 280.765625 140.136719 280.628906 141.375 280.445312 C 141.695312 280.355469 142.058594 280.445312 142.289062 280.675781 C 142.5625 280.902344 142.699219 281.175781 142.699219 281.542969 L 142.472656 322.800781 C 142.425781 327.144531 140.640625 331.078125 137.804688 333.914062 C 134.925781 336.75 130.992188 338.535156 126.644531 338.535156 L 64.757812 338.535156 C 62.609375 338.535156 60.597656 338.125 58.675781 337.34375 C 54.878906 335.746094 51.679688 332.542969 50.121094 328.699219 C 49.34375 326.78125 48.933594 324.765625 48.980469 322.617188 L 49.390625 259.449219 L 20.574219 248.289062 C 16.414062 246.6875 13.027344 243.992188 10.648438 240.558594 C 8.269531 237.128906 6.945312 233.011719 6.945312 228.578125 L 6.945312 180.230469 C 6.945312 168.75 16.273438 159.28125 27.757812 159.097656 C 28.121094 159.097656 28.441406 159.28125 28.671875 159.601562 C 28.898438 159.921875 28.945312 160.285156 28.808594 160.652344 C 28.394531 161.796875 28.121094 163.078125 28.121094 164.402344 C 28.121094 165.730469 28.394531 166.964844 28.808594 168.152344 C 28.945312 168.472656 28.898438 168.839844 28.671875 169.160156 C 28.488281 169.480469 28.167969 169.664062 27.800781 169.664062 C 22.039062 169.800781 17.511719 174.511719 17.511719 180.230469 L 17.511719 228.578125 C 17.511719 230.816406 18.152344 232.875 19.292969 234.566406 C 20.484375 236.304688 22.222656 237.632812 24.371094 238.457031 L 54.652344 250.210938 L 84.929688 238.457031 C 87.082031 237.632812 88.820312 236.304688 90.007812 234.566406 C 91.152344 232.875 91.792969 230.816406 91.792969 228.578125 L 91.792969 180.230469 C 91.792969 174.511719 87.21875 169.800781 81.5 169.664062 C 81.132812 169.664062 80.8125 169.480469 80.632812 169.160156 C 80.402344 168.839844 80.355469 168.472656 80.492188 168.152344 C 80.90625 166.964844 81.179688 165.730469 81.179688 164.402344 C 81.179688 163.078125 80.90625 161.796875 80.492188 160.652344 C 80.355469 160.285156 80.402344 159.921875 80.632812 159.601562 C 80.859375 159.28125 81.179688 159.097656 81.546875 159.097656 Z M 70.429688 157.496094 C 66.589844 157.496094 63.523438 160.5625 63.523438 164.402344 C 63.523438 168.199219 66.589844 171.308594 70.429688 171.308594 C 74.226562 171.308594 77.339844 168.199219 77.339844 164.402344 C 77.339844 160.5625 74.226562 157.496094 70.429688 157.496094 Z M 137.621094 236.945312 C 148.371094 236.945312 157.109375 245.683594 157.109375 256.476562 C 157.109375 267.226562 148.371094 275.960938 137.621094 275.960938 C 126.828125 275.960938 118.09375 267.226562 118.09375 256.476562 C 118.09375 245.683594 126.828125 236.945312 137.621094 236.945312 Z M 137.621094 245.546875 C 143.660156 245.546875 148.507812 250.441406 148.507812 256.476562 C 148.507812 262.515625 143.660156 267.410156 137.621094 267.410156 C 131.585938 267.410156 126.691406 262.515625 126.691406 256.476562 C 126.691406 250.441406 131.585938 245.546875 137.621094 245.546875 Z M 224.894531 245.910156 L 210.761719 352.804688 C 205.820312 374.945312 174.125 373.617188 174.125 348.140625 L 169.09375 241.199219 L 172.339844 170.304688 L 139.179688 221.210938 C 125.410156 240.148438 100.847656 228.027344 111.644531 203.417969 L 155.09375 126.257812 C 162.324219 117.519531 169.136719 113.496094 177.050781 111.4375 C 180.433594 110.566406 183.683594 111.207031 186.472656 113.222656 C 197.726562 121.453125 211.585938 126.257812 226.539062 126.257812 C 241.542969 126.257812 255.402344 121.453125 266.65625 113.222656 C 269.445312 111.207031 272.691406 110.566406 276.078125 111.4375 C 283.945312 113.496094 290.804688 117.519531 298.03125 126.257812 L 341.484375 203.417969 C 352.28125 228.027344 327.71875 240.148438 313.949219 221.210938 L 280.789062 170.304688 L 284.035156 241.199219 L 279.003906 348.140625 C 279.003906 373.617188 247.308594 374.945312 242.367188 352.804688 L 228.234375 245.910156 C 228.097656 245.089844 227.410156 244.449219 226.539062 244.449219 C 225.71875 244.449219 224.984375 245.089844 224.894531 245.910156 Z M 137.621094 250.484375 C 140.917969 250.484375 143.570312 253.183594 143.570312 256.476562 C 143.570312 259.769531 140.917969 262.421875 137.621094 262.421875 C 134.285156 262.421875 131.632812 259.769531 131.632812 256.476562 C 131.632812 253.183594 134.285156 250.484375 137.621094 250.484375 Z M 137.621094 250.484375 " fill-opacity="1" fill-rule="evenodd"/></g></svg>