<svg xmlns="http://www.w3.org/2000/svg" xmlns:xlink="http://www.w3.org/1999/xlink" width="500" zoomAndPan="magnify" viewBox="0 0 375 374.999991" height="500" preserveAspectRatio="xMidYMid meet" version="1.0"><defs><clipPath id="08bf527723"><path d="M 1.703125 12 L 365 12 L 365 375 L 1.703125 375 Z M 1.703125 12 " clip-rule="nonzero"/></clipPath></defs><g clip-path="url(#08bf527723)"><path fill="#5cc3b2" d="M 354.515625 135.152344 C 353.660156 132.636719 352.753906 130.140625 351.792969 127.664062 C 350.828125 125.183594 349.8125 122.730469 348.742188 120.296875 C 347.671875 117.867188 346.546875 115.457031 345.371094 113.074219 C 344.195312 110.691406 342.964844 108.335938 341.6875 106.007812 C 340.40625 103.679688 339.074219 101.378906 337.691406 99.109375 C 336.3125 96.839844 334.878906 94.601562 333.402344 92.394531 C 331.921875 90.1875 330.390625 88.011719 328.816406 85.871094 C 327.242188 83.730469 325.617188 81.628906 323.949219 79.558594 C 322.28125 77.492188 320.570312 75.460938 318.8125 73.46875 C 317.054688 71.472656 315.253906 69.519531 313.410156 67.605469 C 311.566406 65.691406 309.679688 63.820312 307.753906 61.988281 C 305.828125 60.15625 303.863281 58.371094 301.855469 56.625 C 299.851562 54.882812 297.808594 53.183594 295.730469 51.527344 C 293.652344 49.875 291.535156 48.265625 289.386719 46.703125 C 287.234375 45.140625 285.050781 43.628906 282.832031 42.164062 C 280.617188 40.699219 278.367188 39.28125 276.089844 37.917969 C 273.808594 36.550781 271.5 35.234375 269.164062 33.96875 C 266.828125 32.703125 264.460938 31.492188 262.070312 30.332031 C 259.679688 29.171875 257.265625 28.0625 254.828125 27.007812 C 252.386719 25.953125 249.925781 24.953125 247.441406 24.007812 C 244.957031 23.0625 242.457031 22.171875 239.933594 21.335938 C 237.410156 20.5 234.871094 19.71875 232.3125 18.996094 C 229.757812 18.273438 227.183594 17.605469 224.597656 16.996094 C 222.011719 16.382812 219.414062 15.828125 216.800781 15.332031 C 214.191406 14.835938 211.570312 14.398438 208.941406 14.015625 C 206.3125 13.636719 203.675781 13.3125 201.03125 13.046875 C 198.386719 12.785156 195.738281 12.578125 193.082031 12.429688 C 190.429688 12.28125 187.773438 12.191406 185.117188 12.160156 C 182.460938 12.125 179.804688 12.152344 177.148438 12.238281 C 174.492188 12.324219 171.835938 12.46875 169.1875 12.671875 C 166.539062 12.875 163.894531 13.132812 161.253906 13.453125 C 158.617188 13.769531 155.988281 14.148438 153.363281 14.582031 C 150.742188 15.015625 148.132812 15.507812 145.53125 16.058594 C 142.933594 16.605469 140.34375 17.214844 137.773438 17.875 C 135.199219 18.539062 132.640625 19.257812 130.097656 20.035156 C 127.558594 20.8125 125.035156 21.640625 122.527344 22.527344 C 120.023438 23.414062 117.539062 24.355469 115.074219 25.351562 C 112.609375 26.351562 110.171875 27.398438 107.753906 28.503906 C 105.335938 29.605469 102.945312 30.761719 100.578125 31.972656 C 98.210938 33.179688 95.871094 34.441406 93.558594 35.753906 C 91.25 37.066406 88.96875 38.425781 86.714844 39.839844 C 84.464844 41.253906 82.246094 42.714844 80.058594 44.222656 C 77.871094 45.734375 75.71875 47.292969 73.601562 48.894531 C 71.484375 50.5 69.402344 52.152344 67.355469 53.847656 C 65.308594 55.542969 63.304688 57.285156 61.332031 59.070312 C 59.363281 60.855469 57.4375 62.679688 55.546875 64.550781 C 53.660156 66.421875 51.8125 68.332031 50.007812 70.28125 C 48.203125 72.234375 46.441406 74.222656 44.726562 76.25 C 43.007812 78.28125 41.335938 80.34375 39.710938 82.445312 C 38.085938 84.550781 36.507812 86.6875 34.972656 88.859375 C 33.441406 91.027344 31.957031 93.234375 30.523438 95.46875 C 29.089844 97.707031 27.703125 99.972656 26.367188 102.273438 C 25.035156 104.570312 23.75 106.894531 22.515625 109.25 C 21.285156 111.605469 20.105469 113.984375 18.976562 116.390625 C 17.847656 118.796875 16.773438 121.226562 15.753906 123.679688 C 14.730469 126.132812 13.765625 128.609375 12.851562 131.105469 C 11.941406 133.601562 11.085938 136.117188 10.28125 138.652344 C 9.480469 141.183594 8.734375 143.734375 8.046875 146.300781 C 7.359375 148.867188 6.726562 151.449219 6.148438 154.042969 C 5.574219 156.636719 5.058594 159.242188 4.597656 161.859375 C 4.136719 164.476562 3.730469 167.105469 3.386719 169.738281 C 3.042969 172.375 2.753906 175.015625 2.527344 177.664062 C 2.296875 180.3125 2.125 182.960938 2.015625 185.617188 C 1.902344 188.273438 1.847656 190.929688 1.851562 193.585938 C 1.835938 198.542969 2.027344 203.488281 2.417969 208.429688 C 2.8125 213.371094 3.410156 218.285156 4.210938 223.175781 C 5.011719 228.066406 6.011719 232.914062 7.214844 237.722656 C 8.417969 242.527344 9.816406 247.277344 11.414062 251.96875 C 13.011719 256.660156 14.796875 261.277344 16.777344 265.820312 C 18.753906 270.363281 20.917969 274.816406 23.265625 279.183594 C 25.613281 283.546875 28.136719 287.804688 30.839844 291.960938 C 33.539062 296.117188 36.40625 300.152344 39.441406 304.070312 C 49.03125 316.507812 60.046875 327.519531 72.488281 337.101562 C 76.40625 340.136719 80.441406 343.007812 84.597656 345.707031 C 88.75 348.410156 93.007812 350.9375 97.375 353.285156 C 101.738281 355.632812 106.191406 357.796875 110.734375 359.777344 C 115.277344 361.757812 119.894531 363.542969 124.585938 365.140625 C 129.277344 366.738281 134.027344 368.136719 138.835938 369.339844 C 143.640625 370.542969 148.492188 371.546875 153.382812 372.347656 C 158.273438 373.148438 163.1875 373.746094 168.128906 374.140625 C 173.066406 374.535156 178.015625 374.722656 182.972656 374.707031 C 186.554688 374.699219 190.132812 374.589844 193.710938 374.371094 C 197.285156 374.152344 200.851562 373.828125 204.410156 373.398438 C 207.96875 372.972656 211.507812 372.4375 215.035156 371.796875 C 218.558594 371.160156 222.0625 370.417969 225.542969 369.570312 C 229.027344 368.722656 232.480469 367.773438 235.90625 366.722656 C 239.328125 365.671875 242.71875 364.519531 246.078125 363.269531 C 249.433594 362.015625 252.75 360.667969 256.027344 359.21875 C 259.304688 357.769531 262.535156 356.226562 265.722656 354.585938 C 268.90625 352.945312 272.042969 351.210938 275.125 349.386719 C 278.207031 347.5625 281.234375 345.644531 284.203125 343.640625 C 287.171875 341.636719 290.078125 339.542969 292.925781 337.367188 C 295.769531 335.1875 298.546875 332.929688 301.261719 330.585938 C 303.972656 328.246094 306.613281 325.824219 309.179688 323.328125 C 311.746094 320.828125 314.238281 318.257812 316.65625 315.609375 C 319.070312 312.964844 321.40625 310.25 323.660156 307.464844 C 325.914062 304.679688 328.085938 301.832031 330.171875 298.917969 C 332.257812 296.007812 334.257812 293.035156 336.164062 290.003906 C 338.074219 286.972656 339.894531 283.886719 341.621094 280.746094 C 343.347656 277.609375 344.980469 274.421875 346.519531 271.183594 C 348.058594 267.949219 349.5 264.667969 350.84375 261.347656 C 352.1875 258.027344 353.429688 254.667969 354.574219 251.273438 C 355.722656 247.878906 356.765625 244.453125 357.707031 240.996094 C 358.648438 237.539062 359.488281 234.058594 360.222656 230.550781 C 360.957031 227.042969 361.589844 223.519531 362.117188 219.976562 C 362.644531 216.429688 363.066406 212.875 363.378906 209.304688 C 363.695312 205.738281 363.90625 202.164062 364.011719 198.582031 C 364.113281 195 364.113281 191.417969 364.003906 187.835938 C 363.898438 184.253906 363.683594 180.679688 363.363281 177.113281 C 363.042969 173.542969 362.617188 169.988281 362.089844 166.445312 C 361.558594 162.902344 360.921875 159.375 360.183594 155.871094 C 359.445312 152.363281 358.601562 148.882812 357.65625 145.429688 C 356.710938 141.972656 355.664062 138.546875 354.515625 135.152344 Z M 182.972656 334.621094 C 175.757812 334.636719 168.582031 334.101562 161.449219 333.007812 C 154.316406 331.914062 147.3125 330.28125 140.433594 328.101562 C 133.550781 325.925781 126.882812 323.234375 120.417969 320.027344 C 113.953125 316.816406 107.777344 313.132812 101.882812 308.96875 C 101.132812 308.4375 100.71875 307.714844 100.636719 306.800781 C 100.5625 305.886719 100.847656 305.105469 101.496094 304.453125 L 130.417969 275.519531 L 130.417969 216.761719 L 72.101562 275.058594 C 71.96875 275.210938 71.8125 275.339844 71.644531 275.445312 L 71.347656 275.609375 L 71.109375 275.714844 C 70.988281 275.769531 70.867188 275.808594 70.738281 275.832031 L 69.757812 275.832031 C 68.84375 275.753906 68.121094 275.335938 67.589844 274.585938 C 66.414062 272.90625 65.273438 271.199219 64.171875 269.46875 C 63.070312 267.738281 62.007812 265.984375 60.980469 264.207031 C 59.957031 262.429688 58.96875 260.632812 58.023438 258.8125 C 57.074219 256.992188 56.167969 255.152344 55.300781 253.292969 C 54.433594 251.433594 53.609375 249.554688 52.824219 247.660156 C 52.039062 245.761719 51.296875 243.851562 50.59375 241.921875 C 49.894531 239.996094 49.234375 238.054688 48.617188 236.097656 C 48.003906 234.140625 47.429688 232.171875 46.898438 230.1875 C 46.367188 228.207031 45.878906 226.214844 45.4375 224.210938 C 44.992188 222.207031 44.59375 220.195312 44.238281 218.175781 C 43.882812 216.15625 43.570312 214.128906 43.300781 212.09375 C 43.035156 210.058594 42.8125 208.019531 42.632812 205.976562 C 42.457031 203.933594 42.320312 201.886719 42.234375 199.835938 C 42.144531 197.785156 42.097656 195.734375 42.101562 193.683594 C 42.101562 191.632812 42.144531 189.582031 42.234375 187.53125 C 42.324219 185.480469 42.460938 183.4375 42.640625 181.390625 C 42.816406 179.347656 43.042969 177.308594 43.308594 175.273438 C 43.578125 173.242188 43.890625 171.214844 44.246094 169.195312 C 44.605469 167.171875 45.003906 165.160156 45.449219 163.160156 C 45.894531 161.15625 46.382812 159.164062 46.914062 157.183594 C 47.445312 155.199219 48.019531 153.230469 48.636719 151.273438 C 49.253906 149.316406 49.914062 147.375 50.617188 145.449219 C 51.316406 143.519531 52.0625 141.609375 52.847656 139.714844 C 53.632812 137.816406 54.460938 135.941406 55.328125 134.082031 C 56.195312 132.222656 57.101562 130.382812 58.050781 128.5625 C 58.996094 126.742188 59.984375 124.945312 61.011719 123.167969 C 62.035156 121.390625 63.101562 119.640625 64.203125 117.910156 C 65.304688 116.179688 66.445312 114.472656 67.625 112.792969 C 68.800781 111.113281 70.015625 109.460938 71.261719 107.832031 C 72.511719 106.203125 73.796875 104.605469 75.117188 103.035156 C 76.433594 101.460938 77.789062 99.921875 79.175781 98.40625 C 80.5625 96.894531 81.980469 95.414062 83.429688 93.964844 C 84.882812 92.511719 86.363281 91.09375 87.875 89.710938 C 89.390625 88.324219 90.933594 86.972656 92.503906 85.652344 C 94.074219 84.335938 95.675781 83.050781 97.304688 81.804688 C 98.933594 80.554688 100.585938 79.34375 102.265625 78.164062 C 103.949219 76.988281 105.652344 75.851562 107.382812 74.75 C 109.113281 73.644531 110.867188 72.582031 112.644531 71.558594 C 114.421875 70.53125 116.222656 69.546875 118.042969 68.597656 C 119.863281 67.652344 121.703125 66.746094 123.5625 65.878906 C 125.421875 65.011719 127.296875 64.1875 129.195312 63.402344 C 131.089844 62.617188 133 61.875 134.929688 61.171875 C 136.859375 60.472656 138.800781 59.8125 140.757812 59.195312 C 142.714844 58.578125 144.683594 58.003906 146.664062 57.476562 C 148.648438 56.945312 150.640625 56.457031 152.640625 56.015625 C 154.644531 55.570312 156.65625 55.171875 158.679688 54.816406 C 160.699219 54.460938 162.726562 54.148438 164.761719 53.878906 C 166.792969 53.613281 168.832031 53.390625 170.875 53.210938 C 172.921875 53.035156 174.96875 52.898438 177.015625 52.8125 C 179.066406 52.722656 181.117188 52.679688 183.167969 52.679688 C 185.222656 52.679688 187.273438 52.722656 189.320312 52.8125 C 191.371094 52.902344 193.417969 53.039062 195.460938 53.21875 C 197.503906 53.398438 199.542969 53.621094 201.578125 53.890625 C 203.613281 54.15625 205.640625 54.46875 207.660156 54.828125 C 209.679688 55.183594 211.691406 55.585938 213.695312 56.027344 C 215.699219 56.472656 217.691406 56.960938 219.671875 57.492188 C 221.652344 58.023438 223.621094 58.597656 225.578125 59.214844 C 227.535156 59.835938 229.476562 60.492188 231.40625 61.195312 C 233.332031 61.898438 235.246094 62.640625 237.140625 63.429688 C 239.035156 64.214844 240.914062 65.039062 242.769531 65.90625 C 244.628906 66.773438 246.46875 67.683594 248.289062 68.628906 C 250.109375 69.578125 251.90625 70.566406 253.683594 71.589844 C 255.460938 72.617188 257.214844 73.683594 258.945312 74.785156 C 260.671875 75.886719 262.378906 77.027344 264.058594 78.207031 C 264.808594 78.734375 265.226562 79.457031 265.304688 80.371094 C 265.382812 81.289062 265.09375 82.070312 264.445312 82.71875 L 238.792969 108.386719 L 238.96875 108.683594 C 239.890625 110.078125 240.765625 111.488281 241.613281 112.914062 L 242.148438 113.820312 C 242.992188 115.304688 243.808594 116.789062 244.582031 118.273438 C 244.582031 118.40625 244.699219 118.527344 244.773438 118.660156 C 245.5 120.144531 246.257812 121.628906 246.851562 123.113281 L 247.210938 123.902344 C 247.863281 125.386719 248.484375 126.972656 249.066406 128.53125 L 249.421875 129.484375 C 250 131.070312 250.535156 132.675781 251.039062 134.292969 L 251.171875 134.769531 C 251.632812 136.253906 252.0625 137.886719 252.449219 139.472656 C 252.449219 139.726562 252.582031 139.980469 252.644531 140.230469 C 253.027344 141.847656 253.371094 143.496094 253.683594 145.144531 L 253.859375 146.140625 C 254.15625 147.800781 254.410156 149.480469 254.617188 151.171875 C 254.617188 151.171875 254.617188 151.277344 254.617188 151.335938 L 293.808594 112.144531 C 294.113281 111.828125 294.472656 111.59375 294.882812 111.445312 C 295.296875 111.292969 295.71875 111.238281 296.15625 111.28125 C 297.070312 111.363281 297.792969 111.777344 298.324219 112.527344 C 300.167969 115.152344 301.917969 117.839844 303.578125 120.582031 C 305.238281 123.328125 306.804688 126.125 308.273438 128.976562 C 309.742188 131.828125 311.113281 134.726562 312.386719 137.671875 C 313.65625 140.617188 314.828125 143.601562 315.894531 146.625 C 316.964844 149.652344 317.929688 152.707031 318.789062 155.800781 C 319.648438 158.890625 320.398438 162.003906 321.046875 165.148438 C 321.695312 168.289062 322.234375 171.449219 322.664062 174.628906 C 323.09375 177.808594 323.417969 180.996094 323.632812 184.199219 C 323.84375 187.398438 323.949219 190.601562 323.945312 193.808594 C 323.9375 197.019531 323.824219 200.222656 323.601562 203.421875 C 323.375 206.621094 323.042969 209.808594 322.601562 212.988281 C 322.160156 216.164062 321.613281 219.324219 320.957031 222.464844 C 320.300781 225.601562 319.535156 228.71875 318.667969 231.804688 C 317.796875 234.890625 316.824219 237.945312 315.746094 240.96875 C 314.667969 243.988281 313.488281 246.972656 312.207031 249.910156 C 310.925781 252.851562 309.546875 255.746094 308.070312 258.59375 C 306.589844 261.441406 305.015625 264.234375 303.347656 266.972656 C 301.679688 269.710938 299.917969 272.390625 298.066406 275.011719 C 296.214844 277.628906 294.273438 280.183594 292.25 282.667969 C 290.222656 285.15625 288.113281 287.570312 285.921875 289.914062 C 283.730469 292.257812 281.464844 294.523438 279.117188 296.710938 C 276.773438 298.898438 274.355469 301.003906 271.867188 303.027344 C 269.378906 305.050781 266.820312 306.988281 264.199219 308.835938 C 261.578125 310.683594 258.898438 312.441406 256.15625 314.109375 C 253.414062 315.773438 250.621094 317.34375 247.773438 318.820312 C 244.925781 320.296875 242.027344 321.671875 239.085938 322.949219 C 236.144531 324.226562 233.160156 325.402344 230.140625 326.476562 C 227.117188 327.550781 224.0625 328.523438 220.972656 329.386719 C 217.882812 330.253906 214.769531 331.011719 211.628906 331.667969 C 208.488281 332.320312 205.328125 332.867188 202.152344 333.304688 C 198.972656 333.742188 195.785156 334.070312 192.582031 334.289062 C 189.382812 334.507812 186.179688 334.621094 182.972656 334.621094 Z M 182.972656 334.621094 " fill-opacity="1" fill-rule="nonzero"/></g><path fill="#5cc3b2" d="M 168.257812 98.367188 L 168.257812 139.5625 C 168.265625 140.847656 168.171875 142.121094 167.988281 143.394531 C 167.800781 144.664062 167.523438 145.910156 167.148438 147.140625 C 166.777344 148.367188 166.316406 149.5625 165.765625 150.71875 C 165.214844 151.878906 164.582031 152.992188 163.867188 154.054688 C 163.148438 155.121094 162.355469 156.125 161.492188 157.074219 C 160.625 158.019531 159.691406 158.894531 158.695312 159.703125 C 157.695312 160.511719 156.644531 161.238281 155.539062 161.890625 C 154.429688 162.539062 153.28125 163.105469 152.09375 163.582031 C 151.585938 163.777344 151.054688 163.984375 150.472656 164.164062 C 146.492188 165.464844 142.4375 165.785156 138.300781 165.128906 C 136.9375 164.910156 135.601562 164.585938 134.292969 164.148438 C 133.742188 163.984375 133.207031 163.777344 132.808594 163.582031 C 131.609375 163.109375 130.457031 162.550781 129.34375 161.902344 C 128.230469 161.257812 127.171875 160.53125 126.167969 159.726562 C 125.164062 158.921875 124.226562 158.046875 123.355469 157.097656 C 122.480469 156.152344 121.683594 155.148438 120.960938 154.082031 C 120.242188 153.019531 119.601562 151.90625 119.046875 150.746094 C 118.492188 149.582031 118.023438 148.386719 117.648438 147.15625 C 117.273438 145.925781 116.988281 144.675781 116.800781 143.402344 C 116.613281 142.128906 116.519531 140.851562 116.523438 139.5625 L 116.523438 98.367188 C 116.523438 97.914062 116.566406 97.46875 116.652344 97.027344 C 116.742188 96.585938 116.871094 96.15625 117.042969 95.742188 C 117.214844 95.324219 117.425781 94.929688 117.675781 94.554688 C 117.929688 94.179688 118.210938 93.835938 118.53125 93.515625 C 118.847656 93.199219 119.195312 92.914062 119.570312 92.664062 C 119.945312 92.414062 120.339844 92.203125 120.753906 92.027344 C 121.171875 91.855469 121.601562 91.726562 122.042969 91.640625 C 122.484375 91.550781 122.929688 91.507812 123.378906 91.507812 L 129.808594 91.507812 L 129.808594 124.71875 C 129.808594 125.109375 129.882812 125.488281 130.035156 125.851562 C 130.183594 126.21875 130.398438 126.539062 130.679688 126.816406 C 130.957031 127.09375 131.277344 127.308594 131.640625 127.460938 C 132.003906 127.609375 132.382812 127.6875 132.777344 127.6875 C 133.171875 127.6875 133.550781 127.609375 133.914062 127.460938 C 134.277344 127.308594 134.597656 127.09375 134.878906 126.816406 C 135.15625 126.539062 135.371094 126.21875 135.519531 125.851562 C 135.671875 125.488281 135.746094 125.109375 135.746094 124.71875 L 135.746094 91.507812 L 149.109375 91.507812 L 149.109375 124.804688 C 149.109375 125.199219 149.183594 125.578125 149.335938 125.941406 C 149.484375 126.304688 149.699219 126.628906 149.976562 126.90625 C 150.257812 127.183594 150.578125 127.398438 150.941406 127.550781 C 151.304688 127.699219 151.683594 127.777344 152.078125 127.777344 C 152.472656 127.777344 152.851562 127.699219 153.214844 127.550781 C 153.578125 127.398438 153.898438 127.183594 154.175781 126.90625 C 154.457031 126.628906 154.667969 126.304688 154.820312 125.941406 C 154.972656 125.578125 155.046875 125.199219 155.046875 124.804688 L 155.046875 91.507812 L 161.460938 91.507812 C 161.910156 91.507812 162.355469 91.550781 162.792969 91.636719 C 163.234375 91.722656 163.664062 91.855469 164.078125 92.027344 C 164.492188 92.199219 164.886719 92.410156 165.257812 92.660156 C 165.632812 92.910156 165.976562 93.195312 166.292969 93.515625 C 166.609375 93.835938 166.890625 94.179688 167.140625 94.554688 C 167.386719 94.929688 167.59375 95.328125 167.761719 95.742188 C 167.933594 96.160156 168.058594 96.589844 168.140625 97.03125 C 168.226562 97.472656 168.265625 97.917969 168.257812 98.367188 Z M 168.257812 98.367188 " fill-opacity="1" fill-rule="nonzero"/><path fill="#5cc3b2" d="M 148.441406 170.8125 L 148.441406 289.742188 C 148.4375 290.339844 148.351562 290.921875 148.179688 291.492188 C 148.003906 292.0625 147.753906 292.597656 147.421875 293.09375 C 147.089844 293.589844 146.691406 294.027344 146.230469 294.40625 C 145.769531 294.78125 145.265625 295.085938 144.714844 295.316406 C 144.164062 295.542969 143.589844 295.6875 142.996094 295.746094 C 142.402344 295.804688 141.816406 295.777344 141.230469 295.664062 C 140.644531 295.546875 140.089844 295.347656 139.5625 295.070312 C 139.035156 294.789062 138.558594 294.4375 138.136719 294.019531 C 137.5625 293.457031 137.121094 292.804688 136.8125 292.0625 C 136.503906 291.320312 136.351562 290.546875 136.355469 289.742188 L 136.355469 170.8125 L 136.785156 170.8125 C 137.441406 170.917969 138.078125 171.007812 138.730469 171.082031 L 139.5625 171.183594 C 140.496094 171.257812 141.449219 171.316406 142.398438 171.316406 C 143.347656 171.316406 144.296875 171.316406 145.234375 171.183594 L 146.050781 171.082031 C 146.703125 171.082031 147.371094 170.917969 148.007812 170.796875 Z M 148.441406 170.8125 " fill-opacity="1" fill-rule="nonzero"/><path fill="#5cc3b2" d="M 231.429688 237.457031 L 231.429688 289.714844 C 231.410156 290.097656 231.355469 290.476562 231.261719 290.847656 C 231.171875 291.222656 231.046875 291.582031 230.886719 291.933594 C 230.726562 292.28125 230.535156 292.613281 230.3125 292.925781 C 230.085938 293.238281 229.835938 293.527344 229.558594 293.792969 C 229.28125 294.054688 228.980469 294.292969 228.65625 294.5 C 228.332031 294.707031 227.992188 294.882812 227.636719 295.023438 C 227.28125 295.167969 226.914062 295.273438 226.535156 295.347656 C 226.15625 295.421875 225.777344 295.457031 225.394531 295.457031 C 225.007812 295.457031 224.628906 295.421875 224.25 295.347656 C 223.875 295.273438 223.507812 295.167969 223.148438 295.023438 C 222.792969 294.882812 222.453125 294.707031 222.128906 294.5 C 221.808594 294.292969 221.507812 294.054688 221.226562 293.792969 C 220.949219 293.527344 220.699219 293.238281 220.476562 292.925781 C 220.253906 292.613281 220.0625 292.28125 219.902344 291.933594 C 219.742188 291.582031 219.613281 291.222656 219.523438 290.847656 C 219.433594 290.476562 219.378906 290.097656 219.359375 289.714844 L 219.359375 240.351562 L 219.96875 240.351562 C 220.679688 240.277344 221.363281 240.203125 222.058594 240.097656 L 223.054688 239.933594 C 223.679688 239.832031 224.316406 239.699219 224.957031 239.5625 L 225.921875 239.339844 C 226.582031 239.164062 227.25 238.96875 227.925781 238.761719 L 228.695312 238.539062 C 229.601562 238.226562 230.492188 237.902344 231.382812 237.53125 Z M 231.429688 237.457031 " fill-opacity="1" fill-rule="nonzero"/><path fill="#5cc3b2" d="M 249.421875 163.210938 L 249.421875 201.484375 C 249.417969 202.925781 249.320312 204.363281 249.128906 205.792969 C 248.9375 207.226562 248.65625 208.636719 248.28125 210.03125 C 247.90625 211.425781 247.441406 212.789062 246.890625 214.121094 C 246.335938 215.453125 245.699219 216.746094 244.980469 217.996094 C 244.257812 219.246094 243.460938 220.441406 242.582031 221.589844 C 241.703125 222.734375 240.757812 223.820312 239.738281 224.839844 C 238.71875 225.863281 237.640625 226.816406 236.496094 227.695312 C 235.355469 228.578125 234.160156 229.382812 232.914062 230.105469 C 232.332031 230.449219 231.738281 230.761719 231.144531 231.058594 L 230.582031 231.324219 L 229.320312 231.890625 L 228.652344 232.171875 L 227.417969 232.632812 L 226.75 232.867188 C 226.304688 233.015625 225.847656 233.152344 225.402344 233.269531 L 224.820312 233.433594 C 224.183594 233.609375 223.53125 233.757812 222.875 233.894531 L 222.652344 233.894531 C 222.074219 234.011719 221.496094 234.101562 220.917969 234.191406 L 220.234375 234.191406 L 219.359375 234.277344 L 219.359375 94.742188 C 224.269531 99.277344 228.65625 104.277344 232.511719 109.738281 C 233.773438 111.519531 234.945312 113.332031 236.074219 115.1875 C 239.425781 120.746094 242.164062 126.59375 244.292969 132.726562 C 246.417969 138.859375 247.886719 145.148438 248.695312 151.589844 C 248.960938 153.742188 249.152344 155.894531 249.273438 158.0625 C 249.375 159.695312 249.421875 161.386719 249.421875 163.210938 Z M 249.421875 163.210938 " fill-opacity="1" fill-rule="nonzero"/><path fill="#5cc3b2" d="M 213.421875 133.757812 L 213.421875 192.519531 L 204.765625 201.171875 L 154.378906 251.558594 L 154.378906 192.800781 Z M 213.421875 133.757812 " fill-opacity="1" fill-rule="nonzero"/></svg>