<svg xmlns="http://www.w3.org/2000/svg" xmlns:xlink="http://www.w3.org/1999/xlink" width="500" zoomAndPan="magnify" viewBox="0 0 375 374.999991" height="500" preserveAspectRatio="xMidYMid meet" version="1.0"><defs><clipPath id="58404f35b2"><path d="M 94 259 L 178 259 L 178 374.722656 L 94 374.722656 Z M 94 259 " clip-rule="nonzero"/></clipPath><clipPath id="0d4d18c63a"><path d="M 201 259 L 285 259 L 285 374.722656 L 201 374.722656 Z M 201 259 " clip-rule="nonzero"/></clipPath><clipPath id="8141cb03fc"><path d="M 41.015625 4.972656 L 337.265625 4.972656 L 337.265625 302 L 41.015625 302 Z M 41.015625 4.972656 " clip-rule="nonzero"/></clipPath></defs><g clip-path="url(#58404f35b2)"><path fill="#eb9c3d" d="M 144.945312 374.988281 C 143.003906 374.988281 141.164062 374.019531 140.078125 372.367188 L 126.09375 351.203125 L 101.863281 358.699219 C 99.75 359.351562 97.449219 358.753906 95.921875 357.15625 C 94.390625 355.558594 93.894531 353.234375 94.640625 351.152344 L 125.902344 263.785156 C 126.988281 260.75 130.332031 259.171875 133.367188 260.257812 C 138.59375 262.125 166.910156 287.851562 173.234375 290.113281 C 176.269531 291.199219 177.851562 294.539062 176.761719 297.578125 L 150.445312 371.117188 C 149.703125 373.203125 147.84375 374.683594 145.648438 374.949219 C 145.414062 374.976562 145.179688 374.988281 144.945312 374.988281 Z M 144.945312 374.988281 " fill-opacity="1" fill-rule="evenodd"/></g><g clip-path="url(#0d4d18c63a)"><path fill="#eb9c3d" d="M 233.796875 374.988281 C 235.738281 374.988281 237.578125 374.019531 238.664062 372.367188 L 252.648438 351.203125 L 276.878906 358.699219 C 278.992188 359.351562 281.292969 358.753906 282.820312 357.15625 C 284.351562 355.558594 284.84375 353.234375 284.101562 351.152344 L 252.839844 263.785156 C 251.753906 260.75 248.410156 259.171875 245.375 260.257812 C 240.148438 262.125 211.832031 287.851562 205.507812 290.113281 C 202.472656 291.199219 200.890625 294.539062 201.980469 297.578125 L 228.296875 371.117188 C 229.039062 373.203125 230.898438 374.683594 233.09375 374.949219 C 233.328125 374.976562 233.5625 374.988281 233.796875 374.988281 Z M 233.796875 374.988281 " fill-opacity="1" fill-rule="evenodd"/></g><g clip-path="url(#8141cb03fc)"><path fill="#007c6f" d="M 213.105469 301.445312 L 165.636719 301.445312 C 162.414062 301.445312 159.800781 298.832031 159.800781 295.609375 L 159.800781 282.300781 C 145.296875 279 131.613281 273.332031 119.003906 265.398438 L 109.589844 274.8125 C 107.308594 277.089844 103.613281 277.089844 101.332031 274.8125 L 67.769531 241.246094 C 65.488281 238.96875 65.488281 235.273438 67.769531 232.992188 L 77.183594 223.578125 C 69.25 210.96875 63.578125 197.285156 60.28125 182.78125 L 46.96875 182.78125 C 43.746094 182.78125 41.132812 180.167969 41.132812 176.941406 L 41.132812 129.476562 C 41.132812 126.25 43.746094 123.636719 46.96875 123.636719 L 60.277344 123.636719 C 63.578125 109.132812 69.25 95.449219 77.183594 82.84375 L 67.769531 73.425781 C 65.488281 71.148438 65.488281 67.449219 67.769531 65.171875 L 101.332031 31.605469 C 103.613281 29.328125 107.308594 29.328125 109.585938 31.605469 L 119.003906 41.023438 C 131.613281 33.085938 145.292969 27.417969 159.796875 24.117188 L 159.796875 10.808594 C 159.796875 7.585938 162.414062 4.96875 165.636719 4.96875 L 213.101562 4.96875 C 216.328125 4.96875 218.941406 7.585938 218.941406 10.808594 L 218.941406 24.117188 C 233.445312 27.414062 247.128906 33.085938 259.738281 41.019531 L 269.152344 31.605469 C 271.433594 29.328125 275.128906 29.328125 277.40625 31.605469 L 310.972656 65.171875 C 313.253906 67.449219 313.253906 71.144531 310.972656 73.425781 L 301.558594 82.839844 C 309.492188 95.449219 315.160156 109.132812 318.460938 123.636719 L 331.769531 123.636719 C 334.992188 123.636719 337.609375 126.25 337.609375 129.476562 L 337.609375 176.941406 C 337.609375 180.167969 334.992188 182.78125 331.769531 182.78125 L 318.464844 182.78125 C 315.164062 197.285156 309.492188 210.96875 301.558594 223.574219 L 310.972656 232.992188 C 313.253906 235.269531 313.253906 238.964844 310.972656 241.246094 L 277.410156 274.8125 C 275.128906 277.089844 271.433594 277.089844 269.152344 274.8125 L 259.738281 265.394531 C 247.128906 273.332031 233.445312 279 218.941406 282.300781 L 218.941406 295.609375 C 218.941406 298.832031 216.328125 301.445312 213.105469 301.445312 Z M 213.105469 301.445312 " fill-opacity="1" fill-rule="evenodd"/></g><path fill="#d2eeeb" d="M 216.628906 253.636719 C 211.179688 253.636719 205.789062 251.230469 200.890625 249.042969 C 196.800781 247.214844 192.570312 245.324219 189.371094 245.324219 C 186.171875 245.324219 181.941406 247.214844 177.851562 249.042969 C 171.421875 251.914062 164.136719 255.167969 156.996094 252.847656 C 149.582031 250.441406 145.535156 243.359375 141.964844 237.113281 C 139.820312 233.355469 137.601562 229.46875 135.222656 227.738281 C 132.789062 225.96875 128.363281 225.039062 124.082031 224.140625 C 117.085938 222.671875 109.160156 221.007812 104.632812 214.785156 C 100.144531 208.621094 100.996094 200.609375 101.746094 193.542969 C 102.210938 189.152344 102.691406 184.617188 101.738281 181.683594 C 100.863281 178.980469 97.898438 175.726562 95.035156 172.574219 C 90.15625 167.214844 84.628906 161.136719 84.628906 153.207031 C 84.628906 145.28125 90.15625 139.203125 95.035156 133.84375 C 97.898438 130.691406 100.863281 127.433594 101.738281 124.734375 C 102.691406 121.800781 102.210938 117.261719 101.746094 112.875 C 100.996094 105.808594 100.144531 97.796875 104.632812 91.632812 C 109.164062 85.40625 117.089844 83.742188 124.082031 82.277344 C 128.363281 81.378906 132.789062 80.449219 135.222656 78.679688 C 137.601562 76.949219 139.820312 73.0625 141.96875 69.304688 C 145.535156 63.058594 149.582031 55.976562 157 53.566406 C 164.136719 51.25 171.421875 54.503906 177.851562 57.375 C 181.941406 59.203125 186.171875 61.089844 189.371094 61.089844 C 192.570312 61.089844 196.800781 59.203125 200.890625 57.375 C 207.320312 54.503906 214.609375 51.25 221.746094 53.566406 C 229.160156 55.976562 233.207031 63.058594 236.777344 69.308594 C 238.921875 73.0625 241.144531 76.949219 243.519531 78.679688 C 245.953125 80.449219 250.378906 81.378906 254.660156 82.277344 C 261.65625 83.746094 269.582031 85.410156 274.109375 91.632812 C 278.597656 97.796875 277.746094 105.808594 276.996094 112.878906 C 276.53125 117.265625 276.050781 121.800781 277.003906 124.734375 C 277.878906 127.4375 280.84375 130.695312 283.707031 133.84375 C 288.585938 139.207031 294.113281 145.28125 294.113281 153.207031 C 294.113281 161.136719 288.585938 167.214844 283.707031 172.574219 C 280.84375 175.726562 277.878906 178.980469 277.003906 181.683594 C 276.050781 184.617188 276.53125 189.152344 276.996094 193.539062 C 277.75 200.609375 278.597656 208.621094 274.109375 214.785156 C 269.582031 221.011719 261.65625 222.675781 254.660156 224.140625 C 250.378906 225.039062 245.953125 225.96875 243.519531 227.738281 C 241.144531 229.46875 238.921875 233.351562 236.777344 237.109375 C 233.207031 243.359375 229.160156 250.441406 221.746094 252.851562 C 220.042969 253.402344 218.332031 253.636719 216.628906 253.636719 Z M 216.628906 253.636719 " fill-opacity="1" fill-rule="evenodd"/><path fill="#ffffff" d="M 165.636719 202.589844 C 164.855469 202.589844 164.0625 202.535156 163.28125 202.429688 C 158.597656 201.804688 154.285156 199.277344 151.449219 195.492188 L 127.714844 163.847656 C 121.847656 156.023438 123.4375 144.886719 131.261719 139.019531 C 135.050781 136.175781 139.722656 134.980469 144.410156 135.648438 C 149.101562 136.320312 153.25 138.777344 156.089844 142.566406 L 168.996094 159.769531 L 225.949219 115.472656 C 233.667969 109.472656 244.832031 110.867188 250.835938 118.585938 C 256.839844 126.304688 255.445312 137.46875 247.726562 143.472656 L 176.527344 198.851562 C 173.429688 201.261719 169.5625 202.589844 165.636719 202.589844 Z M 165.636719 202.589844 " fill-opacity="1" fill-rule="evenodd"/><path fill="#fcfcfc" d="M 141.96875 69.304688 C 139.820312 73.0625 137.601562 76.949219 135.222656 78.675781 C 132.789062 80.449219 128.363281 81.378906 124.082031 82.277344 C 117.089844 83.742188 109.164062 85.40625 104.632812 91.628906 C 100.144531 97.796875 100.996094 105.808594 101.746094 112.875 C 102.210938 117.261719 102.691406 121.800781 101.738281 124.734375 C 100.863281 127.433594 97.898438 130.691406 95.035156 133.839844 C 90.15625 139.203125 84.628906 145.28125 84.628906 153.207031 C 84.628906 161.136719 90.15625 167.210938 95.035156 172.574219 C 97.898438 175.722656 100.863281 178.980469 101.738281 181.683594 C 102.691406 184.617188 102.210938 189.152344 101.746094 193.539062 C 100.996094 200.609375 100.144531 208.617188 104.632812 214.785156 C 107.554688 218.800781 111.890625 220.917969 116.476562 222.308594 C 116.269531 222.058594 116.070312 221.796875 115.875 221.53125 C 111.386719 215.363281 112.234375 207.351562 112.988281 200.285156 C 113.453125 195.898438 113.933594 191.359375 112.980469 188.425781 C 112.105469 185.726562 109.140625 182.46875 106.277344 179.320312 C 101.398438 173.957031 95.871094 167.882812 95.871094 159.953125 C 95.871094 152.023438 101.398438 145.949219 106.277344 140.585938 C 109.140625 137.4375 112.105469 134.179688 112.980469 131.480469 C 113.933594 128.542969 113.453125 124.007812 112.988281 119.621094 C 112.238281 112.550781 111.386719 104.539062 115.875 98.375 C 120.402344 92.152344 128.332031 90.488281 135.324219 89.019531 C 139.605469 88.121094 144.03125 87.195312 146.464844 85.421875 C 148.84375 83.691406 151.0625 79.808594 153.207031 76.050781 C 156.777344 69.800781 160.824219 62.71875 168.242188 60.3125 C 175.378906 57.996094 182.664062 61.246094 189.09375 64.121094 C 193.183594 65.945312 197.414062 67.835938 200.613281 67.835938 C 203.8125 67.835938 208.042969 65.945312 212.132812 64.121094 C 217.808594 61.585938 224.148438 58.753906 230.464844 59.714844 C 228.128906 56.988281 225.332031 54.730469 221.746094 53.566406 C 214.609375 51.25 207.320312 54.503906 200.890625 57.375 C 196.800781 59.203125 192.570312 61.089844 189.371094 61.089844 C 186.171875 61.089844 181.941406 59.203125 177.851562 57.375 C 171.421875 54.503906 164.136719 51.25 157 53.566406 C 149.582031 55.976562 145.535156 63.058594 141.96875 69.304688 Z M 141.96875 69.304688 " fill-opacity="1" fill-rule="evenodd"/></svg>