<svg xmlns="http://www.w3.org/2000/svg" xmlns:xlink="http://www.w3.org/1999/xlink" width="500" zoomAndPan="magnify" viewBox="0 0 375 374.999991" height="500" preserveAspectRatio="xMidYMid meet" version="1.0"><defs><clipPath id="8b4cf6b199"><path d="M 13.449219 4.527344 L 361.449219 4.527344 L 361.449219 370.527344 L 13.449219 370.527344 Z M 13.449219 4.527344 " clip-rule="nonzero"/></clipPath></defs><path fill="#007c6f" d="M 187.507812 95.105469 C 149.054688 95.105469 117.882812 127.84375 117.882812 168.230469 C 117.882812 208.621094 149.054688 241.359375 187.507812 241.359375 C 225.957031 241.359375 257.125 208.621094 257.125 168.230469 C 257.125 127.84375 225.957031 95.105469 187.507812 95.105469 " fill-opacity="1" fill-rule="nonzero"/><g clip-path="url(#8b4cf6b199)"><path fill="#007c6f" d="M 303.136719 313.710938 C 287.714844 276.070312 255.34375 252.527344 187.398438 252.527344 C 119.542969 252.527344 87.171875 276.007812 71.730469 313.5625 C 40.296875 281.703125 20.746094 237 20.746094 187.5 C 20.746094 90.761719 95.40625 12.339844 187.507812 12.339844 C 279.605469 12.339844 354.265625 90.761719 354.265625 187.5 C 354.265625 237.078125 334.652344 281.84375 303.136719 313.710938 Z M 187.507812 4.679688 C 91.375 4.679688 13.449219 86.53125 13.449219 187.5 C 13.449219 240.308594 34.765625 287.890625 68.859375 321.265625 C 99.945312 351.699219 141.652344 370.320312 187.507812 370.320312 C 233.277344 370.320312 274.921875 351.761719 305.996094 321.417969 C 340.175781 288.039062 361.5625 240.390625 361.5625 187.5 C 361.5625 86.53125 283.632812 4.679688 187.507812 4.679688 " fill-opacity="1" fill-rule="nonzero"/></g></svg>