<svg xmlns="http://www.w3.org/2000/svg" xmlns:xlink="http://www.w3.org/1999/xlink" width="500" zoomAndPan="magnify" viewBox="0 0 375 374.999991" height="500" preserveAspectRatio="xMidYMid meet" version="1.0"><defs><clipPath id="c9d1234131"><path d="M 0 1.171875 L 375 1.171875 L 375 373.921875 L 0 373.921875 Z M 0 1.171875 " clip-rule="nonzero"/></clipPath></defs><path fill="#000000" d="M 232.199219 222.132812 C 226.582031 222.132812 222.003906 226.707031 222.003906 232.324219 C 222.003906 237.945312 226.582031 242.515625 232.199219 242.515625 C 237.820312 242.515625 242.398438 237.945312 242.398438 232.324219 C 242.398438 226.707031 237.820312 222.132812 232.199219 222.132812 " fill-opacity="1" fill-rule="nonzero"/><path fill="#000000" d="M 142.796875 153.179688 C 148.417969 153.179688 152.992188 148.609375 152.992188 142.992188 C 152.992188 137.371094 148.417969 132.792969 142.796875 132.792969 C 137.175781 132.792969 132.601562 137.371094 132.601562 142.992188 C 132.601562 148.609375 137.175781 153.179688 142.796875 153.179688 " fill-opacity="1" fill-rule="nonzero"/><g clip-path="url(#c9d1234131)"><path fill="#000000" d="M 232.199219 269.578125 C 211.660156 269.578125 194.945312 252.863281 194.945312 232.324219 C 194.945312 211.78125 211.660156 195.074219 232.199219 195.074219 C 252.742188 195.074219 269.453125 211.78125 269.453125 232.324219 C 269.453125 252.863281 252.742188 269.578125 232.199219 269.578125 Z M 136.195312 258.105469 C 133.554688 260.746094 130.089844 262.066406 126.625 262.066406 C 123.164062 262.066406 119.703125 260.746094 117.0625 258.105469 C 111.773438 252.824219 111.773438 244.253906 117.0625 238.972656 L 238.828125 117.207031 C 244.105469 111.921875 252.675781 111.921875 257.960938 117.207031 C 263.246094 122.488281 263.246094 131.058594 257.960938 136.339844 Z M 105.542969 142.992188 C 105.542969 122.449219 122.257812 105.734375 142.796875 105.734375 C 163.339844 105.734375 180.050781 122.449219 180.050781 142.992188 C 180.050781 163.53125 163.339844 180.238281 142.796875 180.238281 C 122.257812 180.238281 105.542969 163.53125 105.542969 142.992188 Z M 374.625 166.003906 C 374.402344 163.914062 373.21875 162.035156 371.417969 160.9375 L 333.980469 138.078125 L 350.832031 97.578125 C 351.644531 95.632812 351.496094 93.417969 350.445312 91.59375 C 349.390625 89.769531 347.546875 88.542969 345.457031 88.273438 L 301.957031 82.613281 L 300.878906 38.761719 C 300.828125 36.652344 299.800781 34.695312 298.09375 33.453125 C 296.386719 32.214844 294.210938 31.839844 292.183594 32.445312 L 250.140625 44.96875 L 231.320312 5.347656 C 230.414062 3.441406 228.679688 2.070312 226.617188 1.632812 C 224.5625 1.1875 222.410156 1.738281 220.808594 3.113281 L 187.5 31.65625 L 154.1875 3.113281 C 152.585938 1.738281 150.433594 1.1875 148.378906 1.632812 C 146.320312 2.070312 144.582031 3.441406 143.675781 5.347656 L 124.851562 44.96875 L 82.8125 32.445312 C 80.800781 31.839844 78.613281 32.214844 76.90625 33.453125 C 75.199219 34.695312 74.167969 36.652344 74.121094 38.761719 L 73.039062 82.613281 L 29.539062 88.273438 C 27.453125 88.542969 25.609375 89.769531 24.554688 91.59375 C 23.5 93.417969 23.355469 95.632812 24.164062 97.578125 L 41.015625 138.078125 L 3.578125 160.9375 C 1.78125 162.035156 0.597656 163.914062 0.375 166.003906 C 0.15625 168.101562 0.925781 170.179688 2.457031 171.628906 L 34.324219 201.769531 L 9.417969 237.886719 C 8.222656 239.621094 7.902344 241.816406 8.550781 243.816406 C 9.207031 245.820312 10.753906 247.40625 12.738281 248.105469 L 54.117188 262.679688 L 46.050781 305.804688 C 45.664062 307.878906 46.265625 310.007812 47.675781 311.578125 C 49.082031 313.140625 51.175781 313.953125 53.242188 313.789062 L 96.96875 310.277344 L 107.144531 352.949219 C 107.632812 355 109.050781 356.707031 110.972656 357.558594 C 112.898438 358.414062 115.113281 358.332031 116.957031 357.324219 L 155.472656 336.324219 L 182.125 371.171875 C 183.40625 372.847656 185.390625 373.828125 187.5 373.828125 C 189.605469 373.828125 191.59375 372.847656 192.875 371.171875 L 219.523438 336.324219 L 258.039062 357.324219 C 259.886719 358.328125 262.101562 358.414062 264.023438 357.558594 C 265.949219 356.707031 267.363281 355 267.855469 352.949219 L 278.03125 310.277344 L 321.753906 313.789062 C 323.84375 313.9375 325.914062 313.140625 327.324219 311.578125 C 328.734375 310.007812 329.335938 307.878906 328.945312 305.804688 L 320.882812 262.679688 L 362.257812 248.105469 C 364.246094 247.40625 365.792969 245.820312 366.441406 243.816406 C 367.09375 241.816406 366.777344 239.621094 365.578125 237.886719 L 340.671875 201.769531 L 372.542969 171.628906 C 374.070312 170.179688 374.84375 168.101562 374.625 166.003906 " fill-opacity="1" fill-rule="nonzero"/></g></svg>