<svg xmlns="http://www.w3.org/2000/svg" xmlns:xlink="http://www.w3.org/1999/xlink" width="500" zoomAndPan="magnify" viewBox="0 0 375 374.999991" height="500" preserveAspectRatio="xMidYMid meet" version="1.0"><defs><filter x="0%" y="0%" width="100%" height="100%" id="fb91fa4a25"><feColorMatrix values="0 0 0 0 1 0 0 0 0 1 0 0 0 0 1 0 0 0 1 0" color-interpolation-filters="sRGB"/></filter><clipPath id="ca16855c1a"><path d="M 192 192 L 372.75 192 L 372.75 373 L 192 373 Z M 192 192 " clip-rule="nonzero"/></clipPath><mask id="12f2997ecc"><g filter="url(#fb91fa4a25)"><rect x="-37.5" width="450" fill="#000000" y="-37.499999" height="449.999989" fill-opacity="0.21"/></g></mask><clipPath id="94adeef707"><path d="M 0.679688 13 L 72 13 L 72 143 L 0.679688 143 Z M 0.679688 13 " clip-rule="nonzero"/></clipPath><clipPath id="65c76b693d"><rect x="0" width="79" y="0" height="155"/></clipPath><clipPath id="5697410e2d"><path d="M 37.5 11 L 372.75 11 L 372.75 373 L 37.5 373 Z M 37.5 11 " clip-rule="nonzero"/></clipPath></defs><path fill="#77d8ce" d="M 256.472656 50.652344 L 128.308594 50.652344 C 127.894531 52.777344 127.679688 54.925781 127.664062 57.09375 L 127.664062 87.105469 C 127.59375 88.023438 127.613281 88.9375 127.722656 89.851562 C 127.832031 90.765625 128.03125 91.660156 128.316406 92.53125 C 128.601562 93.40625 128.96875 94.246094 129.417969 95.046875 C 129.867188 95.851562 130.394531 96.601562 130.992188 97.300781 C 131.589844 98 132.25 98.636719 132.972656 99.203125 C 133.695312 99.773438 134.464844 100.269531 135.285156 100.6875 C 136.105469 101.105469 136.957031 101.4375 137.84375 101.6875 C 138.726562 101.941406 139.628906 102.101562 140.546875 102.175781 L 101.902344 102.175781 C 100.988281 102.101562 100.085938 101.941406 99.199219 101.6875 C 98.316406 101.4375 97.460938 101.105469 96.640625 100.6875 C 95.824219 100.269531 95.050781 99.773438 94.328125 99.203125 C 93.605469 98.636719 92.945312 98 92.347656 97.300781 C 91.75 96.601562 91.226562 95.851562 90.777344 95.046875 C 90.328125 94.246094 89.957031 93.40625 89.671875 92.53125 C 89.386719 91.660156 89.191406 90.765625 89.082031 89.851562 C 88.972656 88.9375 88.953125 88.023438 89.023438 87.105469 L 89.023438 57.09375 C 88.824219 54.945312 88.824219 52.796875 89.023438 50.652344 L 76.140625 50.652344 L 76.140625 256.742188 C 76.140625 258.007812 76.203125 259.269531 76.328125 260.53125 C 76.453125 261.789062 76.636719 263.039062 76.882812 264.28125 C 77.132812 265.523438 77.4375 266.75 77.804688 267.960938 C 78.171875 269.171875 78.597656 270.363281 79.082031 271.53125 C 79.566406 272.699219 80.109375 273.84375 80.703125 274.960938 C 81.300781 276.074219 81.953125 277.160156 82.65625 278.210938 C 83.359375 279.265625 84.109375 280.28125 84.914062 281.257812 C 85.714844 282.234375 86.566406 283.171875 87.460938 284.066406 C 88.355469 284.960938 89.292969 285.8125 90.269531 286.613281 C 91.25 287.417969 92.261719 288.167969 93.316406 288.871094 C 94.367188 289.574219 95.453125 290.226562 96.570312 290.824219 C 97.683594 291.417969 98.828125 291.960938 99.996094 292.445312 C 101.164062 292.929688 102.355469 293.355469 103.566406 293.722656 C 104.777344 294.089844 106.003906 294.394531 107.246094 294.644531 C 108.488281 294.890625 109.738281 295.074219 110.996094 295.199219 C 112.257812 295.324219 113.519531 295.386719 114.785156 295.386719 L 295.113281 295.386719 L 295.113281 89.292969 C 295.113281 88.027344 295.050781 86.765625 294.929688 85.507812 C 294.804688 84.246094 294.617188 82.996094 294.371094 81.753906 C 294.125 80.515625 293.816406 79.289062 293.449219 78.078125 C 293.082031 76.867188 292.65625 75.675781 292.171875 74.507812 C 291.6875 73.335938 291.148438 72.195312 290.550781 71.078125 C 289.953125 69.960938 289.304688 68.878906 288.601562 67.824219 C 287.898438 66.773438 287.144531 65.757812 286.34375 64.78125 C 285.539062 63.800781 284.691406 62.863281 283.796875 61.96875 C 282.902344 61.074219 281.964844 60.226562 280.988281 59.421875 C 280.007812 58.621094 278.992188 57.867188 277.941406 57.164062 C 276.886719 56.460938 275.804688 55.8125 274.6875 55.214844 C 273.570312 54.617188 272.429688 54.078125 271.257812 53.59375 C 270.089844 53.109375 268.898438 52.683594 267.6875 52.316406 C 266.476562 51.949219 265.253906 51.640625 264.011719 51.394531 C 262.769531 51.148438 261.519531 50.960938 260.257812 50.839844 C 259 50.714844 257.738281 50.652344 256.472656 50.652344 Z M 256.472656 50.652344 " fill-opacity="1" fill-rule="nonzero"/><path fill="#eb9c3d" d="M 243.589844 50.652344 C 243.492188 49.867188 243.359375 49.085938 243.195312 48.3125 C 243.027344 47.539062 242.828125 46.773438 242.59375 46.015625 C 242.359375 45.257812 242.089844 44.515625 241.789062 43.78125 C 241.488281 43.046875 241.15625 42.328125 240.792969 41.625 C 240.429688 40.921875 240.035156 40.234375 239.613281 39.566406 C 239.1875 38.898438 238.734375 38.25 238.253906 37.621094 C 237.773438 36.992188 237.265625 36.386719 236.730469 35.800781 C 236.195312 35.21875 235.636719 34.65625 235.050781 34.121094 C 234.464844 33.589844 233.859375 33.082031 233.230469 32.597656 C 232.601562 32.117188 231.953125 31.664062 231.28125 31.242188 C 230.613281 30.816406 229.925781 30.425781 229.222656 30.0625 C 228.519531 29.699219 227.800781 29.367188 227.066406 29.066406 C 226.335938 28.765625 225.589844 28.5 224.832031 28.265625 C 224.078125 28.03125 223.3125 27.832031 222.535156 27.664062 C 221.761719 27.5 220.980469 27.367188 220.195312 27.269531 C 219.410156 27.171875 218.621094 27.109375 217.828125 27.082031 L 195.160156 27.082031 C 192.429688 23.566406 189.25 20.519531 185.628906 17.933594 C 182.003906 20.519531 178.828125 23.566406 176.097656 27.082031 L 153.425781 27.082031 C 151.867188 27.171875 150.328125 27.398438 148.808594 27.761719 C 147.289062 28.121094 145.8125 28.609375 144.378906 29.226562 C 142.945312 29.84375 141.578125 30.582031 140.269531 31.4375 C 138.964844 32.292969 137.742188 33.253906 136.605469 34.324219 C 135.464844 35.390625 134.429688 36.550781 133.492188 37.800781 C 132.554688 39.046875 131.734375 40.367188 131.023438 41.761719 C 130.316406 43.152344 129.738281 44.59375 129.28125 46.089844 C 128.824219 47.582031 128.5 49.101562 128.308594 50.652344 C 127.894531 52.777344 127.679688 54.925781 127.664062 57.09375 L 127.664062 87.105469 C 127.59375 88.023438 127.613281 88.9375 127.722656 89.851562 C 127.832031 90.765625 128.03125 91.660156 128.316406 92.53125 C 128.601562 93.40625 128.96875 94.246094 129.417969 95.046875 C 129.867188 95.851562 130.394531 96.601562 130.992188 97.300781 C 131.589844 98 132.25 98.636719 132.972656 99.203125 C 133.695312 99.773438 134.464844 100.269531 135.285156 100.6875 C 136.105469 101.105469 136.957031 101.4375 137.84375 101.6875 C 138.726562 101.941406 139.628906 102.101562 140.546875 102.175781 L 230.710938 102.175781 C 231.628906 102.101562 232.527344 101.941406 233.414062 101.6875 C 234.300781 101.4375 235.152344 101.105469 235.972656 100.6875 C 236.792969 100.269531 237.5625 99.773438 238.285156 99.203125 C 239.007812 98.636719 239.667969 98 240.265625 97.300781 C 240.863281 96.601562 241.386719 95.851562 241.835938 95.046875 C 242.289062 94.246094 242.65625 93.40625 242.941406 92.53125 C 243.226562 91.660156 243.421875 90.765625 243.53125 89.851562 C 243.640625 88.9375 243.660156 88.023438 243.589844 87.105469 L 243.589844 57.09375 C 243.789062 54.945312 243.789062 52.796875 243.589844 50.652344 Z M 243.589844 50.652344 " fill-opacity="1" fill-rule="nonzero"/><g clip-path="url(#ca16855c1a)"><path fill="#77d8ce" d="M 372.398438 282.503906 C 372.398438 283.980469 372.363281 285.453125 372.289062 286.929688 C 372.21875 288.402344 372.109375 289.875 371.964844 291.34375 C 371.820312 292.8125 371.640625 294.273438 371.421875 295.734375 C 371.207031 297.195312 370.953125 298.648438 370.664062 300.09375 C 370.378906 301.542969 370.054688 302.980469 369.695312 304.414062 C 369.335938 305.84375 368.945312 307.265625 368.515625 308.679688 C 368.085938 310.089844 367.625 311.492188 367.128906 312.878906 C 366.628906 314.269531 366.101562 315.644531 365.535156 317.007812 C 364.96875 318.371094 364.371094 319.722656 363.742188 321.054688 C 363.109375 322.390625 362.449219 323.707031 361.75 325.007812 C 361.054688 326.308594 360.328125 327.59375 359.570312 328.859375 C 358.8125 330.125 358.023438 331.371094 357.203125 332.597656 C 356.382812 333.824219 355.535156 335.03125 354.65625 336.214844 C 353.777344 337.402344 352.867188 338.5625 351.933594 339.703125 C 350.996094 340.84375 350.03125 341.960938 349.042969 343.054688 C 348.050781 344.148438 347.03125 345.21875 345.988281 346.261719 C 344.945312 347.304688 343.878906 348.320312 342.785156 349.3125 C 341.691406 350.304688 340.574219 351.265625 339.433594 352.203125 C 338.292969 353.140625 337.128906 354.046875 335.945312 354.925781 C 334.757812 355.804688 333.554688 356.652344 332.328125 357.472656 C 331.097656 358.292969 329.851562 359.082031 328.585938 359.839844 C 327.320312 360.601562 326.039062 361.328125 324.738281 362.023438 C 323.433594 362.71875 322.117188 363.382812 320.785156 364.011719 C 319.449219 364.644531 318.101562 365.242188 316.738281 365.804688 C 315.375 366.371094 314 366.902344 312.609375 367.398438 C 311.21875 367.894531 309.820312 368.359375 308.40625 368.789062 C 306.996094 369.214844 305.574219 369.609375 304.140625 369.96875 C 302.710938 370.324219 301.269531 370.648438 299.824219 370.9375 C 298.375 371.226562 296.921875 371.476562 295.464844 371.695312 C 294.003906 371.910156 292.539062 372.089844 291.070312 372.234375 C 289.601562 372.378906 288.132812 372.488281 286.65625 372.5625 C 285.183594 372.632812 283.710938 372.667969 282.234375 372.667969 C 280.757812 372.667969 279.28125 372.632812 277.808594 372.5625 C 276.335938 372.488281 274.863281 372.378906 273.394531 372.234375 C 271.925781 372.089844 270.464844 371.910156 269.003906 371.695312 C 267.542969 371.476562 266.089844 371.226562 264.644531 370.9375 C 263.195312 370.648438 261.757812 370.324219 260.324219 369.96875 C 258.894531 369.609375 257.472656 369.214844 256.058594 368.789062 C 254.648438 368.359375 253.246094 367.894531 251.859375 367.398438 C 250.46875 366.902344 249.09375 366.371094 247.730469 365.804688 C 246.367188 365.242188 245.015625 364.644531 243.683594 364.011719 C 242.347656 363.382812 241.03125 362.71875 239.730469 362.023438 C 238.429688 361.328125 237.144531 360.601562 235.878906 359.839844 C 234.613281 359.082031 233.367188 358.292969 232.140625 357.472656 C 230.914062 356.652344 229.707031 355.804688 228.523438 354.925781 C 227.335938 354.046875 226.175781 353.140625 225.035156 352.203125 C 223.894531 351.265625 222.777344 350.304688 221.683594 349.3125 C 220.589844 348.320312 219.519531 347.304688 218.476562 346.261719 C 217.433594 345.21875 216.417969 344.148438 215.425781 343.054688 C 214.433594 341.960938 213.472656 340.84375 212.535156 339.703125 C 211.597656 338.5625 210.691406 337.402344 209.8125 336.214844 C 208.933594 335.03125 208.082031 333.824219 207.265625 332.597656 C 206.445312 331.371094 205.65625 330.125 204.894531 328.859375 C 204.136719 327.59375 203.410156 326.308594 202.714844 325.007812 C 202.019531 323.707031 201.355469 322.390625 200.726562 321.054688 C 200.09375 319.722656 199.496094 318.371094 198.933594 317.007812 C 198.367188 315.644531 197.835938 314.269531 197.339844 312.878906 C 196.84375 311.492188 196.378906 310.089844 195.949219 308.679688 C 195.523438 307.265625 195.128906 305.84375 194.769531 304.414062 C 194.410156 302.980469 194.089844 301.542969 193.800781 300.09375 C 193.511719 298.648438 193.261719 297.195312 193.042969 295.734375 C 192.828125 294.273438 192.648438 292.8125 192.503906 291.34375 C 192.359375 289.875 192.25 288.402344 192.175781 286.929688 C 192.105469 285.453125 192.070312 283.980469 192.070312 282.503906 C 192.070312 281.027344 192.105469 279.554688 192.175781 278.082031 C 192.25 276.605469 192.359375 275.136719 192.503906 273.667969 C 192.648438 272.199219 192.828125 270.734375 193.042969 269.273438 C 193.261719 267.816406 193.511719 266.363281 193.800781 264.914062 C 194.089844 263.46875 194.410156 262.027344 194.769531 260.597656 C 195.128906 259.164062 195.523438 257.742188 195.949219 256.332031 C 196.378906 254.917969 196.84375 253.519531 197.339844 252.128906 C 197.835938 250.738281 198.367188 249.363281 198.933594 248 C 199.496094 246.636719 200.09375 245.289062 200.726562 243.953125 C 201.355469 242.621094 202.019531 241.300781 202.714844 240 C 203.410156 238.699219 204.136719 237.417969 204.894531 236.152344 C 205.65625 234.886719 206.445312 233.636719 207.265625 232.410156 C 208.082031 231.183594 208.933594 229.980469 209.8125 228.792969 C 210.691406 227.609375 211.597656 226.445312 212.535156 225.304688 C 213.472656 224.164062 214.433594 223.046875 215.425781 221.953125 C 216.417969 220.859375 217.433594 219.792969 218.476562 218.75 C 219.519531 217.703125 220.589844 216.6875 221.683594 215.695312 C 222.777344 214.707031 223.894531 213.742188 225.035156 212.804688 C 226.175781 211.871094 227.335938 210.960938 228.523438 210.082031 C 229.707031 209.203125 230.914062 208.355469 232.140625 207.535156 C 233.367188 206.714844 234.613281 205.925781 235.878906 205.167969 C 237.144531 204.410156 238.429688 203.683594 239.730469 202.984375 C 241.03125 202.289062 242.347656 201.628906 243.683594 200.996094 C 245.015625 200.367188 246.367188 199.769531 247.730469 199.203125 C 249.09375 198.636719 250.46875 198.109375 251.859375 197.609375 C 253.246094 197.113281 254.648438 196.652344 256.058594 196.222656 C 257.472656 195.792969 258.894531 195.402344 260.324219 195.042969 C 261.757812 194.683594 263.195312 194.359375 264.644531 194.070312 C 266.089844 193.785156 267.542969 193.53125 269.003906 193.316406 C 270.464844 193.097656 271.925781 192.917969 273.394531 192.773438 C 274.863281 192.628906 276.335938 192.519531 277.808594 192.449219 C 279.28125 192.375 280.757812 192.339844 282.234375 192.339844 C 283.710938 192.339844 285.183594 192.375 286.65625 192.449219 C 288.132812 192.519531 289.601562 192.628906 291.070312 192.773438 C 292.539062 192.917969 294.003906 193.097656 295.464844 193.316406 C 296.921875 193.53125 298.375 193.785156 299.824219 194.070312 C 301.269531 194.359375 302.710938 194.683594 304.140625 195.042969 C 305.574219 195.402344 306.996094 195.792969 308.40625 196.222656 C 309.820312 196.652344 311.21875 197.113281 312.609375 197.609375 C 314 198.109375 315.375 198.636719 316.738281 199.203125 C 318.101562 199.769531 319.449219 200.367188 320.785156 200.996094 C 322.117188 201.628906 323.4375 202.289062 324.738281 202.984375 C 326.039062 203.683594 327.320312 204.410156 328.585938 205.167969 C 329.851562 205.925781 331.097656 206.714844 332.328125 207.535156 C 333.554688 208.355469 334.757812 209.203125 335.945312 210.082031 C 337.128906 210.960938 338.292969 211.871094 339.433594 212.804688 C 340.574219 213.742188 341.691406 214.707031 342.785156 215.695312 C 343.878906 216.6875 344.945312 217.703125 345.988281 218.75 C 347.03125 219.792969 348.050781 220.859375 349.042969 221.953125 C 350.03125 223.046875 350.996094 224.164062 351.933594 225.304688 C 352.867188 226.445312 353.777344 227.609375 354.65625 228.792969 C 355.535156 229.980469 356.382812 231.183594 357.203125 232.410156 C 358.023438 233.636719 358.8125 234.886719 359.570312 236.152344 C 360.328125 237.417969 361.054688 238.699219 361.75 240 C 362.449219 241.300781 363.109375 242.621094 363.742188 243.953125 C 364.371094 245.289062 364.96875 246.636719 365.535156 248 C 366.101562 249.363281 366.628906 250.738281 367.128906 252.128906 C 367.625 253.519531 368.085938 254.917969 368.515625 256.332031 C 368.945312 257.742188 369.335938 259.164062 369.695312 260.597656 C 370.054688 262.027344 370.378906 263.46875 370.664062 264.914062 C 370.953125 266.363281 371.207031 267.816406 371.421875 269.273438 C 371.640625 270.734375 371.820312 272.199219 371.964844 273.667969 C 372.109375 275.136719 372.21875 276.605469 372.289062 278.082031 C 372.363281 279.554688 372.398438 281.027344 372.398438 282.503906 Z M 372.398438 282.503906 " fill-opacity="1" fill-rule="nonzero"/></g><path fill="#eb9c3d" d="M 346.636719 282.503906 C 346.636719 283.558594 346.609375 284.613281 346.558594 285.664062 C 346.507812 286.71875 346.429688 287.769531 346.328125 288.816406 C 346.222656 289.867188 346.09375 290.910156 345.941406 291.953125 C 345.785156 292.996094 345.605469 294.035156 345.398438 295.070312 C 345.195312 296.101562 344.964844 297.132812 344.707031 298.152344 C 344.449219 299.175781 344.167969 300.191406 343.863281 301.199219 C 343.558594 302.207031 343.226562 303.210938 342.871094 304.203125 C 342.515625 305.195312 342.136719 306.175781 341.734375 307.152344 C 341.332031 308.125 340.902344 309.085938 340.453125 310.039062 C 340.003906 310.992188 339.527344 311.933594 339.03125 312.863281 C 338.535156 313.792969 338.015625 314.710938 337.472656 315.613281 C 336.933594 316.519531 336.367188 317.410156 335.78125 318.285156 C 335.199219 319.160156 334.589844 320.023438 333.960938 320.871094 C 333.335938 321.714844 332.6875 322.546875 332.019531 323.363281 C 331.347656 324.175781 330.660156 324.972656 329.953125 325.753906 C 329.246094 326.535156 328.519531 327.300781 327.773438 328.042969 C 327.027344 328.789062 326.265625 329.515625 325.484375 330.222656 C 324.703125 330.933594 323.90625 331.621094 323.089844 332.289062 C 322.277344 332.957031 321.445312 333.605469 320.597656 334.234375 C 319.753906 334.863281 318.890625 335.46875 318.015625 336.054688 C 317.136719 336.640625 316.246094 337.203125 315.34375 337.746094 C 314.4375 338.289062 313.523438 338.808594 312.59375 339.304688 C 311.664062 339.800781 310.722656 340.273438 309.769531 340.726562 C 308.816406 341.175781 307.851562 341.601562 306.878906 342.003906 C 305.90625 342.410156 304.921875 342.789062 303.929688 343.144531 C 302.9375 343.5 301.9375 343.828125 300.929688 344.136719 C 299.921875 344.441406 298.90625 344.722656 297.882812 344.976562 C 296.859375 345.234375 295.832031 345.464844 294.796875 345.671875 C 293.765625 345.875 292.726562 346.054688 291.683594 346.210938 C 290.640625 346.367188 289.59375 346.496094 288.546875 346.597656 C 287.496094 346.703125 286.445312 346.777344 285.394531 346.832031 C 284.339844 346.882812 283.289062 346.910156 282.234375 346.910156 C 281.179688 346.910156 280.125 346.882812 279.074219 346.832031 C 278.019531 346.777344 276.96875 346.703125 275.921875 346.597656 C 274.871094 346.496094 273.824219 346.367188 272.785156 346.210938 C 271.742188 346.054688 270.703125 345.875 269.667969 345.671875 C 268.636719 345.464844 267.605469 345.234375 266.585938 344.976562 C 265.5625 344.722656 264.546875 344.441406 263.539062 344.136719 C 262.53125 343.828125 261.527344 343.5 260.535156 343.144531 C 259.542969 342.789062 258.5625 342.410156 257.585938 342.003906 C 256.613281 341.601562 255.648438 341.175781 254.699219 340.726562 C 253.746094 340.273438 252.804688 339.800781 251.875 339.304688 C 250.945312 338.808594 250.027344 338.289062 249.125 337.746094 C 248.21875 337.203125 247.328125 336.640625 246.453125 336.054688 C 245.578125 335.46875 244.714844 334.863281 243.867188 334.234375 C 243.023438 333.605469 242.191406 332.957031 241.375 332.289062 C 240.5625 331.621094 239.761719 330.933594 238.984375 330.222656 C 238.203125 329.515625 237.4375 328.789062 236.691406 328.042969 C 235.949219 327.300781 235.222656 326.535156 234.511719 325.753906 C 233.804688 324.972656 233.117188 324.175781 232.449219 323.363281 C 231.78125 322.546875 231.132812 321.714844 230.503906 320.871094 C 229.875 320.023438 229.269531 319.160156 228.683594 318.285156 C 228.097656 317.410156 227.535156 316.519531 226.992188 315.613281 C 226.449219 314.710938 225.929688 313.792969 225.433594 312.863281 C 224.9375 311.933594 224.464844 310.992188 224.011719 310.039062 C 223.5625 309.089844 223.136719 308.125 222.730469 307.152344 C 222.328125 306.175781 221.949219 305.195312 221.59375 304.203125 C 221.238281 303.210938 220.910156 302.207031 220.601562 301.199219 C 220.296875 300.191406 220.015625 299.175781 219.761719 298.152344 C 219.503906 297.132812 219.273438 296.101562 219.066406 295.070312 C 218.863281 294.035156 218.679688 292.996094 218.527344 291.953125 C 218.371094 290.910156 218.242188 289.867188 218.140625 288.816406 C 218.035156 287.769531 217.960938 286.71875 217.90625 285.664062 C 217.855469 284.613281 217.828125 283.558594 217.828125 282.503906 C 217.828125 281.449219 217.855469 280.398438 217.90625 279.34375 C 217.960938 278.292969 218.035156 277.242188 218.140625 276.191406 C 218.242188 275.144531 218.371094 274.097656 218.527344 273.054688 C 218.679688 272.011719 218.863281 270.972656 219.066406 269.941406 C 219.273438 268.90625 219.503906 267.878906 219.761719 266.855469 C 220.015625 265.832031 220.296875 264.816406 220.601562 263.808594 C 220.910156 262.800781 221.238281 261.800781 221.59375 260.808594 C 221.949219 259.816406 222.328125 258.832031 222.730469 257.859375 C 223.136719 256.882812 223.5625 255.921875 224.011719 254.96875 C 224.464844 254.015625 224.9375 253.074219 225.433594 252.144531 C 225.929688 251.214844 226.449219 250.296875 226.992188 249.394531 C 227.535156 248.492188 228.097656 247.601562 228.683594 246.722656 C 229.269531 245.847656 229.875 244.984375 230.503906 244.140625 C 231.132812 243.292969 231.78125 242.460938 232.449219 241.648438 C 233.117188 240.832031 233.804688 240.035156 234.511719 239.253906 C 235.222656 238.472656 235.949219 237.710938 236.691406 236.964844 C 237.4375 236.21875 238.203125 235.492188 238.984375 234.785156 C 239.761719 234.078125 240.5625 233.390625 241.375 232.71875 C 242.191406 232.050781 243.023438 231.402344 243.867188 230.773438 C 244.714844 230.148438 245.578125 229.539062 246.453125 228.957031 C 247.328125 228.371094 248.21875 227.804688 249.125 227.265625 C 250.027344 226.722656 250.945312 226.203125 251.875 225.707031 C 252.804688 225.210938 253.746094 224.734375 254.699219 224.285156 C 255.648438 223.832031 256.613281 223.40625 257.585938 223.003906 C 258.5625 222.601562 259.542969 222.222656 260.535156 221.867188 C 261.527344 221.511719 262.53125 221.179688 263.539062 220.875 C 264.546875 220.570312 265.5625 220.289062 266.585938 220.03125 C 267.605469 219.773438 268.636719 219.542969 269.667969 219.339844 C 270.703125 219.132812 271.742188 218.953125 272.785156 218.796875 C 273.824219 218.644531 274.871094 218.515625 275.921875 218.410156 C 276.96875 218.308594 278.019531 218.230469 279.074219 218.179688 C 280.125 218.128906 281.179688 218.101562 282.234375 218.101562 C 283.289062 218.101562 284.339844 218.128906 285.394531 218.179688 C 286.445312 218.230469 287.496094 218.308594 288.546875 218.410156 C 289.59375 218.515625 290.640625 218.644531 291.683594 218.796875 C 292.726562 218.953125 293.765625 219.132812 294.796875 219.339844 C 295.832031 219.542969 296.859375 219.773438 297.882812 220.03125 C 298.90625 220.289062 299.921875 220.570312 300.929688 220.875 C 301.9375 221.179688 302.9375 221.511719 303.929688 221.867188 C 304.921875 222.222656 305.90625 222.601562 306.878906 223.003906 C 307.851562 223.40625 308.816406 223.832031 309.769531 224.285156 C 310.722656 224.734375 311.664062 225.210938 312.59375 225.707031 C 313.523438 226.203125 314.4375 226.722656 315.34375 227.265625 C 316.246094 227.804688 317.136719 228.371094 318.015625 228.957031 C 318.890625 229.539062 319.75 230.148438 320.597656 230.773438 C 321.445312 231.402344 322.277344 232.050781 323.089844 232.71875 C 323.90625 233.390625 324.703125 234.078125 325.484375 234.785156 C 326.265625 235.492188 327.027344 236.21875 327.773438 236.964844 C 328.519531 237.710938 329.246094 238.472656 329.953125 239.253906 C 330.660156 240.035156 331.347656 240.832031 332.019531 241.648438 C 332.6875 242.460938 333.335938 243.292969 333.960938 244.140625 C 334.589844 244.984375 335.199219 245.847656 335.78125 246.722656 C 336.367188 247.601562 336.933594 248.492188 337.472656 249.394531 C 338.015625 250.296875 338.535156 251.214844 339.03125 252.144531 C 339.527344 253.074219 340.003906 254.015625 340.453125 254.96875 C 340.902344 255.921875 341.332031 256.882812 341.734375 257.859375 C 342.136719 258.832031 342.515625 259.816406 342.871094 260.808594 C 343.226562 261.800781 343.558594 262.800781 343.863281 263.808594 C 344.167969 264.816406 344.449219 265.832031 344.707031 266.855469 C 344.964844 267.878906 345.195312 268.90625 345.398438 269.941406 C 345.605469 270.972656 345.785156 272.011719 345.941406 273.054688 C 346.09375 274.097656 346.222656 275.144531 346.328125 276.191406 C 346.429688 277.242188 346.507812 278.292969 346.558594 279.34375 C 346.609375 280.398438 346.636719 281.449219 346.636719 282.503906 Z M 346.636719 282.503906 " fill-opacity="1" fill-rule="nonzero"/><g mask="url(#12f2997ecc)"><g transform="matrix(1, 0, 0, 1, 217, 205)"><g clip-path="url(#65c76b693d)"><g clip-path="url(#94adeef707)"><path fill="#ffffff" d="M 13.710938 77.503906 C 13.699219 75.527344 13.78125 73.550781 13.953125 71.578125 C 14.125 69.609375 14.386719 67.648438 14.738281 65.699219 C 15.089844 63.753906 15.53125 61.828125 16.0625 59.921875 C 16.59375 58.011719 17.210938 56.136719 17.914062 54.285156 C 18.617188 52.4375 19.402344 50.621094 20.273438 48.84375 C 21.144531 47.066406 22.09375 45.335938 23.121094 43.644531 C 24.152344 41.953125 25.257812 40.316406 26.441406 38.726562 C 27.621094 37.140625 28.871094 35.609375 30.195312 34.136719 C 31.515625 32.664062 32.902344 31.257812 34.355469 29.914062 C 35.808594 28.566406 37.320312 27.292969 38.886719 26.089844 C 40.457031 24.882812 42.078125 23.753906 43.753906 22.695312 C 45.425781 21.640625 47.144531 20.664062 48.910156 19.765625 C 50.671875 18.871094 52.476562 18.054688 54.3125 17.324219 C 56.152344 16.59375 58.019531 15.949219 59.917969 15.386719 C 61.816406 14.828125 63.738281 14.359375 65.679688 13.976562 C 67.621094 13.59375 69.578125 13.304688 71.546875 13.101562 C 69.441406 12.96875 67.335938 12.96875 65.234375 13.101562 C 64.179688 13.101562 63.125 13.128906 62.074219 13.179688 C 61.023438 13.234375 59.972656 13.308594 58.921875 13.414062 C 57.875 13.519531 56.828125 13.648438 55.785156 13.800781 C 54.746094 13.957031 53.707031 14.136719 52.671875 14.34375 C 51.640625 14.550781 50.613281 14.78125 49.589844 15.039062 C 48.570312 15.292969 47.554688 15.574219 46.546875 15.882812 C 45.535156 16.1875 44.535156 16.519531 43.542969 16.875 C 42.554688 17.230469 41.570312 17.609375 40.597656 18.011719 C 39.625 18.417969 38.660156 18.84375 37.707031 19.292969 C 36.757812 19.746094 35.816406 20.21875 34.886719 20.714844 C 33.957031 21.214844 33.039062 21.734375 32.136719 22.273438 C 31.234375 22.816406 30.34375 23.378906 29.46875 23.964844 C 28.59375 24.550781 27.730469 25.160156 26.882812 25.785156 C 26.039062 26.414062 25.207031 27.0625 24.394531 27.730469 C 23.578125 28.398438 22.78125 29.089844 22 29.796875 C 21.222656 30.503906 20.457031 31.230469 19.714844 31.976562 C 18.96875 32.722656 18.242188 33.484375 17.535156 34.265625 C 16.828125 35.046875 16.140625 35.84375 15.472656 36.65625 C 14.804688 37.472656 14.15625 38.304688 13.527344 39.148438 C 12.898438 39.996094 12.292969 40.859375 11.707031 41.734375 C 11.125 42.609375 10.558594 43.5 10.019531 44.402344 C 9.476562 45.308594 8.957031 46.222656 8.460938 47.152344 C 7.964844 48.082031 7.492188 49.023438 7.039062 49.976562 C 6.589844 50.929688 6.164062 51.890625 5.761719 52.867188 C 5.359375 53.839844 4.980469 54.820312 4.625 55.8125 C 4.269531 56.804688 3.9375 57.808594 3.632812 58.816406 C 3.328125 59.824219 3.046875 60.839844 2.789062 61.859375 C 2.535156 62.882812 2.304688 63.910156 2.097656 64.945312 C 1.894531 65.976562 1.710938 67.015625 1.558594 68.058594 C 1.402344 69.101562 1.273438 70.144531 1.171875 71.195312 C 1.066406 72.242188 0.992188 73.292969 0.9375 74.34375 C 0.886719 75.398438 0.863281 76.449219 0.863281 77.503906 C 0.863281 78.558594 0.886719 79.613281 0.9375 80.664062 C 0.992188 81.714844 1.066406 82.765625 1.171875 83.816406 C 1.273438 84.863281 1.402344 85.910156 1.558594 86.953125 C 1.710938 87.992188 1.894531 89.03125 2.097656 90.066406 C 2.304688 91.097656 2.535156 92.125 2.789062 93.148438 C 3.046875 94.171875 3.328125 95.1875 3.632812 96.195312 C 3.9375 97.203125 4.269531 98.203125 4.625 99.195312 C 4.980469 100.1875 5.359375 101.171875 5.761719 102.144531 C 6.164062 103.117188 6.589844 104.082031 7.039062 105.03125 C 7.492188 105.984375 7.964844 106.925781 8.460938 107.855469 C 8.957031 108.785156 9.476562 109.703125 10.019531 110.605469 C 10.558594 111.507812 11.125 112.398438 11.707031 113.277344 C 12.292969 114.152344 12.898438 115.011719 13.527344 115.859375 C 14.15625 116.707031 14.804688 117.535156 15.472656 118.351562 C 16.140625 119.164062 16.828125 119.964844 17.535156 120.746094 C 18.242188 121.527344 18.96875 122.289062 19.714844 123.035156 C 20.457031 123.777344 21.222656 124.503906 22 125.214844 C 22.78125 125.921875 23.578125 126.609375 24.394531 127.277344 C 25.207031 127.945312 26.039062 128.59375 26.882812 129.222656 C 27.730469 129.851562 28.59375 130.457031 29.46875 131.042969 C 30.34375 131.628906 31.234375 132.191406 32.136719 132.734375 C 33.039062 133.277344 33.957031 133.796875 34.886719 134.292969 C 35.816406 134.789062 36.757812 135.265625 37.707031 135.714844 C 38.660156 136.164062 39.625 136.59375 40.597656 136.996094 C 41.570312 137.398438 42.554688 137.78125 43.542969 138.136719 C 44.535156 138.492188 45.535156 138.820312 46.546875 139.128906 C 47.554688 139.433594 48.570312 139.714844 49.589844 139.972656 C 50.613281 140.226562 51.640625 140.460938 52.671875 140.664062 C 53.707031 140.871094 54.746094 141.050781 55.785156 141.207031 C 56.828125 141.363281 57.875 141.492188 58.921875 141.59375 C 59.972656 141.699219 61.023438 141.777344 62.074219 141.828125 C 63.125 141.882812 64.179688 141.90625 65.234375 141.910156 C 67.335938 142.039062 69.441406 142.039062 71.546875 141.910156 C 69.578125 141.707031 67.621094 141.414062 65.679688 141.03125 C 63.738281 140.652344 61.816406 140.179688 59.917969 139.621094 C 58.019531 139.0625 56.152344 138.417969 54.3125 137.683594 C 52.476562 136.953125 50.671875 136.140625 48.910156 135.242188 C 47.144531 134.34375 45.425781 133.367188 43.753906 132.3125 C 42.078125 131.257812 40.457031 130.125 38.886719 128.921875 C 37.320312 127.714844 35.808594 126.441406 34.355469 125.097656 C 32.902344 123.753906 31.515625 122.34375 30.195312 120.871094 C 28.871094 119.398438 27.621094 117.867188 26.441406 116.28125 C 25.257812 114.691406 24.152344 113.054688 23.121094 111.363281 C 22.09375 109.675781 21.144531 107.941406 20.273438 106.164062 C 19.402344 104.386719 18.617188 102.574219 17.914062 100.722656 C 17.210938 98.875 16.59375 96.996094 16.0625 95.089844 C 15.53125 93.183594 15.089844 91.253906 14.738281 89.308594 C 14.386719 87.359375 14.125 85.402344 13.953125 83.429688 C 13.78125 81.457031 13.699219 79.484375 13.710938 77.503906 Z M 13.710938 77.503906 " fill-opacity="1" fill-rule="nonzero"/></g></g></g></g><g clip-path="url(#5697410e2d)"><path fill="#007c6f" d="M 89.023438 153.699219 C 89.023438 152.851562 89.105469 152.015625 89.269531 151.183594 C 89.433594 150.355469 89.679688 149.550781 90.003906 148.769531 C 90.328125 147.988281 90.722656 147.246094 91.195312 146.542969 C 91.664062 145.839844 92.199219 145.1875 92.796875 144.589844 C 93.394531 143.992188 94.042969 143.457031 94.746094 142.988281 C 95.449219 142.519531 96.191406 142.121094 96.972656 141.796875 C 97.753906 141.472656 98.5625 141.230469 99.390625 141.0625 C 100.21875 140.898438 101.058594 140.816406 101.902344 140.816406 L 230.710938 140.816406 C 231.554688 140.816406 232.394531 140.898438 233.222656 141.0625 C 234.054688 141.230469 234.859375 141.472656 235.640625 141.796875 C 236.421875 142.121094 237.164062 142.519531 237.867188 142.988281 C 238.570312 143.457031 239.21875 143.992188 239.820312 144.589844 C 240.417969 145.1875 240.949219 145.839844 241.421875 146.542969 C 241.890625 147.246094 242.289062 147.988281 242.609375 148.769531 C 242.933594 149.550781 243.179688 150.355469 243.34375 151.183594 C 243.507812 152.015625 243.589844 152.851562 243.589844 153.699219 C 243.589844 154.542969 243.507812 155.382812 243.34375 156.210938 C 243.179688 157.039062 242.933594 157.84375 242.609375 158.625 C 242.289062 159.410156 241.890625 160.152344 241.421875 160.855469 C 240.949219 161.558594 240.417969 162.207031 239.820312 162.804688 C 239.21875 163.402344 238.570312 163.9375 237.867188 164.40625 C 237.164062 164.878906 236.421875 165.273438 235.640625 165.597656 C 234.859375 165.921875 234.054688 166.164062 233.222656 166.332031 C 232.394531 166.496094 231.554688 166.578125 230.710938 166.578125 L 101.902344 166.578125 C 101.058594 166.578125 100.21875 166.496094 99.390625 166.332031 C 98.5625 166.164062 97.753906 165.921875 96.972656 165.597656 C 96.191406 165.273438 95.449219 164.878906 94.746094 164.40625 C 94.042969 163.9375 93.394531 163.402344 92.796875 162.804688 C 92.199219 162.207031 91.664062 161.558594 91.195312 160.855469 C 90.722656 160.152344 90.328125 159.410156 90.003906 158.625 C 89.679688 157.84375 89.433594 157.039062 89.269531 156.210938 C 89.105469 155.382812 89.023438 154.542969 89.023438 153.699219 Z M 101.902344 218.101562 L 192.070312 218.101562 C 192.914062 218.101562 193.75 218.019531 194.582031 217.855469 C 195.410156 217.6875 196.214844 217.445312 196.996094 217.121094 C 197.777344 216.796875 198.519531 216.398438 199.226562 215.929688 C 199.929688 215.460938 200.578125 214.925781 201.175781 214.328125 C 201.773438 213.730469 202.308594 213.078125 202.777344 212.375 C 203.25 211.671875 203.644531 210.929688 203.96875 210.148438 C 204.292969 209.367188 204.535156 208.5625 204.703125 207.734375 C 204.867188 206.902344 204.949219 206.066406 204.949219 205.21875 C 204.949219 204.375 204.867188 203.535156 204.703125 202.707031 C 204.535156 201.878906 204.292969 201.074219 203.96875 200.292969 C 203.644531 199.511719 203.25 198.765625 202.777344 198.0625 C 202.308594 197.359375 201.773438 196.710938 201.175781 196.113281 C 200.578125 195.515625 199.929688 194.980469 199.226562 194.511719 C 198.519531 194.039062 197.777344 193.644531 196.996094 193.320312 C 196.214844 192.996094 195.410156 192.753906 194.582031 192.585938 C 193.75 192.421875 192.914062 192.339844 192.070312 192.339844 L 101.902344 192.339844 C 101.058594 192.339844 100.21875 192.421875 99.390625 192.585938 C 98.5625 192.753906 97.753906 192.996094 96.972656 193.320312 C 96.191406 193.644531 95.449219 194.039062 94.746094 194.511719 C 94.042969 194.980469 93.394531 195.515625 92.796875 196.113281 C 92.199219 196.710938 91.664062 197.359375 91.195312 198.0625 C 90.722656 198.765625 90.328125 199.511719 90.003906 200.292969 C 89.679688 201.074219 89.433594 201.878906 89.269531 202.707031 C 89.105469 203.535156 89.023438 204.375 89.023438 205.21875 C 89.023438 206.066406 89.105469 206.902344 89.269531 207.734375 C 89.433594 208.5625 89.679688 209.367188 90.003906 210.148438 C 90.328125 210.929688 90.722656 211.671875 91.195312 212.375 C 91.664062 213.078125 92.199219 213.730469 92.796875 214.328125 C 93.394531 214.925781 94.042969 215.460938 94.746094 215.929688 C 95.449219 216.398438 96.191406 216.796875 96.972656 217.121094 C 97.753906 217.445312 98.5625 217.6875 99.390625 217.855469 C 100.21875 218.019531 101.058594 218.101562 101.902344 218.101562 Z M 101.902344 269.625 L 153.425781 269.625 C 154.273438 269.625 155.109375 269.542969 155.9375 269.375 C 156.769531 269.210938 157.574219 268.96875 158.355469 268.644531 C 159.136719 268.320312 159.878906 267.921875 160.582031 267.453125 C 161.285156 266.984375 161.9375 266.449219 162.535156 265.851562 C 163.132812 265.253906 163.667969 264.601562 164.136719 263.898438 C 164.605469 263.195312 165.003906 262.453125 165.328125 261.671875 C 165.648438 260.890625 165.894531 260.085938 166.058594 259.257812 C 166.222656 258.425781 166.308594 257.589844 166.308594 256.742188 C 166.308594 255.898438 166.222656 255.058594 166.058594 254.230469 C 165.894531 253.402344 165.648438 252.59375 165.328125 251.8125 C 165.003906 251.03125 164.605469 250.289062 164.136719 249.585938 C 163.667969 248.882812 163.132812 248.234375 162.535156 247.636719 C 161.9375 247.039062 161.285156 246.503906 160.582031 246.035156 C 159.878906 245.5625 159.136719 245.167969 158.355469 244.84375 C 157.574219 244.519531 156.769531 244.273438 155.9375 244.109375 C 155.109375 243.945312 154.273438 243.863281 153.425781 243.863281 L 101.902344 243.863281 C 101.058594 243.863281 100.21875 243.945312 99.390625 244.109375 C 98.5625 244.273438 97.753906 244.519531 96.972656 244.84375 C 96.191406 245.167969 95.449219 245.5625 94.746094 246.035156 C 94.042969 246.503906 93.394531 247.039062 92.796875 247.636719 C 92.199219 248.234375 91.664062 248.882812 91.195312 249.585938 C 90.722656 250.289062 90.328125 251.03125 90.003906 251.8125 C 89.679688 252.59375 89.433594 253.402344 89.269531 254.230469 C 89.105469 255.058594 89.023438 255.898438 89.023438 256.742188 C 89.023438 257.589844 89.105469 258.425781 89.269531 259.257812 C 89.433594 260.085938 89.679688 260.890625 90.003906 261.671875 C 90.328125 262.453125 90.722656 263.195312 91.195312 263.898438 C 91.664062 264.601562 92.199219 265.253906 92.796875 265.851562 C 93.394531 266.449219 94.042969 266.984375 94.746094 267.453125 C 95.449219 267.921875 96.191406 268.320312 96.972656 268.644531 C 97.753906 268.96875 98.5625 269.210938 99.390625 269.375 C 100.21875 269.542969 101.058594 269.625 101.902344 269.625 Z M 372.398438 282.503906 C 372.394531 284.882812 372.300781 287.257812 372.109375 289.628906 C 371.917969 292 371.636719 294.359375 371.257812 296.707031 C 370.882812 299.058594 370.414062 301.386719 369.851562 303.699219 C 369.289062 306.011719 368.636719 308.296875 367.894531 310.554688 C 367.152344 312.816406 366.324219 315.042969 365.40625 317.238281 C 364.488281 319.429688 363.484375 321.585938 362.394531 323.699219 C 361.304688 325.816406 360.132812 327.882812 358.882812 329.90625 C 357.628906 331.925781 356.296875 333.898438 354.890625 335.8125 C 353.480469 337.730469 352 339.589844 350.441406 341.386719 C 348.886719 343.1875 347.261719 344.921875 345.570312 346.59375 C 343.878906 348.265625 342.121094 349.867188 340.300781 351.398438 C 338.480469 352.929688 336.605469 354.386719 334.667969 355.769531 C 332.734375 357.152344 330.746094 358.457031 328.710938 359.683594 C 326.671875 360.910156 324.585938 362.054688 322.457031 363.117188 C 320.328125 364.175781 318.160156 365.152344 315.957031 366.042969 C 313.75 366.929688 311.511719 367.734375 309.242188 368.445312 C 306.972656 369.15625 304.679688 369.78125 302.359375 370.308594 C 300.042969 370.839844 297.707031 371.28125 295.351562 371.625 C 293 371.972656 290.636719 372.226562 288.261719 372.382812 C 285.890625 372.542969 283.511719 372.609375 281.136719 372.578125 C 278.757812 372.550781 276.382812 372.425781 274.015625 372.210938 C 271.644531 371.992188 269.289062 371.683594 266.945312 371.28125 C 264.601562 370.875 262.277344 370.382812 259.972656 369.792969 C 257.664062 369.207031 255.386719 368.527344 253.136719 367.761719 C 250.886719 366.992188 248.667969 366.136719 246.484375 365.195312 C 244.300781 364.253906 242.15625 363.222656 240.054688 362.113281 C 237.953125 361 235.898438 359.804688 233.890625 358.53125 C 231.882812 357.253906 229.925781 355.902344 228.027344 354.472656 C 226.125 353.042969 224.285156 351.539062 222.503906 349.960938 C 220.71875 348.386719 219.003906 346.742188 217.351562 345.03125 C 215.699219 343.320312 214.117188 341.546875 212.605469 339.707031 C 211.097656 337.871094 209.660156 335.976562 208.296875 334.027344 L 76.140625 334.027344 C 74.875 334.027344 73.613281 333.964844 72.355469 333.839844 C 71.09375 333.71875 69.84375 333.53125 68.601562 333.285156 C 67.363281 333.039062 66.136719 332.730469 64.925781 332.363281 C 63.714844 331.996094 62.523438 331.570312 61.355469 331.085938 C 60.183594 330.601562 59.042969 330.0625 57.925781 329.464844 C 56.808594 328.867188 55.726562 328.21875 54.671875 327.515625 C 53.621094 326.8125 52.605469 326.058594 51.628906 325.257812 C 50.648438 324.453125 49.714844 323.605469 48.816406 322.710938 C 47.921875 321.816406 47.074219 320.878906 46.269531 319.898438 C 45.46875 318.921875 44.714844 317.90625 44.011719 316.855469 C 43.308594 315.800781 42.660156 314.71875 42.0625 313.601562 C 41.464844 312.484375 40.925781 311.34375 40.441406 310.171875 C 39.957031 309.003906 39.53125 307.8125 39.164062 306.601562 C 38.796875 305.390625 38.488281 304.164062 38.242188 302.925781 C 37.996094 301.683594 37.808594 300.433594 37.6875 299.171875 C 37.5625 297.914062 37.5 296.652344 37.5 295.386719 C 37.5 294.539062 37.582031 293.703125 37.746094 292.871094 C 37.914062 292.042969 38.15625 291.238281 38.480469 290.457031 C 38.804688 289.675781 39.199219 288.933594 39.671875 288.230469 C 40.140625 287.527344 40.675781 286.875 41.273438 286.277344 C 41.871094 285.679688 42.519531 285.144531 43.222656 284.675781 C 43.929688 284.207031 44.671875 283.808594 45.453125 283.484375 C 46.234375 283.160156 47.039062 282.917969 47.867188 282.753906 C 48.699219 282.585938 49.535156 282.503906 50.378906 282.503906 C 51.226562 282.503906 52.0625 282.585938 52.894531 282.753906 C 53.722656 282.917969 54.527344 283.160156 55.308594 283.484375 C 56.089844 283.808594 56.832031 284.207031 57.535156 284.675781 C 58.238281 285.144531 58.890625 285.679688 59.488281 286.277344 C 60.085938 286.875 60.621094 287.527344 61.089844 288.230469 C 61.558594 288.933594 61.957031 289.675781 62.28125 290.457031 C 62.605469 291.238281 62.847656 292.042969 63.015625 292.871094 C 63.179688 293.703125 63.261719 294.539062 63.261719 295.386719 C 63.261719 296.230469 63.34375 297.070312 63.507812 297.898438 C 63.675781 298.726562 63.917969 299.535156 64.242188 300.316406 C 64.566406 301.097656 64.960938 301.839844 65.433594 302.542969 C 65.902344 303.246094 66.4375 303.894531 67.035156 304.492188 C 67.632812 305.089844 68.28125 305.625 68.984375 306.09375 C 69.6875 306.566406 70.429688 306.960938 71.210938 307.285156 C 71.996094 307.609375 72.800781 307.855469 73.628906 308.019531 C 74.457031 308.183594 75.296875 308.265625 76.140625 308.265625 L 195.804688 308.265625 C 193.355469 299.855469 192.109375 291.265625 192.070312 282.503906 C 192.070312 279.824219 192.195312 277.148438 192.4375 274.476562 C 192.675781 271.808594 193.039062 269.152344 193.515625 266.515625 C 193.996094 263.878906 194.589844 261.265625 195.300781 258.683594 C 196.011719 256.097656 196.839844 253.550781 197.777344 251.039062 C 198.714844 248.527344 199.765625 246.0625 200.921875 243.644531 C 202.082031 241.226562 203.34375 238.867188 204.714844 236.5625 C 206.082031 234.257812 207.554688 232.015625 209.121094 229.84375 C 210.691406 227.667969 212.351562 225.570312 214.109375 223.542969 C 215.867188 221.519531 217.707031 219.574219 219.636719 217.714844 C 221.566406 215.851562 223.578125 214.082031 225.664062 212.398438 C 227.753906 210.714844 229.910156 209.132812 232.140625 207.640625 C 234.367188 206.152344 236.660156 204.765625 239.011719 203.480469 C 241.367188 202.195312 243.769531 201.015625 246.230469 199.945312 C 248.6875 198.875 251.1875 197.917969 253.730469 197.070312 C 256.273438 196.222656 258.851562 195.488281 261.460938 194.871094 C 264.066406 194.253906 266.699219 193.753906 269.351562 193.371094 L 269.351562 89.292969 C 269.351562 88.449219 269.269531 87.609375 269.105469 86.78125 C 268.941406 85.953125 268.695312 85.144531 268.371094 84.363281 C 268.046875 83.582031 267.652344 82.839844 267.183594 82.136719 C 266.710938 81.433594 266.179688 80.785156 265.578125 80.1875 C 264.980469 79.589844 264.332031 79.054688 263.628906 78.585938 C 262.925781 78.113281 262.183594 77.71875 261.402344 77.394531 C 260.621094 77.070312 259.816406 76.824219 258.984375 76.660156 C 258.15625 76.496094 257.316406 76.414062 256.472656 76.414062 L 243.589844 76.414062 L 243.589844 102.175781 C 243.589844 103.019531 243.507812 103.859375 243.34375 104.6875 C 243.179688 105.515625 242.933594 106.324219 242.609375 107.105469 C 242.289062 107.886719 241.890625 108.628906 241.421875 109.332031 C 240.949219 110.035156 240.417969 110.683594 239.820312 111.28125 C 239.21875 111.882812 238.570312 112.414062 237.867188 112.882812 C 237.164062 113.355469 236.421875 113.75 235.640625 114.074219 C 234.859375 114.398438 234.054688 114.644531 233.222656 114.808594 C 232.394531 114.972656 231.554688 115.054688 230.710938 115.054688 L 101.902344 115.054688 C 101.058594 115.054688 100.21875 114.972656 99.390625 114.808594 C 98.5625 114.644531 97.753906 114.398438 96.972656 114.074219 C 96.191406 113.75 95.449219 113.355469 94.746094 112.882812 C 94.042969 112.414062 93.394531 111.882812 92.796875 111.28125 C 92.199219 110.683594 91.664062 110.035156 91.195312 109.332031 C 90.722656 108.628906 90.328125 107.886719 90.003906 107.105469 C 89.679688 106.324219 89.433594 105.515625 89.269531 104.6875 C 89.105469 103.859375 89.023438 103.019531 89.023438 102.175781 L 89.023438 76.414062 L 76.140625 76.414062 C 75.296875 76.414062 74.457031 76.496094 73.628906 76.660156 C 72.800781 76.824219 71.996094 77.070312 71.214844 77.394531 C 70.429688 77.71875 69.6875 78.113281 68.984375 78.585938 C 68.28125 79.054688 67.632812 79.589844 67.035156 80.1875 C 66.4375 80.785156 65.902344 81.433594 65.433594 82.136719 C 64.960938 82.839844 64.566406 83.582031 64.242188 84.363281 C 63.917969 85.144531 63.675781 85.953125 63.507812 86.78125 C 63.34375 87.609375 63.261719 88.449219 63.261719 89.292969 L 63.261719 179.460938 C 63.261719 180.304688 63.179688 181.140625 63.015625 181.972656 C 62.847656 182.800781 62.605469 183.605469 62.28125 184.386719 C 61.957031 185.167969 61.558594 185.910156 61.089844 186.613281 C 60.621094 187.320312 60.085938 187.96875 59.488281 188.566406 C 58.890625 189.164062 58.238281 189.699219 57.535156 190.167969 C 56.832031 190.640625 56.089844 191.035156 55.308594 191.359375 C 54.527344 191.683594 53.722656 191.925781 52.894531 192.09375 C 52.0625 192.257812 51.226562 192.339844 50.378906 192.339844 C 49.535156 192.339844 48.699219 192.257812 47.867188 192.09375 C 47.039062 191.925781 46.234375 191.683594 45.453125 191.359375 C 44.671875 191.035156 43.929688 190.640625 43.222656 190.167969 C 42.519531 189.699219 41.871094 189.164062 41.273438 188.566406 C 40.675781 187.96875 40.140625 187.320312 39.671875 186.613281 C 39.199219 185.910156 38.804688 185.167969 38.480469 184.386719 C 38.15625 183.605469 37.914062 182.800781 37.746094 181.972656 C 37.582031 181.140625 37.5 180.304688 37.5 179.460938 L 37.5 89.292969 C 37.5 88.027344 37.5625 86.765625 37.6875 85.507812 C 37.808594 84.246094 37.996094 82.996094 38.242188 81.753906 C 38.488281 80.515625 38.796875 79.289062 39.164062 78.078125 C 39.53125 76.867188 39.957031 75.675781 40.441406 74.507812 C 40.925781 73.335938 41.464844 72.195312 42.0625 71.078125 C 42.660156 69.960938 43.308594 68.878906 44.011719 67.824219 C 44.714844 66.773438 45.46875 65.757812 46.269531 64.78125 C 47.074219 63.800781 47.921875 62.863281 48.816406 61.96875 C 49.714844 61.074219 50.648438 60.226562 51.628906 59.421875 C 52.605469 58.621094 53.621094 57.867188 54.671875 57.164062 C 55.726562 56.460938 56.808594 55.8125 57.925781 55.214844 C 59.042969 54.617188 60.183594 54.078125 61.355469 53.59375 C 62.523438 53.109375 63.714844 52.683594 64.925781 52.316406 C 66.136719 51.949219 67.363281 51.640625 68.601562 51.394531 C 69.84375 51.148438 71.09375 50.960938 72.355469 50.839844 C 73.613281 50.714844 74.875 50.652344 76.140625 50.652344 L 89.023438 50.652344 C 89.023438 49.808594 89.0625 48.964844 89.148438 48.125 C 89.230469 47.289062 89.351562 46.453125 89.519531 45.625 C 89.683594 44.796875 89.886719 43.980469 90.132812 43.171875 C 90.378906 42.367188 90.660156 41.574219 90.984375 40.792969 C 91.308594 40.015625 91.667969 39.253906 92.066406 38.507812 C 92.460938 37.765625 92.894531 37.042969 93.363281 36.339844 C 93.832031 35.636719 94.335938 34.960938 94.871094 34.308594 C 95.40625 33.65625 95.972656 33.03125 96.566406 32.4375 C 97.164062 31.839844 97.789062 31.273438 98.441406 30.738281 C 99.09375 30.203125 99.769531 29.699219 100.472656 29.230469 C 101.171875 28.761719 101.894531 28.332031 102.640625 27.933594 C 103.382812 27.535156 104.144531 27.175781 104.925781 26.851562 C 105.707031 26.527344 106.5 26.246094 107.304688 26 C 108.113281 25.753906 108.929688 25.550781 109.757812 25.386719 C 110.585938 25.222656 111.417969 25.097656 112.257812 25.015625 C 113.097656 24.933594 113.941406 24.890625 114.785156 24.890625 L 137.453125 24.890625 C 138.359375 23.875 139.3125 22.910156 140.316406 22 C 141.324219 21.085938 142.375 20.226562 143.46875 19.421875 C 144.566406 18.621094 145.703125 17.878906 146.875 17.195312 C 148.050781 16.511719 149.257812 15.890625 150.496094 15.335938 C 151.738281 14.78125 153.003906 14.289062 154.292969 13.867188 C 155.585938 13.445312 156.894531 13.09375 158.222656 12.808594 C 159.550781 12.523438 160.890625 12.308594 162.242188 12.167969 C 163.59375 12.023438 164.949219 11.953125 166.308594 11.953125 C 167.664062 11.953125 169.019531 12.023438 170.371094 12.167969 C 171.722656 12.308594 173.0625 12.523438 174.390625 12.808594 C 175.71875 13.09375 177.03125 13.445312 178.320312 13.867188 C 179.613281 14.289062 180.878906 14.78125 182.117188 15.335938 C 183.355469 15.890625 184.5625 16.511719 185.738281 17.195312 C 186.914062 17.878906 188.046875 18.621094 189.144531 19.421875 C 190.238281 20.226562 191.289062 21.085938 192.296875 22 C 193.300781 22.910156 194.257812 23.875 195.160156 24.890625 L 217.828125 24.890625 C 218.671875 24.890625 219.515625 24.933594 220.355469 25.015625 C 221.195312 25.097656 222.027344 25.222656 222.855469 25.386719 C 223.683594 25.550781 224.5 25.753906 225.308594 26 C 226.117188 26.246094 226.910156 26.527344 227.6875 26.851562 C 228.46875 27.175781 229.230469 27.535156 229.972656 27.933594 C 230.71875 28.332031 231.441406 28.761719 232.140625 29.230469 C 232.84375 29.699219 233.519531 30.203125 234.171875 30.738281 C 234.824219 31.273438 235.449219 31.839844 236.046875 32.4375 C 236.640625 33.03125 237.207031 33.65625 237.742188 34.308594 C 238.277344 34.960938 238.78125 35.636719 239.25 36.339844 C 239.71875 37.042969 240.152344 37.765625 240.550781 38.507812 C 240.945312 39.253906 241.308594 40.015625 241.628906 40.792969 C 241.953125 41.574219 242.238281 42.367188 242.480469 43.171875 C 242.726562 43.980469 242.933594 44.796875 243.097656 45.625 C 243.261719 46.453125 243.382812 47.289062 243.46875 48.125 C 243.550781 48.964844 243.589844 49.808594 243.589844 50.652344 L 256.472656 50.652344 C 257.738281 50.652344 259 50.714844 260.257812 50.839844 C 261.519531 50.960938 262.769531 51.148438 264.011719 51.394531 C 265.253906 51.640625 266.476562 51.949219 267.6875 52.316406 C 268.898438 52.683594 270.089844 53.109375 271.257812 53.59375 C 272.429688 54.078125 273.570312 54.617188 274.6875 55.214844 C 275.804688 55.8125 276.886719 56.460938 277.941406 57.164062 C 278.992188 57.867188 280.007812 58.621094 280.988281 59.421875 C 281.964844 60.226562 282.902344 61.074219 283.796875 61.96875 C 284.691406 62.863281 285.539062 63.800781 286.34375 64.78125 C 287.144531 65.757812 287.898438 66.773438 288.601562 67.824219 C 289.304688 68.878906 289.953125 69.960938 290.550781 71.078125 C 291.148438 72.195312 291.6875 73.335938 292.171875 74.507812 C 292.65625 75.675781 293.082031 76.867188 293.449219 78.078125 C 293.816406 79.289062 294.125 80.515625 294.371094 81.753906 C 294.617188 82.996094 294.804688 84.246094 294.929688 85.507812 C 295.050781 86.765625 295.113281 88.027344 295.113281 89.292969 L 295.113281 193.371094 C 297.769531 193.753906 300.398438 194.253906 303.007812 194.871094 C 305.617188 195.488281 308.191406 196.222656 310.734375 197.070312 C 313.28125 197.917969 315.78125 198.875 318.238281 199.945312 C 320.695312 201.015625 323.101562 202.195312 325.453125 203.480469 C 327.808594 204.765625 330.097656 206.152344 332.328125 207.640625 C 334.554688 209.132812 336.714844 210.714844 338.800781 212.398438 C 340.890625 214.082031 342.898438 215.851562 344.828125 217.714844 C 346.757812 219.574219 348.601562 221.519531 350.355469 223.542969 C 352.113281 225.570312 353.777344 227.667969 355.34375 229.84375 C 356.914062 232.015625 358.382812 234.257812 359.753906 236.5625 C 361.121094 238.867188 362.386719 241.226562 363.542969 243.644531 C 364.703125 246.0625 365.75 248.527344 366.691406 251.039062 C 367.628906 253.550781 368.453125 256.097656 369.164062 258.683594 C 369.878906 261.265625 370.472656 263.878906 370.949219 266.515625 C 371.429688 269.152344 371.789062 271.808594 372.03125 274.476562 C 372.273438 277.148438 372.394531 279.824219 372.398438 282.503906 Z M 217.828125 50.652344 L 188.589844 50.652344 C 187.464844 50.644531 186.363281 50.492188 185.277344 50.199219 C 184.195312 49.902344 183.164062 49.472656 182.195312 48.90625 C 181.222656 48.34375 180.339844 47.660156 179.546875 46.867188 C 178.753906 46.070312 178.074219 45.183594 177.511719 44.210938 C 176.953125 43.21875 176.269531 42.320312 175.46875 41.507812 C 174.667969 40.699219 173.777344 40.007812 172.792969 39.433594 C 171.808594 38.859375 170.765625 38.425781 169.664062 38.128906 C 168.566406 37.832031 167.445312 37.683594 166.308594 37.683594 C 165.167969 37.683594 164.046875 37.832031 162.949219 38.128906 C 161.847656 38.425781 160.804688 38.859375 159.820312 39.433594 C 158.835938 40.007812 157.945312 40.699219 157.144531 41.507812 C 156.34375 42.320312 155.664062 43.21875 155.101562 44.210938 C 154.539062 45.183594 153.859375 46.070312 153.066406 46.867188 C 152.273438 47.660156 151.390625 48.34375 150.417969 48.90625 C 149.449219 49.472656 148.421875 49.902344 147.335938 50.199219 C 146.25 50.492188 145.148438 50.644531 144.023438 50.652344 L 114.785156 50.652344 L 114.785156 89.292969 L 217.828125 89.292969 Z M 346.636719 282.503906 C 346.636719 281.449219 346.609375 280.398438 346.558594 279.34375 C 346.507812 278.292969 346.429688 277.242188 346.328125 276.191406 C 346.222656 275.144531 346.09375 274.097656 345.941406 273.054688 C 345.785156 272.011719 345.605469 270.972656 345.398438 269.941406 C 345.195312 268.90625 344.964844 267.878906 344.707031 266.855469 C 344.449219 265.832031 344.167969 264.816406 343.863281 263.808594 C 343.558594 262.800781 343.226562 261.800781 342.871094 260.808594 C 342.515625 259.816406 342.136719 258.832031 341.734375 257.859375 C 341.332031 256.882812 340.902344 255.921875 340.453125 254.96875 C 340.003906 254.015625 339.527344 253.074219 339.03125 252.144531 C 338.535156 251.214844 338.015625 250.296875 337.472656 249.394531 C 336.933594 248.492188 336.367188 247.601562 335.78125 246.722656 C 335.199219 245.847656 334.589844 244.984375 333.960938 244.140625 C 333.335938 243.292969 332.6875 242.460938 332.019531 241.648438 C 331.347656 240.832031 330.660156 240.035156 329.953125 239.253906 C 329.246094 238.472656 328.519531 237.710938 327.773438 236.964844 C 327.027344 236.21875 326.265625 235.492188 325.484375 234.785156 C 324.703125 234.078125 323.90625 233.390625 323.089844 232.71875 C 322.277344 232.050781 321.445312 231.402344 320.597656 230.773438 C 319.753906 230.148438 318.890625 229.539062 318.015625 228.957031 C 317.136719 228.371094 316.246094 227.804688 315.34375 227.265625 C 314.4375 226.722656 313.523438 226.203125 312.59375 225.707031 C 311.664062 225.210938 310.722656 224.734375 309.769531 224.285156 C 308.816406 223.832031 307.851562 223.40625 306.878906 223.003906 C 305.90625 222.601562 304.921875 222.222656 303.929688 221.867188 C 302.9375 221.511719 301.9375 221.179688 300.929688 220.875 C 299.921875 220.570312 298.90625 220.289062 297.882812 220.03125 C 296.859375 219.773438 295.832031 219.542969 294.796875 219.339844 C 293.765625 219.132812 292.726562 218.953125 291.683594 218.796875 C 290.640625 218.644531 289.59375 218.515625 288.546875 218.410156 C 287.496094 218.308594 286.445312 218.230469 285.394531 218.179688 C 284.339844 218.128906 283.289062 218.101562 282.234375 218.101562 C 281.179688 218.101562 280.125 218.128906 279.074219 218.179688 C 278.019531 218.230469 276.96875 218.308594 275.921875 218.410156 C 274.871094 218.515625 273.824219 218.644531 272.785156 218.796875 C 271.742188 218.953125 270.703125 219.132812 269.667969 219.339844 C 268.636719 219.542969 267.605469 219.773438 266.585938 220.03125 C 265.5625 220.289062 264.546875 220.570312 263.539062 220.875 C 262.53125 221.179688 261.527344 221.511719 260.535156 221.867188 C 259.542969 222.222656 258.5625 222.601562 257.585938 223.003906 C 256.613281 223.40625 255.648438 223.832031 254.699219 224.285156 C 253.746094 224.734375 252.804688 225.210938 251.875 225.707031 C 250.945312 226.203125 250.027344 226.722656 249.125 227.265625 C 248.21875 227.804688 247.328125 228.371094 246.453125 228.957031 C 245.578125 229.539062 244.714844 230.148438 243.867188 230.773438 C 243.023438 231.402344 242.191406 232.050781 241.375 232.71875 C 240.5625 233.390625 239.761719 234.078125 238.984375 234.785156 C 238.203125 235.492188 237.4375 236.21875 236.691406 236.964844 C 235.949219 237.710938 235.222656 238.472656 234.511719 239.253906 C 233.804688 240.035156 233.117188 240.832031 232.449219 241.648438 C 231.78125 242.460938 231.132812 243.292969 230.503906 244.140625 C 229.875 244.984375 229.269531 245.847656 228.683594 246.722656 C 228.097656 247.601562 227.535156 248.492188 226.992188 249.394531 C 226.449219 250.296875 225.929688 251.214844 225.433594 252.144531 C 224.9375 253.074219 224.464844 254.015625 224.011719 254.96875 C 223.5625 255.921875 223.136719 256.882812 222.730469 257.859375 C 222.328125 258.832031 221.949219 259.816406 221.59375 260.808594 C 221.238281 261.800781 220.910156 262.800781 220.601562 263.808594 C 220.296875 264.816406 220.015625 265.832031 219.761719 266.855469 C 219.503906 267.878906 219.273438 268.90625 219.066406 269.941406 C 218.863281 270.972656 218.679688 272.011719 218.527344 273.054688 C 218.371094 274.097656 218.242188 275.144531 218.140625 276.191406 C 218.035156 277.242188 217.960938 278.292969 217.90625 279.34375 C 217.855469 280.398438 217.828125 281.449219 217.828125 282.503906 C 217.828125 283.558594 217.855469 284.613281 217.90625 285.664062 C 217.960938 286.71875 218.035156 287.769531 218.140625 288.816406 C 218.242188 289.867188 218.371094 290.910156 218.527344 291.953125 C 218.679688 292.996094 218.863281 294.035156 219.066406 295.070312 C 219.273438 296.101562 219.503906 297.132812 219.761719 298.152344 C 220.015625 299.175781 220.296875 300.191406 220.601562 301.199219 C 220.910156 302.207031 221.238281 303.210938 221.59375 304.203125 C 221.949219 305.195312 222.328125 306.175781 222.730469 307.152344 C 223.136719 308.125 223.5625 309.085938 224.011719 310.039062 C 224.464844 310.992188 224.9375 311.933594 225.433594 312.863281 C 225.929688 313.792969 226.449219 314.710938 226.992188 315.613281 C 227.535156 316.519531 228.097656 317.410156 228.683594 318.285156 C 229.269531 319.160156 229.875 320.023438 230.503906 320.871094 C 231.132812 321.714844 231.78125 322.546875 232.449219 323.363281 C 233.117188 324.175781 233.804688 324.972656 234.511719 325.753906 C 235.222656 326.535156 235.949219 327.300781 236.691406 328.042969 C 237.4375 328.789062 238.203125 329.515625 238.984375 330.222656 C 239.761719 330.933594 240.5625 331.621094 241.375 332.289062 C 242.191406 332.957031 243.023438 333.605469 243.867188 334.234375 C 244.714844 334.863281 245.578125 335.46875 246.453125 336.054688 C 247.328125 336.640625 248.21875 337.203125 249.125 337.746094 C 250.027344 338.289062 250.945312 338.808594 251.875 339.304688 C 252.804688 339.800781 253.746094 340.273438 254.699219 340.726562 C 255.648438 341.175781 256.613281 341.601562 257.585938 342.003906 C 258.5625 342.410156 259.542969 342.789062 260.535156 343.144531 C 261.527344 343.5 262.53125 343.828125 263.539062 344.136719 C 264.546875 344.441406 265.5625 344.722656 266.585938 344.976562 C 267.605469 345.234375 268.636719 345.464844 269.667969 345.671875 C 270.703125 345.875 271.742188 346.054688 272.785156 346.210938 C 273.824219 346.367188 274.871094 346.496094 275.921875 346.597656 C 276.96875 346.703125 278.019531 346.777344 279.074219 346.832031 C 280.125 346.882812 281.179688 346.910156 282.234375 346.910156 C 283.289062 346.910156 284.339844 346.882812 285.394531 346.832031 C 286.445312 346.777344 287.496094 346.703125 288.546875 346.597656 C 289.59375 346.496094 290.640625 346.367188 291.683594 346.210938 C 292.726562 346.054688 293.765625 345.875 294.796875 345.671875 C 295.832031 345.464844 296.859375 345.234375 297.882812 344.976562 C 298.90625 344.722656 299.921875 344.441406 300.929688 344.136719 C 301.9375 343.828125 302.9375 343.5 303.929688 343.144531 C 304.921875 342.789062 305.90625 342.410156 306.878906 342.003906 C 307.851562 341.601562 308.816406 341.175781 309.769531 340.726562 C 310.722656 340.273438 311.664062 339.800781 312.59375 339.304688 C 313.523438 338.808594 314.4375 338.289062 315.34375 337.746094 C 316.246094 337.203125 317.136719 336.640625 318.015625 336.054688 C 318.890625 335.46875 319.75 334.863281 320.597656 334.234375 C 321.445312 333.605469 322.277344 332.957031 323.089844 332.289062 C 323.90625 331.621094 324.703125 330.933594 325.484375 330.222656 C 326.265625 329.515625 327.027344 328.789062 327.773438 328.042969 C 328.519531 327.300781 329.246094 326.535156 329.953125 325.753906 C 330.660156 324.972656 331.347656 324.175781 332.019531 323.363281 C 332.6875 322.546875 333.335938 321.714844 333.960938 320.871094 C 334.589844 320.023438 335.199219 319.160156 335.78125 318.285156 C 336.367188 317.410156 336.933594 316.519531 337.472656 315.613281 C 338.015625 314.710938 338.535156 313.792969 339.03125 312.863281 C 339.527344 311.933594 340.003906 310.992188 340.453125 310.039062 C 340.902344 309.089844 341.332031 308.125 341.734375 307.152344 C 342.136719 306.175781 342.515625 305.195312 342.871094 304.203125 C 343.226562 303.210938 343.558594 302.207031 343.863281 301.199219 C 344.167969 300.191406 344.449219 299.175781 344.707031 298.152344 C 344.964844 297.132812 345.195312 296.101562 345.398438 295.070312 C 345.605469 294.035156 345.785156 292.996094 345.941406 291.953125 C 346.09375 290.910156 346.222656 289.867188 346.328125 288.816406 C 346.429688 287.769531 346.507812 286.71875 346.558594 285.664062 C 346.609375 284.613281 346.636719 283.558594 346.636719 282.503906 Z M 295.113281 277.222656 L 295.113281 243.863281 C 295.113281 243.015625 295.03125 242.179688 294.867188 241.351562 C 294.703125 240.519531 294.457031 239.714844 294.132812 238.933594 C 293.808594 238.152344 293.414062 237.410156 292.941406 236.707031 C 292.472656 236.003906 291.941406 235.351562 291.339844 234.753906 C 290.742188 234.15625 290.09375 233.621094 289.390625 233.152344 C 288.6875 232.683594 287.945312 232.285156 287.164062 231.960938 C 286.382812 231.640625 285.574219 231.394531 284.746094 231.230469 C 283.917969 231.0625 283.078125 230.980469 282.234375 230.980469 C 281.386719 230.980469 280.550781 231.0625 279.71875 231.230469 C 278.890625 231.394531 278.085938 231.640625 277.304688 231.960938 C 276.523438 232.285156 275.78125 232.683594 275.078125 233.152344 C 274.375 233.621094 273.722656 234.15625 273.125 234.753906 C 272.527344 235.351562 271.992188 236.003906 271.523438 236.707031 C 271.054688 237.410156 270.65625 238.152344 270.332031 238.933594 C 270.007812 239.714844 269.765625 240.519531 269.601562 241.351562 C 269.433594 242.179688 269.351562 243.015625 269.351562 243.863281 L 269.351562 282.503906 C 269.34375 284.214844 269.660156 285.863281 270.308594 287.449219 C 270.957031 289.035156 271.882812 290.433594 273.089844 291.648438 L 285.96875 304.53125 C 286.566406 305.132812 287.21875 305.671875 287.925781 306.148438 C 288.628906 306.621094 289.375 307.023438 290.160156 307.351562 C 290.945312 307.675781 291.753906 307.925781 292.589844 308.089844 C 293.421875 308.257812 294.265625 308.339844 295.113281 308.339844 C 295.964844 308.339844 296.804688 308.257812 297.640625 308.089844 C 298.472656 307.925781 299.28125 307.675781 300.066406 307.351562 C 300.851562 307.023438 301.597656 306.621094 302.304688 306.148438 C 303.007812 305.671875 303.660156 305.132812 304.257812 304.53125 C 304.863281 303.933594 305.402344 303.28125 305.875 302.574219 C 306.351562 301.867188 306.75 301.125 307.078125 300.339844 C 307.40625 299.554688 307.652344 298.746094 307.820312 297.910156 C 307.984375 297.078125 308.070312 296.234375 308.070312 295.386719 C 308.070312 294.535156 307.984375 293.691406 307.820312 292.859375 C 307.652344 292.027344 307.40625 291.214844 307.078125 290.433594 C 306.75 289.648438 306.351562 288.902344 305.875 288.195312 C 305.402344 287.492188 304.863281 286.839844 304.257812 286.238281 Z M 166.308594 50.652344 C 165.460938 50.652344 164.625 50.734375 163.792969 50.898438 C 162.964844 51.066406 162.160156 51.308594 161.378906 51.632812 C 160.597656 51.957031 159.855469 52.351562 159.152344 52.824219 C 158.449219 53.292969 157.796875 53.828125 157.199219 54.425781 C 156.601562 55.023438 156.066406 55.671875 155.597656 56.375 C 155.128906 57.078125 154.730469 57.820312 154.40625 58.601562 C 154.082031 59.386719 153.839844 60.191406 153.675781 61.019531 C 153.507812 61.847656 153.425781 62.6875 153.425781 63.53125 C 153.425781 64.378906 153.507812 65.214844 153.675781 66.046875 C 153.839844 66.875 154.082031 67.679688 154.40625 68.460938 C 154.730469 69.242188 155.128906 69.984375 155.597656 70.6875 C 156.066406 71.390625 156.601562 72.042969 157.199219 72.640625 C 157.796875 73.238281 158.449219 73.773438 159.152344 74.242188 C 159.855469 74.710938 160.597656 75.109375 161.378906 75.433594 C 162.160156 75.757812 162.964844 76 163.792969 76.164062 C 164.625 76.332031 165.460938 76.414062 166.308594 76.414062 C 167.152344 76.414062 167.992188 76.332031 168.820312 76.164062 C 169.648438 76 170.453125 75.757812 171.234375 75.433594 C 172.019531 75.109375 172.761719 74.710938 173.464844 74.242188 C 174.167969 73.773438 174.816406 73.238281 175.414062 72.640625 C 176.011719 72.042969 176.546875 71.390625 177.015625 70.6875 C 177.488281 69.984375 177.882812 69.242188 178.207031 68.460938 C 178.53125 67.679688 178.773438 66.875 178.941406 66.046875 C 179.105469 65.214844 179.1875 64.378906 179.1875 63.53125 C 179.1875 62.6875 179.105469 61.847656 178.941406 61.019531 C 178.773438 60.191406 178.53125 59.386719 178.207031 58.601562 C 177.882812 57.820312 177.488281 57.078125 177.015625 56.375 C 176.546875 55.671875 176.011719 55.023438 175.414062 54.425781 C 174.816406 53.828125 174.167969 53.292969 173.464844 52.824219 C 172.761719 52.351562 172.019531 51.957031 171.234375 51.632812 C 170.453125 51.308594 169.648438 51.066406 168.820312 50.898438 C 167.992188 50.734375 167.152344 50.652344 166.308594 50.652344 Z M 50.378906 269.625 C 51.226562 269.625 52.0625 269.542969 52.894531 269.375 C 53.722656 269.210938 54.527344 268.96875 55.308594 268.644531 C 56.089844 268.320312 56.832031 267.921875 57.535156 267.453125 C 58.238281 266.984375 58.890625 266.449219 59.488281 265.851562 C 60.085938 265.253906 60.621094 264.601562 61.089844 263.898438 C 61.558594 263.195312 61.957031 262.453125 62.28125 261.671875 C 62.605469 260.890625 62.847656 260.085938 63.015625 259.257812 C 63.179688 258.425781 63.261719 257.589844 63.261719 256.742188 C 63.261719 255.898438 63.179688 255.058594 63.015625 254.230469 C 62.847656 253.402344 62.605469 252.59375 62.28125 251.8125 C 61.957031 251.03125 61.558594 250.289062 61.089844 249.585938 C 60.621094 248.882812 60.085938 248.234375 59.488281 247.636719 C 58.890625 247.039062 58.238281 246.503906 57.535156 246.035156 C 56.832031 245.5625 56.089844 245.167969 55.308594 244.84375 C 54.527344 244.519531 53.722656 244.273438 52.894531 244.109375 C 52.0625 243.945312 51.226562 243.863281 50.378906 243.863281 C 49.535156 243.863281 48.699219 243.945312 47.867188 244.109375 C 47.039062 244.273438 46.234375 244.519531 45.453125 244.84375 C 44.671875 245.167969 43.929688 245.5625 43.222656 246.035156 C 42.519531 246.503906 41.871094 247.039062 41.273438 247.636719 C 40.675781 248.234375 40.140625 248.882812 39.671875 249.585938 C 39.199219 250.289062 38.804688 251.03125 38.480469 251.8125 C 38.15625 252.59375 37.914062 253.402344 37.746094 254.230469 C 37.582031 255.058594 37.5 255.898438 37.5 256.742188 C 37.5 257.589844 37.582031 258.425781 37.746094 259.257812 C 37.914062 260.085938 38.15625 260.890625 38.480469 261.671875 C 38.804688 262.453125 39.199219 263.195312 39.671875 263.898438 C 40.140625 264.601562 40.675781 265.253906 41.273438 265.851562 C 41.871094 266.449219 42.519531 266.984375 43.222656 267.453125 C 43.929688 267.921875 44.671875 268.320312 45.453125 268.644531 C 46.234375 268.96875 47.039062 269.210938 47.867188 269.375 C 48.699219 269.542969 49.535156 269.625 50.378906 269.625 Z M 50.378906 230.980469 C 51.226562 230.980469 52.0625 230.898438 52.894531 230.734375 C 53.722656 230.570312 54.527344 230.324219 55.308594 230 C 56.089844 229.675781 56.832031 229.28125 57.535156 228.8125 C 58.238281 228.339844 58.890625 227.808594 59.488281 227.210938 C 60.085938 226.609375 60.621094 225.960938 61.089844 225.257812 C 61.558594 224.554688 61.957031 223.8125 62.28125 223.03125 C 62.605469 222.25 62.847656 221.445312 63.015625 220.613281 C 63.179688 219.785156 63.261719 218.945312 63.261719 218.101562 C 63.261719 217.253906 63.179688 216.417969 63.015625 215.589844 C 62.847656 214.757812 62.605469 213.953125 62.28125 213.171875 C 61.957031 212.390625 61.558594 211.648438 61.089844 210.945312 C 60.621094 210.242188 60.085938 209.589844 59.488281 208.992188 C 58.890625 208.394531 58.238281 207.859375 57.535156 207.390625 C 56.832031 206.921875 56.089844 206.523438 55.308594 206.199219 C 54.527344 205.878906 53.722656 205.632812 52.894531 205.46875 C 52.0625 205.304688 51.226562 205.21875 50.378906 205.21875 C 49.535156 205.21875 48.699219 205.304688 47.867188 205.46875 C 47.039062 205.632812 46.234375 205.878906 45.453125 206.199219 C 44.671875 206.523438 43.929688 206.921875 43.222656 207.390625 C 42.519531 207.859375 41.871094 208.394531 41.273438 208.992188 C 40.675781 209.589844 40.140625 210.242188 39.671875 210.945312 C 39.199219 211.648438 38.804688 212.390625 38.480469 213.171875 C 38.15625 213.953125 37.914062 214.757812 37.746094 215.589844 C 37.582031 216.417969 37.5 217.253906 37.5 218.101562 C 37.5 218.945312 37.582031 219.785156 37.746094 220.613281 C 37.914062 221.445312 38.15625 222.25 38.480469 223.03125 C 38.804688 223.8125 39.199219 224.554688 39.671875 225.257812 C 40.140625 225.960938 40.675781 226.609375 41.273438 227.210938 C 41.871094 227.808594 42.519531 228.339844 43.222656 228.8125 C 43.929688 229.28125 44.671875 229.675781 45.453125 230 C 46.234375 230.324219 47.039062 230.570312 47.867188 230.734375 C 48.699219 230.898438 49.535156 230.980469 50.378906 230.980469 Z M 50.378906 230.980469 " fill-opacity="1" fill-rule="nonzero"/></g></svg>