<svg xmlns="http://www.w3.org/2000/svg" xmlns:xlink="http://www.w3.org/1999/xlink" width="500" zoomAndPan="magnify" viewBox="0 0 375 374.999991" height="500" preserveAspectRatio="xMidYMid meet" version="1.0"><defs><clipPath id="96f083d33c"><path d="M 3.078125 13 L 371 13 L 371 252 L 3.078125 252 Z M 3.078125 13 " clip-rule="nonzero"/></clipPath></defs><g clip-path="url(#96f083d33c)"><path fill="#000000" d="M 335.308594 77.113281 L 118.425781 77.113281 C 117.671875 77.113281 116.921875 77.1875 116.183594 77.332031 C 115.445312 77.480469 114.726562 77.699219 114.027344 77.988281 C 113.332031 78.277344 112.667969 78.628906 112.042969 79.046875 C 111.414062 79.46875 110.835938 79.945312 110.300781 80.476562 C 109.765625 81.011719 109.289062 81.589844 108.871094 82.21875 C 108.453125 82.84375 108.097656 83.507812 107.808594 84.203125 C 107.519531 84.898438 107.304688 85.617188 107.15625 86.359375 C 107.007812 87.097656 106.933594 87.84375 106.933594 88.597656 C 106.933594 89.351562 107.007812 90.101562 107.15625 90.839844 C 107.304688 91.578125 107.519531 92.296875 107.808594 92.996094 C 108.097656 93.691406 108.453125 94.351562 108.871094 94.980469 C 109.289062 95.609375 109.765625 96.1875 110.300781 96.722656 C 110.835938 97.253906 111.414062 97.730469 112.042969 98.148438 C 112.667969 98.570312 113.332031 98.921875 114.027344 99.210938 C 114.726562 99.5 115.445312 99.71875 116.183594 99.863281 C 116.921875 100.011719 117.671875 100.085938 118.425781 100.085938 L 335.308594 100.085938 C 335.839844 100.085938 336.367188 100.117188 336.890625 100.183594 C 337.417969 100.25 337.9375 100.351562 338.449219 100.484375 C 338.964844 100.617188 339.464844 100.78125 339.957031 100.980469 C 340.449219 101.175781 340.925781 101.402344 341.390625 101.660156 C 341.855469 101.917969 342.296875 102.207031 342.726562 102.519531 C 343.152344 102.835938 343.554688 103.175781 343.941406 103.542969 C 344.324219 103.90625 344.679688 104.296875 345.015625 104.707031 C 345.347656 105.121094 345.65625 105.550781 345.933594 106.003906 C 346.210938 106.453125 346.460938 106.917969 346.679688 107.402344 C 346.898438 107.882812 347.085938 108.378906 347.242188 108.886719 C 347.398438 109.390625 347.519531 109.90625 347.613281 110.429688 C 347.703125 110.949219 347.757812 111.476562 347.78125 112.003906 C 347.804688 112.535156 347.796875 113.0625 347.75 113.589844 C 347.707031 114.121094 347.628906 114.644531 347.519531 115.160156 C 347.410156 115.679688 347.265625 116.1875 347.089844 116.6875 C 346.914062 117.1875 346.707031 117.675781 346.46875 118.148438 C 333.339844 144.496094 314.585938 203.265625 305.222656 221.972656 C 304.707031 223.007812 304.054688 223.953125 303.273438 224.808594 C 302.492188 225.660156 301.609375 226.394531 300.621094 227 C 299.636719 227.609375 298.585938 228.074219 297.472656 228.390625 C 296.355469 228.707031 295.21875 228.863281 294.0625 228.863281 L 134.394531 228.863281 C 133.140625 228.863281 131.917969 228.679688 130.71875 228.316406 C 129.523438 227.949219 128.40625 227.414062 127.371094 226.710938 C 126.335938 226.007812 125.425781 225.171875 124.640625 224.195312 C 123.855469 223.21875 123.234375 222.148438 122.773438 220.984375 C 122.773438 220.855469 86.855469 59.785156 86.855469 59.785156 C 86.496094 58.148438 86.0625 56.53125 85.566406 54.933594 C 85.066406 53.335938 84.5 51.757812 83.867188 50.207031 C 83.234375 48.65625 82.539062 47.136719 81.777344 45.644531 C 81.015625 44.152344 80.195312 42.695312 79.308594 41.269531 C 78.425781 39.847656 77.484375 38.464844 76.480469 37.121094 C 75.480469 35.78125 74.421875 34.480469 73.3125 33.226562 C 72.199219 31.972656 71.039062 30.769531 69.824219 29.613281 C 68.613281 28.460938 67.351562 27.355469 66.046875 26.308594 C 64.738281 25.257812 63.390625 24.269531 62 23.332031 C 60.609375 22.398438 59.183594 21.523438 57.71875 20.710938 C 56.253906 19.894531 54.757812 19.144531 53.230469 18.457031 C 51.703125 17.769531 50.148438 17.148438 48.566406 16.59375 C 46.988281 16.035156 45.386719 15.546875 43.765625 15.128906 C 42.140625 14.707031 40.503906 14.355469 38.855469 14.074219 C 37.203125 13.789062 35.542969 13.578125 33.871094 13.4375 C 32.203125 13.292969 30.53125 13.222656 28.855469 13.222656 L 14.582031 13.222656 C 13.816406 13.1875 13.054688 13.230469 12.296875 13.355469 C 11.542969 13.476562 10.804688 13.679688 10.09375 13.953125 C 9.378906 14.230469 8.699219 14.578125 8.058594 14.996094 C 7.414062 15.414062 6.824219 15.894531 6.28125 16.4375 C 5.742188 16.980469 5.261719 17.570312 4.84375 18.214844 C 4.425781 18.855469 4.078125 19.535156 3.804688 20.25 C 3.527344 20.960938 3.328125 21.699219 3.207031 22.453125 C 3.082031 23.210938 3.039062 23.96875 3.078125 24.734375 C 3.078125 25.488281 3.152344 26.234375 3.300781 26.976562 C 3.449219 27.714844 3.667969 28.429688 3.957031 29.128906 C 4.246094 29.824219 4.601562 30.484375 5.019531 31.109375 C 5.441406 31.738281 5.917969 32.316406 6.449219 32.851562 C 6.984375 33.382812 7.5625 33.859375 8.191406 34.277344 C 8.816406 34.695312 9.476562 35.050781 10.175781 35.339844 C 10.871094 35.628906 11.589844 35.847656 12.328125 35.996094 C 13.066406 36.144531 13.8125 36.21875 14.566406 36.222656 L 28.855469 36.222656 C 29.878906 36.222656 30.90625 36.265625 31.929688 36.351562 C 32.949219 36.4375 33.96875 36.566406 34.980469 36.738281 C 35.992188 36.910156 36.996094 37.125 37.988281 37.382812 C 38.984375 37.640625 39.964844 37.9375 40.933594 38.277344 C 41.902344 38.617188 42.851562 38.996094 43.789062 39.417969 C 44.726562 39.839844 45.644531 40.296875 46.539062 40.792969 C 47.4375 41.292969 48.3125 41.828125 49.164062 42.398438 C 50.019531 42.96875 50.84375 43.578125 51.644531 44.21875 C 52.449219 44.859375 53.21875 45.535156 53.964844 46.242188 C 54.707031 46.949219 55.421875 47.683594 56.101562 48.453125 C 56.785156 49.21875 57.433594 50.011719 58.046875 50.835938 C 58.664062 51.65625 59.242188 52.503906 59.785156 53.375 C 60.328125 54.246094 60.832031 55.136719 61.300781 56.050781 C 61.769531 56.964844 62.195312 57.894531 62.585938 58.84375 C 62.976562 59.792969 63.324219 60.757812 63.632812 61.738281 C 63.9375 62.714844 64.203125 63.707031 64.429688 64.707031 L 100.449219 226.472656 C 100.539062 226.839844 100.644531 227.234375 100.761719 227.601562 C 101.347656 229.355469 102.066406 231.050781 102.914062 232.695312 C 103.765625 234.335938 104.738281 235.898438 105.832031 237.386719 C 106.929688 238.878906 108.132812 240.273438 109.445312 241.574219 C 110.761719 242.871094 112.167969 244.0625 113.667969 245.144531 C 115.164062 246.226562 116.742188 247.183594 118.390625 248.015625 C 120.039062 248.851562 121.742188 249.550781 123.503906 250.121094 C 125.261719 250.6875 127.054688 251.117188 128.882812 251.402344 C 130.707031 251.691406 132.542969 251.835938 134.394531 251.835938 L 294.0625 251.835938 C 295.699219 251.835938 297.332031 251.722656 298.953125 251.496094 C 300.574219 251.269531 302.175781 250.933594 303.75 250.484375 C 305.328125 250.039062 306.863281 249.484375 308.363281 248.820312 C 309.863281 248.160156 311.308594 247.398438 312.703125 246.539062 C 314.097656 245.679688 315.425781 244.726562 316.6875 243.679688 C 317.945312 242.632812 319.128906 241.507812 320.234375 240.296875 C 321.339844 239.089844 322.355469 237.808594 323.285156 236.457031 C 324.210938 235.109375 325.042969 233.703125 325.773438 232.234375 C 335.125 213.53125 353.835938 154.785156 367.019531 128.414062 C 367.359375 127.742188 367.671875 127.058594 367.964844 126.367188 C 368.257812 125.675781 368.527344 124.976562 368.777344 124.265625 C 369.023438 123.554688 369.25 122.839844 369.453125 122.117188 C 369.65625 121.390625 369.835938 120.664062 369.992188 119.929688 C 370.148438 119.191406 370.28125 118.453125 370.390625 117.710938 C 370.5 116.964844 370.585938 116.21875 370.648438 115.472656 C 370.710938 114.722656 370.746094 113.972656 370.761719 113.222656 C 370.777344 112.46875 370.765625 111.71875 370.730469 110.96875 C 370.699219 110.21875 370.640625 109.46875 370.558594 108.722656 C 370.476562 107.972656 370.375 107.230469 370.246094 106.488281 C 370.117188 105.75 369.964844 105.015625 369.789062 104.28125 C 369.613281 103.550781 369.414062 102.828125 369.191406 102.109375 C 368.972656 101.390625 368.726562 100.679688 368.460938 99.980469 C 368.195312 99.277344 367.90625 98.582031 367.59375 97.898438 C 367.28125 97.214844 366.949219 96.539062 366.597656 95.878906 C 366.242188 95.214844 365.867188 94.5625 365.472656 93.925781 C 365.078125 93.285156 364.664062 92.660156 364.226562 92.046875 C 363.792969 91.433594 363.339844 90.835938 362.867188 90.25 C 362.394531 89.667969 361.902344 89.097656 361.390625 88.546875 C 360.882812 87.992188 360.355469 87.457031 359.8125 86.9375 C 359.269531 86.417969 358.710938 85.917969 358.136719 85.433594 C 357.558594 84.949219 356.96875 84.484375 356.363281 84.039062 C 355.761719 83.589844 355.140625 83.164062 354.507812 82.757812 C 353.878906 82.351562 353.234375 81.964844 352.578125 81.597656 C 351.921875 81.234375 351.253906 80.886719 350.574219 80.566406 C 349.894531 80.242188 349.207031 79.941406 348.507812 79.660156 C 347.8125 79.378906 347.105469 79.121094 346.390625 78.886719 C 345.679688 78.652344 344.957031 78.441406 344.230469 78.253906 C 343.5 78.0625 342.769531 77.898438 342.03125 77.753906 C 341.292969 77.613281 340.550781 77.492188 339.804688 77.398438 C 339.058594 77.304688 338.3125 77.230469 337.5625 77.183594 C 336.8125 77.136719 336.058594 77.113281 335.308594 77.113281 Z M 335.308594 77.113281 " fill-opacity="1" fill-rule="evenodd"/></g><path fill="#000000" d="M 146.882812 265.304688 C 145.34375 265.304688 143.808594 265.378906 142.28125 265.53125 C 140.75 265.679688 139.230469 265.90625 137.722656 266.207031 C 136.214844 266.503906 134.726562 266.878906 133.253906 267.324219 C 131.78125 267.769531 130.335938 268.289062 128.914062 268.875 C 127.496094 269.464844 126.105469 270.121094 124.75 270.84375 C 123.394531 271.570312 122.078125 272.359375 120.796875 273.214844 C 119.519531 274.066406 118.285156 274.980469 117.097656 275.957031 C 115.910156 276.933594 114.773438 277.964844 113.683594 279.050781 C 112.597656 280.136719 111.566406 281.273438 110.589844 282.464844 C 109.613281 283.652344 108.699219 284.882812 107.847656 286.164062 C 106.992188 287.441406 106.203125 288.757812 105.476562 290.113281 C 104.753906 291.46875 104.097656 292.855469 103.507812 294.277344 C 102.917969 295.695312 102.402344 297.140625 101.957031 298.613281 C 101.511719 300.085938 101.136719 301.574219 100.835938 303.082031 C 100.539062 304.589844 100.3125 306.105469 100.160156 307.636719 C 100.011719 309.167969 99.9375 310.699219 99.9375 312.238281 C 99.9375 313.773438 100.011719 315.308594 100.164062 316.835938 C 100.3125 318.367188 100.539062 319.886719 100.839844 321.394531 C 101.140625 322.902344 101.511719 324.390625 101.957031 325.859375 C 102.40625 327.332031 102.921875 328.777344 103.511719 330.195312 C 104.101562 331.617188 104.757812 333.003906 105.480469 334.359375 C 106.207031 335.714844 106.996094 337.03125 107.851562 338.3125 C 108.707031 339.589844 109.621094 340.820312 110.597656 342.007812 C 111.570312 343.199219 112.601562 344.335938 113.691406 345.421875 C 114.777344 346.507812 115.917969 347.539062 117.105469 348.515625 C 118.292969 349.488281 119.527344 350.402344 120.804688 351.257812 C 122.085938 352.109375 123.402344 352.898438 124.757812 353.625 C 126.113281 354.347656 127.503906 355.003906 128.921875 355.59375 C 130.34375 356.179688 131.789062 356.699219 133.261719 357.144531 C 134.734375 357.589844 136.222656 357.960938 137.730469 358.261719 C 139.238281 358.5625 140.757812 358.785156 142.289062 358.9375 C 143.820312 359.085938 145.351562 359.164062 146.890625 359.164062 C 148.429688 359.164062 149.960938 359.085938 151.492188 358.9375 C 153.023438 358.785156 154.542969 358.558594 156.050781 358.257812 C 157.558594 357.957031 159.046875 357.585938 160.519531 357.140625 C 161.988281 356.691406 163.4375 356.175781 164.855469 355.585938 C 166.277344 354.996094 167.664062 354.339844 169.019531 353.617188 C 170.375 352.890625 171.695312 352.101562 172.972656 351.246094 C 174.25 350.394531 175.484375 349.480469 176.671875 348.503906 C 177.859375 347.527344 179 346.496094 180.085938 345.410156 C 181.171875 344.324219 182.203125 343.183594 183.179688 341.996094 C 184.152344 340.808594 185.066406 339.574219 185.921875 338.296875 C 186.777344 337.019531 187.566406 335.699219 188.289062 334.34375 C 189.015625 332.988281 189.671875 331.601562 190.257812 330.179688 C 190.847656 328.761719 191.363281 327.316406 191.808594 325.84375 C 192.253906 324.375 192.628906 322.882812 192.929688 321.375 C 193.226562 319.867188 193.453125 318.351562 193.601562 316.820312 C 193.753906 315.289062 193.828125 313.757812 193.828125 312.21875 C 193.824219 310.683594 193.75 309.152344 193.597656 307.621094 C 193.445312 306.09375 193.21875 304.574219 192.917969 303.066406 C 192.617188 301.5625 192.242188 300.074219 191.796875 298.601562 C 191.351562 297.132812 190.832031 295.6875 190.242188 294.269531 C 189.652344 292.851562 188.996094 291.460938 188.273438 290.109375 C 187.546875 288.753906 186.757812 287.4375 185.902344 286.160156 C 185.046875 284.882812 184.132812 283.648438 183.160156 282.460938 C 182.183594 281.273438 181.152344 280.136719 180.066406 279.050781 C 178.976562 277.964844 177.839844 276.933594 176.652344 275.960938 C 175.464844 274.984375 174.230469 274.070312 172.953125 273.21875 C 171.675781 272.363281 170.359375 271.574219 169.003906 270.851562 C 167.648438 270.125 166.261719 269.46875 164.839844 268.882812 C 163.421875 268.292969 161.976562 267.777344 160.503906 267.328125 C 159.035156 266.882812 157.542969 266.507812 156.035156 266.210938 C 154.53125 265.910156 153.011719 265.683594 151.480469 265.53125 C 149.953125 265.378906 148.417969 265.304688 146.882812 265.304688 Z M 146.882812 336.191406 C 146.097656 336.191406 145.3125 336.152344 144.53125 336.074219 C 143.753906 335.996094 142.976562 335.882812 142.207031 335.730469 C 141.4375 335.578125 140.675781 335.386719 139.925781 335.160156 C 139.175781 334.929688 138.4375 334.667969 137.710938 334.367188 C 136.988281 334.066406 136.277344 333.730469 135.585938 333.363281 C 134.894531 332.992188 134.222656 332.589844 133.570312 332.152344 C 132.917969 331.71875 132.285156 331.25 131.679688 330.753906 C 131.074219 330.253906 130.492188 329.730469 129.9375 329.175781 C 129.382812 328.621094 128.855469 328.039062 128.359375 327.433594 C 127.859375 326.828125 127.394531 326.199219 126.957031 325.546875 C 126.519531 324.894531 126.117188 324.21875 125.746094 323.527344 C 125.378906 322.835938 125.042969 322.128906 124.742188 321.402344 C 124.441406 320.679688 124.175781 319.941406 123.949219 319.191406 C 123.722656 318.441406 123.53125 317.679688 123.378906 316.910156 C 123.222656 316.140625 123.109375 315.367188 123.03125 314.585938 C 122.957031 313.804688 122.917969 313.023438 122.917969 312.238281 C 122.917969 311.453125 122.953125 310.671875 123.03125 309.890625 C 123.109375 309.109375 123.222656 308.332031 123.375 307.5625 C 123.527344 306.792969 123.71875 306.035156 123.945312 305.285156 C 124.175781 304.53125 124.4375 303.792969 124.738281 303.070312 C 125.039062 302.34375 125.375 301.636719 125.742188 300.945312 C 126.113281 300.253906 126.515625 299.582031 126.953125 298.929688 C 127.386719 298.277344 127.855469 297.644531 128.351562 297.039062 C 128.851562 296.433594 129.375 295.851562 129.929688 295.296875 C 130.484375 294.742188 131.066406 294.214844 131.671875 293.71875 C 132.28125 293.21875 132.910156 292.753906 133.5625 292.316406 C 134.214844 291.882812 134.886719 291.476562 135.578125 291.109375 C 136.269531 290.738281 136.980469 290.402344 137.703125 290.101562 C 138.429688 289.800781 139.167969 289.539062 139.917969 289.308594 C 140.667969 289.082031 141.429688 288.890625 142.199219 288.738281 C 142.96875 288.585938 143.742188 288.46875 144.523438 288.390625 C 145.304688 288.316406 146.089844 288.277344 146.871094 288.277344 C 147.65625 288.277344 148.441406 288.3125 149.222656 288.390625 C 150.003906 288.46875 150.777344 288.582031 151.546875 288.734375 C 152.316406 288.886719 153.078125 289.078125 153.828125 289.304688 C 154.582031 289.53125 155.320312 289.796875 156.042969 290.097656 C 156.769531 290.394531 157.476562 290.730469 158.171875 291.101562 C 158.863281 291.46875 159.535156 291.871094 160.1875 292.308594 C 160.839844 292.742188 161.46875 293.210938 162.078125 293.707031 C 162.683594 294.203125 163.265625 294.730469 163.820312 295.285156 C 164.375 295.839844 164.902344 296.421875 165.398438 297.027344 C 165.898438 297.632812 166.367188 298.261719 166.800781 298.914062 C 167.238281 299.566406 167.640625 300.238281 168.011719 300.929688 C 168.382812 301.621094 168.71875 302.328125 169.019531 303.054688 C 169.320312 303.777344 169.582031 304.515625 169.8125 305.265625 C 170.039062 306.015625 170.230469 306.777344 170.382812 307.546875 C 170.539062 308.316406 170.652344 309.089844 170.730469 309.871094 C 170.808594 310.652344 170.847656 311.433594 170.847656 312.21875 C 170.847656 313.003906 170.808594 313.789062 170.730469 314.566406 C 170.652344 315.347656 170.539062 316.125 170.382812 316.894531 C 170.230469 317.664062 170.039062 318.421875 169.8125 319.175781 C 169.585938 319.925781 169.320312 320.664062 169.019531 321.386719 C 168.71875 322.113281 168.382812 322.820312 168.015625 323.511719 C 167.644531 324.203125 167.242188 324.878906 166.804688 325.53125 C 166.367188 326.183594 165.902344 326.8125 165.402344 327.417969 C 164.90625 328.023438 164.378906 328.605469 163.824219 329.160156 C 163.269531 329.714844 162.6875 330.242188 162.082031 330.742188 C 161.476562 331.238281 160.847656 331.707031 160.195312 332.140625 C 159.542969 332.578125 158.871094 332.980469 158.175781 333.351562 C 157.484375 333.722656 156.777344 334.058594 156.050781 334.359375 C 155.328125 334.660156 154.589844 334.921875 153.839844 335.152344 C 153.085938 335.378906 152.328125 335.570312 151.558594 335.726562 C 150.789062 335.878906 150.011719 335.996094 149.230469 336.070312 C 148.449219 336.148438 147.667969 336.1875 146.882812 336.191406 Z M 146.882812 336.191406 " fill-opacity="1" fill-rule="evenodd"/><path fill="#000000" d="M 277.726562 265.304688 C 276.1875 265.304688 274.652344 265.378906 273.125 265.53125 C 271.59375 265.679688 270.074219 265.90625 268.566406 266.207031 C 267.058594 266.503906 265.570312 266.878906 264.097656 267.324219 C 262.625 267.769531 261.179688 268.289062 259.757812 268.875 C 258.339844 269.464844 256.949219 270.121094 255.59375 270.84375 C 254.238281 271.570312 252.921875 272.359375 251.644531 273.214844 C 250.363281 274.066406 249.128906 274.980469 247.941406 275.957031 C 246.753906 276.933594 245.617188 277.964844 244.527344 279.050781 C 243.441406 280.136719 242.410156 281.273438 241.433594 282.464844 C 240.460938 283.652344 239.542969 284.882812 238.691406 286.164062 C 237.835938 287.441406 237.046875 288.757812 236.320312 290.113281 C 235.597656 291.46875 234.941406 292.855469 234.351562 294.277344 C 233.765625 295.695312 233.246094 297.140625 232.800781 298.613281 C 232.355469 300.085938 231.980469 301.574219 231.679688 303.082031 C 231.382812 304.589844 231.15625 306.105469 231.003906 307.636719 C 230.855469 309.167969 230.78125 310.699219 230.78125 312.238281 C 230.78125 313.773438 230.855469 315.308594 231.007812 316.835938 C 231.15625 318.367188 231.382812 319.886719 231.683594 321.394531 C 231.984375 322.902344 232.355469 324.390625 232.804688 325.859375 C 233.25 327.332031 233.765625 328.777344 234.355469 330.195312 C 234.945312 331.617188 235.601562 333.003906 236.324219 334.359375 C 237.050781 335.714844 237.839844 337.03125 238.695312 338.308594 C 239.550781 339.589844 240.464844 340.820312 241.441406 342.007812 C 242.414062 343.199219 243.445312 344.335938 244.535156 345.421875 C 245.621094 346.507812 246.761719 347.539062 247.949219 348.515625 C 249.136719 349.488281 250.371094 350.402344 251.648438 351.257812 C 252.929688 352.109375 254.246094 352.898438 255.601562 353.625 C 256.957031 354.347656 258.347656 355.003906 259.765625 355.59375 C 261.1875 356.179688 262.632812 356.699219 264.105469 357.144531 C 265.578125 357.589844 267.066406 357.960938 268.574219 358.261719 C 270.082031 358.5625 271.601562 358.785156 273.132812 358.9375 C 274.664062 359.085938 276.195312 359.164062 277.734375 359.164062 C 279.273438 359.164062 280.804688 359.085938 282.335938 358.9375 C 283.867188 358.785156 285.386719 358.558594 286.894531 358.257812 C 288.402344 357.957031 289.890625 357.585938 291.363281 357.140625 C 292.832031 356.691406 294.28125 356.175781 295.699219 355.585938 C 297.121094 354.996094 298.507812 354.339844 299.863281 353.617188 C 301.21875 352.890625 302.539062 352.101562 303.816406 351.246094 C 305.09375 350.394531 306.328125 349.480469 307.515625 348.503906 C 308.703125 347.527344 309.84375 346.496094 310.929688 345.410156 C 312.015625 344.324219 313.046875 343.183594 314.023438 341.996094 C 314.996094 340.808594 315.910156 339.574219 316.765625 338.296875 C 317.621094 337.019531 318.410156 335.699219 319.132812 334.34375 C 319.859375 332.988281 320.515625 331.601562 321.101562 330.179688 C 321.691406 328.761719 322.207031 327.316406 322.652344 325.84375 C 323.097656 324.375 323.472656 322.882812 323.773438 321.375 C 324.070312 319.867188 324.296875 318.351562 324.445312 316.820312 C 324.597656 315.289062 324.671875 313.757812 324.671875 312.21875 C 324.671875 310.683594 324.59375 309.152344 324.441406 307.621094 C 324.292969 306.09375 324.066406 304.574219 323.765625 303.066406 C 323.464844 301.558594 323.089844 300.070312 322.644531 298.601562 C 322.195312 297.132812 321.679688 295.6875 321.089844 294.265625 C 320.5 292.847656 319.84375 291.460938 319.121094 290.105469 C 318.394531 288.75 317.605469 287.433594 316.75 286.15625 C 315.898438 284.878906 314.980469 283.648438 314.007812 282.457031 C 313.03125 281.269531 312 280.132812 310.914062 279.046875 C 309.824219 277.960938 308.6875 276.929688 307.5 275.957031 C 306.3125 274.980469 305.078125 274.066406 303.800781 273.214844 C 302.523438 272.359375 301.207031 271.570312 299.847656 270.847656 C 298.492188 270.121094 297.105469 269.464844 295.6875 268.878906 C 294.265625 268.289062 292.820312 267.773438 291.347656 267.328125 C 289.878906 266.878906 288.390625 266.507812 286.882812 266.207031 C 285.375 265.90625 283.855469 265.679688 282.324219 265.53125 C 280.796875 265.378906 279.261719 265.304688 277.726562 265.304688 Z M 277.726562 336.191406 C 276.941406 336.191406 276.15625 336.152344 275.375 336.074219 C 274.597656 335.996094 273.820312 335.882812 273.050781 335.730469 C 272.28125 335.578125 271.519531 335.386719 270.769531 335.160156 C 270.019531 334.929688 269.28125 334.667969 268.554688 334.367188 C 267.832031 334.066406 267.121094 333.730469 266.429688 333.363281 C 265.738281 332.992188 265.066406 332.589844 264.414062 332.152344 C 263.761719 331.71875 263.128906 331.25 262.523438 330.753906 C 261.917969 330.253906 261.335938 329.730469 260.78125 329.175781 C 260.226562 328.621094 259.699219 328.039062 259.203125 327.433594 C 258.703125 326.828125 258.238281 326.199219 257.800781 325.546875 C 257.363281 324.894531 256.960938 324.222656 256.589844 323.527344 C 256.222656 322.835938 255.886719 322.128906 255.585938 321.402344 C 255.285156 320.679688 255.019531 319.941406 254.792969 319.191406 C 254.566406 318.441406 254.375 317.679688 254.222656 316.910156 C 254.070312 316.140625 253.953125 315.367188 253.875 314.585938 C 253.800781 313.804688 253.761719 313.023438 253.761719 312.238281 C 253.761719 311.453125 253.796875 310.671875 253.875 309.890625 C 253.953125 309.109375 254.066406 308.332031 254.21875 307.5625 C 254.371094 306.792969 254.5625 306.035156 254.789062 305.285156 C 255.019531 304.53125 255.28125 303.796875 255.582031 303.070312 C 255.882812 302.34375 256.21875 301.636719 256.585938 300.945312 C 256.957031 300.253906 257.359375 299.582031 257.796875 298.929688 C 258.230469 298.277344 258.699219 297.644531 259.195312 297.039062 C 259.695312 296.433594 260.21875 295.851562 260.773438 295.296875 C 261.328125 294.742188 261.910156 294.214844 262.515625 293.71875 C 263.125 293.21875 263.753906 292.753906 264.40625 292.316406 C 265.058594 291.882812 265.730469 291.476562 266.421875 291.109375 C 267.113281 290.738281 267.824219 290.402344 268.546875 290.101562 C 269.273438 289.800781 270.011719 289.539062 270.761719 289.308594 C 271.511719 289.082031 272.273438 288.890625 273.042969 288.738281 C 273.8125 288.585938 274.585938 288.46875 275.367188 288.390625 C 276.148438 288.316406 276.933594 288.277344 277.71875 288.277344 C 278.5 288.277344 279.285156 288.3125 280.066406 288.390625 C 280.847656 288.46875 281.621094 288.582031 282.390625 288.734375 C 283.160156 288.886719 283.921875 289.078125 284.671875 289.304688 C 285.425781 289.53125 286.164062 289.796875 286.886719 290.097656 C 287.613281 290.394531 288.320312 290.730469 289.015625 291.101562 C 289.707031 291.46875 290.378906 291.871094 291.03125 292.308594 C 291.683594 292.742188 292.3125 293.210938 292.921875 293.707031 C 293.527344 294.203125 294.109375 294.730469 294.664062 295.285156 C 295.21875 295.839844 295.746094 296.421875 296.242188 297.027344 C 296.742188 297.632812 297.210938 298.261719 297.644531 298.914062 C 298.082031 299.566406 298.484375 300.238281 298.855469 300.929688 C 299.226562 301.621094 299.5625 302.328125 299.863281 303.054688 C 300.164062 303.777344 300.425781 304.515625 300.65625 305.265625 C 300.882812 306.015625 301.074219 306.777344 301.226562 307.546875 C 301.382812 308.316406 301.496094 309.089844 301.574219 309.871094 C 301.652344 310.652344 301.691406 311.433594 301.691406 312.21875 C 301.691406 313.003906 301.652344 313.789062 301.574219 314.566406 C 301.496094 315.347656 301.382812 316.125 301.226562 316.894531 C 301.074219 317.664062 300.882812 318.421875 300.65625 319.175781 C 300.429688 319.925781 300.164062 320.664062 299.863281 321.386719 C 299.5625 322.113281 299.226562 322.820312 298.859375 323.511719 C 298.488281 324.203125 298.085938 324.878906 297.648438 325.53125 C 297.210938 326.183594 296.746094 326.8125 296.246094 327.417969 C 295.75 328.023438 295.222656 328.605469 294.667969 329.160156 C 294.113281 329.714844 293.53125 330.242188 292.925781 330.742188 C 292.320312 331.238281 291.691406 331.707031 291.039062 332.140625 C 290.386719 332.578125 289.714844 332.980469 289.019531 333.351562 C 288.328125 333.722656 287.621094 334.058594 286.894531 334.359375 C 286.171875 334.660156 285.433594 334.921875 284.683594 335.152344 C 283.929688 335.378906 283.171875 335.570312 282.402344 335.726562 C 281.632812 335.878906 280.855469 335.996094 280.074219 336.070312 C 279.292969 336.148438 278.511719 336.1875 277.726562 336.191406 Z M 277.726562 336.191406 " fill-opacity="1" fill-rule="evenodd"/></svg>