<svg xmlns="http://www.w3.org/2000/svg" xmlns:xlink="http://www.w3.org/1999/xlink" width="500" zoomAndPan="magnify" viewBox="0 0 375 374.999991" height="500" preserveAspectRatio="xMidYMid meet" version="1.0"><defs><clipPath id="cd7e401bc0"><path d="M 31.289062 7.167969 L 343 7.167969 L 343 367.917969 L 31.289062 367.917969 Z M 31.289062 7.167969 " clip-rule="nonzero"/></clipPath></defs><g clip-path="url(#cd7e401bc0)"><path fill="#5cc3b2" d="M 318.277344 46.21875 L 266.296875 46.21875 L 266.296875 38.796875 C 266.296875 21.386719 252.132812 7.226562 234.726562 7.226562 L 139.875 7.226562 C 122.464844 7.226562 108.304688 21.386719 108.304688 38.796875 L 108.304688 46.21875 L 56.320312 46.21875 C 42.703125 46.21875 31.621094 57.296875 31.621094 70.914062 L 31.621094 82.625 C 31.621094 95.371094 41.328125 105.890625 53.738281 107.1875 L 79.171875 330.378906 C 81.59375 351.691406 99.609375 367.765625 121.0625 367.765625 L 253.53125 367.765625 C 274.988281 367.765625 293 351.691406 295.425781 330.378906 L 320.859375 107.1875 C 333.269531 105.894531 342.976562 95.371094 342.976562 82.625 L 342.976562 70.914062 C 342.976562 57.296875 331.890625 46.21875 318.273438 46.21875 Z M 124.335938 38.796875 C 124.335938 30.222656 131.304688 23.253906 139.878906 23.253906 L 234.730469 23.253906 C 243.300781 23.253906 250.269531 30.222656 250.269531 38.796875 L 250.269531 46.21875 L 124.335938 46.21875 Z M 279.503906 328.5625 C 278 341.773438 266.835938 351.738281 253.539062 351.738281 L 121.070312 351.738281 C 107.773438 351.738281 96.609375 341.773438 95.109375 328.5625 L 69.898438 107.324219 L 304.71875 107.324219 L 279.507812 328.5625 Z M 326.953125 82.625 C 326.953125 87.402344 323.0625 91.296875 318.28125 91.296875 L 56.320312 91.296875 C 51.539062 91.296875 47.648438 87.402344 47.648438 82.625 L 47.648438 70.914062 C 47.648438 66.136719 51.539062 62.246094 56.320312 62.246094 L 318.273438 62.246094 C 323.054688 62.246094 326.945312 66.136719 326.945312 70.914062 L 326.945312 82.625 Z M 326.953125 82.625 " fill-opacity="1" fill-rule="nonzero"/></g><path fill="#5cc3b2" d="M 187.300781 308.359375 C 191.722656 308.359375 195.3125 304.765625 195.3125 300.34375 L 195.3125 158.71875 C 195.3125 154.292969 191.722656 150.703125 187.300781 150.703125 C 182.875 150.703125 179.285156 154.292969 179.285156 158.71875 L 179.285156 300.34375 C 179.285156 304.765625 182.875 308.359375 187.300781 308.359375 Z M 187.300781 308.359375 " fill-opacity="1" fill-rule="nonzero"/><path fill="#5cc3b2" d="M 235.210938 307.984375 C 235.476562 308.011719 235.738281 308.023438 235.996094 308.023438 C 240.074219 308.023438 243.5625 304.933594 243.960938 300.789062 L 257.691406 159.828125 C 258.121094 155.417969 254.898438 151.5 250.496094 151.070312 C 246.027344 150.617188 242.167969 153.863281 241.738281 158.269531 L 228.007812 299.230469 C 227.582031 303.636719 230.804688 307.554688 235.207031 307.984375 Z M 235.210938 307.984375 " fill-opacity="1" fill-rule="nonzero"/><path fill="#5cc3b2" d="M 138.601562 308.023438 C 138.859375 308.023438 139.125 308.011719 139.386719 307.984375 C 143.792969 307.558594 147.015625 303.636719 146.585938 299.230469 L 132.855469 158.269531 C 132.429688 153.863281 128.570312 150.621094 124.101562 151.070312 C 119.695312 151.496094 116.476562 155.417969 116.902344 159.828125 L 130.632812 300.789062 C 131.039062 304.925781 134.523438 308.023438 138.597656 308.023438 Z M 138.601562 308.023438 " fill-opacity="1" fill-rule="nonzero"/></svg>