<svg xmlns="http://www.w3.org/2000/svg" xmlns:xlink="http://www.w3.org/1999/xlink" width="500" zoomAndPan="magnify" viewBox="0 0 375 374.999991" height="500" preserveAspectRatio="xMidYMid meet" version="1.0"><defs><clipPath id="07e3e87ff8"><path d="M 303 164.472656 L 349 164.472656 L 349 291 L 303 291 Z M 303 164.472656 " clip-rule="nonzero"/></clipPath><clipPath id="45b2165c68"><path d="M 218.386719 183 L 286 183 L 286 305 L 218.386719 305 Z M 218.386719 183 " clip-rule="nonzero"/></clipPath><clipPath id="d5c9b974c1"><path d="M 288 164.472656 L 310 164.472656 L 310 293 L 288 293 Z M 288 164.472656 " clip-rule="nonzero"/></clipPath><clipPath id="f9006b91c4"><path d="M 238 238 L 360 238 L 360 334.722656 L 238 334.722656 Z M 238 238 " clip-rule="nonzero"/></clipPath><clipPath id="62042bcd6e"><path d="M 299 238 L 360 238 L 360 334.722656 L 299 334.722656 Z M 299 238 " clip-rule="nonzero"/></clipPath></defs><path fill="#eeeeee" d="M 285.511719 292.980469 L 272.027344 297.246094 L 233.777344 176.257812 L 247.261719 171.996094 L 285.511719 292.980469 " fill-opacity="1" fill-rule="nonzero"/><path fill="#eeeeee" d="M 308.617188 313.875 L 296.5625 306.480469 L 362.933594 198.332031 L 374.992188 205.726562 L 308.617188 313.875 " fill-opacity="1" fill-rule="nonzero"/><g clip-path="url(#07e3e87ff8)"><path fill="#eeeeee" d="M 317.085938 290.875 L 303.390625 287.34375 L 335.050781 164.464844 L 348.746094 167.996094 L 317.085938 290.875 " fill-opacity="1" fill-rule="nonzero"/></g><path fill="#231f20" d="M 308.632812 290.707031 L 294.761719 293.457031 L 270.105469 168.984375 L 283.972656 166.238281 L 308.632812 290.707031 " fill-opacity="1" fill-rule="nonzero"/><g clip-path="url(#45b2165c68)"><path fill="#231f20" d="M 285.511719 298.589844 L 272.734375 304.648438 L 218.390625 189.984375 L 231.167969 183.925781 L 285.511719 298.589844 " fill-opacity="1" fill-rule="nonzero"/></g><path fill="#231f20" d="M 307.925781 299.511719 L 293.933594 297.492188 L 312.074219 171.90625 L 326.066406 173.933594 L 307.925781 299.511719 " fill-opacity="1" fill-rule="nonzero"/><path fill="#231f20" d="M 284.144531 299.535156 L 270.089844 301.09375 L 256.0625 174.980469 L 270.113281 173.421875 L 284.144531 299.535156 " fill-opacity="1" fill-rule="nonzero"/><path fill="#231f20" d="M 331.269531 299.746094 L 317.539062 296.359375 L 347.914062 173.160156 L 361.644531 176.542969 L 331.269531 299.746094 " fill-opacity="1" fill-rule="nonzero"/><g clip-path="url(#d5c9b974c1)"><path fill="#eeeeee" d="M 302.324219 292.441406 L 288.210938 291.585938 L 295.886719 164.929688 L 310 165.785156 L 302.324219 292.441406 " fill-opacity="1" fill-rule="nonzero"/></g><path fill="#eeeeee" d="M 290.011719 309.054688 L 275.90625 310.050781 L 266.9375 183.480469 L 281.035156 182.484375 L 290.011719 309.054688 " fill-opacity="1" fill-rule="nonzero"/><g clip-path="url(#f9006b91c4)"><path fill="#38cfa2" d="M 299.105469 246.234375 C 264.453125 246.71875 238.96875 238.59375 238.96875 238.59375 L 242.203125 334.785156 L 358.695312 334.785156 L 359.238281 238.59375 C 359.238281 238.59375 334.828125 246.878906 299.105469 246.234375 " fill-opacity="1" fill-rule="nonzero"/></g><g clip-path="url(#62042bcd6e)"><path fill="#19c09e" d="M 299.105469 246.234375 L 299.105469 334.785156 L 358.695312 334.785156 L 359.238281 238.59375 C 359.238281 238.59375 334.828125 246.878906 299.105469 246.234375 " fill-opacity="1" fill-rule="nonzero"/></g><path fill="#19c09e" d="M 23.414062 224.941406 C 30.945312 226.046875 40.882812 222.476562 30.53125 241.21875 C 42.703125 267.339844 53.660156 233.167969 65.253906 240.089844 C 68.636719 242.113281 72.714844 256.804688 79.074219 254.191406 C 83.011719 252.570312 82.789062 250.457031 86.5 245.425781 C 92.726562 236.984375 96 240.714844 98.085938 247.71875 C 102.632812 260.550781 114.46875 259.015625 124.917969 250.292969 C 128.144531 247.601562 126.042969 227.164062 137.96875 226.644531 C 159.929688 225.691406 139.875 250.710938 150.730469 260.175781 C 165.222656 272.8125 174.472656 257.113281 179.003906 247.925781 C 185.507812 238.96875 193.441406 254.355469 204.917969 250.277344 C 221.433594 244.90625 208.078125 233.136719 214.074219 228.140625 C 216.269531 226.316406 219.441406 228.6875 222.144531 229.585938 C 228.167969 231.585938 235.277344 225.761719 234.511719 219.46875 C 274.453125 268.574219 130.144531 286.308594 99.742188 284.660156 C 73.410156 280.457031 46.109375 283.609375 27.042969 263.621094 C 4.941406 273.03125 5.773438 214.527344 23.40625 224.945312 Z M 23.414062 224.941406 " fill-opacity="1" fill-rule="nonzero"/><path fill="#38cfa2" d="M 27.125 207.109375 C 24.199219 129.761719 109.316406 94.640625 174.503906 132.667969 C 192.328125 143.0625 216.179688 160.171875 225.980469 200.796875 C 226.25 201.886719 176.207031 225.660156 143.390625 227.953125 C 107.527344 230.460938 51.613281 227.140625 27.125 207.113281 Z M 27.125 207.109375 " fill-opacity="1" fill-rule="nonzero"/><path fill="#e6e7e8" d="M 34.609375 199.21875 C 27.539062 200.269531 13.742188 201.5625 8.542969 206.460938 C 3.347656 211.367188 1.699219 217.226562 7.757812 221.019531 C 12.125 223.75 17.746094 222.214844 22.808594 221.261719 C 27.871094 220.308594 34.257812 220.628906 36.660156 225.183594 C 38.636719 228.921875 36.800781 233.414062 35.636719 237.480469 C 34.46875 241.546875 34.648438 247.039062 38.550781 248.675781 C 39.894531 249.238281 41.421875 249.183594 42.828125 248.820312 C 48.636719 247.308594 51.832031 241.316406 55.945312 236.949219 C 60.058594 232.582031 68.226562 230.136719 71.371094 235.246094 C 72.253906 236.679688 72.488281 238.410156 73.160156 239.953125 C 74.828125 243.78125 77.070312 246.84375 81.117188 245.800781 C 85.164062 244.75 83.980469 236.484375 90.125 235.558594 C 100.816406 235.476562 106.089844 252.921875 116.667969 251.332031 C 123.710938 250.277344 126.300781 241.632812 131.285156 236.539062 C 136.34375 231.367188 142.472656 225.476562 148.929688 228.742188 C 151.492188 230.03125 156.191406 236.652344 156.789062 239.460938 C 157.308594 241.886719 156.457031 244.390625 156.613281 246.867188 C 156.84375 250.535156 159.492188 253.929688 162.996094 255.042969 C 166.492188 256.152344 171.820312 255.550781 172.917969 252.046875 C 174.808594 246 173.777344 238.1875 179.152344 235.378906 C 183.273438 233.230469 190.238281 236.863281 193.683594 239.988281 C 197.125 243.113281 200.570312 246.941406 205.195312 247.335938 C 211.210938 247.847656 216.402344 240.671875 214.027344 235.121094 C 212.648438 231.90625 209.328125 228.605469 211.054688 225.570312 C 212.765625 222.566406 217.410156 223.703125 220.203125 225.738281 C 222.992188 227.773438 226.15625 230.492188 229.4375 229.40625 C 233.148438 228.179688 233.707031 223.117188 232.816406 219.308594 C 231.921875 215.503906 230.289062 211.402344 231.980469 207.882812 C 238.0625 209.011719 244.148438 210.140625 250.238281 211.269531 C 252.671875 211.722656 255.671875 211.964844 257.140625 209.972656 C 258.289062 208.402344 257.855469 206.183594 257.0625 204.40625 C 253.0625 195.402344 242.550781 191.601562 233.128906 188.71875 C 235.140625 190.5 235.128906 193.800781 233.804688 196.136719 C 233.148438 197.308594 217.632812 202.933594 220.039062 210.707031 C 223.28125 221.1875 200.816406 213.742188 199.558594 214.230469 C 171.3125 225.230469 175.890625 239.921875 158.480469 229.265625 C 148.96875 223.441406 165.644531 224.101562 154.617188 225.9375 C 150.792969 226.570312 141.789062 226.101562 137.972656 226.65625 C 125.859375 228.433594 125.835938 242.007812 111.796875 231.335938 C 102.699219 224.425781 87.90625 221.105469 84.167969 225.476562 C 73.941406 237.4375 62.28125 223.140625 44.226562 214.90625 C 40.671875 213.289062 30.433594 205.296875 34.613281 199.226562 Z M 34.609375 199.21875 " fill-opacity="1" fill-rule="nonzero"/><path fill="#38cfa2" d="M 23.195312 303.707031 C 18.707031 315.367188 16.804688 326.101562 25.820312 340.648438 C 38.871094 361.722656 154.664062 371.964844 207.21875 345.582031 C 212.984375 342.6875 223.953125 337.347656 230.804688 333.152344 C 231.445312 332.757812 234.953125 311.480469 231.042969 298.679688 C 178.339844 331 112.191406 332.632812 52.84375 320.167969 C 41.230469 318.429688 28.875 315.328125 23.195312 303.714844 Z M 23.195312 303.707031 " fill-opacity="1" fill-rule="nonzero"/><path fill="#000000" d="M 122.21875 231.953125 C 92.441406 231.953125 61.992188 226.082031 33.496094 214.132812 C 32.371094 213.664062 31.613281 212.59375 31.539062 211.371094 C 29.839844 183.632812 37.59375 159.785156 53.949219 142.402344 C 68.304688 127.152344 89.339844 117.070312 113.1875 114 C 165.664062 107.257812 226.75 134.828125 238.148438 192.644531 C 238.3125 193.484375 238.136719 194.355469 237.660156 195.0625 L 235.703125 197.945312 C 235.480469 198.269531 235.199219 198.554688 234.878906 198.777344 C 203.292969 220.710938 163.40625 231.953125 122.21875 231.953125 Z M 37.828125 209 C 103.136719 235.679688 178.566406 229.796875 230.738281 193.859375 L 231.59375 192.589844 C 220.253906 139.339844 163.152344 114.042969 114.003906 120.359375 C 75.300781 125.339844 35.230469 151.25 37.828125 209 Z M 37.828125 209 " fill-opacity="1" fill-rule="nonzero"/><path fill="#000000" d="M 99.113281 141.921875 C 99.113281 141.921875 92.671875 143.171875 90.84375 146.167969 C 89.324219 148.652344 91.511719 151.210938 93.535156 150.445312 C 96.957031 149.144531 99.117188 141.921875 99.117188 141.921875 Z M 99.113281 141.921875 " fill-opacity="1" fill-rule="nonzero"/><path fill="#000000" d="M 129.074219 147.671875 C 129.074219 147.671875 128.210938 154.171875 130.464844 156.867188 C 132.332031 159.09375 135.460938 157.839844 135.375 155.675781 C 135.238281 152.019531 129.074219 147.671875 129.074219 147.671875 Z M 129.074219 147.671875 " fill-opacity="1" fill-rule="nonzero"/><path fill="#000000" d="M 152.90625 135.890625 C 157.539062 135.890625 160.511719 136.4375 162.976562 138.730469 C 163.5 139.222656 163.984375 139.800781 164.039062 140.460938 C 164.09375 141.117188 163.785156 141.921875 161.851562 141.921875 C 157.472656 141.921875 155.855469 138.519531 152.898438 135.890625 Z M 152.90625 135.890625 " fill-opacity="1" fill-rule="nonzero"/><path fill="#000000" d="M 124.15625 128.46875 C 121.929688 129.886719 119.488281 131.617188 119.082031 134.226562 C 118.992188 134.824219 119.023438 135.464844 119.34375 135.976562 C 119.832031 136.761719 120.914062 137.027344 121.796875 136.773438 C 122.675781 136.519531 123.382812 135.824219 123.898438 135.050781 C 125.074219 133.265625 125.335938 130.910156 124.15625 128.472656 Z M 124.15625 128.46875 " fill-opacity="1" fill-rule="nonzero"/><path fill="#19c09e" d="M 37.121094 270.136719 C 31.085938 266.574219 19.359375 256.914062 15.242188 268.320312 C 11.820312 277.78125 11.714844 277.605469 11.289062 290.914062 C 10.867188 304.222656 20.417969 307.296875 31.414062 312.847656 C 74.007812 334.347656 147.316406 330.878906 196.453125 312.847656 C 236.511719 298.148438 253.535156 289.523438 237.53125 258.707031 C 228.398438 272.777344 220.789062 259.988281 218.605469 269.816406 C 216.492188 275.117188 209.332031 281.992188 204.972656 285.863281 C 195.894531 290.175781 188.824219 262.382812 180.566406 284.558594 C 178.652344 302.425781 167.5 299.449219 155.921875 291.050781 C 147.644531 292.253906 149.542969 330.84375 125.980469 319.402344 C 120.273438 321.550781 122.824219 305.261719 123.433594 299.195312 C 124.140625 295.523438 125.890625 290.195312 120.761719 290.539062 C 109.585938 289.796875 104.6875 306.457031 94.296875 307.257812 C 91.121094 306.191406 85.121094 297.945312 82.160156 294.742188 C 74.882812 286.882812 61.253906 292.695312 47.902344 290.640625 C 29.320312 288.210938 28.808594 264.363281 37.113281 270.148438 Z M 37.121094 270.136719 " fill-opacity="1" fill-rule="nonzero"/><path fill="#000000" d="M 163.71875 165.261719 C 163.5625 167.902344 163.539062 170.894531 165.417969 172.746094 C 165.84375 173.171875 166.390625 173.519531 166.988281 173.558594 C 167.910156 173.617188 168.757812 172.90625 169.066406 172.027344 C 169.375 171.152344 169.230469 170.1875 168.902344 169.324219 C 168.140625 167.324219 166.378906 165.734375 163.71875 165.261719 Z M 163.71875 165.261719 " fill-opacity="1" fill-rule="nonzero"/><path fill="#000000" d="M 66.382812 153.296875 C 65.109375 157.75 63.765625 160.460938 60.878906 162.195312 C 60.261719 162.570312 59.574219 162.871094 58.929688 162.742188 C 58.28125 162.617188 57.59375 162.097656 58.125 160.242188 C 59.332031 156.03125 63.042969 155.417969 66.382812 153.296875 Z M 66.382812 153.296875 " fill-opacity="1" fill-rule="nonzero"/><path fill="#000000" d="M 101.445312 164.566406 C 101.28125 168.683594 100.59375 171.296875 98.066406 173.386719 C 97.523438 173.835938 96.894531 174.238281 96.195312 174.257812 C 95.492188 174.277344 94.652344 173.972656 94.71875 172.253906 C 94.878906 168.363281 98.542969 167.074219 101.445312 164.5625 Z M 101.445312 164.566406 " fill-opacity="1" fill-rule="nonzero"/><path fill="#000000" d="M 188.84375 153.84375 C 188.84375 153.84375 190.503906 160.1875 193.609375 161.824219 C 196.183594 163.183594 198.597656 160.828125 197.707031 158.867188 C 196.1875 155.535156 188.84375 153.84375 188.84375 153.84375 Z M 188.84375 153.84375 " fill-opacity="1" fill-rule="nonzero"/><path fill="#f3f3f4" d="M 40.085938 271.394531 C 100.222656 292.738281 177.589844 286.496094 232.761719 255 C 233.148438 259.898438 224.984375 266.410156 220.054688 267.589844 C 217.894531 268.101562 215.550781 267.3125 213.417969 267.9375 C 210.957031 268.664062 209.507812 271.019531 207.867188 272.929688 C 202.917969 278.699219 194.335938 281.285156 186.878906 279.242188 C 183.867188 278.414062 180.378906 276.984375 177.867188 278.78125 C 175.191406 280.703125 175.796875 284.816406 173.953125 287.503906 C 171.777344 290.675781 167.015625 290.847656 163.179688 290.019531 C 159.339844 289.191406 155.371094 287.710938 151.59375 288.792969 C 141.644531 291.632812 143.5625 307.640625 134.730469 312.902344 C 131.136719 315.046875 126.140625 314.703125 122.890625 312.09375 C 119.640625 309.480469 118.382812 304.789062 119.898438 300.972656 C 120.464844 299.539062 121.398438 298.167969 121.335938 296.632812 C 121.1875 292.859375 115.476562 291.902344 112.050781 293.710938 C 108.625 295.515625 106.035156 298.800781 102.277344 299.824219 C 98.914062 300.734375 95.035156 299.4375 92.96875 296.707031 C 91.699219 295.027344 91.121094 292.960938 90.050781 291.15625 C 86.566406 285.269531 78.644531 283.332031 71.644531 283.664062 C 64.644531 283.996094 57.746094 286.015625 50.742188 285.628906 C 47.167969 285.425781 43.46875 284.523438 40.816406 282.191406 C 38.164062 279.859375 36.875 275.851562 40.09375 271.382812 Z M 40.085938 271.394531 " fill-opacity="1" fill-rule="nonzero"/><path fill="#000000" d="M 123.679688 364.296875 C 89.507812 364.296875 58.003906 357.523438 36.023438 345.027344 C 21.730469 336.902344 23.675781 318.152344 24.507812 310.148438 C 24.628906 308.988281 24.761719 307.675781 24.742188 307.269531 C 24.648438 305.507812 26 303.996094 27.761719 303.894531 C 29.527344 303.796875 31.039062 305.152344 31.140625 306.914062 C 31.1875 307.828125 31.066406 309.011719 30.878906 310.804688 C 30.121094 318.140625 28.535156 333.398438 39.1875 339.457031 C 66.007812 354.703125 107.902344 361.042969 151.25 356.414062 C 192.605469 351.996094 226.75 338.398438 240.644531 320.851562 C 241.585938 316.234375 241.023438 304.503906 240.644531 296.628906 C 240.539062 294.53125 240.449219 292.621094 240.394531 291.027344 C 240.328125 289.257812 241.710938 287.777344 243.484375 287.710938 C 245.265625 287.640625 246.734375 289.027344 246.800781 290.796875 C 246.855469 292.367188 246.945312 294.253906 247.046875 296.320312 C 247.613281 308.175781 247.984375 318.378906 246.691406 323.109375 C 246.582031 323.507812 246.394531 323.882812 246.148438 324.214844 C 238.621094 334.050781 225.53125 342.847656 208.277344 349.648438 C 192.085938 356.035156 172.605469 360.574219 151.941406 362.78125 C 142.417969 363.796875 132.960938 364.296875 123.691406 364.296875 Z M 123.679688 364.296875 " fill-opacity="1" fill-rule="nonzero"/><path fill="#000000" d="M 116.695312 287.355469 C 97.324219 287.355469 78.070312 285.09375 60.800781 280.699219 C 37.609375 274.796875 21.875 265.953125 17.628906 256.425781 C 14.800781 250.089844 13.066406 233.136719 19.984375 224.667969 C 22.273438 221.867188 26.472656 218.855469 33.503906 220.414062 C 35.230469 220.796875 36.316406 222.511719 35.9375 224.238281 C 35.554688 225.96875 33.847656 227.054688 32.113281 226.675781 C 28.941406 225.96875 26.664062 226.621094 24.941406 228.722656 C 20.210938 234.515625 21.171875 248.65625 23.476562 253.816406 C 26.820312 261.3125 41.722656 269.230469 62.378906 274.488281 C 85.859375 280.460938 113.167969 282.378906 139.273438 279.875 C 164.335938 277.476562 190.179688 271.273438 210.167969 262.851562 C 231.28125 253.960938 244.679688 243.203125 247.929688 232.546875 C 248.128906 230.617188 247.441406 219.78125 242.425781 215.558594 C 240.273438 213.746094 237.503906 213.421875 233.945312 214.550781 C 232.257812 215.089844 230.457031 214.152344 229.921875 212.464844 C 229.382812 210.78125 230.320312 208.980469 232.003906 208.441406 C 239.707031 205.992188 244.617188 208.703125 247.378906 211.410156 C 254.324219 218.21875 254.75 232.085938 254.121094 234.207031 C 249.347656 250.332031 228.941406 261.890625 212.65625 268.753906 C 192.09375 277.417969 165.566406 283.796875 139.886719 286.25 C 132.222656 286.980469 124.449219 287.34375 116.695312 287.34375 Z M 247.984375 232.402344 C 247.984375 232.402344 247.976562 232.417969 247.972656 232.429688 C 247.972656 232.417969 247.976562 232.40625 247.984375 232.402344 Z M 247.984375 232.402344 " fill-opacity="1" fill-rule="nonzero"/><path fill="#000000" d="M 116.472656 330.847656 C 97.101562 330.847656 77.847656 328.589844 60.578125 324.191406 C 37.386719 318.289062 21.648438 309.445312 17.402344 299.917969 C 14.578125 293.582031 12.84375 276.632812 19.757812 268.164062 C 22.050781 265.359375 26.246094 262.351562 33.277344 263.910156 C 35.007812 264.289062 36.09375 266.007812 35.714844 267.734375 C 35.332031 269.460938 33.625 270.550781 31.890625 270.167969 C 28.71875 269.460938 26.441406 270.113281 24.71875 272.214844 C 19.988281 278.007812 20.949219 292.152344 23.25 297.308594 C 26.597656 304.808594 41.5 312.726562 62.152344 317.980469 C 85.636719 323.957031 112.945312 325.871094 139.046875 323.371094 C 164.117188 320.972656 189.953125 314.769531 209.945312 306.347656 C 231.058594 297.453125 244.457031 286.695312 247.707031 276.039062 C 247.90625 274.113281 247.214844 263.277344 242.203125 259.054688 C 240.050781 257.242188 237.277344 256.914062 233.722656 258.042969 C 232.035156 258.582031 230.234375 257.644531 229.699219 255.960938 C 229.160156 254.273438 230.097656 252.476562 231.78125 251.9375 C 239.484375 249.484375 244.394531 252.195312 247.15625 254.902344 C 254.101562 261.710938 254.527344 275.582031 253.898438 277.703125 C 249.125 293.824219 228.71875 305.386719 212.433594 312.25 C 191.871094 320.910156 165.34375 327.289062 139.660156 329.742188 C 131.992188 330.472656 124.21875 330.835938 116.46875 330.835938 Z M 247.757812 275.894531 C 247.757812 275.894531 247.757812 275.914062 247.746094 275.925781 C 247.746094 275.914062 247.753906 275.902344 247.757812 275.894531 Z M 247.757812 275.894531 " fill-opacity="1" fill-rule="nonzero"/><path fill="#000000" d="M 115.375 254.941406 C 107.824219 254.941406 100.351562 250.957031 96.851562 244.523438 C 96.703125 244.246094 96.550781 243.964844 96.40625 243.671875 C 95.945312 242.785156 95.476562 241.867188 95.023438 241.632812 C 94.207031 241.21875 92.28125 242.519531 91.121094 244.257812 C 90.921875 244.5625 90.722656 244.863281 90.523438 245.175781 C 88.859375 247.761719 86.589844 251.296875 82.367188 252.074219 C 76.632812 253.128906 73.355469 248.800781 70.71875 245.324219 C 68.988281 243.039062 67.355469 240.882812 65.378906 240.273438 C 61.992188 239.226562 58.046875 243.082031 56.917969 244.289062 C 56.519531 244.710938 56.125 245.148438 55.734375 245.582031 C 52.9375 248.65625 49.765625 252.148438 44.925781 253.1875 C 41.300781 253.96875 37.328125 252.910156 34.289062 250.355469 C 31.496094 248.003906 29.96875 244.785156 30.101562 241.523438 C 30.222656 238.519531 31.550781 235.773438 32.722656 233.34375 C 34.34375 229.992188 35.019531 228.269531 34.210938 226.910156 C 33.097656 225.050781 30.078125 225.066406 25.246094 225.316406 C 20.261719 225.574219 14.617188 225.863281 10.78125 222.035156 C 8.734375 219.988281 7.804688 217.214844 8.160156 214.21875 C 8.664062 210.085938 11.566406 205.851562 15.566406 203.429688 C 18.164062 201.859375 20.957031 200.84375 23.65625 199.859375 C 26.375 198.867188 28.941406 197.9375 31.097656 196.523438 C 32.578125 195.558594 34.566406 195.96875 35.53125 197.449219 C 36.5 198.929688 36.089844 200.917969 34.609375 201.882812 C 31.835938 203.699219 28.789062 204.804688 25.847656 205.875 C 23.328125 206.792969 20.945312 207.65625 18.890625 208.902344 C 16.617188 210.273438 14.789062 212.828125 14.527344 214.980469 C 14.359375 216.367188 14.898438 217.082031 15.3125 217.492188 C 17.136719 219.308594 21.09375 219.105469 24.917969 218.90625 C 30.09375 218.640625 36.539062 218.308594 39.710938 223.613281 C 42.382812 228.082031 40.226562 232.539062 38.492188 236.121094 C 37.5 238.164062 36.570312 240.089844 36.503906 241.765625 C 36.457031 243.015625 37.167969 244.390625 38.414062 245.441406 C 39.917969 246.710938 41.898438 247.273438 43.578125 246.910156 C 46.40625 246.300781 48.636719 243.855469 50.992188 241.261719 C 51.40625 240.804688 51.824219 240.34375 52.242188 239.898438 C 57.039062 234.773438 62.515625 232.671875 67.269531 234.140625 C 71.214844 235.355469 73.667969 238.59375 75.832031 241.445312 C 78.289062 244.683594 79.535156 246.078125 81.214844 245.761719 C 82.707031 245.492188 83.890625 243.648438 85.140625 241.703125 C 85.355469 241.367188 85.570312 241.035156 85.785156 240.714844 C 88.40625 236.761719 93.324219 233.574219 97.929688 235.910156 C 100.230469 237.082031 101.316406 239.191406 102.109375 240.730469 C 102.234375 240.972656 102.355469 241.214844 102.484375 241.449219 C 105.402344 246.816406 113.140625 249.792969 119.375 247.960938 C 125.355469 246.203125 132.554688 234.96875 131.601562 228.875 C 131.328125 227.128906 132.523438 225.492188 134.269531 225.210938 C 136.011719 224.941406 137.652344 226.136719 137.929688 227.882812 C 139.386719 237.210938 130.308594 251.421875 121.179688 254.105469 C 119.289062 254.660156 117.332031 254.925781 115.378906 254.925781 Z M 115.375 254.941406 " fill-opacity="1" fill-rule="nonzero"/><path fill="#000000" d="M 165.542969 260.507812 C 157.804688 260.507812 150.847656 254.65625 150.300781 247.648438 C 150.234375 246.820312 150.320312 245.902344 150.421875 244.742188 C 150.761719 240.953125 151.273438 235.222656 146.761719 231.089844 C 145.457031 229.894531 145.375 227.871094 146.5625 226.566406 C 147.757812 225.261719 149.78125 225.171875 151.085938 226.367188 C 157.933594 232.636719 157.164062 241.195312 156.796875 245.308594 C 156.734375 246 156.65625 246.863281 156.683594 247.152344 C 156.964844 250.808594 161.175781 254.101562 165.539062 254.101562 C 165.566406 254.101562 165.597656 254.101562 165.621094 254.101562 C 170.0625 254.058594 174.429688 250.984375 176 246.800781 C 176.351562 245.878906 176.617188 244.832031 176.894531 243.722656 C 177.699219 240.550781 178.617188 236.957031 181.902344 234.515625 C 187.109375 230.648438 191.191406 234.695312 193.628906 237.113281 C 194.789062 238.261719 195.984375 239.449219 197.289062 240.199219 C 197.597656 240.375 197.917969 240.5625 198.242188 240.753906 C 204.785156 244.589844 208.277344 245.546875 211.664062 241.046875 C 212.953125 239.335938 211.53125 236.539062 209.546875 233.058594 C 207.933594 230.238281 206.402344 227.566406 207.625 224.988281 C 208.101562 223.984375 209.164062 222.699219 211.527344 222.300781 C 214.003906 221.882812 216.339844 223.195312 219.046875 224.703125 C 223.402344 227.144531 226.453125 228.570312 229.140625 226.277344 C 231.191406 224.53125 231.027344 223.695312 229.300781 220.203125 C 227.933594 217.449219 226.054688 213.675781 228.460938 209.585938 C 231.511719 204.382812 238.238281 202.976562 248.441406 205.386719 C 253.714844 206.636719 259.601562 206.605469 260.867188 203.730469 C 262.070312 201.011719 258.167969 197.226562 256.949219 196.125 C 250.210938 190.089844 241.871094 185.707031 232.820312 183.445312 C 231.105469 183.015625 230.058594 181.277344 230.488281 179.5625 C 230.917969 177.847656 232.65625 176.800781 234.375 177.230469 C 244.429688 179.738281 253.722656 184.625 261.226562 191.351562 C 266.820312 196.367188 268.777344 201.683594 266.726562 206.308594 C 264.191406 212.050781 256.988281 213.980469 246.96875 211.609375 C 242.9375 210.652344 235.902344 209.542969 233.980469 212.816406 C 233.425781 213.765625 233.738281 214.730469 235.039062 217.347656 C 236.644531 220.585938 239.332031 225.996094 233.296875 231.136719 C 227.015625 236.492188 220.070312 232.601562 215.917969 230.28125 C 215.660156 230.136719 215.375 229.980469 215.078125 229.816406 C 215.089844 229.832031 215.097656 229.847656 215.101562 229.863281 C 217.339844 233.765625 220.707031 239.667969 216.78125 244.882812 C 209.386719 254.691406 199.675781 249 195.003906 246.257812 C 194.691406 246.078125 194.390625 245.894531 194.09375 245.726562 C 192.0625 244.5625 190.5 243.003906 189.121094 241.636719 C 188.261719 240.785156 186.824219 239.359375 186.304688 239.316406 C 186.304688 239.316406 186.125 239.34375 185.726562 239.636719 C 184.265625 240.71875 183.734375 242.832031 183.109375 245.28125 C 182.796875 246.507812 182.476562 247.773438 182.003906 249.03125 C 179.503906 255.699219 172.792969 260.414062 165.695312 260.484375 C 165.644531 260.484375 165.59375 260.484375 165.542969 260.484375 Z M 165.542969 260.507812 " fill-opacity="1" fill-rule="nonzero"/><path fill="#000000" d="M 110.664062 260.847656 C 100.984375 260.847656 90.769531 260.117188 81.484375 258.09375 C 79.757812 257.71875 78.664062 256.007812 79.039062 254.28125 C 79.414062 252.554688 81.121094 251.460938 82.851562 251.835938 C 104.101562 256.46875 131.375 253.847656 142.828125 251.808594 C 144.570312 251.503906 146.238281 252.660156 146.546875 254.402344 C 146.851562 256.140625 145.691406 257.808594 143.953125 258.117188 C 136.535156 259.433594 124.121094 260.847656 110.667969 260.847656 Z M 110.664062 260.847656 " fill-opacity="1" fill-rule="nonzero"/><path fill="#000000" d="M 68.8125 297.9375 C 60.527344 297.9375 45.269531 295.40625 35.882812 285.753906 C 34.648438 284.484375 34.679688 282.457031 35.941406 281.222656 C 37.210938 279.992188 39.242188 280.019531 40.472656 281.285156 C 48.726562 289.765625 63.167969 291.691406 69.632812 291.515625 C 69.664062 291.515625 69.6875 291.515625 69.71875 291.515625 C 71.445312 291.515625 72.871094 292.894531 72.917969 294.632812 C 72.96875 296.402344 71.570312 297.871094 69.800781 297.921875 C 69.480469 297.925781 69.148438 297.933594 68.804688 297.933594 Z M 68.8125 297.9375 " fill-opacity="1" fill-rule="nonzero"/><path fill="#000000" d="M 68.339844 260.183594 C 68.339844 260.5625 68.261719 260.929688 68.105469 261.285156 C 67.949219 261.636719 67.722656 261.945312 67.433594 262.214844 C 67.144531 262.484375 66.808594 262.695312 66.429688 262.839844 C 66.050781 262.984375 65.65625 263.058594 65.246094 263.058594 C 64.835938 263.058594 64.441406 262.984375 64.0625 262.839844 C 63.683594 262.695312 63.351562 262.484375 63.058594 262.214844 C 62.769531 261.945312 62.546875 261.636719 62.390625 261.285156 C 62.234375 260.929688 62.152344 260.5625 62.152344 260.183594 C 62.152344 259.800781 62.234375 259.433594 62.390625 259.082031 C 62.546875 258.730469 62.769531 258.417969 63.058594 258.148438 C 63.351562 257.878906 63.683594 257.671875 64.0625 257.527344 C 64.441406 257.378906 64.835938 257.308594 65.246094 257.308594 C 65.65625 257.308594 66.050781 257.378906 66.429688 257.527344 C 66.808594 257.671875 67.144531 257.878906 67.433594 258.148438 C 67.722656 258.417969 67.949219 258.730469 68.105469 259.082031 C 68.261719 259.433594 68.339844 259.800781 68.339844 260.183594 Z M 68.339844 260.183594 " fill-opacity="1" fill-rule="nonzero"/><path fill="#000000" d="M 163.355469 271.195312 C 163.355469 271.578125 163.277344 271.945312 163.121094 272.296875 C 162.964844 272.648438 162.742188 272.960938 162.449219 273.230469 C 162.160156 273.5 161.828125 273.707031 161.449219 273.851562 C 161.070312 273.996094 160.675781 274.070312 160.265625 274.070312 C 159.855469 274.070312 159.460938 273.996094 159.082031 273.851562 C 158.703125 273.707031 158.367188 273.5 158.078125 273.230469 C 157.785156 272.960938 157.5625 272.648438 157.40625 272.296875 C 157.25 271.945312 157.171875 271.578125 157.171875 271.195312 C 157.171875 270.8125 157.25 270.449219 157.40625 270.09375 C 157.5625 269.742188 157.785156 269.433594 158.078125 269.164062 C 158.367188 268.890625 158.703125 268.683594 159.082031 268.539062 C 159.460938 268.394531 159.855469 268.320312 160.265625 268.320312 C 160.675781 268.320312 161.070312 268.394531 161.449219 268.539062 C 161.828125 268.683594 162.160156 268.890625 162.449219 269.164062 C 162.742188 269.433594 162.964844 269.742188 163.121094 270.09375 C 163.277344 270.449219 163.355469 270.8125 163.355469 271.195312 Z M 163.355469 271.195312 " fill-opacity="1" fill-rule="nonzero"/><path fill="#000000" d="M 68.339844 247.214844 C 68.339844 247.59375 68.261719 247.960938 68.105469 248.3125 C 67.949219 248.664062 67.722656 248.976562 67.433594 249.246094 C 67.144531 249.515625 66.808594 249.722656 66.429688 249.871094 C 66.050781 250.015625 65.65625 250.089844 65.246094 250.089844 C 64.835938 250.089844 64.441406 250.015625 64.0625 249.871094 C 63.683594 249.722656 63.351562 249.515625 63.058594 249.246094 C 62.769531 248.976562 62.546875 248.664062 62.390625 248.3125 C 62.234375 247.960938 62.152344 247.59375 62.152344 247.214844 C 62.152344 246.832031 62.234375 246.464844 62.390625 246.113281 C 62.546875 245.761719 62.769531 245.449219 63.058594 245.179688 C 63.351562 244.910156 63.683594 244.703125 64.0625 244.554688 C 64.441406 244.410156 64.835938 244.335938 65.246094 244.335938 C 65.65625 244.335938 66.050781 244.410156 66.429688 244.554688 C 66.808594 244.703125 67.144531 244.910156 67.433594 245.179688 C 67.722656 245.449219 67.949219 245.761719 68.105469 246.113281 C 68.261719 246.464844 68.339844 246.832031 68.339844 247.214844 Z M 68.339844 247.214844 " fill-opacity="1" fill-rule="nonzero"/><path fill="#000000" d="M 37.605469 255.808594 C 37.605469 256.191406 37.527344 256.558594 37.367188 256.910156 C 37.210938 257.261719 36.988281 257.574219 36.699219 257.84375 C 36.410156 258.113281 36.074219 258.320312 35.695312 258.464844 C 35.316406 258.613281 34.921875 258.683594 34.511719 258.683594 C 34.101562 258.683594 33.707031 258.613281 33.328125 258.464844 C 32.949219 258.320312 32.613281 258.113281 32.324219 257.84375 C 32.035156 257.574219 31.8125 257.261719 31.652344 256.910156 C 31.496094 256.558594 31.417969 256.191406 31.417969 255.808594 C 31.417969 255.429688 31.496094 255.0625 31.652344 254.707031 C 31.8125 254.355469 32.035156 254.046875 32.324219 253.777344 C 32.613281 253.507812 32.949219 253.296875 33.328125 253.152344 C 33.707031 253.007812 34.101562 252.933594 34.511719 252.933594 C 34.921875 252.933594 35.316406 253.007812 35.695312 253.152344 C 36.074219 253.296875 36.410156 253.507812 36.699219 253.777344 C 36.988281 254.046875 37.210938 254.355469 37.367188 254.707031 C 37.527344 255.0625 37.605469 255.429688 37.605469 255.808594 Z M 37.605469 255.808594 " fill-opacity="1" fill-rule="nonzero"/><path fill="#000000" d="M 137.96875 271.195312 C 137.96875 271.578125 137.886719 271.945312 137.730469 272.296875 C 137.574219 272.648438 137.351562 272.960938 137.0625 273.230469 C 136.769531 273.5 136.4375 273.707031 136.058594 273.851562 C 135.679688 273.996094 135.285156 274.070312 134.875 274.070312 C 134.464844 274.070312 134.070312 273.996094 133.691406 273.851562 C 133.3125 273.707031 132.976562 273.5 132.6875 273.230469 C 132.398438 272.960938 132.171875 272.648438 132.015625 272.296875 C 131.859375 271.945312 131.78125 271.578125 131.78125 271.195312 C 131.78125 270.8125 131.859375 270.449219 132.015625 270.09375 C 132.171875 269.742188 132.398438 269.433594 132.6875 269.164062 C 132.976562 268.890625 133.3125 268.683594 133.691406 268.539062 C 134.070312 268.394531 134.464844 268.320312 134.875 268.320312 C 135.285156 268.320312 135.679688 268.394531 136.058594 268.539062 C 136.4375 268.683594 136.769531 268.890625 137.0625 269.164062 C 137.351562 269.433594 137.574219 269.742188 137.730469 270.09375 C 137.886719 270.449219 137.96875 270.8125 137.96875 271.195312 Z M 137.96875 271.195312 " fill-opacity="1" fill-rule="nonzero"/><path fill="#000000" d="M 65.246094 309.972656 C 65.246094 310.351562 65.167969 310.71875 65.011719 311.070312 C 64.855469 311.425781 64.632812 311.734375 64.339844 312.003906 C 64.050781 312.273438 63.71875 312.480469 63.335938 312.628906 C 62.957031 312.773438 62.5625 312.847656 62.152344 312.847656 C 61.742188 312.847656 61.347656 312.773438 60.96875 312.628906 C 60.589844 312.480469 60.257812 312.273438 59.96875 312.003906 C 59.675781 311.734375 59.453125 311.425781 59.296875 311.070312 C 59.140625 310.71875 59.0625 310.351562 59.0625 309.972656 C 59.0625 309.589844 59.140625 309.222656 59.296875 308.871094 C 59.453125 308.519531 59.675781 308.207031 59.96875 307.9375 C 60.257812 307.667969 60.589844 307.460938 60.96875 307.316406 C 61.347656 307.167969 61.742188 307.097656 62.152344 307.097656 C 62.5625 307.097656 62.957031 307.167969 63.335938 307.316406 C 63.71875 307.460938 64.050781 307.667969 64.339844 307.9375 C 64.632812 308.207031 64.855469 308.519531 65.011719 308.871094 C 65.167969 309.222656 65.246094 309.589844 65.246094 309.972656 Z M 65.246094 309.972656 " fill-opacity="1" fill-rule="nonzero"/><path fill="#000000" d="M 169.542969 300.238281 C 169.542969 300.621094 169.464844 300.988281 169.308594 301.339844 C 169.148438 301.691406 168.925781 302.003906 168.636719 302.273438 C 168.347656 302.542969 168.011719 302.75 167.632812 302.894531 C 167.253906 303.042969 166.859375 303.117188 166.449219 303.117188 C 166.039062 303.117188 165.644531 303.042969 165.265625 302.894531 C 164.886719 302.75 164.550781 302.542969 164.261719 302.273438 C 163.972656 302.003906 163.75 301.691406 163.59375 301.339844 C 163.433594 300.988281 163.355469 300.621094 163.355469 300.238281 C 163.355469 299.859375 163.433594 299.492188 163.59375 299.140625 C 163.75 298.789062 163.972656 298.476562 164.261719 298.207031 C 164.550781 297.9375 164.886719 297.730469 165.265625 297.582031 C 165.644531 297.4375 166.039062 297.363281 166.449219 297.363281 C 166.859375 297.363281 167.253906 297.4375 167.632812 297.582031 C 168.011719 297.730469 168.347656 297.9375 168.636719 298.207031 C 168.925781 298.476562 169.148438 298.789062 169.308594 299.140625 C 169.464844 299.492188 169.542969 299.859375 169.542969 300.238281 Z M 169.542969 300.238281 " fill-opacity="1" fill-rule="nonzero"/><path fill="#000000" d="M 199.554688 303.652344 C 199.554688 304.035156 199.476562 304.402344 199.316406 304.753906 C 199.160156 305.105469 198.9375 305.417969 198.648438 305.6875 C 198.359375 305.957031 198.023438 306.164062 197.644531 306.308594 C 197.265625 306.457031 196.871094 306.527344 196.460938 306.527344 C 196.050781 306.527344 195.65625 306.457031 195.277344 306.308594 C 194.898438 306.164062 194.5625 305.957031 194.273438 305.6875 C 193.984375 305.417969 193.761719 305.105469 193.601562 304.753906 C 193.445312 304.402344 193.367188 304.035156 193.367188 303.652344 C 193.367188 303.273438 193.445312 302.90625 193.601562 302.550781 C 193.761719 302.199219 193.984375 301.890625 194.273438 301.621094 C 194.5625 301.351562 194.898438 301.140625 195.277344 300.996094 C 195.65625 300.851562 196.050781 300.777344 196.460938 300.777344 C 196.871094 300.777344 197.265625 300.851562 197.644531 300.996094 C 198.023438 301.140625 198.359375 301.351562 198.648438 301.621094 C 198.9375 301.890625 199.160156 302.199219 199.316406 302.550781 C 199.476562 302.90625 199.554688 303.273438 199.554688 303.652344 Z M 199.554688 303.652344 " fill-opacity="1" fill-rule="nonzero"/><path fill="#000000" d="M 237.539062 274.355469 C 237.539062 274.734375 237.460938 275.101562 237.304688 275.457031 C 237.144531 275.808594 236.921875 276.117188 236.632812 276.386719 C 236.34375 276.65625 236.007812 276.867188 235.628906 277.011719 C 235.25 277.15625 234.855469 277.230469 234.445312 277.230469 C 234.035156 277.230469 233.640625 277.15625 233.261719 277.011719 C 232.882812 276.867188 232.546875 276.65625 232.257812 276.386719 C 231.96875 276.117188 231.746094 275.808594 231.589844 275.457031 C 231.429688 275.101562 231.351562 274.734375 231.351562 274.355469 C 231.351562 273.972656 231.429688 273.605469 231.589844 273.253906 C 231.746094 272.902344 231.96875 272.589844 232.257812 272.320312 C 232.546875 272.050781 232.882812 271.84375 233.261719 271.699219 C 233.640625 271.550781 234.035156 271.480469 234.445312 271.480469 C 234.855469 271.480469 235.25 271.550781 235.628906 271.699219 C 236.007812 271.84375 236.34375 272.050781 236.632812 272.320312 C 236.921875 272.589844 237.144531 272.902344 237.304688 273.253906 C 237.460938 273.605469 237.539062 273.972656 237.539062 274.355469 Z M 237.539062 274.355469 " fill-opacity="1" fill-rule="nonzero"/><path fill="#000000" d="M 228.453125 284.148438 C 228.453125 284.527344 228.375 284.894531 228.21875 285.246094 C 228.0625 285.601562 227.835938 285.910156 227.546875 286.179688 C 227.257812 286.449219 226.921875 286.65625 226.542969 286.804688 C 226.164062 286.949219 225.769531 287.023438 225.359375 287.023438 C 224.949219 287.023438 224.554688 286.949219 224.175781 286.804688 C 223.796875 286.65625 223.464844 286.449219 223.171875 286.179688 C 222.882812 285.910156 222.660156 285.601562 222.503906 285.246094 C 222.347656 284.894531 222.265625 284.527344 222.265625 284.148438 C 222.265625 283.765625 222.347656 283.398438 222.503906 283.046875 C 222.660156 282.695312 222.882812 282.382812 223.171875 282.113281 C 223.464844 281.84375 223.796875 281.636719 224.175781 281.492188 C 224.554688 281.34375 224.949219 281.273438 225.359375 281.273438 C 225.769531 281.273438 226.164062 281.34375 226.542969 281.492188 C 226.921875 281.636719 227.257812 281.84375 227.546875 282.113281 C 227.835938 282.382812 228.0625 282.695312 228.21875 283.046875 C 228.375 283.398438 228.453125 283.765625 228.453125 284.148438 Z M 228.453125 284.148438 " fill-opacity="1" fill-rule="nonzero"/><path fill="#000000" d="M 37.605469 294.738281 C 37.605469 295.117188 37.527344 295.484375 37.367188 295.835938 C 37.210938 296.1875 36.988281 296.5 36.699219 296.769531 C 36.410156 297.039062 36.074219 297.246094 35.695312 297.394531 C 35.316406 297.539062 34.921875 297.613281 34.511719 297.613281 C 34.101562 297.613281 33.707031 297.539062 33.328125 297.394531 C 32.949219 297.246094 32.613281 297.039062 32.324219 296.769531 C 32.035156 296.5 31.8125 296.1875 31.652344 295.835938 C 31.496094 295.484375 31.417969 295.117188 31.417969 294.738281 C 31.417969 294.355469 31.496094 293.988281 31.652344 293.636719 C 31.8125 293.285156 32.035156 292.972656 32.324219 292.703125 C 32.613281 292.433594 32.949219 292.226562 33.328125 292.078125 C 33.707031 291.933594 34.101562 291.859375 34.511719 291.859375 C 34.921875 291.859375 35.316406 291.933594 35.695312 292.078125 C 36.074219 292.226562 36.410156 292.433594 36.699219 292.703125 C 36.988281 292.972656 37.210938 293.285156 37.367188 293.636719 C 37.527344 293.988281 37.605469 294.355469 37.605469 294.738281 Z M 37.605469 294.738281 " fill-opacity="1" fill-rule="nonzero"/><path fill="#000000" d="M 115.871094 319.394531 C 115.871094 319.777344 115.792969 320.144531 115.632812 320.496094 C 115.476562 320.847656 115.253906 321.160156 114.964844 321.429688 C 114.671875 321.699219 114.339844 321.90625 113.960938 322.050781 C 113.582031 322.199219 113.1875 322.269531 112.777344 322.269531 C 112.367188 322.269531 111.972656 322.199219 111.59375 322.050781 C 111.214844 321.90625 110.878906 321.699219 110.589844 321.429688 C 110.300781 321.160156 110.074219 320.847656 109.917969 320.496094 C 109.761719 320.144531 109.683594 319.777344 109.683594 319.394531 C 109.683594 319.015625 109.761719 318.648438 109.917969 318.296875 C 110.074219 317.941406 110.300781 317.632812 110.589844 317.363281 C 110.878906 317.09375 111.214844 316.886719 111.59375 316.738281 C 111.972656 316.59375 112.367188 316.519531 112.777344 316.519531 C 113.1875 316.519531 113.582031 316.59375 113.960938 316.738281 C 114.339844 316.882812 114.671875 317.09375 114.964844 317.363281 C 115.253906 317.632812 115.476562 317.941406 115.632812 318.296875 C 115.792969 318.648438 115.871094 319.015625 115.871094 319.394531 Z M 115.871094 319.394531 " fill-opacity="1" fill-rule="nonzero"/><path fill="#000000" d="M 85.261719 306.527344 C 85.261719 306.910156 85.183594 307.277344 85.023438 307.628906 C 84.867188 307.980469 84.644531 308.292969 84.355469 308.5625 C 84.066406 308.832031 83.730469 309.039062 83.351562 309.183594 C 82.972656 309.332031 82.578125 309.402344 82.167969 309.402344 C 81.757812 309.402344 81.363281 309.332031 80.984375 309.183594 C 80.605469 309.039062 80.269531 308.832031 79.980469 308.5625 C 79.691406 308.292969 79.46875 307.980469 79.308594 307.628906 C 79.152344 307.277344 79.074219 306.910156 79.074219 306.527344 C 79.074219 306.148438 79.152344 305.78125 79.308594 305.429688 C 79.46875 305.074219 79.691406 304.765625 79.980469 304.496094 C 80.269531 304.226562 80.605469 304.019531 80.984375 303.871094 C 81.363281 303.726562 81.757812 303.652344 82.167969 303.652344 C 82.578125 303.652344 82.972656 303.726562 83.351562 303.871094 C 83.730469 304.019531 84.066406 304.226562 84.355469 304.496094 C 84.644531 304.765625 84.867188 305.074219 85.023438 305.429688 C 85.183594 305.78125 85.261719 306.148438 85.261719 306.527344 Z M 85.261719 306.527344 " fill-opacity="1" fill-rule="nonzero"/><path fill="#000000" d="M 190.261719 247.425781 C 190.261719 247.804688 190.183594 248.171875 190.027344 248.523438 C 189.871094 248.878906 189.648438 249.1875 189.355469 249.457031 C 189.066406 249.726562 188.730469 249.933594 188.351562 250.082031 C 187.972656 250.226562 187.578125 250.300781 187.167969 250.300781 C 186.757812 250.300781 186.363281 250.226562 185.984375 250.082031 C 185.605469 249.933594 185.273438 249.726562 184.984375 249.457031 C 184.691406 249.1875 184.46875 248.878906 184.3125 248.523438 C 184.15625 248.171875 184.078125 247.804688 184.078125 247.425781 C 184.078125 247.042969 184.15625 246.675781 184.3125 246.324219 C 184.46875 245.972656 184.691406 245.660156 184.984375 245.390625 C 185.273438 245.121094 185.605469 244.914062 185.984375 244.769531 C 186.363281 244.621094 186.757812 244.550781 187.167969 244.550781 C 187.578125 244.550781 187.972656 244.621094 188.351562 244.769531 C 188.730469 244.914062 189.066406 245.121094 189.355469 245.390625 C 189.648438 245.660156 189.871094 245.972656 190.027344 246.324219 C 190.183594 246.675781 190.261719 247.042969 190.261719 247.425781 Z M 190.261719 247.425781 " fill-opacity="1" fill-rule="nonzero"/><path fill="#000000" d="M 202.648438 263.058594 C 202.648438 263.441406 202.566406 263.804688 202.410156 264.160156 C 202.253906 264.511719 202.03125 264.820312 201.742188 265.089844 C 201.449219 265.359375 201.117188 265.570312 200.738281 265.714844 C 200.359375 265.859375 199.964844 265.933594 199.554688 265.933594 C 199.144531 265.933594 198.75 265.859375 198.371094 265.714844 C 197.992188 265.570312 197.65625 265.359375 197.367188 265.089844 C 197.078125 264.820312 196.851562 264.511719 196.695312 264.160156 C 196.539062 263.804688 196.460938 263.441406 196.460938 263.058594 C 196.460938 262.675781 196.539062 262.308594 196.695312 261.957031 C 196.851562 261.605469 197.078125 261.292969 197.367188 261.023438 C 197.65625 260.753906 197.992188 260.546875 198.371094 260.402344 C 198.75 260.257812 199.144531 260.183594 199.554688 260.183594 C 199.964844 260.183594 200.359375 260.257812 200.738281 260.402344 C 201.117188 260.546875 201.449219 260.753906 201.742188 261.023438 C 202.03125 261.292969 202.253906 261.605469 202.410156 261.957031 C 202.566406 262.308594 202.648438 262.675781 202.648438 263.058594 Z M 202.648438 263.058594 " fill-opacity="1" fill-rule="nonzero"/><path fill="#000000" d="M 231.546875 244.289062 C 231.546875 244.671875 231.46875 245.039062 231.3125 245.390625 C 231.152344 245.742188 230.929688 246.054688 230.640625 246.324219 C 230.351562 246.59375 230.015625 246.800781 229.636719 246.945312 C 229.257812 247.09375 228.863281 247.164062 228.453125 247.164062 C 228.042969 247.164062 227.648438 247.09375 227.269531 246.945312 C 226.890625 246.800781 226.554688 246.59375 226.265625 246.324219 C 225.976562 246.054688 225.753906 245.742188 225.59375 245.390625 C 225.4375 245.039062 225.359375 244.671875 225.359375 244.289062 C 225.359375 243.90625 225.4375 243.542969 225.59375 243.1875 C 225.753906 242.835938 225.976562 242.527344 226.265625 242.257812 C 226.554688 241.988281 226.890625 241.777344 227.269531 241.632812 C 227.648438 241.488281 228.042969 241.414062 228.453125 241.414062 C 228.863281 241.414062 229.257812 241.488281 229.636719 241.632812 C 230.015625 241.777344 230.351562 241.988281 230.640625 242.257812 C 230.929688 242.527344 231.152344 242.835938 231.3125 243.1875 C 231.46875 243.542969 231.546875 243.90625 231.546875 244.289062 Z M 231.546875 244.289062 " fill-opacity="1" fill-rule="nonzero"/><path fill="#000000" d="M 246.683594 226.648438 C 246.683594 227.03125 246.605469 227.398438 246.449219 227.75 C 246.292969 228.101562 246.070312 228.414062 245.777344 228.683594 C 245.488281 228.953125 245.152344 229.160156 244.773438 229.308594 C 244.394531 229.453125 244 229.527344 243.589844 229.527344 C 243.179688 229.527344 242.785156 229.453125 242.40625 229.308594 C 242.027344 229.160156 241.695312 228.953125 241.40625 228.683594 C 241.113281 228.414062 240.890625 228.101562 240.734375 227.75 C 240.578125 227.398438 240.5 227.03125 240.5 226.648438 C 240.5 226.269531 240.578125 225.902344 240.734375 225.550781 C 240.890625 225.199219 241.113281 224.886719 241.40625 224.617188 C 241.695312 224.347656 242.027344 224.140625 242.40625 223.992188 C 242.785156 223.847656 243.179688 223.773438 243.589844 223.773438 C 244 223.773438 244.394531 223.847656 244.773438 223.992188 C 245.152344 224.140625 245.488281 224.347656 245.777344 224.617188 C 246.070312 224.886719 246.292969 225.199219 246.449219 225.550781 C 246.605469 225.902344 246.683594 226.269531 246.683594 226.648438 Z M 246.683594 226.648438 " fill-opacity="1" fill-rule="nonzero"/><path fill="#000000" d="M 224.804688 252.625 C 224.804688 253.007812 224.726562 253.375 224.570312 253.726562 C 224.410156 254.078125 224.1875 254.390625 223.898438 254.660156 C 223.609375 254.929688 223.273438 255.136719 222.894531 255.28125 C 222.515625 255.429688 222.121094 255.5 221.710938 255.5 C 221.300781 255.5 220.90625 255.429688 220.527344 255.28125 C 220.148438 255.136719 219.816406 254.929688 219.523438 254.660156 C 219.234375 254.390625 219.011719 254.078125 218.855469 253.726562 C 218.695312 253.375 218.617188 253.007812 218.617188 252.625 C 218.617188 252.246094 218.695312 251.878906 218.855469 251.527344 C 219.011719 251.171875 219.234375 250.863281 219.523438 250.59375 C 219.816406 250.324219 220.148438 250.113281 220.527344 249.96875 C 220.90625 249.824219 221.300781 249.75 221.710938 249.75 C 222.121094 249.75 222.515625 249.824219 222.894531 249.96875 C 223.273438 250.113281 223.609375 250.324219 223.898438 250.59375 C 224.1875 250.863281 224.410156 251.171875 224.570312 251.527344 C 224.726562 251.878906 224.804688 252.246094 224.804688 252.625 Z M 224.804688 252.625 " fill-opacity="1" fill-rule="nonzero"/><path fill="#000000" d="M 131.535156 325.164062 C 127.359375 325.164062 123.546875 323.667969 120.984375 320.851562 C 118.515625 318.132812 115.175781 311.851562 120.53125 300.335938 C 121.125 299.066406 120.980469 297.480469 120.164062 296.296875 C 119.65625 295.558594 118.695312 294.707031 116.96875 294.820312 C 115.046875 294.949219 113.875 296.390625 111.972656 298.921875 C 110.105469 301.410156 107.78125 304.503906 103.746094 305.585938 C 103.671875 305.605469 103.605469 305.621094 103.535156 305.632812 C 94.871094 307.34375 90.347656 301.152344 87.042969 296.628906 C 85.738281 294.839844 84.5 293.148438 83.21875 292.085938 C 77.691406 288.039062 70.09375 288.929688 62.046875 289.878906 C 55.238281 290.683594 48.195312 291.511719 41.785156 289.371094 C 36.535156 287.632812 32.398438 283.257812 31.496094 278.488281 C 30.84375 275.042969 32.011719 271.789062 34.699219 269.546875 C 36.058594 268.417969 38.074219 268.597656 39.210938 269.957031 C 40.339844 271.316406 40.160156 273.332031 38.800781 274.46875 C 37.886719 275.226562 37.566406 276.125 37.792969 277.296875 C 38.25 279.738281 40.84375 282.316406 43.808594 283.300781 C 48.863281 284.992188 54.90625 284.28125 61.296875 283.523438 C 70.253906 282.46875 79.515625 281.375 87.089844 286.984375 C 87.128906 287.015625 87.167969 287.046875 87.207031 287.078125 C 89.152344 288.660156 90.710938 290.792969 92.21875 292.851562 C 95.554688 297.414062 97.832031 300.171875 102.191406 299.375 C 104.042969 298.832031 105.351562 297.09375 106.863281 295.082031 C 108.976562 292.265625 111.605469 288.761719 116.550781 288.429688 C 120.195312 288.183594 123.445312 289.730469 125.460938 292.671875 C 127.566406 295.734375 127.910156 299.707031 126.363281 303.035156 C 123.546875 309.089844 123.335938 313.886719 125.753906 316.550781 C 127.804688 318.808594 131.824219 319.402344 135.75 318.019531 C 141.441406 316.011719 145.078125 310.878906 145.46875 304.289062 C 145.921875 296.773438 147.703125 291.992188 151.09375 289.261719 C 155.347656 285.832031 160.730469 286.660156 165.9375 287.464844 C 170.9375 288.238281 175.675781 288.96875 179.113281 286.019531 C 179.382812 285.222656 179.390625 284.019531 179.390625 282.84375 C 179.394531 280.09375 179.414062 275.503906 184.210938 273.757812 C 184.5 273.652344 184.800781 273.585938 185.105469 273.570312 C 188.878906 273.339844 192.050781 274.5 195.125 275.628906 C 200.574219 277.628906 204.882812 279.207031 212.398438 273.214844 C 213.277344 272.308594 214.101562 271.214844 214.96875 270.058594 C 217.320312 266.929688 220.242188 263.035156 225.589844 262.308594 C 225.820312 262.277344 226.054688 262.273438 226.285156 262.292969 C 229.867188 262.585938 231.09375 261.785156 231.226562 261.546875 C 231.316406 261.390625 231.363281 260.28125 229.867188 258.140625 C 228.851562 256.691406 229.203125 254.699219 230.652344 253.683594 C 232.101562 252.667969 234.09375 253.019531 235.109375 254.46875 C 238.546875 259.375 237.917969 262.761719 236.785156 264.742188 C 235.59375 266.816406 232.785156 269.160156 226.15625 268.710938 C 223.769531 269.160156 222.28125 271.003906 220.097656 273.90625 C 219.101562 275.238281 218.0625 276.613281 216.820312 277.863281 C 216.738281 277.941406 216.648438 278.023438 216.566406 278.09375 C 206.136719 286.492188 198.816406 283.808594 192.925781 281.644531 C 190.480469 280.746094 188.335938 279.960938 186.125 279.949219 C 185.90625 280.203125 185.804688 280.832031 185.796875 282.867188 C 185.796875 284.847656 185.785156 287.320312 184.535156 289.53125 C 184.386719 289.796875 184.199219 290.035156 183.980469 290.25 C 178.230469 295.84375 170.878906 294.707031 164.964844 293.792969 C 160.785156 293.148438 157.171875 292.59375 155.125 294.246094 C 153.292969 295.726562 152.191406 299.230469 151.875 304.667969 C 151.21875 315.566406 144.21875 321.828125 137.886719 324.058594 C 135.769531 324.808594 133.625 325.171875 131.570312 325.171875 Z M 131.535156 325.164062 " fill-opacity="1" fill-rule="nonzero"/></svg>