<svg xmlns="http://www.w3.org/2000/svg" xmlns:xlink="http://www.w3.org/1999/xlink" width="500" zoomAndPan="magnify" viewBox="0 0 375 374.999991" height="500" preserveAspectRatio="xMidYMid meet" version="1.0"><defs><filter x="0%" y="0%" width="100%" height="100%" id="3d22cb30f9"><feColorMatrix values="0 0 0 0 1 0 0 0 0 1 0 0 0 0 1 0 0 0 1 0" color-interpolation-filters="sRGB"/></filter><mask id="2b7f307502"><g filter="url(#3d22cb30f9)"><rect x="-37.5" width="450" fill="#000000" y="-37.499999" height="449.999989" fill-opacity="0.36"/></g></mask><clipPath id="a6abfff630"><path d="M 4 2.988281 L 367.160156 2.988281 L 367.160156 251.988281 L 4 251.988281 Z M 4 2.988281 " clip-rule="nonzero"/></clipPath><clipPath id="5560bfc141"><rect x="0" width="368" y="0" height="255"/></clipPath></defs><g mask="url(#2b7f307502)"><g transform="matrix(1, 0, 0, 1, 1, 78)"><g clip-path="url(#5560bfc141)"><g clip-path="url(#a6abfff630)"><path fill="#38cfa2" d="M 346.976562 251.898438 L 230.417969 251.898438 C 219.378906 251.898438 210.355469 242.871094 210.355469 231.835938 C 210.355469 142.265625 186.789062 2.542969 322.609375 2.542969 C 329.453125 2.542969 336.160156 3.148438 342.671875 4.289062 C 294.695312 12.722656 256.957031 50.859375 249.117188 99.039062 L 346.976562 99.039062 C 358.007812 99.035156 367.039062 108.066406 367.039062 119.097656 L 367.039062 231.832031 C 367.039062 242.871094 358.007812 251.898438 346.976562 251.898438 Z M 142.523438 251.898438 L 25.960938 251.898438 C 14.929688 251.898438 5.902344 242.871094 5.902344 231.835938 C 5.902344 142.265625 -17.664062 2.542969 118.15625 2.542969 C 125 2.542969 131.707031 3.148438 138.21875 4.289062 C 90.242188 12.722656 52.5 50.859375 44.664062 99.039062 L 142.519531 99.039062 C 153.554688 99.039062 162.582031 108.066406 162.582031 119.097656 L 162.582031 231.832031 C 162.585938 242.871094 153.558594 251.898438 142.523438 251.898438 Z M 142.523438 251.898438 " fill-opacity="1" fill-rule="evenodd"/></g></g></g></g></svg>