<?xml version="1.0" encoding="UTF-8"?>
<svg version="1.1" xmlns="http://www.w3.org/2000/svg" width="873" height="126">
<path d="M0 0 C288.09 0 576.18 0 873 0 C873 41.58 873 83.16 873 126 C584.91 126 296.82 126 0 126 C0 84.42 0 42.84 0 0 Z " fill="#FDFEFD" transform="translate(0,0)"/>
<path d="M0 0 C5.28 0 10.56 0 16 0 C16 11.22 16 22.44 16 34 C16.66 34 17.32 34 18 34 C18.23847656 33.39671875 18.47695313 32.7934375 18.72265625 32.171875 C21.1648938 28.01932431 25.59009893 26.52232201 30 25 C36.86071126 23.96224536 43.83331353 24.71265485 50 28 C56.37345532 32.77062596 60.33270629 39.24877496 62 47 C63.03156583 60.39897301 63.36732595 73.3753922 54.875 84.4375 C49.48409537 90.0233948 43.09554569 92.15726229 35.4375 92.5 C29.36507197 92.26743893 23.88935921 90.49594199 19.25 86.48828125 C18 85 18 85 18 83 C17.34 83 16.68 83 16 83 C16 85.64 16 88.28 16 91 C10.72 91 5.44 91 0 91 C0 60.97 0 30.94 0 0 Z " fill="#07ACB3" transform="translate(553,21)"/>
<path d="M0 0 C6.32870603 3.2860589 9.77675392 8.33026177 12 15 C12 21.27 12 27.54 12 34 C-1.86 34 -15.72 34 -30 34 C-28.36665179 42.4452071 -28.36665179 42.4452071 -22.9375 48.3125 C-17.29332174 49.63347789 -12.03400207 49.73963711 -6.5625 47.75 C-4.05701339 46.03893598 -2.59096087 44.56321474 -1 42 C4.15464734 42.48324819 7.81550319 45.18610761 12 48 C9.84451463 54.85836254 4.88028359 58.27788384 -0.9375 61.984375 C-8.52909823 65.72266201 -19.40313454 64.97611183 -27.375 62.875 C-34.8560515 60.23390629 -39.95292291 55.90418533 -43.9921875 49.125 C-48.73475169 39.12517474 -48.84678565 25.2790469 -45.5 14.75 C-41.83700217 6.53405063 -35.24646122 1.23641604 -27 -2 C-18.6691847 -4.77693843 -7.86043122 -3.82265182 0 0 Z " fill="#FAA609" transform="translate(388,49)"/>
<path d="M0 0 C3.02829295 2.58892009 4.72896154 5.18688463 6 9 C6.14205777 11.7783644 6.23332918 14.53630562 6.28125 17.31640625 C6.30886414 18.53480446 6.30886414 18.53480446 6.33703613 19.77781677 C6.41569855 23.25368117 6.48354011 26.72973733 6.55224609 30.20581055 C6.60392894 32.74277444 6.6611866 35.2795701 6.71875 37.81640625 C6.73232544 38.60600235 6.74590088 39.39559845 6.7598877 40.2091217 C6.7651288 44.2356429 6.7651288 44.2356429 8 48 C11.02934491 48.65772428 11.02934491 48.65772428 14 49 C15.28317892 52.84953676 15.06643637 55.94738135 15 60 C10.42713365 62.64467616 6.16076495 62.53724051 1 62 C-3.11275909 60.45771534 -4.55780938 59.66328593 -7 56 C-7 55.01 -7 54.02 -7 53 C-8.051875 54.11375 -8.051875 54.11375 -9.125 55.25 C-15.88080676 61.71207603 -21.06743337 63.37853542 -30.17578125 63.28125 C-35.72764603 62.7283672 -39.52632037 60.51246067 -43.375 56.5625 C-47.38256863 50.24287255 -47.8080576 44.35232657 -47 37 C-44.24037414 31.27633154 -40.2134123 27.64866686 -34.25 25.5 C-28.80850404 23.81572744 -23.23393284 22.59546423 -17.67675781 21.35742188 C-14.03844666 20.8020715 -14.03844666 20.8020715 -11 19 C-10.66661404 15.54187831 -10.66661404 15.54187831 -11 12 C-15.30372612 9.13084926 -18.94805422 9.28845834 -24 10 C-28.28341566 11.56857475 -32.41275573 13.40528634 -35.66015625 16.66796875 C-37 18 -37 18 -39 18 C-40.28006797 16.21601386 -41.47660351 14.37146094 -42.625 12.5 C-43.25664062 11.4790625 -43.88828125 10.458125 -44.5390625 9.40625 C-45.02117187 8.6121875 -45.50328125 7.818125 -46 7 C-33.17760054 -4.27104743 -15.74161196 -8.93664429 0 0 Z " fill="#03ACB3" transform="translate(527,50)"/>
<path d="M0 0 C18.15 0 36.3 0 55 0 C55 4.62 55 9.24 55 14 C42.46 14 29.92 14 17 14 C17 21.59 17 29.18 17 37 C28.22 37 39.44 37 51 37 C51 41.62 51 46.24 51 51 C39.78 51 28.56 51 17 51 C17 62.55 17 74.1 17 86 C11.39 86 5.78 86 0 86 C0 57.62 0 29.24 0 0 Z " fill="#FBA607" transform="translate(28,26)"/>
<path d="M0 0 C5.28 0 10.56 0 16 0 C16.01458252 1.33699951 16.02916504 2.67399902 16.04418945 4.05151367 C16.10222124 9.01841799 16.17945435 13.98487129 16.26245117 18.95141602 C16.29567746 21.09977898 16.32371653 23.24822875 16.34643555 25.39672852 C16.38002331 28.48751776 16.43234221 31.57751312 16.48828125 34.66796875 C16.49467117 35.62648239 16.5010611 36.58499603 16.50764465 37.57255554 C16.61553418 42.48110363 16.72437657 46.05870965 20 50 C23.47446393 51.73723196 27.20122657 51.45968351 31 51 C34.32158982 49.36940136 36.32484045 48.21415368 38.13427734 44.96020508 C39.36666085 40.7462598 39.35751876 36.69497094 39.4140625 32.32421875 C39.43342865 31.3990596 39.4527948 30.47390045 39.4727478 29.52070618 C39.53235254 26.57639683 39.57885248 23.63204798 39.625 20.6875 C39.66319736 18.68683225 39.70225012 16.68618064 39.7421875 14.68554688 C39.83803841 9.7904962 39.92214 4.89536855 40 0 C45.61 0 51.22 0 57 0 C57 21.45 57 42.9 57 65 C51.72 65 46.44 65 41 65 C40.505 60.545 40.505 60.545 40 56 C39.175 57.093125 38.35 58.18625 37.5 59.3125 C33.29320124 64.14542695 29.40445345 65.63294302 23.1015625 66.3125 C16.54628327 66.57669261 11.34822379 65.97887181 6 62 C1.56330245 57.44654726 -0.25783434 52.98495608 -0.22705078 46.65893555 C-0.22689972 45.6182341 -0.22674866 44.57753265 -0.22659302 43.5052948 C-0.21110916 41.83784966 -0.21110916 41.83784966 -0.1953125 40.13671875 C-0.1924826 38.98959915 -0.18965271 37.84247955 -0.18673706 36.66059875 C-0.17555697 33.00279232 -0.15045595 29.34523222 -0.125 25.6875 C-0.11496741 23.20508167 -0.10584205 20.72265949 -0.09765625 18.24023438 C-0.07562467 12.16006158 -0.04110935 6.08007253 0 0 Z " fill="#F9A70F" transform="translate(94,47)"/>
<path d="M0 0 C5.28 0 10.56 0 16 0 C16.01458252 1.30146973 16.02916504 2.60293945 16.04418945 3.94384766 C16.10228934 8.78591992 16.17952191 13.62753285 16.26245117 18.46923828 C16.29564549 20.56226124 16.32369445 22.65537253 16.34643555 24.74853516 C16.38008231 27.76242612 16.43240393 30.77551163 16.48828125 33.7890625 C16.49467117 34.72054108 16.5010611 35.65201965 16.50764465 36.61172485 C16.62403831 41.78900713 17.06918572 45.53977229 20 50 C23.46010964 51.73005482 27.21025327 51.34212991 31 51 C35.6368752 49.35133326 37.10699755 46.52421881 39.1463623 42.30102539 C40.59686292 38.39112453 40.60328427 34.60145967 40.609375 30.46875 C40.62591125 29.59222778 40.64244751 28.71570557 40.65948486 27.81262207 C40.70766503 25.04167465 40.72926847 22.27127477 40.75 19.5 C40.77818484 17.60934789 40.80811576 15.71872096 40.83984375 13.828125 C40.91341555 9.21879515 40.96317268 4.60976392 41 0 C46.28 0 51.56 0 57 0 C57 21.45 57 42.9 57 65 C51.72 65 46.44 65 41 65 C40.505 61.04 40.505 61.04 40 57 C39.48050781 57.48210937 38.96101563 57.96421875 38.42578125 58.4609375 C37.72839844 59.09257813 37.03101563 59.72421875 36.3125 60.375 C35.62800781 61.00148437 34.94351563 61.62796875 34.23828125 62.2734375 C28.12930649 66.98577056 21.41023874 66.69891006 14 66 C8.82408843 64.69570331 5.95472104 62.38644058 3.0625 57.9375 C0.77156224 53.89147094 -0.12500472 50.62691002 -0.11352539 45.9777832 C-0.11344986 44.95695145 -0.11337433 43.93611969 -0.11329651 42.88435364 C-0.10813522 41.78427475 -0.10297394 40.68419586 -0.09765625 39.55078125 C-0.0962413 38.4230278 -0.09482635 37.29527435 -0.09336853 36.13334656 C-0.0877647 32.52637088 -0.07521153 28.91945696 -0.0625 25.3125 C-0.05748549 22.86914152 -0.0529225 20.42578207 -0.04882812 17.98242188 C-0.03779403 11.98825741 -0.02052679 5.99413918 0 0 Z " fill="#FCA504" transform="translate(219,47)"/>
<path d="M0 0 C5.94 0 11.88 0 18 0 C18 23.76 18 47.52 18 72 C30.54 72 43.08 72 56 72 C56 76.62 56 81.24 56 86 C37.52 86 19.04 86 0 86 C0 57.62 0 29.24 0 0 Z " fill="#0CADB5" transform="translate(416,26)"/>
<path d="M0 0 C2.11512074 1.89759191 3.42127772 3.60469724 5 6 C2.36 8.97 -0.28 11.94 -3 15 C-5.38339161 13.8083042 -7.76082201 12.60437255 -10.125 11.375 C-14.57576921 9.47716118 -19.23870863 9.35905693 -24 10 C-24.99 10.66 -25.98 11.32 -27 12 C-27.2502157 15.08365871 -27.2502157 15.08365871 -27 18 C-22.48880477 20.48748148 -18.12071194 21.79984619 -13.125 22.875 C-5.64131888 24.63842554 0.94774194 26.54619201 5.5 33.1875 C7.99286995 38.3067865 7.97414843 43.85864495 6.3046875 49.2421875 C3.55265614 55.37066069 -0.69589256 59.27831352 -6.9375 61.8125 C-17.66785979 64.95573671 -28.94912302 63.62785633 -39 59 C-43.52622734 56.19373905 -43.92491426 55.18771436 -46 50 C-43.03 47.03 -40.06 44.06 -37 41 C-35.783125 41.94875 -34.56625 42.8975 -33.3125 43.875 C-27.1138704 48.46978837 -22.63813697 49.48342639 -15 49 C-12.10913026 48.57549372 -12.10913026 48.57549372 -10 48 C-9.66619186 44.62563814 -9.66619186 44.62563814 -10 41 C-13.82759803 36.86537539 -20.01124164 36.25624897 -25.26953125 34.98242188 C-32.549916 33.1108421 -37.55793489 30.25179534 -42 24 C-44.20840635 19.58318729 -43.42161434 13.80757466 -43 9 C-40.25555699 3.20617587 -36.23473277 0.15875032 -30.625 -2.75 C-20.90768636 -6.07482754 -8.9086911 -5.09509196 0 0 Z " fill="#06ACB3" transform="translate(670,50)"/>
<path d="M0 0 C0 4.95 0 9.9 0 15 C5.94 15 11.88 15 18 15 C18 19.29 18 23.58 18 28 C12.06 28 6.12 28 0 28 C0.07397004 32.93048598 0.15676364 37.85914638 0.26245117 42.78881836 C0.29570863 44.46580559 0.32373808 46.14290497 0.34643555 47.82006836 C0.37996737 50.23079225 0.43227978 52.64048762 0.48828125 55.05078125 C0.49467117 55.80087967 0.5010611 56.55097809 0.50764465 57.32380676 C0.61902074 61.38143094 0.61902074 61.38143094 2.32104492 64.98120117 C6.3285248 67.41296117 11.66598698 66.05066982 16 65 C19.88639693 71.72196551 19.88639693 71.72196551 20.25 75.8125 C18.60081832 78.69856793 16.62502123 79.51794665 13.51171875 80.49609375 C5.60262913 82.08283179 -1.80236605 81.66195411 -9 78 C-13.91786086 74.28428291 -15.83282925 69.92498314 -17 64 C-17.48591351 57.82910072 -17.28340275 51.62051334 -17.1875 45.4375 C-17.17242858 43.7441525 -17.15874451 42.05079206 -17.14648438 40.35742188 C-17.11366704 36.23795778 -17.06202063 32.1191237 -17 28 C-20.3 28 -23.6 28 -27 28 C-27 23.71 -27 19.42 -27 15 C-23.7 15 -20.4 15 -17 15 C-17 10.71 -17 6.42 -17 2 C-10.93860586 0.67147526 -6.31514414 0 0 0 Z " fill="#FAA70D" transform="translate(189,32)"/>
<path d="M0 0 C5.28 0 10.56 0 16 0 C16 3.3 16 6.6 16 10 C16.66 10 17.32 10 18 10 C18.226875 9.2575 18.45375 8.515 18.6875 7.75 C20.27608513 4.42153592 21.94998866 3.03334089 25 1 C27.89517162 0.07306356 30.53170037 -0.13525651 33.5625 -0.125 C34.70912109 -0.12886719 34.70912109 -0.12886719 35.87890625 -0.1328125 C38 0 38 0 41 1 C40.34 5.62 39.68 10.24 39 15 C34 16 34 16 30.0625 15.8125 C25.70595295 15.76308737 23.30348328 17.08978854 20 20 C17.49014125 24.5583385 17.65490589 29.16832325 17.5859375 34.23828125 C17.56657135 35.11904831 17.5472052 35.99981537 17.5272522 36.90727234 C17.46767149 39.70891766 17.42115735 42.51060456 17.375 45.3125 C17.33680041 47.21681438 17.29774753 49.12111185 17.2578125 51.02539062 C17.16198767 55.68345572 17.0778774 60.34160168 17 65 C11.39 65 5.78 65 0 65 C0 43.55 0 22.1 0 0 Z " fill="#FCA504" transform="translate(295,47)"/>
<path d="M0 0 C4.29 0 8.58 0 13 0 C13.03738281 2.13082031 13.07476563 4.26164062 13.11328125 6.45703125 C13.15950257 8.5223208 13.21073366 10.58742953 13.26245117 12.65258789 C13.29569001 14.08704628 13.32372535 15.52163513 13.34643555 16.95629883 C13.38000271 19.01960807 13.43231413 21.08172303 13.48828125 23.14453125 C13.51446533 24.38565674 13.54064941 25.62678223 13.56762695 26.90551758 C13.73740736 29.97179036 13.73740736 29.97179036 15.41870117 31.85424805 C16.53038824 32.6597363 17.6641819 33.43515366 18.8125 34.1875 C20 36 20 36 19.3125 39.875 C18.66507158 42.12118023 17.92976178 44.14867945 16.9296875 46.265625 C15.72055471 49.8218979 15.74666296 53.16733503 15.8125 56.875 C15.81314453 57.55691406 15.81378906 58.23882812 15.81445312 58.94140625 C15.84362885 62.34524073 16.07403921 65.50064606 16.57421875 68.8828125 C17 72 17 72 16 74 C17.1446875 74.2165625 17.1446875 74.2165625 18.3125 74.4375 C21 75 21 75 24 76 C23.75 78.375 23.75 78.375 23 81 C20.9375 82.3125 20.9375 82.3125 19 83 C19 82.01 19 81.02 19 80 C17.35 80 15.7 80 14 80 C14 82.64 14 85.28 14 88 C9.38 88 4.76 88 0 88 C0 58.96 0 29.92 0 0 Z " fill="#02ACB3" transform="translate(554,23)"/>
<path d="M0 0 C4.49689138 2.26270644 6.18306076 4.7283612 7.97265625 9.3046875 C8.40823494 12.27499364 8.43768463 15.18159652 8.41015625 18.1796875 C8.44012695 19.32630859 8.44012695 19.32630859 8.47070312 20.49609375 C8.46589852 26.15592385 7.21355695 30.61257409 3.97265625 35.3046875 C-0.08254246 38.3225098 -3.9156898 38.84753152 -8.8515625 38.6484375 C-13.73153584 37.87745428 -16.28651018 35.16249479 -19.40234375 31.5546875 C-22.71202076 25.14392656 -22.10333966 15.44545828 -20.33203125 8.62890625 C-16.52552779 0.13624518 -8.7188969 -2.99029605 0 0 Z " fill="#F7FDFD" transform="translate(590.02734375,60.6953125)"/>
<path d="M0 0 C4.95 0 9.9 0 15 0 C15 20.79 15 41.58 15 63 C10.71 63 6.42 63 2 63 C1.67 59.37 1.34 55.74 1 52 C-0.485 52.495 -0.485 52.495 -2 53 C-2.66 52.34 -3.32 51.68 -4 51 C-3.2733313 50.08891479 -3.2733313 50.08891479 -2.53198242 49.15942383 C-0.32698194 44.61202761 -0.52083094 40.44322409 -0.48828125 35.44921875 C-0.46135445 33.92830376 -0.46135445 33.92830376 -0.43388367 32.37666321 C-0.37982154 29.14698408 -0.34589756 25.91745243 -0.3125 22.6875 C-0.27932337 20.49412013 -0.24483339 18.3007597 -0.20898438 16.10742188 C-0.12409713 10.7383877 -0.05726597 5.36939696 0 0 Z " fill="#FCA504" transform="translate(135,48)"/>
<path d="M0 0 C1.98 0 3.96 0 6 0 C6.33 0.66 6.66 1.32 7 2 C7.99 1.34 8.98 0.68 10 0 C13.66101355 -0.27118619 16.28122422 -0.30088289 19.6875 1.125 C20.450625 1.41375 21.21375 1.7025 22 2 C23.98330173 1.13350534 23.98330173 1.13350534 26 0 C29.53700479 -0.45153253 31.46502307 -0.26435994 34.671875 1.3203125 C38.34288729 5.54567228 37.5349858 9.85557517 37.3125 15.25 C37.28994141 16.28125 37.26738281 17.3125 37.24414062 18.375 C37.18527163 20.91814065 37.10310065 23.45833113 37 26 C34.69 26 32.38 26 30 26 C30 19.4 30 12.8 30 6 C28.35 6 26.7 6 25 6 C23.0243438 8.96348429 22.73623141 9.68020373 22.5859375 13.01171875 C22.54726563 13.76904297 22.50859375 14.52636719 22.46875 15.30664062 C22.42234375 16.48516602 22.42234375 16.48516602 22.375 17.6875 C22.33632813 18.48478516 22.29765625 19.28207031 22.2578125 20.10351562 C22.16367506 22.06863475 22.08075368 24.0342854 22 26 C19.69 26 17.38 26 15 26 C14.67 19.4 14.34 12.8 14 6 C12.02 6.33 10.04 6.66 8 7 C7.67 13.27 7.34 19.54 7 26 C4.69 26 2.38 26 0 26 C0 17.42 0 8.84 0 0 Z " fill="#858585" transform="translate(813,84)"/>
<path d="M0 0 C5.91492147 4.76479785 5.91492147 4.76479785 6.6015625 8.9609375 C6.81458992 14.79014222 5.56071718 18.11666329 1.75 22.5625 C-1.36344438 25.15703698 -4.84748256 25.0853305 -8.75390625 25.03515625 C-12.94364861 24.5678073 -16.11637386 21.97285137 -18.75 18.8125 C-20.41036758 13.83139727 -20.54858847 8.85333721 -18.625 3.9375 C-13.687493 -1.65834127 -6.80589283 -2.93890827 0 0 Z " fill="#858585" transform="translate(801.75,85.1875)"/>
<path d="M0 0 C1.98 0 3.96 0 6 0 C6 7.26 6 14.52 6 22 C7.65 22 9.3 22 11 22 C11 23.98 11 25.96 11 28 C9.35 28 7.7 28 6 28 C6 30.31 6 32.62 6 35 C4.02 35 2.04 35 0 35 C0 32.69 0 30.38 0 28 C-4.95 28 -9.9 28 -15 28 C-15 20.12675796 -15 20.12675796 -12.734375 17.24609375 C-12.01701172 16.30540039 -12.01701172 16.30540039 -11.28515625 15.34570312 C-10.77855469 14.71599609 -10.27195312 14.08628906 -9.75 13.4375 C-8.76452749 12.16621459 -7.78013668 10.89408987 -6.796875 9.62109375 C-6.31541016 9.0163623 -5.83394531 8.41163086 -5.33789062 7.78857422 C-3.7863992 5.79015146 -3.7863992 5.79015146 -2.015625 2.53515625 C-1.35046875 1.69855469 -0.6853125 0.86195312 0 0 Z " fill="#838383" transform="translate(728,75)"/>
<path d="M0 0 C4.0226217 1.56435288 5.59149109 2.38723663 8 6 C8.95398253 11.96239079 7.09349016 15.2289104 3.73046875 19.91796875 C1.40271718 22.71862696 -1.11526965 24.78613717 -4 27 C-4.33 27.66 -4.66 28.32 -5 29 C-0.71 29 3.58 29 8 29 C8 30.98 8 32.96 8 35 C0.08 35 -7.84 35 -16 35 C-14.30188799 26.50943993 -8.61255878 21.22853485 -2 16 C0.14809171 12.77786243 0.29386153 11.72224599 0 8 C-1.06645115 6.70366379 -1.06645115 6.70366379 -3.5625 6.9375 C-4.366875 6.958125 -5.17125 6.97875 -6 7 C-6.66 8.32 -7.32 9.64 -8 11 C-10.31 11 -12.62 11 -15 11 C-14.80839429 6.88047733 -14.22298348 5.25017659 -11.4375 2.125 C-7.76856095 -0.60250864 -4.41878645 -0.8186198 0 0 Z " fill="#858585" transform="translate(702,75)"/>
<path d="M0 0 C2.64406654 1.39189682 3.94179382 2.73069575 6 5 C6 5.99 6 6.98 6 8 C4.02 8.33 2.04 8.66 0 9 C-0.33 8.01 -0.66 7.02 -1 6 C-3.91652174 5.83318891 -3.91652174 5.83318891 -7 6 C-9.19666303 7.77966683 -9.19666303 7.77966683 -9.23046875 10.09375 C-9.21628906 10.8878125 -9.20210937 11.681875 -9.1875 12.5 C-9.18105469 13.2940625 -9.17460938 14.088125 -9.16796875 14.90625 C-9.12675836 17.05836391 -9.12675836 17.05836391 -8 19 C-5.08365871 19.2502157 -5.08365871 19.2502157 -2 19 C-1.34 18.01 -0.68 17.02 0 16 C2.31 16.33 4.62 16.66 7 17 C5.82191948 20.3529984 4.80593388 22.7552529 2 25 C-2.80864914 26.60288305 -7.17071411 26.77236515 -11.8125 24.8125 C-15.21361661 21.99443195 -16.73603844 19.89994306 -17.35546875 15.44140625 C-17.58927461 10.78424632 -17.69341181 7.12557878 -14.6875 3.375 C-10.31449357 -0.48951731 -5.63473599 -0.87204247 0 0 Z " fill="#858585" transform="translate(772,84)"/>
<path d="M0 0 C0.62247839 10.68587896 0.62247839 10.68587896 -1.6875 15.5625 C-5.20829733 19.27361069 -7.39430733 20.85914977 -12.5625 21.3125 C-17.48186528 20.86528497 -17.48186528 20.86528497 -20 19 C-22.29551985 15.78627221 -22.48376933 12.87015465 -22 9 C-18.76508003 4.69788994 -14.8352549 3.66087751 -9.875 2.25 C-9.14667969 2.02957031 -8.41835938 1.80914062 -7.66796875 1.58203125 C-2.3519507 0 -2.3519507 0 0 0 Z " fill="#EDFBFC" transform="translate(518,80)"/>
<path d="M0 0 C2.4375 2.5625 2.4375 2.5625 3.4375 11.5625 C-5.1425 11.5625 -13.7225 11.5625 -22.5625 11.5625 C-21.50709095 6.28545476 -20.54040543 3.30065932 -16.5 -0.25 C-10.86130378 -2.52947294 -5.59648471 -2.25823067 0 0 Z " fill="#FDFDF3" transform="translate(380.5625,60.4375)"/>
<path d="M0 0 C0.804375 -0.00128906 1.60875 -0.00257812 2.4375 -0.00390625 C3.283125 -0.00003906 4.12875 0.00382812 5 0.0078125 C6.2684375 0.00201172 6.2684375 0.00201172 7.5625 -0.00390625 C8.366875 -0.00261719 9.17125 -0.00132813 10 0 C10.7425 0.00112793 11.485 0.00225586 12.25 0.00341797 C14 0.1328125 14 0.1328125 15 1.1328125 C15.11181679 2.55382986 15.15669848 3.98020771 15.17358398 5.40551758 C15.18707382 6.31348587 15.20056366 7.22145416 15.21446228 8.15693665 C15.22490067 9.14542099 15.23533905 10.13390533 15.24609375 11.15234375 C15.27903679 13.22721769 15.31224836 15.30208738 15.34570312 17.37695312 C15.39311545 20.66216043 15.43752437 23.94735106 15.47680664 27.23266602 C15.51651123 30.39357927 15.5680677 33.55412987 15.62109375 36.71484375 C15.6295079 37.6972554 15.63792206 38.67966705 15.64659119 39.69184875 C15.66323318 40.60927353 15.67987518 41.5266983 15.69702148 42.47192383 C15.70732895 43.27721024 15.71763641 44.08249664 15.72825623 44.91218567 C16.03393047 47.41008442 16.6227708 49.02929063 18 51.1328125 C20.64787088 51.83654267 20.64787088 51.83654267 23.625 51.8828125 C25.12933594 51.96789062 25.12933594 51.96789062 26.6640625 52.0546875 C27.43492187 52.08046875 28.20578125 52.10625 29 52.1328125 C29 51.4728125 29 50.8128125 29 50.1328125 C30.32 50.4628125 31.64 50.7928125 33 51.1328125 C29.13443238 54.12551001 25.91206064 54.70919442 21.15625 54.55859375 C17.63861402 53.86398809 16.0786369 51.92598084 14 49.1328125 C13.06487566 46.32743947 12.87817093 44.65115886 12.88647461 41.75317383 C12.88655014 40.87248734 12.88662567 39.99180084 12.88670349 39.08442688 C12.89186478 38.13746445 12.89702606 37.19050201 12.90234375 36.21484375 C12.9037587 35.24246262 12.90517365 34.27008148 12.90663147 33.26823425 C12.91223183 30.16056246 12.92478438 27.05296254 12.9375 23.9453125 C12.94251495 21.83919375 12.94707787 19.73307387 12.95117188 17.62695312 C12.96220138 12.46221186 12.97946625 7.29752437 13 2.1328125 C7.72 2.1328125 2.44 2.1328125 -3 2.1328125 C-2.88168204 9.30455475 -2.75742834 16.4761604 -2.62768555 23.64770508 C-2.58438791 26.0871298 -2.54270917 28.52658382 -2.50268555 30.96606445 C-2.44485792 34.47355984 -2.38119915 37.98090847 -2.31640625 41.48828125 C-2.29969376 42.57803757 -2.28298126 43.66779388 -2.26576233 44.79057312 C-2.24581711 45.81125381 -2.22587189 46.83193451 -2.20532227 47.88354492 C-2.18977798 48.77845139 -2.1742337 49.67335785 -2.15821838 50.59538269 C-1.9967245 53.18534341 -1.56736995 55.6033274 -1 58.1328125 C-1.66 58.1328125 -2.32 58.1328125 -3 58.1328125 C-3 56.8128125 -3 55.4928125 -3 54.1328125 C-3.66 54.1328125 -4.32 54.1328125 -5 54.1328125 C-5.02526648 46.60311598 -5.04283141 39.0734303 -5.05493164 31.54370117 C-5.0599737 28.97989493 -5.06680714 26.41609159 -5.07543945 23.85229492 C-5.08751064 20.17626229 -5.09322942 16.50026752 -5.09765625 12.82421875 C-5.10281754 11.67006973 -5.10797882 10.51592072 -5.11329651 9.32679749 C-5.11337204 8.26577316 -5.11344757 7.20474884 -5.11352539 6.11157227 C-5.115746 5.17225357 -5.11796661 4.23293488 -5.12025452 3.26515198 C-4.90977161 -0.46710701 -3.30788511 0.005025 0 0 Z " fill="#FEF5CA" transform="translate(222,44.8671875)"/>
<path d="M0 0 C5.28 0 10.56 0 16 0 C16 3.3 16 6.6 16 10 C16.66 10.33 17.32 10.66 18 11 C16.68 11 15.36 11 14 11 C14 8.03 14 5.06 14 2 C10.04 2 6.08 2 2 2 C2 22.46 2 42.92 2 64 C6.29 64 10.58 64 15 64 C15 52.78 15 41.56 15 30 C15.66 29.67 16.32 29.34 17 29 C17 40.88 17 52.76 17 65 C11.39 65 5.78 65 0 65 C0 43.55 0 22.1 0 0 Z " fill="#F0AE33" transform="translate(295,47)"/>
<path d="M0 0 C0.79792969 0.00386719 1.59585938 0.00773437 2.41796875 0.01171875 C3.21589844 0.00785156 4.01382813 0.00398438 4.8359375 0 C10.79136108 0.01011108 10.79136108 0.01011108 11.91796875 1.13671875 C12.07793041 3.72824982 12.17735572 6.29623895 12.234375 8.890625 C12.2551561 9.66607162 12.27593719 10.44151825 12.29734802 11.24046326 C12.36292677 13.72662183 12.42176674 16.2128892 12.48046875 18.69921875 C12.52364608 20.38087079 12.56726011 22.06251169 12.61132812 23.74414062 C12.71861654 27.87488746 12.81986007 32.00574411 12.91796875 36.13671875 C12.25796875 36.13671875 11.59796875 36.13671875 10.91796875 36.13671875 C10.91796875 24.91671875 10.91796875 13.69671875 10.91796875 2.13671875 C5.63796875 2.13671875 0.35796875 2.13671875 -5.08203125 2.13671875 C-5.08203125 32.16671875 -5.08203125 62.19671875 -5.08203125 93.13671875 C-5.74203125 93.13671875 -6.40203125 93.13671875 -7.08203125 93.13671875 C-7.10515315 81.15868316 -7.12294555 69.18065284 -7.13384342 57.20259953 C-7.13907259 51.64132464 -7.14617083 46.08006496 -7.1574707 40.51879883 C-7.1682984 35.15664456 -7.17430783 29.79450497 -7.17690849 24.43234062 C-7.17876296 22.38171597 -7.18238397 20.33109215 -7.18776131 18.28047371 C-7.19497018 15.41881672 -7.19602226 12.55722118 -7.19555664 9.69555664 C-7.19915192 8.83888397 -7.20274719 7.9822113 -7.20645142 7.09957886 C-7.19409255 0.12768283 -6.995243 0.01187647 0 0 Z " fill="#BEF4F6" transform="translate(558.08203125,18.86328125)"/>
<path d="M0 0 C0 0.33 0 0.66 0 1 C-4.29 1 -8.58 1 -13 1 C-13 1.66 -13 2.32 -13 3 C-14.60875 3.2165625 -14.60875 3.2165625 -16.25 3.4375 C-18.91662949 3.83749442 -21.41399729 4.27591924 -24 5 C-24 5.99 -24 6.98 -24 8 C-23.0409375 8.1546875 -23.0409375 8.1546875 -22.0625 8.3125 C-21.0415625 8.6528125 -21.0415625 8.6528125 -20 9 C-19.67 9.99 -19.34 10.98 -19 12 C-19.66 12 -20.32 12 -21 12 C-20.67 12.33 -20.34 12.66 -20 13 C-18.09133005 12.49771843 -16.18303472 11.99393702 -14.27734375 11.48046875 C-10.80206104 10.74726159 -7.54186442 10.87350484 -4 11 C-4 11.66 -4 12.32 -4 13 C-5.16015625 13.12955078 -5.16015625 13.12955078 -6.34375 13.26171875 C-12.51012671 14.09356907 -17.19643407 15.12375082 -22.28125 18.78125 C-24 20 -24 20 -28 22 C-30.31 18.37 -32.62 14.74 -35 11 C-23.70772518 1.37379851 -14.4712326 -0.70305583 0 0 Z " fill="#0BACB2" transform="translate(516,46)"/>
<path d="M0 0 C5.28 0 10.56 0 16 0 C16 11.22 16 22.44 16 34 C14 32 14 32 13.77294922 29.01904297 C13.78342285 27.77268066 13.79389648 26.52631836 13.8046875 25.2421875 C13.8075174 24.57913605 13.81034729 23.91608459 13.81326294 23.23294067 C13.82446565 21.11344417 13.84956949 18.99436896 13.875 16.875 C13.88502972 15.43880818 13.89415559 14.00260975 13.90234375 12.56640625 C13.92270461 9.04397762 13.9618506 5.52246083 14 2 C9.71 2 5.42 2 1 2 C1 31.04 1 60.08 1 90 C5.62 90 10.24 90 15 90 C15 87.36 15 84.72 15 82 C16.65 82 18.3 82 20 82 C20.33 83.65 20.66 85.3 21 87 C19.515 86.01 19.515 86.01 18 85 C18 84.34 18 83.68 18 83 C17.34 83 16.68 83 16 83 C16 85.64 16 88.28 16 91 C10.72 91 5.44 91 0 91 C0 60.97 0 30.94 0 0 Z " fill="#1FA3A8" transform="translate(553,21)"/>
<path d="M0 0 C0.804375 -0.00128906 1.60875 -0.00257812 2.4375 -0.00390625 C3.283125 -0.00003906 4.12875 0.00382812 5 0.0078125 C6.2684375 0.00201172 6.2684375 0.00201172 7.5625 -0.00390625 C8.366875 -0.00261719 9.17125 -0.00132813 10 0 C10.7425 0.00112793 11.485 0.00225586 12.25 0.00341797 C14 0.1328125 14 0.1328125 15 1.1328125 C15.09413687 3.18837911 15.11742998 5.24721431 15.11352539 7.30493164 C15.11367142 7.94881332 15.11381744 8.59269501 15.1139679 9.25608826 C15.11326885 11.39341553 15.10547691 13.53065663 15.09765625 15.66796875 C15.09579204 17.14627535 15.09436815 18.62458257 15.09336853 20.10289001 C15.08954359 24.00080052 15.07971352 27.89867399 15.06866455 31.79656982 C15.05844992 35.77127583 15.0538708 39.74598779 15.04882812 43.72070312 C15.03809122 51.5247565 15.02101509 59.32877932 15 67.1328125 C14.34 67.1328125 13.68 67.1328125 13 67.1328125 C13 45.6828125 13 24.2328125 13 2.1328125 C7.39 2.1328125 1.78 2.1328125 -4 2.1328125 C-3.98952637 3.38940674 -3.97905273 4.64600098 -3.96826172 5.94067383 C-3.93209183 10.59787147 -3.90911047 15.25505666 -3.89013672 19.91235352 C-3.88007227 21.92897631 -3.86641953 23.94558449 -3.84912109 25.9621582 C-3.82489231 28.85892339 -3.81352141 31.75549581 -3.8046875 34.65234375 C-3.79436493 35.55555862 -3.78404236 36.4587735 -3.77340698 37.38935852 C-3.77325592 38.23000351 -3.77310486 39.0706485 -3.77294922 39.93676758 C-3.768508 40.67623123 -3.76406677 41.41569489 -3.75949097 42.17756653 C-4 44.1328125 -4 44.1328125 -6 47.1328125 C-5.88270088 40.59987633 -5.75786513 34.06711596 -5.62768555 27.53442383 C-5.58426412 25.31017354 -5.54259455 23.08588835 -5.50268555 20.86157227 C-5.44515694 17.67193055 -5.38141316 14.4824657 -5.31640625 11.29296875 C-5.29969376 10.29193619 -5.28298126 9.29090363 -5.26576233 8.25953674 C-5.24581711 7.33865768 -5.22587189 6.41777863 -5.20532227 5.46899414 C-5.18977798 4.65402969 -5.1742337 3.83906525 -5.15821838 2.99940491 C-4.86137438 -0.50263289 -3.07297257 0.00466814 0 0 Z " fill="#FFF8CE" transform="translate(138,44.8671875)"/>
<path d="M0 0 C0.33 0 0.66 0 1 0 C1 7.59 1 15.18 1 23 C12.22 23 23.44 23 35 23 C35 27.62 35 32.24 35 37 C23.78 37 12.56 37 1 37 C1 36.34 1 35.68 1 35 C11.56 35 22.12 35 33 35 C33 31.7 33 28.4 33 25 C22.11 25 11.22 25 0 25 C0 16.75 0 8.5 0 0 Z " fill="#EBA92C" transform="translate(44,40)"/>
<path d="M0 0 C0.75410156 0.00451172 1.50820313 0.00902344 2.28515625 0.01367188 C4.14847127 0.02546501 6.01174555 0.04340058 7.875 0.0625 C8.205 0.7225 8.535 1.3825 8.875 2.0625 C3.595 2.0625 -1.685 2.0625 -7.125 2.0625 C-7.125 23.5125 -7.125 44.9625 -7.125 67.0625 C-7.785 67.0625 -8.445 67.0625 -9.125 67.0625 C-9.455 45.2825 -9.785 23.5025 -10.125 1.0625 C-6.93675432 -0.53162284 -3.49603338 -0.03924735 0 0 Z " fill="#FFF8D3" transform="translate(302.125,44.9375)"/>
<path d="M0 0 C5.28 0 10.56 0 16 0 C16 21.45 16 42.9 16 65 C10.72 65 5.44 65 0 65 C-0.22786458 62.98177083 -0.45572917 60.96354167 -0.68359375 58.9453125 C-0.91292961 56.92595684 -0.91292961 56.92595684 -2 55 C-1.01 55 -0.02 55 1 55 C1 57.97 1 60.94 1 64 C5.62 64 10.24 64 15 64 C15 43.21 15 22.42 15 1 C10.38 1 5.76 1 1 1 C1.0314209 2.87703613 1.0314209 2.87703613 1.06347656 4.79199219 C1.13589394 9.43608145 1.18180618 14.08012083 1.21972656 18.72460938 C1.23983805 20.73446038 1.26713115 22.74425291 1.30175781 24.75390625 C1.35029634 27.64337596 1.37297322 30.53207191 1.390625 33.421875 C1.41127014 34.31992859 1.43191528 35.21798218 1.45318604 36.14324951 C1.45544041 42.41537533 1.45544041 42.41537533 -1.02441406 45.59863281 C-1.67635742 46.06108398 -2.32830078 46.52353516 -3 47 C-2.67854004 46.03956787 -2.35708008 45.07913574 -2.02587891 44.08959961 C-0.74527963 39.58689966 -0.65007098 35.2236321 -0.5859375 30.56640625 C-0.56657135 29.68846909 -0.5472052 28.81053192 -0.5272522 27.9059906 C-0.46787262 25.1249233 -0.42123883 22.34381367 -0.375 19.5625 C-0.33678184 17.66730049 -0.29772792 15.77211764 -0.2578125 13.87695312 C-0.16220571 9.25143871 -0.07802245 4.62584308 0 0 Z " fill="#EFAD33" transform="translate(260,47)"/>
<path d="M0 0 C1.875 1.0625 1.875 1.0625 3 3 C3.39650104 6.63459282 3.41637627 9.09785142 1.875 12.4375 C0 14 0 14 -3 14.5 C-6 14 -6 14 -7.875 12.4375 C-9.41637627 9.09785142 -9.39650104 6.63459282 -9 3 C-6.84332735 -0.71426957 -4.0099826 -0.50124783 0 0 Z " fill="#FAFAFA" transform="translate(798,90)"/>
<path d="M0 0 C11.22 0 22.44 0 34 0 C33.67 0.66 33.34 1.32 33 2 C22.77 2 12.54 2 2 2 C2 12.89 2 23.78 2 35 C1.34 35 0.68 35 0 35 C0 23.45 0 11.9 0 0 Z " fill="#FFF4C4" transform="translate(45,77)"/>
<path d="M0 0 C5.28 0 10.56 0 16 0 C16.01458252 1.30146973 16.02916504 2.60293945 16.04418945 3.94384766 C16.10228934 8.78591992 16.17952191 13.62753285 16.26245117 18.46923828 C16.29564549 20.56226124 16.32369445 22.65537253 16.34643555 24.74853516 C16.38008231 27.76242612 16.43240393 30.77551163 16.48828125 33.7890625 C16.49467117 34.72054108 16.5010611 35.65201965 16.50764465 36.61172485 C16.6469877 42.80981438 17.43034174 47.43034174 22 52 C19.625 51.8125 19.625 51.8125 17 51 C14.16321393 46.30829976 14.74769374 40.96018676 14.8046875 35.66796875 C14.8075174 34.67622147 14.81034729 33.68447418 14.81326294 32.66267395 C14.82443196 29.50415841 14.84953073 26.34592943 14.875 23.1875 C14.88503403 21.04232181 14.89415914 18.89713917 14.90234375 16.75195312 C14.92436061 11.50119216 14.9588681 6.25064462 15 1 C10.38 1 5.76 1 1 1 C1.33 18.49 1.66 35.98 2 54 C-0.18971746 50.71542381 -0.24583902 49.7824019 -0.22705078 45.9777832 C-0.22689972 44.95695145 -0.22674866 43.93611969 -0.22659302 42.88435364 C-0.21110916 41.23423531 -0.21110916 41.23423531 -0.1953125 39.55078125 C-0.1924826 38.4230278 -0.18965271 37.29527435 -0.18673706 36.13334656 C-0.17552916 32.52629042 -0.15042323 28.91948127 -0.125 25.3125 C-0.114971 22.86914421 -0.10584501 20.42578453 -0.09765625 17.98242188 C-0.07558779 11.98818587 -0.04105356 5.99413483 0 0 Z " fill="#EAAB33" transform="translate(219,47)"/>
<path d="M0 0 C1.32 0 2.64 0 4 0 C6.13586678 3.20380017 6.23132175 4.01939967 6.125 7.6875 C6.10695313 8.49574219 6.08890625 9.30398437 6.0703125 10.13671875 C6.04710937 10.75160156 6.02390625 11.36648437 6 12 C0.49083726 14.56182285 -4.64942048 16.2448434 -10.6875 17.0625 C-18.54451522 18.1334915 -23.68440096 19.75138921 -29 26 C-30.23117311 29.54463211 -30.23117311 29.54463211 -30.8125 33.3125 C-31.04582031 34.56675781 -31.27914063 35.82101563 -31.51953125 37.11328125 C-31.67808594 38.06589844 -31.83664062 39.01851562 -32 40 C-32.33 40 -32.66 40 -33 40 C-33.62367661 29.29355149 -33.62367661 29.29355149 -31.3125 24.5 C-23.63180681 16.1965479 -14.34412689 14.73392697 -3.67675781 12.35742188 C-0.03844666 11.8020715 -0.03844666 11.8020715 3 10 C3.50610907 5.2045846 3.50610907 5.2045846 1.5 1.0625 C1.005 0.711875 0.51 0.36125 0 0 Z " fill="#2CACB1" transform="translate(513,59)"/>
<path d="M0 0 C0.33 0 0.66 0 1 0 C1.02684312 2.81256281 1.04676188 5.62487241 1.0625 8.4375 C1.07087891 9.23994141 1.07925781 10.04238281 1.08789062 10.86914062 C1.0965143 12.91295221 1.0522815 14.95683902 1 17 C0.67 17.33 0.34 17.66 0 18 C0.33 18.99 0.66 19.98 1 21 C1.66 21.33 2.32 21.66 3 22 C3.72159424 23.64363134 4.39351421 25.31050386 5 27 C4.34 27.33 3.68 27.66 3 28 C2.505 25.525 2.505 25.525 2 23 C1.278125 23.763125 0.55625 24.52625 -0.1875 25.3125 C-2.69790967 27.71133591 -4.96808302 29.35410221 -8 31 C-8 30.34 -8 29.68 -8 29 C-7.34 29 -6.68 29 -6 29 C-6 26.36 -6 23.72 -6 21 C-6.66 21.33 -7.32 21.66 -8 22 C-10.6723621 22.13415472 -13.32250488 22.04318541 -16 22 C-16 21.67 -16 21.34 -16 21 C-15.32453125 20.91363281 -14.6490625 20.82726562 -13.953125 20.73828125 C-8.11509424 19.88424967 -8.11509424 19.88424967 -3.4375 16.5 C-1.25929835 12.71182322 -0.7638713 10.25770034 -0.4375 5.875 C-0.35371094 4.77929688 -0.26992188 3.68359375 -0.18359375 2.5546875 C-0.12300781 1.71164063 -0.06242188 0.86859375 0 0 Z " fill="#11AAB1" transform="translate(518,80)"/>
<path d="M0 0 C1.65 0.33 3.3 0.66 5 1 C4.67 7.27 4.34 13.54 4 20 C2.35 20 0.7 20 -1 20 C-1.02696009 17.2291017 -1.04681952 14.4584655 -1.0625 11.6875 C-1.07087891 10.90181641 -1.07925781 10.11613281 -1.08789062 9.30664062 C-1.09111328 8.54931641 -1.09433594 7.79199219 -1.09765625 7.01171875 C-1.10289307 6.31522217 -1.10812988 5.61872559 -1.11352539 4.90112305 C-1 3 -1 3 0 0 Z " fill="#7F7F7F" transform="translate(830,90)"/>
<path d="M0 0 C0.33 0 0.66 0 1 0 C1.01458252 1.1645874 1.02916504 2.3291748 1.04418945 3.52905273 C1.10253312 7.88482063 1.17976148 12.24009091 1.26245117 16.59545898 C1.29553184 18.47395704 1.32361527 20.35255046 1.34643555 22.23120117 C1.38029386 24.94490889 1.43262215 27.65775576 1.48828125 30.37109375 C1.49467117 31.19959335 1.5010611 32.02809296 1.50764465 32.88169861 C1.6533097 38.76999771 2.92299355 43.48468952 5 49 C8.63 49.33 12.26 49.66 16 50 C16 49.34 16 48.68 16 48 C17.32 48.33 18.64 48.66 20 49 C16.13443238 51.99269751 12.91206064 52.57638192 8.15625 52.42578125 C4.63861402 51.73117559 3.0786369 49.79316834 1 47 C0.06487566 44.19462697 -0.12182907 42.51834636 -0.11352539 39.62036133 C-0.11344986 38.73967484 -0.11337433 37.85898834 -0.11329651 36.95161438 C-0.10813522 36.00465195 -0.10297394 35.05768951 -0.09765625 34.08203125 C-0.0962413 33.10965012 -0.09482635 32.13726898 -0.09336853 31.13542175 C-0.08776817 28.02774996 -0.07521562 24.92015004 -0.0625 21.8125 C-0.05748505 19.70638125 -0.05292213 17.60026137 -0.04882812 15.49414062 C-0.03779862 10.32939936 -0.02053375 5.16471187 0 0 Z " fill="#FEEBAD" transform="translate(235,47)"/>
<path d="M0 0 C1.14726562 -0.00515625 2.29453125 -0.0103125 3.4765625 -0.015625 C6.375 0.25 6.375 0.25 8.375 2.25 C8.640625 4.89453125 8.640625 4.89453125 8.625 8.0625 C8.63015625 9.10019531 8.6353125 10.13789062 8.640625 11.20703125 C8.37331735 14.2692763 7.66590101 16.47866092 6.375 19.25 C5.055 18.92 3.735 18.59 2.375 18.25 C3.035 17.92 3.695 17.59 4.375 17.25 C5.00352934 14.91752185 5.53035246 12.55708533 6 10.1875 C6.26039063 8.89714844 6.52078125 7.60679688 6.7890625 6.27734375 C6.98242188 5.27832031 7.17578125 4.27929688 7.375 3.25 C-1.67870885 3.04279886 -1.67870885 3.04279886 -10.625 4.25 C-10.625 3.59 -10.625 2.93 -10.625 2.25 C-7.0753584 0.04677418 -4.12851529 -0.0186389 0 0 Z " fill="#FDECBD" transform="translate(328.625,44.75)"/>
<path d="M0 0 C0.33 0 0.66 0 1 0 C1.02505615 1.11036621 1.0501123 2.22073242 1.07592773 3.36474609 C1.16994915 7.47603319 1.27018257 11.58714923 1.37231445 15.69824219 C1.4156833 17.47912603 1.45735694 19.26005198 1.49731445 21.04101562 C1.5549699 23.59778548 1.6186777 26.15434298 1.68359375 28.7109375 C1.70030624 29.50994476 1.71701874 30.30895203 1.73423767 31.13217163 C1.75392991 35.19806368 1.75392991 35.19806368 3 39 C6.02934491 39.65772428 6.02934491 39.65772428 9 40 C10.28317892 43.84953676 10.06643637 46.94738135 10 51 C9.01 51.495 9.01 51.495 8 52 C7.34 51.34 6.68 50.68 6 50 C6.99 50 7.98 50 9 50 C8.53045985 46.55892288 8.53045985 46.55892288 7 43 C3.535 41.515 3.535 41.515 0 40 C0 26.8 0 13.6 0 0 Z " fill="#26A9AC" transform="translate(532,59)"/>
<path d="M0 0 C-1.269553 0.64834654 -2.54069706 1.29357815 -3.8125 1.9375 C-4.52019531 2.29714844 -5.22789062 2.65679687 -5.95703125 3.02734375 C-8 4 -8 4 -11 5 C-12.15835673 7.97503122 -12.15835673 7.97503122 -13 11 C-13.33 11.33 -13.66 11.66 -14 12 C-14.23527773 14.34987262 -14.41386417 16.70556039 -14.5625 19.0625 C-14.64628906 20.35285156 -14.73007812 21.64320312 -14.81640625 22.97265625 C-14.87699219 23.97167969 -14.93757812 24.97070312 -15 26 C-17.74362012 23.25637988 -17.33130133 21.57800386 -17.375 17.75 C-17.28505472 12.31130879 -16.86811396 9.0772012 -13 5 C-5.63507606 -1.62843154 -5.63507606 -1.62843154 0 0 Z " fill="#23A9AC" transform="translate(644,48)"/>
<path d="M0 0 C1.65 0.33 3.3 0.66 5 1 C5.33 2.65 5.66 4.3 6 6 C5.34 6 4.68 6 4 6 C3.67 12.6 3.34 19.2 3 26 C2.67 26 2.34 26 2 26 C2 19.4 2 12.8 2 6 C-0.475 5.01 -0.475 5.01 -3 4 C-2.01 2.68 -1.02 1.36 0 0 Z " fill="#919191" transform="translate(841,84)"/>
<path d="M0 0 C0 0.33 0 0.66 0 1 C-4.29 1 -8.58 1 -13 1 C-13 1.66 -13 2.32 -13 3 C-13.99 3.0825 -14.98 3.165 -16 3.25 C-19.83684549 3.78029572 -22.82380661 5.2241508 -26.203125 7.0625 C-28 8 -28 8 -31 9 C-31.33 10.65 -31.66 12.3 -32 14 C-32.99 13.01 -33.98 12.02 -35 11 C-23.9402185 1.27831552 -14.3062636 -0.69504115 0 0 Z " fill="#2EACB1" transform="translate(516,46)"/>
<path d="M0 0 C0.66 0 1.32 0 2 0 C2.268125 0.78375 2.53625 1.5675 2.8125 2.375 C3.84814432 5.28114923 3.84814432 5.28114923 7 7 C7 7.66 7 8.32 7 9 C8.32 9 9.64 9 11 9 C11 9.66 11 10.32 11 11 C16.61 11 22.22 11 28 11 C22.38688615 13.80655692 16.7078725 14.13757282 10.64453125 12.27734375 C6.38900128 10.30526888 3.52660922 8.04257475 1 4 C0.25 1.6875 0.25 1.6875 0 0 Z " fill="#28A8AB" transform="translate(481,100)"/>
<path d="M0 0 C2.475 0.495 2.475 0.495 5 1 C5 2.32 5 3.64 5 5 C12.27235389 7.26858827 19.59684417 9.20645194 27 11 C27 11.66 27 12.32 27 13 C16.67074868 12.20544221 7.29375969 9.62529422 0 2 C0 1.34 0 0.68 0 0 Z " fill="#2DABAE" transform="translate(629,74)"/>
<path d="M0 0 C0.78375 0.04125 1.5675 0.0825 2.375 0.125 C-0.21244007 3.28742675 -2.67434204 4.20788297 -6.625 5.125 C-13.40655471 5.71825818 -18.59292984 5.34210408 -24.625 2.125 C-24.625 1.795 -24.625 1.465 -24.625 1.125 C-22.645 1.125 -20.665 1.125 -18.625 1.125 C-18.625 1.785 -18.625 2.445 -18.625 3.125 C-16.33274565 3.01128503 -14.04117612 2.88369036 -11.75 2.75 C-9.83574219 2.64558594 -9.83574219 2.64558594 -7.8828125 2.5390625 C-4.16286977 2.06626402 -3.57571796 0.17027228 0 0 Z " fill="#21A7AA" transform="translate(600.625,107.875)"/>
<path d="M0 0 C0.66 0 1.32 0 2 0 C3.83832664 3.10217621 4.47446226 5.39408679 4 9 C0.45233334 11.36511111 -0.8072782 11.18013277 -4.98046875 10.9765625 C-6.14384766 10.925 -7.30722656 10.8734375 -8.50585938 10.8203125 C-9.72080078 10.75585938 -10.93574219 10.69140625 -12.1875 10.625 C-13.41404297 10.56828125 -14.64058594 10.5115625 -15.90429688 10.453125 C-18.93677888 10.31153051 -21.96844806 10.16010492 -25 10 C-25 9.67 -25 9.34 -25 9 C-16.42 9 -7.84 9 1 9 C0.67 6.03 0.34 3.06 0 0 Z " fill="#EAA62B" transform="translate(383,63)"/>
<path d="M0 0 C2.9215566 1.08501539 5.30136831 2.40081085 8 4 C7.01 4.495 7.01 4.495 6 5 C5.401875 4.69707031 4.80375 4.39414062 4.1875 4.08203125 C1.62483828 2.81442893 -0.15410698 2.70051475 -3 2.6875 C-3.845625 2.67074219 -4.69125 2.65398438 -5.5625 2.63671875 C-8.51864927 3.07729869 -9.81656027 3.99067076 -12 6 C-12.66 6.99 -13.32 7.98 -14 9 C-14.25 6.1875 -14.25 6.1875 -14 3 C-9.85490894 -1.03204313 -5.46468307 -0.77484312 0 0 Z " fill="#D2F8F9" transform="translate(656,59)"/>
<path d="M0 0 C0.33 0 0.66 0 1 0 C1 3.63 1 7.26 1 11 C-1.64 11 -4.28 11 -7 11 C-6.21258141 9.53936857 -5.4199095 8.08156827 -4.625 6.625 C-4.18414063 5.81289062 -3.74328125 5.00078125 -3.2890625 4.1640625 C-2 2 -2 2 0 0 Z " fill="#EEEEEE" transform="translate(727,86)"/>
<path d="M0 0 C1.03125 0.165 2.0625 0.33 3.125 0.5 C11.6454174 1.56315369 20.55126 1.60928381 29 0 C28 2 28 2 24.8125 3.125 C18.6449009 4.56824074 12.29049122 4.15902927 6 4 C6 3.34 6 2.68 6 2 C3.03 1.505 3.03 1.505 0 1 C0 0.67 0 0.34 0 0 Z " fill="#FEF9D0" transform="translate(358,111)"/>
<path d="M0 0 C2.31 0 4.62 0 7 0 C7 2.31 7 4.62 7 7 C4.69 7 2.38 7 0 7 C0 4.69 0 2.38 0 0 Z " fill="#898989" transform="translate(743,103)"/>
<path d="M0 0 C1.80078125 1.52734375 1.80078125 1.52734375 3 3 C1.93072266 2.78730469 1.93072266 2.78730469 0.83984375 2.5703125 C-4.87097051 1.58764641 -4.87097051 1.58764641 -10.25390625 3.19921875 C-12.67227048 5.28436369 -14.56605829 7.13211658 -16 10 C-16.66 10 -17.32 10 -18 10 C-17.14653416 6.2447503 -16.31921746 4.30325659 -13.5 1.625 C-9.01365093 -0.45794778 -4.88261229 -0.93282266 0 0 Z " fill="#FEF3CA" transform="translate(377,59)"/>
<path d="M0 0 C0 0.66 0 1.32 0 2 C2.475 2.99 2.475 2.99 5 4 C4.67 2.35 4.34 0.7 4 -1 C7 -1 7 -1 10 0 C8.35 1.98 6.7 3.96 5 6 C4.484375 5.731875 3.96875 5.46375 3.4375 5.1875 C-2.61596163 2.23837767 -7.28991609 0.58860385 -14 0 C-14 -0.33 -14 -0.66 -14 -1 C-8.58264203 -1.93402724 -5.19548425 -2.20808081 0 0 Z " fill="#24A8AE" transform="translate(662,59)"/>
<path d="M0 0 C2 0 2 0 4.5625 2.375 C7 5 7 5 8 7 C4.125 6.125 4.125 6.125 3 5 C2.34 6.32 1.68 7.64 1 9 C-4.94 9 -10.88 9 -17 9 C-17 8.67 -17 8.34 -17 8 C-11.39 8 -5.78 8 0 8 C0 5.36 0 2.72 0 0 Z " fill="#D7FDFD" transform="translate(569,104)"/>
<path d="M0 0 C0.33 0 0.66 0 1 0 C2.30677037 4.90038887 2.31718286 9.96238984 2 15 C1.67 15.33 1.34 15.66 1 16 C0.63239269 18.32817964 0.29758419 20.6618385 0 23 C-0.66 23 -1.32 23 -2 23 C-2.33 23.99 -2.66 24.98 -3 26 C-3.33 25.34 -3.66 24.68 -4 24 C-3.54625 22.783125 -3.0925 21.56625 -2.625 20.3125 C-0.26903627 13.7502266 -0.26371354 6.90201989 0 0 Z " fill="#CDF8F9" transform="translate(615,75)"/>
<path d="M0 0 C0.33 0 0.66 0 1 0 C1 5.61 1 11.22 1 17 C-0.98 17.99 -0.98 17.99 -3 19 C-3.33 19.66 -3.66 20.32 -4 21 C-7.795878 22.5183512 -11.9877022 22.06687163 -16 22 C-16 21.67 -16 21.34 -16 21 C-15.32453125 20.91363281 -14.6490625 20.82726562 -13.953125 20.73828125 C-8.11509424 19.88424967 -8.11509424 19.88424967 -3.4375 16.5 C-1.25929835 12.71182322 -0.7638713 10.25770034 -0.4375 5.875 C-0.35371094 4.77929688 -0.26992188 3.68359375 -0.18359375 2.5546875 C-0.12300781 1.71164063 -0.06242188 0.86859375 0 0 Z " fill="#1EA6AB" transform="translate(518,80)"/>
<path d="M0 0 C7.99160701 -0.40331475 15.51297931 -0.49177926 22.078125 4.6171875 C25.20378504 7.57767038 27.2385093 9.66902166 28 14 C27.34 14 26.68 14 26 14 C25.5875 13.278125 25.175 12.55625 24.75 11.8125 C21.95275651 7.31693011 18.69137028 4.65052703 13.75 2.75 C9.18108566 1.83621713 4.6422445 1.35494022 0 1 C0 0.67 0 0.34 0 0 Z " fill="#28A9AD" transform="translate(583,46)"/>
<path d="M0 0 C0.33 0.66 0.66 1.32 1 2 C-0.65083123 4.4456759 -1.47145275 5.57581825 -4 7 C-8.36272089 7.44894828 -12.62919727 7.28797383 -17 7 C-17 6.34 -17 5.68 -17 5 C-16.10796875 4.89042969 -15.2159375 4.78085938 -14.296875 4.66796875 C-13.12640625 4.50941406 -11.9559375 4.35085937 -10.75 4.1875 C-9.58984375 4.03667969 -8.4296875 3.88585937 -7.234375 3.73046875 C-4.01605334 3.00362557 -2.41668345 2.18338975 0 0 Z " fill="#EEA728" transform="translate(385,94)"/>
<path d="M0 0 C0.66 0.33 1.32 0.66 2 1 C3.97515205 6.92545614 3.86904114 12.91120338 1.125 18.5625 C-0.64640884 21.82320442 -0.64640884 21.82320442 -3 23 C-2.38722388 20.03824877 -1.74627478 18.61941217 0 16 C0.14245897 13.23344676 0.18769445 10.57346694 0.125 7.8125 C0.11146484 6.68811523 0.11146484 6.68811523 0.09765625 5.54101562 C0.07412578 3.69387346 0.03825561 1.84689588 0 0 Z " fill="#30ACB1" transform="translate(674,83)"/>
<path d="M0 0 C0 0.66 0 1.32 0 2 C-0.78503906 2.10957031 -1.57007813 2.21914063 -2.37890625 2.33203125 C-8.38199715 3.2380192 -13.56153426 4.28076713 -19 7 C-18.67 5.68 -18.34 4.36 -18 3 C-17.34 3.33 -16.68 3.66 -16 4 C-16 3.34 -16 2.68 -16 2 C-10.42932723 0.40837921 -5.78898419 -0.20674944 0 0 Z " fill="#1CA6AB" transform="translate(512,57)"/>
<path d="M0 0 C0.33 0 0.66 0 1 0 C1 9.24 1 18.48 1 28 C1.99 28.33 2.98 28.66 4 29 C2.68 29.99 1.36 30.98 0 32 C0 21.44 0 10.88 0 0 Z " fill="#EAFFFF" transform="translate(570,22)"/>
<path d="M0 0 C0 0.66 0 1.32 0 2 C-5.57538935 5.71692624 -11.43551846 5.75668425 -18 5 C-18.66 4.34 -19.32 3.68 -20 3 C-19.11957031 2.95101562 -18.23914063 2.90203125 -17.33203125 2.8515625 C-16.17058594 2.77679688 -15.00914062 2.70203125 -13.8125 2.625 C-12.08966797 2.52058594 -12.08966797 2.52058594 -10.33203125 2.4140625 C-6.72534846 1.9658698 -3.53916528 0 0 0 Z " fill="#FEF7D1" transform="translate(253,110)"/>
<path d="M0 0 C1.75570313 0.02707031 1.75570313 0.02707031 3.546875 0.0546875 C4.88492187 0.08949219 4.88492187 0.08949219 6.25 0.125 C6.58 0.785 6.91 1.445 7.25 2.125 C-1.66 3.115 -1.66 3.115 -10.75 4.125 C-10.75 3.465 -10.75 2.805 -10.75 2.125 C-7.15537669 -0.13498595 -4.18404325 -0.08368087 0 0 Z " fill="#FEF9D5" transform="translate(328.75,44.875)"/>
<path d="M0 0 C0.85078125 0.48919922 0.85078125 0.48919922 1.71875 0.98828125 C4.20166401 2.08943661 5.80398946 2.23828102 8.5 2.1875 C9.2528125 2.18105469 10.005625 2.17460938 10.78125 2.16796875 C12.95990143 2.00303563 14.90204811 1.59600906 17 1 C17 1.66 17 2.32 17 3 C16.34 3 15.68 3 15 3 C15 3.66 15 4.32 15 5 C4.11971831 5.57042254 4.11971831 5.57042254 0 2 C0 1.34 0 0.68 0 0 Z " fill="#F1AC2C" transform="translate(112,96)"/>
<path d="M0 0 C0 0.66 0 1.32 0 2 C-1.175625 2.4640625 -1.175625 2.4640625 -2.375 2.9375 C-4.92330128 3.92875038 -4.92330128 3.92875038 -7 5 C-9.12890625 4.94921875 -9.12890625 4.94921875 -11.5625 4.6875 C-12.36816406 4.60886719 -13.17382812 4.53023438 -14.00390625 4.44921875 C-14.66261719 4.30097656 -15.32132813 4.15273437 -16 4 C-16.33 3.34 -16.66 2.68 -17 2 C-14.54187409 1.66507287 -12.08352273 1.3319903 -9.625 1 C-8.92632813 0.90460938 -8.22765625 0.80921875 -7.5078125 0.7109375 C-2.2265625 0 -2.2265625 0 0 0 Z " fill="#DDFDFD" transform="translate(600,111)"/>
<path d="M0 0 C0.66 0 1.32 0 2 0 C2.32712342 6.13053511 2.39366878 10.62669111 -1 16 C-1.66 16 -2.32 16 -3 16 C-2.690625 15.030625 -2.38125 14.06125 -2.0625 13.0625 C-0.82032903 8.76335509 -0.38315147 4.44657366 0 0 Z " fill="#DBFBFC" transform="translate(677,88)"/>
<path d="M0 0 C0.66 0 1.32 0 2 0 C2.28875 1.0725 2.5775 2.145 2.875 3.25 C3.72820109 6.09400364 4.5636503 8.43508983 6 11 C1.71675909 8.48592381 -0.64531705 6.87685861 -2 2 C-1.34 1.34 -0.68 0.68 0 0 Z M3 4 C5 5 5 5 5 5 Z " fill="#28ADB1" transform="translate(626,98)"/>
<path d="M0 0 C0 0.33 0 0.66 0 1 C-0.94101562 1.03738281 -1.88203125 1.07476562 -2.8515625 1.11328125 C-4.71941406 1.21189453 -4.71941406 1.21189453 -6.625 1.3125 C-8.46964844 1.39951172 -8.46964844 1.39951172 -10.3515625 1.48828125 C-14.04332272 1.80850526 -14.04332272 1.80850526 -17.2109375 3.60546875 C-20 5 -20 5 -22.375 4.6875 C-22.91125 4.460625 -23.4475 4.23375 -24 4 C-16.23702211 -0.71248522 -8.79851917 -0.41732107 0 0 Z " fill="#EFB13D" transform="translate(379,46)"/>
<path d="M0 0 C2.97 0 5.94 0 9 0 C9 0.33 9 0.66 9 1 C6.36 1 3.72 1 1 1 C1.33 3.31 1.66 5.62 2 8 C2.66 8 3.32 8 4 8 C4 8.99 4 9.98 4 11 C2.68 11 1.36 11 0 11 C0 7.37 0 3.74 0 0 Z " fill="#F7A60E" transform="translate(163,48)"/>
<path d="M0 0 C-0.598125 0.268125 -1.19625 0.53625 -1.8125 0.8125 C-4.01075113 2.00583633 -5.28161826 3.21001902 -7 5 C-9 6.75 -9 6.75 -11 8 C-11.99 7.67 -12.98 7.34 -14 7 C-13.34 7 -12.68 7 -12 7 C-11.7215625 6.13375 -11.7215625 6.13375 -11.4375 5.25 C-8.86173339 1.21836531 -4.75784978 -1.58594993 0 0 Z " fill="#24A9AD" transform="translate(583,48)"/>
<path d="M0 0 C6.75 1.875 6.75 1.875 9 3 C10.87056791 3.2275015 12.74685958 3.40962811 14.625 3.5625 C15.62789062 3.64628906 16.63078125 3.73007813 17.6640625 3.81640625 C18.43492188 3.87699219 19.20578125 3.93757813 20 4 C20 4.33 20 4.66 20 5 C12.11397658 5.4731614 6.79219135 5.17981006 0 1 C0 0.67 0 0.34 0 0 Z " fill="#EAB042" transform="translate(100,108)"/>
<path d="M0 0 C1.96115634 2.9417345 3.46229008 5.89097329 5 9.0625 C6.07403709 11.23163505 6.07403709 11.23163505 8 14 C4.59642372 12.54132445 2.21174394 11.00165249 0 8 C-0.33810273 5.24234962 -0.18635128 2.79526914 0 0 Z " fill="#FEF6CE" transform="translate(93,96)"/>
<path d="M0 0 C0 0.66 0 1.32 0 2 C-3.73965964 4.49310643 -5.29070641 4.0603261 -9.6875 3.625 C-10.86699219 3.51414062 -12.04648437 3.40328125 -13.26171875 3.2890625 C-14.16535156 3.19367188 -15.06898438 3.09828125 -16 3 C-16 2.67 -16 2.34 -16 2 C-13.70858188 1.66496236 -11.41685737 1.33201958 -9.125 1 C-7.21074219 0.7215625 -7.21074219 0.7215625 -5.2578125 0.4375 C-2 0 -2 0 0 0 Z " fill="#D6FAFA" transform="translate(511,111)"/>
<path d="M0 0 C1 2 1 2 0.25 4.4375 C-0.95715861 6.91217514 -1.74069825 8.43586802 -4 10 C-6.1875 9.6875 -6.1875 9.6875 -8 9 C-6.625 7.5 -6.625 7.5 -5 6 C-4.34 6 -3.68 6 -3 6 C-2.690625 5.195625 -2.38125 4.39125 -2.0625 3.5625 C-1 1 -1 1 0 0 Z " fill="#FEEFC6" transform="translate(399,99)"/>
<path d="M0 0 C-3.1622274 1.73169596 -6.26742722 2.7128976 -9.75 3.625 C-10.73484375 3.88539062 -11.7196875 4.14578125 -12.734375 4.4140625 C-13.85585938 4.70410156 -13.85585938 4.70410156 -15 5 C-15 4.01 -15 3.02 -15 2 C-9.87080814 -0.10428384 -5.4389165 -0.21755666 0 0 Z " fill="#29AAB0" transform="translate(514,81)"/>
<path d="M0 0 C0.66 0 1.32 0 2 0 C3.83832664 3.10217621 4.47446226 5.39408679 4 9 C3.01 9.66 2.02 10.32 1 11 C0.67 7.37 0.34 3.74 0 0 Z " fill="#F5B12F" transform="translate(383,63)"/>
<path d="M0 0 C-1.44077046 3.36179774 -3.24750021 5.59156268 -6 8 C-6.66 8 -7.32 8 -8 8 C-6.65580512 3.85539913 -4.87800266 0 0 0 Z " fill="#DDFCFC" transform="translate(579,61)"/>
<path d="M0 0 C1.41750563 0.11509661 2.83401169 0.24253658 4.25 0.375 C5.03890625 0.44460937 5.8278125 0.51421875 6.640625 0.5859375 C9.085877 1.01507113 10.84836903 1.78600638 13 3 C12.22914063 2.98839844 11.45828125 2.97679688 10.6640625 2.96484375 C9.66117188 2.95582031 8.65828125 2.94679688 7.625 2.9375 C6.12839844 2.92009766 6.12839844 2.92009766 4.6015625 2.90234375 C2.01567547 2.81993398 2.01567547 2.81993398 0 4 C0 2.68 0 1.36 0 0 Z " fill="#19A6AB" transform="translate(649,72)"/>
<path d="M0 0 C0.33 0.66 0.66 1.32 1 2 C-0.65 3.65 -2.3 5.3 -4 7 C-6 6 -6 6 -7 4 C-6.030625 3.525625 -5.06125 3.05125 -4.0625 2.5625 C-1.19522563 1.29806053 -1.19522563 1.29806053 0 0 Z " fill="#F3B22F" transform="translate(385,94)"/>
<path d="M0 0 C5.75 4.75 5.75 4.75 8 7 C4.97580475 6.41196203 1.98241547 5.77321882 -1 5 C-0.67 3.35 -0.34 1.7 0 0 Z " fill="#22ACB0" transform="translate(571,92)"/>
<path d="M0 0 C1.2065625 0.0309375 1.2065625 0.0309375 2.4375 0.0625 C2.7675 1.0525 3.0975 2.0425 3.4375 3.0625 C1.7875 2.7325 0.1375 2.4025 -1.5625 2.0625 C-1.8925 3.0525 -2.2225 4.0425 -2.5625 5.0625 C-3.125 3.125 -3.125 3.125 -3.5625 1.0625 C-2.5625 0.0625 -2.5625 0.0625 0 0 Z " fill="#FEF7D7" transform="translate(388.5625,88.9375)"/>
<path d="M0 0 C0.33 0 0.66 0 1 0 C1 1.65 1 3.3 1 5 C1.99 5.33 2.98 5.66 4 6 C3.34 7.32 2.68 8.64 2 10 C1.34 10 0.68 10 0 10 C0 6.7 0 3.4 0 0 Z " fill="#FEECAA" transform="translate(311,47)"/>
<path d="M0 0 C2.31 0.33 4.62 0.66 7 1 C7.33 1.99 7.66 2.98 8 4 C5.125 3.6875 5.125 3.6875 2 3 C1.34 2.01 0.68 1.02 0 0 Z " fill="#1AA7AC" transform="translate(659,47)"/>
<path d="M0 0 C0.33 0 0.66 0 1 0 C1.33 1.98 1.66 3.96 2 6 C1.34 6 0.68 6 0 6 C0 6.66 0 7.32 0 8 C-1.32 7.67 -2.64 7.34 -4 7 C-3.525625 6.401875 -3.05125 5.80375 -2.5625 5.1875 C-0.83534256 2.99617076 -0.83534256 2.99617076 0 0 Z " fill="#F2B12E" transform="translate(133,89)"/>
<path d="M0 0 C0.66 0.33 1.32 0.66 2 1 C1.01 1.33 0.02 1.66 -1 2 C-1.165 2.66 -1.33 3.32 -1.5 4 C-1.665 4.66 -1.83 5.32 -2 6 C-2.99 6.33 -3.98 6.66 -5 7 C-4.60196439 4.11424181 -4.20990931 3.17810487 -1.9375 1.25 C-1.298125 0.8375 -0.65875 0.425 0 0 Z " fill="#FEF1C0" transform="translate(319,63)"/>
<path d="M0 0 C2.475 0.495 2.475 0.495 5 1 C5 2.65 5 4.3 5 6 C3.2925002 4.71937515 1.62626404 3.38232443 0 2 C0 1.34 0 0.68 0 0 Z " fill="#1CA9AF" transform="translate(629,74)"/>
<path d="M0 0 C0.66 0.33 1.32 0.66 2 1 C0.35 2.98 -1.3 4.96 -3 7 C-3.99 6.67 -4.98 6.34 -6 6 C-4.02 4.02 -2.04 2.04 0 0 Z " fill="#EDAA23" transform="translate(353,51)"/>
</svg>
