<svg xmlns="http://www.w3.org/2000/svg" xmlns:xlink="http://www.w3.org/1999/xlink" width="500" zoomAndPan="magnify" viewBox="0 0 375 374.999991" height="500" preserveAspectRatio="xMidYMid meet" version="1.0"><defs><clipPath id="3afd295260"><path d="M 7 7.433594 L 366 7.433594 L 366 350 L 7 350 Z M 7 7.433594 " clip-rule="nonzero"/></clipPath></defs><g clip-path="url(#3afd295260)"><path fill="#5cc3b2" d="M 251.722656 7.480469 C 245.445312 7.480469 239.167969 9.859375 234.425781 14.601562 C 226.605469 22.421875 225.351562 34.363281 230.425781 43.648438 L 24.261719 249.816406 C 1.394531 272.679688 1.394531 309.878906 24.261719 332.746094 C 35.691406 344.175781 50.714844 349.882812 65.734375 349.882812 C 80.753906 349.882812 95.757812 344.1875 107.1875 332.746094 L 313.339844 126.59375 C 317.007812 128.617188 321.046875 129.746094 325.109375 129.746094 C 331.355469 129.746094 337.664062 127.324219 342.40625 122.582031 C 351.890625 113.097656 351.890625 97.472656 342.40625 87.988281 L 269.015625 14.601562 C 264.273438 9.859375 258 7.480469 251.722656 7.480469 Z M 251.722656 23.695312 C 253.789062 23.695312 255.859375 24.503906 257.488281 26.132812 L 330.875 99.519531 C 334.128906 102.773438 334.128906 107.796875 330.875 111.050781 C 329.238281 112.683594 327.214844 113.4375 325.109375 113.4375 C 323.003906 113.4375 320.980469 112.683594 319.34375 111.050781 L 284.289062 75.996094 L 272.761719 87.527344 L 301.0625 115.828125 L 270.816406 146.054688 L 151.082031 146.054688 L 241.179688 55.945312 L 249.683594 64.449219 L 261.230469 52.917969 L 246.941406 38.648438 L 245.957031 37.660156 C 242.703125 34.410156 242.703125 29.382812 245.957031 26.132812 C 247.582031 24.503906 249.652344 23.695312 251.722656 23.695312 Z M 325.109375 195.109375 C 322.828125 195.109375 320.546875 195.984375 318.992188 197.738281 C 315.445312 201.757812 284.339844 237.703125 284.339844 261.839844 C 284.339844 284.324219 302.628906 302.613281 325.109375 302.613281 C 347.589844 302.613281 365.882812 284.324219 365.882812 261.839844 C 365.882812 237.703125 334.773438 201.757812 331.226562 197.738281 C 329.671875 195.984375 327.390625 195.109375 325.109375 195.109375 Z M 325.109375 195.109375 " fill-opacity="1" fill-rule="nonzero"/></g></svg>